<svg width="328" height="224" viewBox="0 0 328 224" fill="none" xmlns="http://www.w3.org/2000/svg">
<rect x="0.63" y="0.63" width="326.74" height="222.647" rx="8.37" fill="white"/>
<rect x="0.63" y="0.63" width="326.74" height="222.647" rx="8.37" stroke="black" stroke-width="1.26"/>
<line x1="299.673" y1="89.4547" x2="299.673" y2="115.207" stroke="#787878" stroke-width="1.89752"/>
<line x1="299.673" y1="142.043" x2="299.673" y2="193.276" stroke="#787878" stroke-width="1.89752"/>
<line x1="126.457" y1="179.587" x2="126.457" y2="202.628" stroke="black" stroke-width="1.89752" stroke-linecap="round"/>
<line x1="136.214" y1="185.822" x2="136.214" y2="196.393" stroke="black" stroke-width="1.89752" stroke-linecap="round"/>
<path d="M126.733 167.223V159.337H131.492V160.184H127.688V162.849H131.246V163.696H127.688V166.376H131.554V167.223H126.733Z" fill="black"/>
<path d="M117.535 183.762V178.679H118.398V183.762H117.535ZM115.425 181.652V180.789H120.508V181.652H115.425Z" fill="black"/>
<path d="M143.281 180.497V181.344H139.831V180.497H143.281Z" fill="black"/>
<path d="M304.829 113.551V105.665H305.784V109.577H305.877L309.419 105.665H310.667L307.355 109.223L310.667 113.551H309.512L306.77 109.885L305.784 110.994V113.551H304.829Z" fill="black"/>
<path d="M295.757 120.086C295.757 120.086 292.516 125.213 292.775 129.709C293.01 133.799 295.757 138.926 295.757 138.926" stroke="black" stroke-width="1.89752" stroke-linecap="round" stroke-linejoin="round"/>
<path d="M303.89 120.086C303.89 120.086 307.265 125.077 307.007 129.574C306.772 133.663 303.89 138.926 303.89 138.926" stroke="black" stroke-width="1.89752" stroke-linecap="round" stroke-linejoin="round"/>
<path d="M37.8216 129.544V121.658H40.4862C41.1022 121.658 41.6079 121.763 42.0033 121.974C42.3986 122.182 42.6912 122.468 42.8812 122.832C43.0711 123.197 43.1661 123.612 43.1661 124.076C43.1661 124.541 43.0711 124.953 42.8812 125.312C42.6912 125.672 42.3999 125.954 42.0071 126.159C41.6144 126.362 41.1125 126.463 40.5016 126.463H38.3453V125.601H40.4708C40.8917 125.601 41.2306 125.539 41.4873 125.416C41.7466 125.293 41.9339 125.118 42.0495 124.892C42.1675 124.664 42.2266 124.392 42.2266 124.076C42.2266 123.76 42.1675 123.484 42.0495 123.248C41.9314 123.012 41.7427 122.83 41.4834 122.702C41.2242 122.571 40.8815 122.505 40.4554 122.505H38.7765V129.544H37.8216ZM41.5335 126.001L43.4741 129.544H42.3652L40.4554 126.001H41.5335Z" fill="black"/>
<rect x="26.1592" y="115.884" width="28.1917" height="20.3306" stroke="black" stroke-width="1.89752"/>
<path d="M193.929 87.2562C193.844 86.997 193.732 86.7647 193.594 86.5593C193.458 86.3514 193.295 86.1743 193.105 86.0279C192.917 85.8816 192.704 85.77 192.465 85.6929C192.227 85.6159 191.965 85.5774 191.68 85.5774C191.213 85.5774 190.788 85.6981 190.405 85.9394C190.023 86.1807 189.719 86.5362 189.493 87.006C189.267 87.4757 189.154 88.052 189.154 88.7348C189.154 89.4177 189.268 89.9939 189.497 90.4637C189.725 90.9335 190.034 91.289 190.425 91.5303C190.815 91.7716 191.254 91.8922 191.742 91.8922C192.193 91.8922 192.591 91.796 192.935 91.6034C193.282 91.4084 193.551 91.1337 193.744 90.7794C193.939 90.4226 194.036 90.0029 194.036 89.5203L194.329 89.5819H191.957V88.7348H194.961V89.5819C194.961 90.2314 194.822 90.7961 194.545 91.2762C194.27 91.7562 193.89 92.1284 193.405 92.3928C192.922 92.6546 192.368 92.7855 191.742 92.7855C191.043 92.7855 190.43 92.6213 189.901 92.2927C189.375 91.9641 188.964 91.4969 188.669 90.8911C188.376 90.2853 188.23 89.5665 188.23 88.7348C188.23 88.1111 188.313 87.5502 188.48 87.0522C188.65 86.5516 188.888 86.1255 189.196 85.7738C189.504 85.4221 189.869 85.1526 190.29 84.9652C190.711 84.7778 191.174 84.6841 191.68 84.6841C192.096 84.6841 192.483 84.747 192.843 84.8728C193.205 84.996 193.527 85.1718 193.809 85.4003C194.094 85.6262 194.332 85.897 194.522 86.2128C194.712 86.5259 194.842 86.8738 194.914 87.2562H193.929Z" fill="black"/>
<circle cx="191.65" cy="89.1835" r="9.89421" stroke="black" stroke-width="1.89752"/>
<line x1="125.508" y1="192.327" x2="39.3062" y2="192.327" stroke="#787878" stroke-width="1.89752"/>
<line x1="300.079" y1="192.327" x2="137.163" y2="192.327" stroke="#787878" stroke-width="1.89752"/>
<line x1="180.807" y1="90.1324" x2="39.3058" y2="90.1324" stroke="#787878" stroke-width="1.89752"/>
<g filter="url(#filter0_d_2002_29390)">
<path d="M259.689 27.243L101.5 27.2429" stroke="#787878" stroke-width="1.89752"/>
</g>
<line x1="300.621" y1="90.1324" x2="202.492" y2="90.1324" stroke="#787878" stroke-width="1.89752"/>
<line x1="40.2544" y1="137.164" x2="40.2544" y2="191.379" stroke="#787878" stroke-width="1.89752"/>
<line x1="40.2544" y1="89.1836" x2="40.2544" y2="114.936" stroke="#787878" stroke-width="1.89752"/>
<g filter="url(#filter1_d_2002_29390)">
<path d="M102.602 26.5L102.601 89.4546" stroke="#787878" stroke-width="1.89752"/>
</g>
<g filter="url(#filter2_d_2002_29390)">
<line x1="260.638" y1="26.2893" x2="260.959" y2="88.9951" stroke="#787878" stroke-width="1.89752"/>
</g>
<line x1="260.638" y1="67.7687" x2="260.638" y2="89.4546" stroke="#787878" stroke-width="1.89752"/>
<path d="M312.988 113.824V117.767H312.51V114.325H312.487L311.525 114.964V114.479L312.51 113.824H312.988Z" fill="black"/>
<g filter="url(#filter3_d_2002_29390)">
<rect x="167.949" y="15.9488" width="28.1917" height="20.3306" fill="white" stroke="black" stroke-width="1.89752"/>
<path d="M183.924 23.6938C183.878 23.3036 183.691 23.0007 183.362 22.7851C183.033 22.5695 182.63 22.4616 182.153 22.4616C181.804 22.4616 181.498 22.5181 181.237 22.6311C180.977 22.744 180.775 22.8993 180.628 23.097C180.484 23.2946 180.413 23.5192 180.413 23.7708C180.413 23.9813 180.463 24.1623 180.563 24.3137C180.665 24.4626 180.796 24.5871 180.955 24.6872C181.115 24.7848 181.281 24.8656 181.456 24.9298C181.631 24.9914 181.791 25.0415 181.937 25.08L182.738 25.2956C182.944 25.3495 183.172 25.424 183.424 25.5189C183.678 25.6139 183.92 25.7435 184.151 25.9078C184.385 26.0696 184.578 26.2775 184.729 26.5316C184.88 26.7857 184.956 27.0976 184.956 27.4673C184.956 27.8934 184.844 28.2785 184.621 28.6224C184.4 28.9664 184.077 29.2398 183.651 29.4426C183.227 29.6454 182.713 29.7468 182.107 29.7468C181.542 29.7468 181.053 29.6556 180.64 29.4734C180.229 29.2911 179.906 29.037 179.669 28.711C179.436 28.385 179.304 28.0064 179.273 27.5751H180.259C180.284 27.8729 180.384 28.1193 180.559 28.3144C180.736 28.5069 180.959 28.6507 181.229 28.7456C181.501 28.8381 181.794 28.8843 182.107 28.8843C182.471 28.8843 182.799 28.8252 183.089 28.7071C183.379 28.5865 183.608 28.4196 183.778 28.2066C183.947 27.9909 184.032 27.7394 184.032 27.4519C184.032 27.19 183.959 26.977 183.813 26.8127C183.666 26.6484 183.474 26.5149 183.235 26.4122C182.996 26.3096 182.738 26.2197 182.461 26.1427L181.491 25.8655C180.875 25.6884 180.387 25.4355 180.028 25.1069C179.668 24.7784 179.488 24.3484 179.488 23.817C179.488 23.3755 179.608 22.9904 179.847 22.6619C180.088 22.3307 180.411 22.074 180.817 21.8918C181.225 21.707 181.681 21.6145 182.184 21.6145C182.692 21.6145 183.144 21.7057 183.539 21.8879C183.934 22.0676 184.248 22.314 184.479 22.6272C184.712 22.9404 184.835 23.2959 184.848 23.6938H183.924Z" fill="black"/>
</g>
<circle cx="300" cy="129" r="2" fill="black"/>
<defs>
<filter id="filter0_d_2002_29390" x="97.5" y="22.2942" width="166.189" height="9.89758" filterUnits="userSpaceOnUse" color-interpolation-filters="sRGB">
<feFlood flood-opacity="0" result="BackgroundImageFix"/>
<feColorMatrix in="SourceAlpha" type="matrix" values="0 0 0 0 0 0 0 0 0 0 0 0 0 0 0 0 0 0 127 0" result="hardAlpha"/>
<feOffset/>
<feGaussianBlur stdDeviation="2"/>
<feComposite in2="hardAlpha" operator="out"/>
<feColorMatrix type="matrix" values="0 0 0 0 0.0995558 0 0 0 0 0.587854 0 0 0 0 0.862522 0 0 0 1 0"/>
<feBlend mode="normal" in2="BackgroundImageFix" result="effect1_dropShadow_2002_29390"/>
<feBlend mode="normal" in="SourceGraphic" in2="effect1_dropShadow_2002_29390" result="shape"/>
</filter>
<filter id="filter1_d_2002_29390" x="97.6528" y="22.5" width="9.89746" height="70.9546" filterUnits="userSpaceOnUse" color-interpolation-filters="sRGB">
<feFlood flood-opacity="0" result="BackgroundImageFix"/>
<feColorMatrix in="SourceAlpha" type="matrix" values="0 0 0 0 0 0 0 0 0 0 0 0 0 0 0 0 0 0 127 0" result="hardAlpha"/>
<feOffset/>
<feGaussianBlur stdDeviation="2"/>
<feComposite in2="hardAlpha" operator="out"/>
<feColorMatrix type="matrix" values="0 0 0 0 0.0995558 0 0 0 0 0.587854 0 0 0 0 0.862522 0 0 0 1 0"/>
<feBlend mode="normal" in2="BackgroundImageFix" result="effect1_dropShadow_2002_29390"/>
<feBlend mode="normal" in="SourceGraphic" in2="effect1_dropShadow_2002_29390" result="shape"/>
</filter>
<filter id="filter2_d_2002_29390" x="255.689" y="22.2844" width="10.2188" height="70.7156" filterUnits="userSpaceOnUse" color-interpolation-filters="sRGB">
<feFlood flood-opacity="0" result="BackgroundImageFix"/>
<feColorMatrix in="SourceAlpha" type="matrix" values="0 0 0 0 0 0 0 0 0 0 0 0 0 0 0 0 0 0 127 0" result="hardAlpha"/>
<feOffset/>
<feGaussianBlur stdDeviation="2"/>
<feComposite in2="hardAlpha" operator="out"/>
<feColorMatrix type="matrix" values="0 0 0 0 0.0995558 0 0 0 0 0.587854 0 0 0 0 0.862522 0 0 0 1 0"/>
<feBlend mode="normal" in2="BackgroundImageFix" result="effect1_dropShadow_2002_29390"/>
<feBlend mode="normal" in="SourceGraphic" in2="effect1_dropShadow_2002_29390" result="shape"/>
</filter>
<filter id="filter3_d_2002_29390" x="163" y="11" width="38.0894" height="30.2281" filterUnits="userSpaceOnUse" color-interpolation-filters="sRGB">
<feFlood flood-opacity="0" result="BackgroundImageFix"/>
<feColorMatrix in="SourceAlpha" type="matrix" values="0 0 0 0 0 0 0 0 0 0 0 0 0 0 0 0 0 0 127 0" result="hardAlpha"/>
<feOffset/>
<feGaussianBlur stdDeviation="2"/>
<feComposite in2="hardAlpha" operator="out"/>
<feColorMatrix type="matrix" values="0 0 0 0 0.0995558 0 0 0 0 0.587854 0 0 0 0 0.862522 0 0 0 1 0"/>
<feBlend mode="normal" in2="BackgroundImageFix" result="effect1_dropShadow_2002_29390"/>
<feBlend mode="normal" in="SourceGraphic" in2="effect1_dropShadow_2002_29390" result="shape"/>
</filter>
</defs>
</svg>
