<svg width="328" height="225" viewBox="0 0 328 225" fill="none" xmlns="http://www.w3.org/2000/svg">
<rect x="0.63" y="0.863887" width="326.74" height="222.647" rx="8.37" fill="white"/>
<rect x="0.63" y="0.863887" width="326.74" height="222.647" rx="8.37" stroke="black" stroke-width="1.26"/>
<line x1="299.673" y1="89.6885" x2="299.673" y2="115.441" stroke="#787878" stroke-width="1.89752"/>
<line x1="299.673" y1="142.277" x2="299.673" y2="193.51" stroke="#787878" stroke-width="1.89752"/>
<line x1="126.457" y1="179.821" x2="126.457" y2="202.862" stroke="black" stroke-width="1.89752" stroke-linecap="round"/>
<line x1="136.215" y1="186.055" x2="136.215" y2="196.627" stroke="black" stroke-width="1.89752" stroke-linecap="round"/>
<path d="M126.734 167.457V159.571H131.493V160.418H127.689V163.083H131.247V163.93H127.689V166.61H131.555V167.457H126.734Z" fill="black"/>
<path d="M117.536 183.996V178.913H118.398V183.996H117.536ZM115.425 181.886V181.023H120.508V181.886H115.425Z" fill="black"/>
<path d="M143.281 180.731V181.578H139.831V180.731H143.281Z" fill="black"/>
<path d="M304.829 113.784V105.899H305.784V109.811H305.877L309.419 105.899H310.667L307.355 109.456L310.667 113.784H309.512L306.77 110.119L305.784 111.228V113.784H304.829Z" fill="black"/>
<path d="M295.757 120.32C295.757 120.32 292.517 125.447 292.775 129.943C293.011 134.033 295.757 139.16 295.757 139.16" stroke="black" stroke-width="1.89752" stroke-linecap="round" stroke-linejoin="round"/>
<path d="M303.889 120.32C303.889 120.32 307.265 125.311 307.006 129.808C306.771 133.897 303.889 139.16 303.889 139.16" stroke="black" stroke-width="1.89752" stroke-linecap="round" stroke-linejoin="round"/>
<path d="M37.8216 129.778V121.892H40.4862C41.1022 121.892 41.6079 121.997 42.0033 122.208C42.3986 122.415 42.6912 122.702 42.8812 123.066C43.0711 123.431 43.1661 123.845 43.1661 124.31C43.1661 124.775 43.0711 125.187 42.8812 125.546C42.6912 125.905 42.3999 126.188 42.0071 126.393C41.6144 126.596 41.1125 126.697 40.5016 126.697H38.3453V125.835H40.4708C40.8917 125.835 41.2306 125.773 41.4873 125.65C41.7466 125.527 41.9339 125.352 42.0495 125.126C42.1675 124.898 42.2266 124.626 42.2266 124.31C42.2266 123.994 42.1675 123.718 42.0495 123.482C41.9314 123.246 41.7427 123.064 41.4834 122.935C41.2242 122.804 40.8815 122.739 40.4554 122.739H38.7765V129.778H37.8216ZM41.5335 126.235L43.4741 129.778H42.3652L40.4554 126.235H41.5335Z" fill="black"/>
<rect x="26.1587" y="116.118" width="28.1917" height="20.3306" stroke="black" stroke-width="1.89752"/>
<path d="M193.929 87.49C193.844 87.2307 193.733 86.9984 193.594 86.7931C193.458 86.5851 193.295 86.408 193.105 86.2617C192.918 86.1154 192.705 86.0037 192.466 85.9267C192.227 85.8497 191.965 85.8112 191.68 85.8112C191.213 85.8112 190.788 85.9318 190.406 86.1731C190.023 86.4144 189.719 86.77 189.493 87.2397C189.267 87.7095 189.154 88.2858 189.154 88.9686C189.154 89.6514 189.269 90.2277 189.497 90.6975C189.726 91.1672 190.035 91.5228 190.425 91.7641C190.815 92.0054 191.254 92.126 191.742 92.126C192.194 92.126 192.592 92.0297 192.936 91.8372C193.282 91.6421 193.552 91.3675 193.744 91.0132C193.939 90.6564 194.037 90.2367 194.037 89.7541L194.33 89.8157H191.958V88.9686H194.961V89.8157C194.961 90.4652 194.822 91.0299 194.545 91.5099C194.271 91.9899 193.891 92.3622 193.405 92.6266C192.923 92.8884 192.368 93.0193 191.742 93.0193C191.044 93.0193 190.43 92.855 189.901 92.5265C189.375 92.1979 188.965 91.7307 188.669 91.1249C188.377 90.5191 188.23 89.8003 188.23 88.9686C188.23 88.3448 188.314 87.7839 188.481 87.2859C188.65 86.7854 188.889 86.3593 189.197 86.0076C189.505 85.6559 189.869 85.3864 190.29 85.199C190.711 85.0116 191.175 84.9179 191.68 84.9179C192.096 84.9179 192.484 84.9808 192.843 85.1066C193.205 85.2298 193.527 85.4056 193.81 85.6341C194.095 85.86 194.332 86.1308 194.522 86.4465C194.712 86.7597 194.843 87.1075 194.915 87.49H193.929Z" fill="black"/>
<circle cx="191.65" cy="89.4173" r="9.89421" stroke="black" stroke-width="1.89752"/>
<line x1="125.508" y1="192.561" x2="39.3062" y2="192.561" stroke="#787878" stroke-width="1.89752"/>
<line x1="300.079" y1="192.561" x2="137.163" y2="192.561" stroke="#787878" stroke-width="1.89752"/>
<line x1="180.807" y1="90.3662" x2="39.3058" y2="90.3662" stroke="#787878" stroke-width="1.89752"/>
<line x1="300.622" y1="90.3662" x2="202.493" y2="90.3662" stroke="#787878" stroke-width="1.89752"/>
<line x1="40.2549" y1="137.398" x2="40.2549" y2="191.612" stroke="#787878" stroke-width="1.89752"/>
<line x1="40.2549" y1="89.4175" x2="40.2549" y2="115.17" stroke="#787878" stroke-width="1.89752"/>
<path d="M312.988 114.058V118.001H312.51V114.559H312.487L311.525 115.198V114.713L312.51 114.058H312.988Z" fill="black"/>
<circle cx="300" cy="129" r="2" fill="black"/>
</svg>
