<svg width="328" height="224" viewBox="0 0 328 224" fill="none" xmlns="http://www.w3.org/2000/svg">
<rect x="0.63" y="0.63" width="326.74" height="222.647" rx="8.37" fill="white"/>
<rect x="0.63" y="0.63" width="326.74" height="222.647" rx="8.37" stroke="black" stroke-width="1.26"/>
<line x1="126.457" y1="179.587" x2="126.457" y2="202.628" stroke="black" stroke-width="1.89752" stroke-linecap="round"/>
<line x1="136.215" y1="185.822" x2="136.215" y2="196.393" stroke="black" stroke-width="1.89752" stroke-linecap="round"/>
<path d="M126.733 167.223V159.337H131.492V160.184H127.688V162.849H131.246V163.696H127.688V166.376H131.554V167.223H126.733Z" fill="black"/>
<path d="M117.536 183.762V178.679H118.398V183.762H117.536ZM115.425 181.652V180.789H120.508V181.652H115.425Z" fill="black"/>
<path d="M143.282 180.497V181.344H139.832V180.497H143.282Z" fill="black"/>
<g filter="url(#filter0_d_2002_29308)">
<path d="M304.829 113.55V105.664H305.784V109.577H305.877L309.419 105.664H310.667L307.355 109.222L310.667 113.55H309.512L306.77 109.885L305.784 110.994V113.55H304.829Z" fill="black"/>
<path d="M295.757 120.086C295.757 120.086 292.517 125.213 292.775 129.709C293.011 133.799 295.757 138.926 295.757 138.926" stroke="black" stroke-width="1.89752" stroke-linecap="round" stroke-linejoin="round"/>
<path d="M303.89 120.086C303.89 120.086 307.265 125.077 307.007 129.574C306.772 133.663 303.89 138.926 303.89 138.926" stroke="black" stroke-width="1.89752" stroke-linecap="round" stroke-linejoin="round"/>
</g>
<path d="M37.8211 129.544V121.658H40.4857C41.1017 121.658 41.6074 121.763 42.0028 121.974C42.3981 122.182 42.6907 122.468 42.8807 122.832C43.0706 123.197 43.1656 123.611 43.1656 124.076C43.1656 124.541 43.0706 124.953 42.8807 125.312C42.6907 125.671 42.3994 125.954 42.0066 126.159C41.6139 126.362 41.112 126.463 40.5011 126.463H38.3448V125.601H40.4703C40.8913 125.601 41.2301 125.539 41.4868 125.416C41.7461 125.293 41.9335 125.118 42.049 124.892C42.167 124.664 42.2261 124.392 42.2261 124.076C42.2261 123.76 42.167 123.484 42.049 123.248C41.9309 123.012 41.7422 122.83 41.4829 122.701C41.2237 122.57 40.881 122.505 40.4549 122.505H38.7761V129.544H37.8211ZM41.533 126.001L43.4736 129.544H42.3647L40.4549 126.001H41.533Z" fill="black"/>
<rect x="26.1587" y="115.884" width="28.1917" height="20.3306" stroke="black" stroke-width="1.89752"/>
<path d="M193.93 87.2562C193.845 86.997 193.733 86.7647 193.595 86.5593C193.459 86.3514 193.296 86.1743 193.106 86.0279C192.918 85.8816 192.705 85.77 192.466 85.6929C192.228 85.6159 191.966 85.5774 191.681 85.5774C191.214 85.5774 190.789 85.6981 190.406 85.9394C190.024 86.1807 189.72 86.5362 189.494 87.006C189.268 87.4757 189.155 88.052 189.155 88.7348C189.155 89.4177 189.269 89.9939 189.498 90.4637C189.726 90.9335 190.035 91.289 190.426 91.5303C190.816 91.7716 191.255 91.8922 191.743 91.8922C192.194 91.8922 192.592 91.796 192.936 91.6034C193.283 91.4084 193.552 91.1337 193.745 90.7794C193.94 90.4226 194.037 90.0029 194.037 89.5203L194.33 89.5819H191.958V88.7348H194.962V89.5819C194.962 90.2314 194.823 90.7961 194.546 91.2762C194.271 91.7562 193.891 92.1284 193.406 92.3928C192.923 92.6546 192.369 92.7855 191.743 92.7855C191.044 92.7855 190.431 92.6213 189.902 92.2927C189.376 91.9641 188.965 91.4969 188.67 90.8911C188.377 90.2853 188.231 89.5665 188.231 88.7348C188.231 88.1111 188.314 87.5502 188.481 87.0522C188.651 86.5516 188.889 86.1255 189.197 85.7738C189.505 85.4221 189.87 85.1526 190.291 84.9652C190.712 84.7778 191.175 84.6841 191.681 84.6841C192.097 84.6841 192.484 84.747 192.844 84.8728C193.206 84.996 193.528 85.1718 193.81 85.4003C194.095 85.6262 194.333 85.897 194.523 86.2128C194.713 86.5259 194.843 86.8738 194.915 87.2562H193.93Z" fill="black"/>
<circle cx="191.65" cy="89.1833" r="9.89421" stroke="black" stroke-width="1.89752"/>
<path d="M312.988 113.824V117.767H312.51V114.325H312.487L311.525 114.964V114.479L312.51 113.824H312.988Z" fill="black"/>
<circle cx="300" cy="129" r="2" fill="black"/>
<defs>
<filter id="filter0_d_2002_29308" x="287.812" y="101.665" width="26.855" height="42.21" filterUnits="userSpaceOnUse" color-interpolation-filters="sRGB">
<feFlood flood-opacity="0" result="BackgroundImageFix"/>
<feColorMatrix in="SourceAlpha" type="matrix" values="0 0 0 0 0 0 0 0 0 0 0 0 0 0 0 0 0 0 127 0" result="hardAlpha"/>
<feOffset/>
<feGaussianBlur stdDeviation="2"/>
<feComposite in2="hardAlpha" operator="out"/>
<feColorMatrix type="matrix" values="0 0 0 0 0.0995558 0 0 0 0 0.587854 0 0 0 0 0.862522 0 0 0 1 0"/>
<feBlend mode="normal" in2="BackgroundImageFix" result="effect1_dropShadow_2002_29308"/>
<feBlend mode="normal" in="SourceGraphic" in2="effect1_dropShadow_2002_29308" result="shape"/>
</filter>
</defs>
</svg>
