<svg width="328" height="224" viewBox="0 0 328 224" fill="none" xmlns="http://www.w3.org/2000/svg">
<rect x="0.63" y="0.63" width="326.74" height="222.647" rx="8.37" fill="white"/>
<rect x="0.63" y="0.63" width="326.74" height="222.647" rx="8.37" stroke="black" stroke-width="1.26"/>
<line x1="126.456" y1="179.587" x2="126.456" y2="202.628" stroke="black" stroke-width="1.89752" stroke-linecap="round"/>
<line x1="136.215" y1="185.822" x2="136.215" y2="196.394" stroke="black" stroke-width="1.89752" stroke-linecap="round"/>
<path d="M126.733 167.223V159.337H131.492V160.185H127.688V162.849H131.246V163.696H127.688V166.376H131.554V167.223H126.733Z" fill="black"/>
<path d="M117.536 183.762V178.679H118.398V183.762H117.536ZM115.425 181.652V180.789H120.508V181.652H115.425Z" fill="black"/>
<path d="M143.281 180.497V181.344H139.831V180.497H143.281Z" fill="black"/>
<g filter="url(#filter0_d_2002_29277)">
<path d="M193.929 87.2562C193.844 86.997 193.733 86.7647 193.594 86.5593C193.458 86.3514 193.295 86.1743 193.105 86.0279C192.918 85.8816 192.705 85.77 192.466 85.6929C192.227 85.6159 191.965 85.5774 191.68 85.5774C191.213 85.5774 190.788 85.6981 190.406 85.9394C190.023 86.1807 189.719 86.5362 189.493 87.006C189.267 87.4757 189.154 88.052 189.154 88.7348C189.154 89.4177 189.269 89.9939 189.497 90.4637C189.726 90.9335 190.035 91.289 190.425 91.5303C190.815 91.7716 191.254 91.8922 191.742 91.8922C192.194 91.8922 192.592 91.796 192.936 91.6034C193.282 91.4084 193.552 91.1337 193.744 90.7794C193.939 90.4226 194.037 90.0029 194.037 89.5203L194.33 89.5819H191.958V88.7348H194.961V89.5819C194.961 90.2314 194.822 90.7961 194.545 91.2762C194.271 91.7562 193.891 92.1284 193.405 92.3928C192.923 92.6546 192.368 92.7855 191.742 92.7855C191.044 92.7855 190.43 92.6213 189.901 92.2927C189.375 91.9641 188.965 91.4969 188.669 90.8911C188.377 90.2853 188.23 89.5665 188.23 88.7348C188.23 88.1111 188.314 87.5502 188.481 87.0522C188.65 86.5516 188.889 86.1255 189.197 85.7738C189.505 85.4221 189.869 85.1526 190.29 84.9652C190.711 84.7778 191.175 84.6841 191.68 84.6841C192.096 84.6841 192.484 84.747 192.843 84.8728C193.205 84.996 193.527 85.1718 193.81 85.4003C194.095 85.6262 194.332 85.897 194.522 86.2128C194.712 86.5259 194.843 86.8738 194.915 87.2562H193.929Z" fill="black"/>
<circle cx="191.65" cy="89.1835" r="9.89421" stroke="black" stroke-width="1.89752"/>
</g>
<defs>
<filter id="filter0_d_2002_29277" x="176.807" y="74.3406" width="29.686" height="29.686" filterUnits="userSpaceOnUse" color-interpolation-filters="sRGB">
<feFlood flood-opacity="0" result="BackgroundImageFix"/>
<feColorMatrix in="SourceAlpha" type="matrix" values="0 0 0 0 0 0 0 0 0 0 0 0 0 0 0 0 0 0 127 0" result="hardAlpha"/>
<feOffset/>
<feGaussianBlur stdDeviation="2"/>
<feComposite in2="hardAlpha" operator="out"/>
<feColorMatrix type="matrix" values="0 0 0 0 0.0995558 0 0 0 0 0.587854 0 0 0 0 0.862522 0 0 0 1 0"/>
<feBlend mode="normal" in2="BackgroundImageFix" result="effect1_dropShadow_2002_29277"/>
<feBlend mode="normal" in="SourceGraphic" in2="effect1_dropShadow_2002_29277" result="shape"/>
</filter>
</defs>
</svg>
