<svg width="328" height="224" viewBox="0 0 328 224" fill="none" xmlns="http://www.w3.org/2000/svg">
<rect x="0.63" y="0.63" width="326.74" height="222.647" rx="8.37" fill="white"/>
<rect x="0.63" y="0.63" width="326.74" height="222.647" rx="8.37" stroke="black" stroke-width="1.26"/>
<line x1="126.456" y1="179.587" x2="126.456" y2="202.628" stroke="black" stroke-width="1.89752" stroke-linecap="round"/>
<line x1="136.215" y1="185.822" x2="136.215" y2="196.393" stroke="black" stroke-width="1.89752" stroke-linecap="round"/>
<path d="M126.733 167.223V159.337H131.492V160.184H127.688V162.849H131.246V163.696H127.688V166.376H131.554V167.223H126.733Z" fill="black"/>
<path d="M117.535 183.762V178.679H118.398V183.762H117.535ZM115.425 181.652V180.789H120.508V181.652H115.425Z" fill="black"/>
<path d="M143.281 180.497V181.344H139.831V180.497H143.281Z" fill="black"/>
<g filter="url(#filter0_d_2002_29291)">
<path d="M37.8211 129.544V121.658H40.4857C41.1017 121.658 41.6074 121.763 42.0028 121.974C42.3981 122.182 42.6907 122.468 42.8807 122.832C43.0706 123.197 43.1656 123.611 43.1656 124.076C43.1656 124.541 43.0706 124.953 42.8807 125.312C42.6907 125.671 42.3994 125.954 42.0066 126.159C41.6139 126.362 41.112 126.463 40.5011 126.463H38.3448V125.601H40.4703C40.8913 125.601 41.2301 125.539 41.4868 125.416C41.7461 125.293 41.9335 125.118 42.049 124.892C42.167 124.664 42.2261 124.392 42.2261 124.076C42.2261 123.76 42.167 123.484 42.049 123.248C41.9309 123.012 41.7422 122.83 41.4829 122.701C41.2237 122.57 40.881 122.505 40.4549 122.505H38.7761V129.544H37.8211ZM41.533 126.001L43.4736 129.544H42.3647L40.4549 126.001H41.533Z" fill="black"/>
<rect x="26.1587" y="115.884" width="28.1917" height="20.3306" stroke="black" stroke-width="1.89752"/>
</g>
<path d="M193.929 87.2562C193.844 86.997 193.732 86.7647 193.594 86.5593C193.458 86.3514 193.295 86.1743 193.105 86.0279C192.917 85.8816 192.704 85.77 192.465 85.6929C192.227 85.6159 191.965 85.5774 191.68 85.5774C191.213 85.5774 190.788 85.6981 190.405 85.9394C190.023 86.1807 189.719 86.5362 189.493 87.006C189.267 87.4757 189.154 88.052 189.154 88.7348C189.154 89.4177 189.268 89.9939 189.497 90.4637C189.725 90.9335 190.034 91.289 190.425 91.5303C190.815 91.7716 191.254 91.8922 191.742 91.8922C192.193 91.8922 192.591 91.796 192.935 91.6034C193.282 91.4084 193.551 91.1337 193.744 90.7794C193.939 90.4226 194.036 90.0029 194.036 89.5203L194.329 89.5819H191.957V88.7348H194.961V89.5819C194.961 90.2314 194.822 90.7961 194.545 91.2762C194.27 91.7562 193.89 92.1284 193.405 92.3928C192.922 92.6546 192.368 92.7855 191.742 92.7855C191.043 92.7855 190.43 92.6213 189.901 92.2927C189.375 91.9641 188.964 91.4969 188.669 90.8911C188.376 90.2853 188.23 89.5665 188.23 88.7348C188.23 88.1111 188.313 87.5502 188.48 87.0522C188.65 86.5516 188.888 86.1255 189.196 85.7738C189.504 85.4221 189.869 85.1526 190.29 84.9652C190.711 84.7778 191.174 84.6841 191.68 84.6841C192.096 84.6841 192.483 84.747 192.843 84.8728C193.205 84.996 193.527 85.1718 193.809 85.4003C194.094 85.6262 194.332 85.897 194.522 86.2128C194.712 86.5259 194.842 86.8738 194.914 87.2562H193.929Z" fill="black"/>
<circle cx="191.65" cy="89.1835" r="9.89421" stroke="black" stroke-width="1.89752"/>
<defs>
<filter id="filter0_d_2002_29291" x="21.21" y="110.936" width="38.0894" height="30.2281" filterUnits="userSpaceOnUse" color-interpolation-filters="sRGB">
<feFlood flood-opacity="0" result="BackgroundImageFix"/>
<feColorMatrix in="SourceAlpha" type="matrix" values="0 0 0 0 0 0 0 0 0 0 0 0 0 0 0 0 0 0 127 0" result="hardAlpha"/>
<feOffset/>
<feGaussianBlur stdDeviation="2"/>
<feComposite in2="hardAlpha" operator="out"/>
<feColorMatrix type="matrix" values="0 0 0 0 0.0995558 0 0 0 0 0.587854 0 0 0 0 0.862522 0 0 0 1 0"/>
<feBlend mode="normal" in2="BackgroundImageFix" result="effect1_dropShadow_2002_29291"/>
<feBlend mode="normal" in="SourceGraphic" in2="effect1_dropShadow_2002_29291" result="shape"/>
</filter>
</defs>
</svg>
