<svg width="328" height="224" viewBox="0 0 328 224" fill="none" xmlns="http://www.w3.org/2000/svg">
<rect x="0.63" y="0.63" width="326.74" height="222.647" rx="8.37" fill="white"/>
<rect x="0.63" y="0.63" width="326.74" height="222.647" rx="8.37" stroke="black" stroke-width="1.26"/>
<line x1="299.673" y1="89.4545" x2="299.673" y2="115.207" stroke="#787878" stroke-width="1.89752"/>
<line x1="299.673" y1="142.043" x2="299.673" y2="193.276" stroke="#787878" stroke-width="1.89752"/>
<line x1="126.457" y1="179.587" x2="126.457" y2="202.628" stroke="black" stroke-width="1.89752" stroke-linecap="round"/>
<line x1="136.215" y1="185.821" x2="136.215" y2="196.393" stroke="black" stroke-width="1.89752" stroke-linecap="round"/>
<path d="M126.734 167.223V159.337H131.493V160.184H127.689V162.849H131.247V163.696H127.689V166.376H131.555V167.223H126.734Z" fill="black"/>
<path d="M117.536 183.762V178.679H118.399V183.762H117.536ZM115.426 181.652V180.789H120.509V181.652H115.426Z" fill="black"/>
<path d="M143.282 180.497V181.344H139.832V180.497H143.282Z" fill="black"/>
<path d="M304.829 113.55V105.664H305.784V109.577H305.877L309.419 105.664H310.667L307.355 109.222L310.667 113.55H309.512L306.77 109.885L305.784 110.994V113.55H304.829Z" fill="black"/>
<path d="M295.757 120.086C295.757 120.086 292.517 125.213 292.775 129.709C293.011 133.798 295.757 138.925 295.757 138.925" stroke="black" stroke-width="1.89752" stroke-linecap="round" stroke-linejoin="round"/>
<path d="M303.889 120.086C303.889 120.086 307.265 125.077 307.006 129.573C306.771 133.663 303.889 138.925 303.889 138.925" stroke="black" stroke-width="1.89752" stroke-linecap="round" stroke-linejoin="round"/>
<g filter="url(#filter0_d_2002_29427)">
<path d="M265.524 40.3601V32.4743H266.479V36.3864H266.571L270.114 32.4743H271.361L268.05 36.0322L271.361 40.3601H270.206L267.464 36.6944L266.479 37.8034V40.3601H265.524Z" fill="black"/>
<path d="M256.451 46.8956C256.451 46.8956 253.211 52.0224 253.469 56.5188C253.704 60.6082 256.451 65.7353 256.451 65.7353" stroke="black" stroke-width="1.89752" stroke-linecap="round" stroke-linejoin="round"/>
<path d="M264.583 46.8956C264.583 46.8956 267.959 51.8869 267.701 56.3832C267.466 60.4727 264.583 65.7353 264.583 65.7353" stroke="black" stroke-width="1.89752" stroke-linecap="round" stroke-linejoin="round"/>
</g>
<path d="M37.8216 129.544V121.658H40.4862C41.1022 121.658 41.6079 121.763 42.0033 121.974C42.3986 122.182 42.6912 122.468 42.8812 122.832C43.0711 123.197 43.1661 123.611 43.1661 124.076C43.1661 124.541 43.0711 124.953 42.8812 125.312C42.6912 125.671 42.3999 125.954 42.0071 126.159C41.6144 126.362 41.1125 126.463 40.5016 126.463H38.3453V125.601H40.4708C40.8917 125.601 41.2306 125.539 41.4873 125.416C41.7466 125.293 41.9339 125.118 42.0495 124.892C42.1675 124.664 42.2266 124.392 42.2266 124.076C42.2266 123.76 42.1675 123.484 42.0495 123.248C41.9314 123.012 41.7427 122.83 41.4834 122.701C41.2242 122.57 40.8815 122.505 40.4554 122.505H38.7765V129.544H37.8216ZM41.5335 126.001L43.4741 129.544H42.3652L40.4554 126.001H41.5335Z" fill="black"/>
<rect x="26.1587" y="115.884" width="28.1917" height="20.3306" stroke="black" stroke-width="1.89752"/>
<path d="M193.93 87.2561C193.845 86.9969 193.733 86.7645 193.595 86.5592C193.459 86.3513 193.296 86.1741 193.106 86.0278C192.918 85.8815 192.705 85.7698 192.466 85.6928C192.228 85.6158 191.966 85.5773 191.681 85.5773C191.214 85.5773 190.789 85.698 190.406 85.9393C190.024 86.1806 189.72 86.5361 189.494 87.0058C189.268 87.4756 189.155 88.0519 189.155 88.7347C189.155 89.4175 189.269 89.9938 189.498 90.4636C189.726 90.9333 190.035 91.2889 190.426 91.5302C190.816 91.7715 191.255 91.8921 191.743 91.8921C192.194 91.8921 192.592 91.7959 192.936 91.6033C193.283 91.4082 193.552 91.1336 193.745 90.7793C193.94 90.4225 194.037 90.0028 194.037 89.5202L194.33 89.5818H191.958V88.7347H194.962V89.5818C194.962 90.2313 194.823 90.796 194.546 91.276C194.271 91.7561 193.891 92.1283 193.406 92.3927C192.923 92.6545 192.369 92.7854 191.743 92.7854C191.044 92.7854 190.431 92.6211 189.902 92.2926C189.376 91.964 188.965 91.4968 188.67 90.891C188.377 90.2852 188.231 89.5664 188.231 88.7347C188.231 88.1109 188.314 87.55 188.481 87.052C188.651 86.5515 188.889 86.1254 189.197 85.7737C189.505 85.422 189.87 85.1525 190.291 84.9651C190.712 84.7777 191.175 84.684 191.681 84.684C192.097 84.684 192.484 84.7469 192.844 84.8727C193.206 84.9959 193.528 85.1717 193.81 85.4002C194.095 85.6261 194.333 85.8969 194.523 86.2126C194.713 86.5258 194.843 86.8736 194.915 87.2561H193.93Z" fill="black"/>
<circle cx="191.65" cy="89.1833" r="9.89421" stroke="black" stroke-width="1.89752"/>
<line x1="125.508" y1="192.327" x2="39.3062" y2="192.327" stroke="#787878" stroke-width="1.89752"/>
<line x1="300.08" y1="192.327" x2="137.164" y2="192.327" stroke="#787878" stroke-width="1.89752"/>
<line x1="180.807" y1="90.1322" x2="39.3058" y2="90.1322" stroke="#787878" stroke-width="1.89752"/>
<line x1="259.688" y1="27.2428" x2="101.998" y2="26.933" stroke="#787878" stroke-width="1.89752"/>
<line x1="300.622" y1="90.1322" x2="202.493" y2="90.1322" stroke="#787878" stroke-width="1.89752"/>
<line x1="40.2549" y1="137.164" x2="40.2549" y2="191.378" stroke="#787878" stroke-width="1.89752"/>
<line x1="40.2549" y1="89.1835" x2="40.2549" y2="114.936" stroke="#787878" stroke-width="1.89752"/>
<line x1="102.949" y1="26.0052" x2="102.602" y2="89.4597" stroke="#787878" stroke-width="1.89752"/>
<line x1="260.638" y1="26.2941" x2="260.638" y2="44.185" stroke="#787878" stroke-width="1.89752"/>
<line x1="260.638" y1="67.7686" x2="260.638" y2="89.4545" stroke="#787878" stroke-width="1.89752"/>
<path d="M312.988 113.824V117.767H312.511V114.325H312.488L311.525 114.964V114.479L312.511 113.824H312.988Z" fill="black"/>
<path d="M272.296 43.4924V43.1459L273.597 41.7212C273.75 41.5544 273.876 41.4093 273.975 41.2861C274.073 41.1616 274.147 41.0448 274.194 40.9357C274.243 40.8253 274.267 40.7098 274.267 40.5892C274.267 40.4505 274.234 40.3305 274.167 40.2291C274.102 40.1277 274.012 40.0495 273.898 39.9943C273.783 39.9391 273.655 39.9115 273.513 39.9115C273.361 39.9115 273.229 39.9429 273.116 40.0058C273.004 40.0674 272.918 40.1541 272.856 40.2657C272.796 40.3774 272.766 40.5083 272.766 40.6585H272.311C272.311 40.4274 272.365 40.2247 272.471 40.0501C272.578 39.8755 272.723 39.7395 272.906 39.6419C273.091 39.5444 273.298 39.4956 273.528 39.4956C273.759 39.4956 273.964 39.5444 274.142 39.6419C274.321 39.7395 274.46 39.871 274.562 40.0366C274.663 40.2022 274.714 40.3864 274.714 40.5892C274.714 40.7342 274.688 40.876 274.635 41.0146C274.584 41.152 274.494 41.3054 274.365 41.4748C274.238 41.6429 274.062 41.8483 273.836 42.0909L272.95 43.0381V43.0689H274.783V43.4924H272.296Z" fill="black"/>
<rect x="167.949" y="15.9488" width="28.1917" height="20.3306" fill="white" stroke="black" stroke-width="1.89752"/>
<path d="M183.924 23.6938C183.878 23.3036 183.691 23.0007 183.362 22.7851C183.033 22.5695 182.63 22.4616 182.153 22.4616C181.804 22.4616 181.498 22.5181 181.237 22.6311C180.977 22.744 180.775 22.8993 180.628 23.097C180.484 23.2946 180.413 23.5192 180.413 23.7708C180.413 23.9813 180.463 24.1623 180.563 24.3137C180.665 24.4626 180.796 24.5871 180.955 24.6872C181.115 24.7848 181.281 24.8656 181.456 24.9298C181.631 24.9914 181.791 25.0415 181.937 25.08L182.738 25.2956C182.944 25.3495 183.172 25.424 183.424 25.5189C183.678 25.6139 183.92 25.7435 184.151 25.9078C184.385 26.0696 184.578 26.2775 184.729 26.5316C184.88 26.7857 184.956 27.0976 184.956 27.4673C184.956 27.8934 184.844 28.2785 184.621 28.6224C184.4 28.9664 184.077 29.2398 183.651 29.4426C183.227 29.6454 182.713 29.7468 182.107 29.7468C181.542 29.7468 181.053 29.6556 180.64 29.4734C180.229 29.2911 179.906 29.037 179.669 28.711C179.436 28.385 179.304 28.0064 179.273 27.5751H180.259C180.284 27.8729 180.384 28.1193 180.559 28.3144C180.736 28.5069 180.959 28.6507 181.229 28.7456C181.501 28.8381 181.794 28.8843 182.107 28.8843C182.471 28.8843 182.799 28.8252 183.089 28.7071C183.379 28.5865 183.608 28.4196 183.778 28.2066C183.947 27.9909 184.032 27.7394 184.032 27.4519C184.032 27.19 183.959 26.977 183.813 26.8127C183.666 26.6484 183.474 26.5149 183.235 26.4122C182.996 26.3096 182.738 26.2197 182.461 26.1427L181.491 25.8655C180.875 25.6884 180.387 25.4355 180.028 25.1069C179.668 24.7784 179.488 24.3484 179.488 23.817C179.488 23.3755 179.608 22.9904 179.847 22.6619C180.088 22.3307 180.411 22.074 180.817 21.8918C181.225 21.707 181.681 21.6145 182.184 21.6145C182.692 21.6145 183.144 21.7057 183.539 21.8879C183.934 22.0676 184.248 22.314 184.479 22.6272C184.712 22.9404 184.835 23.2959 184.848 23.6938H183.924Z" fill="black"/>
<circle cx="300" cy="129" r="2" fill="black"/>
<circle cx="261" cy="56" r="2" fill="black"/>
<defs>
<filter id="filter0_d_2002_29427" x="248.506" y="28.4744" width="26.8555" height="42.2098" filterUnits="userSpaceOnUse" color-interpolation-filters="sRGB">
<feFlood flood-opacity="0" result="BackgroundImageFix"/>
<feColorMatrix in="SourceAlpha" type="matrix" values="0 0 0 0 0 0 0 0 0 0 0 0 0 0 0 0 0 0 127 0" result="hardAlpha"/>
<feOffset/>
<feGaussianBlur stdDeviation="2"/>
<feComposite in2="hardAlpha" operator="out"/>
<feColorMatrix type="matrix" values="0 0 0 0 0.0995558 0 0 0 0 0.587854 0 0 0 0 0.862522 0 0 0 1 0"/>
<feBlend mode="normal" in2="BackgroundImageFix" result="effect1_dropShadow_2002_29427"/>
<feBlend mode="normal" in="SourceGraphic" in2="effect1_dropShadow_2002_29427" result="shape"/>
</filter>
</defs>
</svg>
