<svg width="31" height="23" viewBox="0 0 31 23" fill="none" xmlns="http://www.w3.org/2000/svg">
<rect x="0.94876" y="0.94876" width="28.1917" height="20.3306" stroke="black" stroke-width="1.89752"/>
<path d="M16.9242 8.6938C16.878 8.30362 16.6906 8.00072 16.362 7.78509C16.0335 7.56946 15.6304 7.46165 15.153 7.46165C14.8039 7.46165 14.4984 7.51812 14.2366 7.63107C13.9773 7.74402 13.7745 7.89932 13.6282 8.09698C13.4844 8.29464 13.4126 8.51925 13.4126 8.77081C13.4126 8.98131 13.4626 9.16228 13.5627 9.31373C13.6654 9.46262 13.7963 9.58712 13.9555 9.68723C14.1146 9.78478 14.2815 9.86564 14.456 9.92981C14.6306 9.99142 14.791 10.0415 14.9374 10.08L15.7383 10.2956C15.9436 10.3495 16.1721 10.424 16.4236 10.5189C16.6778 10.6139 16.9204 10.7435 17.1514 10.9078C17.385 11.0696 17.5775 11.2775 17.729 11.5316C17.8804 11.7857 17.9561 12.0976 17.9561 12.4673C17.9561 12.8934 17.8445 13.2785 17.6211 13.6224C17.4004 13.9664 17.0769 14.2398 16.6508 14.4426C16.2273 14.6454 15.7126 14.7468 15.1068 14.7468C14.542 14.7468 14.053 14.6556 13.6397 14.4734C13.229 14.2911 12.9056 14.037 12.6694 13.711C12.4358 13.385 12.3036 13.0064 12.2728 12.5751H13.2585C13.2842 12.8729 13.3843 13.1193 13.5589 13.3144C13.736 13.5069 13.9593 13.6507 14.2289 13.7456C14.501 13.8381 14.7936 13.8843 15.1068 13.8843C15.4713 13.8843 15.7986 13.8252 16.0887 13.7071C16.3787 13.5865 16.6085 13.4196 16.7779 13.2066C16.9473 12.9909 17.032 12.7394 17.032 12.4519C17.032 12.19 16.9589 11.977 16.8125 11.8127C16.6662 11.6484 16.4737 11.5149 16.235 11.4122C15.9962 11.3096 15.7383 11.2197 15.461 11.1427L14.4907 10.8655C13.8746 10.6884 13.3869 10.4355 13.0275 10.1069C12.6681 9.77836 12.4884 9.34839 12.4884 8.81702C12.4884 8.3755 12.6078 7.99045 12.8465 7.66187C13.0878 7.33073 13.4113 7.07403 13.8169 6.89178C14.225 6.70695 14.6807 6.61454 15.1838 6.61454C15.692 6.61454 16.1438 6.70567 16.5392 6.88793C16.9345 7.06761 17.2476 7.31405 17.4787 7.62722C17.7123 7.94039 17.8355 8.29592 17.8483 8.6938H16.9242Z" fill="black"/>
</svg>
