<svg width="22" height="22" viewBox="0 0 22 22" fill="none" xmlns="http://www.w3.org/2000/svg">
<path d="M13.1229 8.91579C13.0382 8.65653 12.9266 8.42421 12.788 8.21885C12.6519 8.01093 12.4889 7.83381 12.2989 7.68749C12.1116 7.54117 11.8985 7.4295 11.6598 7.35249C11.421 7.27548 11.1592 7.23698 10.8743 7.23698C10.4071 7.23698 9.98223 7.35763 9.59975 7.59893C9.21727 7.84022 8.91308 8.19575 8.68719 8.66551C8.46129 9.13527 8.34834 9.71156 8.34834 10.3944C8.34834 11.0772 8.46257 11.6535 8.69104 12.1232C8.9195 12.593 9.22882 12.9485 9.619 13.1898C10.0092 13.4311 10.4481 13.5518 10.9359 13.5518C11.3877 13.5518 11.7855 13.4555 12.1295 13.263C12.4761 13.0679 12.7456 12.7932 12.9381 12.439C13.1332 12.0822 13.2308 11.6625 13.2308 11.1799L13.5234 11.2415H11.1515V10.3944H14.1549V11.2415C14.1549 11.8909 14.0163 12.4557 13.739 12.9357C13.4644 13.4157 13.0844 13.7879 12.5993 14.0523C12.1167 14.3142 11.5622 14.4451 10.9359 14.4451C10.2376 14.4451 9.62414 14.2808 9.09534 13.9522C8.5691 13.6237 8.15839 13.1565 7.86318 12.5507C7.57054 11.9448 7.42423 11.2261 7.42423 10.3944C7.42423 9.7706 7.50765 9.20971 7.67451 8.71172C7.84393 8.21115 8.08266 7.78503 8.3907 7.43335C8.69874 7.08168 9.06325 6.81214 9.48424 6.62475C9.90522 6.43736 10.3686 6.34367 10.8743 6.34367C11.2901 6.34367 11.6777 6.40656 12.0371 6.53234C12.3991 6.65556 12.7212 6.83139 13.0036 7.05986C13.2885 7.28575 13.526 7.55657 13.7159 7.87231C13.9059 8.18548 14.0368 8.53331 14.1087 8.91579H13.1229Z" fill="black"/>
<circle cx="10.843" cy="10.843" r="9.89421" stroke="black" stroke-width="1.89752"/>
</svg>
