<svg width="22" height="37" viewBox="0 0 22 37" fill="none" xmlns="http://www.w3.org/2000/svg">
<path d="M13.0687 10V2.1142H14.0236V6.0263H14.116L17.6585 2.1142H18.906L15.5946 5.67205L18.906 10H17.7509L15.0093 6.33434L14.0236 7.44328V10H13.0687Z" fill="black"/>
<path d="M3.9965 16.5355C3.9965 16.5355 0.756148 21.6623 1.01468 26.1587C1.24983 30.2481 3.9965 35.3752 3.9965 35.3752" stroke="black" stroke-width="1.89752" stroke-linecap="round" stroke-linejoin="round"/>
<path d="M12.1283 16.5355C12.1283 16.5355 15.5042 21.5268 15.2456 26.0231C15.0105 30.1126 12.1283 35.3752 12.1283 35.3752" stroke="black" stroke-width="1.89752" stroke-linecap="round" stroke-linejoin="round"/>
<path d="M19.0859 13.4924V13.1459L20.3874 11.7212C20.5401 11.5544 20.6659 11.4093 20.7647 11.2861C20.8635 11.1616 20.9367 11.0448 20.9842 10.9357C21.0329 10.8253 21.0573 10.7098 21.0573 10.5892C21.0573 10.4505 21.024 10.3305 20.9572 10.2291C20.8918 10.1277 20.8019 10.0495 20.6877 9.99426C20.5735 9.93907 20.4451 9.91148 20.3026 9.91148C20.1512 9.91148 20.019 9.94292 19.906 10.0058C19.7944 10.0674 19.7077 10.1541 19.6461 10.2657C19.5858 10.3774 19.5556 10.5083 19.5556 10.6585H19.1013C19.1013 10.4274 19.1546 10.2247 19.2611 10.0501C19.3676 9.87554 19.5126 9.73949 19.6962 9.64194C19.881 9.5444 20.0883 9.49562 20.318 9.49562C20.5491 9.49562 20.7538 9.5444 20.9322 9.64194C21.1106 9.73949 21.2505 9.87105 21.3519 10.0366C21.4533 10.2022 21.504 10.3864 21.504 10.5892C21.504 10.7342 21.4777 10.876 21.4251 11.0146C21.3737 11.152 21.2839 11.3054 21.1555 11.4748C21.0285 11.6429 20.852 11.8483 20.6261 12.0909L19.7405 13.0381V13.0689H21.5733V13.4924H19.0859Z" fill="black"/>
<circle cx="7.79004" cy="26" r="2" fill="black"/>
</svg>
