<svg width="31" height="23" viewBox="0 0 31 23" fill="none" xmlns="http://www.w3.org/2000/svg">
<path d="M12.6117 14.6083V6.72248H15.2762C15.8923 6.72248 16.398 6.82772 16.7933 7.03822C17.1886 7.24614 17.4812 7.53236 17.6712 7.89688C17.8612 8.26139 17.9561 8.67596 17.9561 9.14058C17.9561 9.60521 17.8612 10.0172 17.6712 10.3766C17.4812 10.736 17.1899 11.0183 16.7971 11.2237C16.4044 11.4265 15.9025 11.5279 15.2916 11.5279H13.1353V10.6654H15.2608C15.6818 10.6654 16.0206 10.6038 16.2773 10.4806C16.5366 10.3573 16.724 10.1828 16.8395 9.95689C16.9576 9.72842 17.0166 9.45632 17.0166 9.14058C17.0166 8.82484 16.9576 8.54889 16.8395 8.31273C16.7214 8.07656 16.5327 7.89431 16.2735 7.76596C16.0142 7.63504 15.6715 7.56958 15.2454 7.56958H13.5666V14.6083H12.6117ZM16.3235 11.0658L18.2642 14.6083H17.1552L15.2454 11.0658H16.3235Z" fill="black"/>
<rect x="0.94876" y="0.94876" width="28.1917" height="20.3306" stroke="black" stroke-width="1.89752"/>
</svg>
