<svg width="22" height="37" viewBox="0 0 22 37" fill="none" xmlns="http://www.w3.org/2000/svg">
<path d="M13.0687 10V2.1142H14.0236V6.0263H14.116L17.6585 2.1142H18.906L15.5946 5.67205L18.906 10H17.7509L15.0093 6.33434L14.0236 7.44328V10H13.0687Z" fill="black"/>
<path d="M3.9965 16.5355C3.9965 16.5355 0.756148 21.6623 1.01468 26.1587C1.24983 30.2481 3.9965 35.3752 3.9965 35.3752" stroke="black" stroke-width="1.89752" stroke-linecap="round" stroke-linejoin="round"/>
<path d="M12.1283 16.5355C12.1283 16.5355 15.5042 21.5268 15.2456 26.0231C15.0105 30.1126 12.1283 35.3752 12.1283 35.3752" stroke="black" stroke-width="1.89752" stroke-linecap="round" stroke-linejoin="round"/>
<path d="M20.7782 9.82407V13.767H20.3008V10.3246H20.2777L19.315 10.9638V10.4787L20.3008 9.82407H20.7782Z" fill="black"/>
<circle cx="7.79004" cy="25" r="2" fill="black"/>
</svg>
