<svg width="367" height="211" viewBox="0 0 367 211" fill="none" xmlns="http://www.w3.org/2000/svg">
<path d="M87.5 1L80 7V147.139H276.5L280.5 145.5V7.5V1.5L87.5 1Z" fill="#D9D9D9" stroke="black"/>
<rect x="78.5" y="7" width="198" height="142" rx="3.5" fill="#F8F8F8" stroke="black"/>
<path d="M280.5 1V145.5L275 148.5" stroke="black"/>
<path d="M280.5 1.5L275.5 8" stroke="black"/>
<path d="M55.9173 209.591L55.0991 200.591C55.0459 200.005 55.507 199.5 56.095 199.5H294.747C295.389 199.5 295.865 200.096 295.722 200.722L293.677 209.722C293.573 210.177 293.169 210.5 292.702 210.5H56.9132C56.396 210.5 55.9641 210.106 55.9173 209.591Z" fill="#D9D9D9" stroke="black"/>
<path d="M55.3812 197.078L80.1505 151.078C80.6737 150.106 81.6882 149.5 82.7919 149.5H273.012C274.217 149.5 275.305 150.221 275.775 151.331L295.236 197.331C296.073 199.309 294.621 201.5 292.473 201.5H58.0227C55.7526 201.5 54.305 199.076 55.3812 197.078Z" fill="#F8F8F8" stroke="black"/>
<circle cx="8.44876" cy="8.44876" r="8.44876" transform="matrix(0.976474 0.215633 -0.976474 0.215633 105.5 136.5)" fill="#363A48"/>
<path d="M93.8328 140.144C93.8328 140.855 95.1387 141.499 97.25 141.966V178.402C95.1387 177.936 93.8328 177.292 93.8328 176.58V140.144Z" fill="#4E515E"/>
<path d="M97.25 141.966C101.806 142.972 109.194 142.972 113.75 141.966V178.402C109.194 179.408 101.806 179.408 97.25 178.402V141.966Z" fill="#0A112D"/>
<path d="M117.167 140.144C117.167 140.855 115.861 141.499 113.75 141.966V178.402C115.861 177.936 117.167 177.292 117.167 176.58V140.144Z" fill="#0A112D"/>
<circle cx="8.44876" cy="8.44876" r="8.44876" transform="matrix(0.976474 0.215633 -0.976474 0.215633 247.5 136.5)" fill="#F06969"/>
<path d="M235.833 140.144C235.833 140.855 237.139 141.499 239.25 141.966V178.402C237.139 177.936 235.833 177.292 235.833 176.58V140.144Z" fill="#FC9393"/>
<path d="M239.25 141.966C243.806 142.972 251.194 142.972 255.75 141.966V178.402C251.194 179.408 243.806 179.408 239.25 178.402V141.966Z" fill="#E05B5B"/>
<path d="M259.167 140.144C259.167 140.855 257.861 141.499 255.75 141.966V178.402C257.861 177.936 259.167 177.292 259.167 176.58V140.144Z" fill="#E05B5B"/>
<path d="M181.727 128.836V133C181.586 133.208 181.362 133.443 181.055 133.703C180.747 133.958 180.323 134.182 179.781 134.375C179.245 134.562 178.552 134.656 177.703 134.656C177.01 134.656 176.372 134.536 175.789 134.297C175.211 134.052 174.708 133.698 174.281 133.234C173.859 132.766 173.531 132.198 173.297 131.531C173.068 130.859 172.953 130.099 172.953 129.25V128.367C172.953 127.518 173.052 126.76 173.25 126.094C173.453 125.427 173.75 124.862 174.141 124.398C174.531 123.93 175.01 123.576 175.578 123.336C176.146 123.091 176.797 122.969 177.531 122.969C178.401 122.969 179.128 123.12 179.711 123.422C180.299 123.719 180.758 124.13 181.086 124.656C181.419 125.182 181.633 125.781 181.727 126.453H180.219C180.151 126.042 180.016 125.667 179.812 125.328C179.615 124.99 179.331 124.719 178.961 124.516C178.591 124.307 178.115 124.203 177.531 124.203C177.005 124.203 176.549 124.299 176.164 124.492C175.779 124.685 175.461 124.961 175.211 125.32C174.961 125.68 174.773 126.115 174.648 126.625C174.529 127.135 174.469 127.711 174.469 128.352V129.25C174.469 129.906 174.544 130.492 174.695 131.008C174.852 131.523 175.073 131.964 175.359 132.328C175.646 132.688 175.987 132.961 176.383 133.148C176.784 133.336 177.227 133.43 177.711 133.43C178.247 133.43 178.682 133.385 179.016 133.297C179.349 133.203 179.609 133.094 179.797 132.969C179.984 132.839 180.128 132.716 180.227 132.602V130.055H177.594V128.836H181.727Z" fill="black"/>
<path d="M178.391 15.1042V16.2604C178.391 16.8819 178.335 17.4062 178.224 17.8333C178.113 18.2604 177.953 18.6042 177.745 18.8646C177.536 19.125 177.285 19.3142 176.99 19.4323C176.698 19.5469 176.368 19.6042 176 19.6042C175.708 19.6042 175.439 19.5677 175.193 19.4948C174.946 19.4219 174.724 19.3056 174.526 19.1458C174.332 18.9826 174.165 18.7708 174.026 18.5104C173.887 18.25 173.781 17.934 173.708 17.5625C173.635 17.191 173.599 16.7569 173.599 16.2604V15.1042C173.599 14.4826 173.655 13.9618 173.766 13.5417C173.88 13.1215 174.042 12.7847 174.25 12.5312C174.458 12.2743 174.708 12.0903 175 11.9792C175.295 11.8681 175.625 11.8125 175.99 11.8125C176.285 11.8125 176.556 11.849 176.802 11.9219C177.052 11.9913 177.274 12.1042 177.469 12.2604C177.663 12.4132 177.828 12.6181 177.964 12.875C178.102 13.1285 178.208 13.4392 178.281 13.8073C178.354 14.1753 178.391 14.6076 178.391 15.1042ZM177.422 16.4167V14.9427C177.422 14.6024 177.401 14.3038 177.359 14.0469C177.321 13.7865 177.264 13.5642 177.188 13.3802C177.111 13.1962 177.014 13.0469 176.896 12.9323C176.781 12.8177 176.648 12.7344 176.495 12.6823C176.345 12.6267 176.177 12.599 175.99 12.599C175.76 12.599 175.557 12.6424 175.38 12.7292C175.203 12.8125 175.054 12.9462 174.932 13.1302C174.814 13.3142 174.724 13.5556 174.661 13.8542C174.599 14.1528 174.568 14.5156 174.568 14.9427V16.4167C174.568 16.7569 174.587 17.0573 174.625 17.3177C174.667 17.5781 174.727 17.8038 174.807 17.9948C174.887 18.1823 174.984 18.3368 175.099 18.4583C175.214 18.5799 175.345 18.6701 175.495 18.7292C175.648 18.7847 175.816 18.8125 176 18.8125C176.236 18.8125 176.443 18.7674 176.62 18.6771C176.797 18.5868 176.944 18.4462 177.063 18.2552C177.184 18.0608 177.274 17.8125 177.333 17.5104C177.392 17.2049 177.422 16.8403 177.422 16.4167Z" fill="black"/>
<mask id="mask0_2707_33193" style="mask-type:alpha" maskUnits="userSpaceOnUse" x="93" y="33" width="171" height="86">
<mask id="path-17-inside-1_2707_33193" fill="white">
<path d="M264 119C264 107.772 261.788 96.6539 257.492 86.2806C253.195 75.9072 246.897 66.4818 238.958 58.5424C231.018 50.603 221.593 44.3051 211.219 40.0083C200.846 35.7115 189.728 33.5 178.5 33.5C167.272 33.5 156.154 35.7115 145.781 40.0083C135.407 44.3051 125.982 50.603 118.042 58.5424C110.103 66.4818 103.805 75.9072 99.5083 86.2806C95.2115 96.6539 93 107.772 93 119L178.5 119H264Z"/>
</mask>
<path d="M264 119C264 107.772 261.788 96.6539 257.492 86.2806C253.195 75.9072 246.897 66.4818 238.958 58.5424C231.018 50.603 221.593 44.3051 211.219 40.0083C200.846 35.7115 189.728 33.5 178.5 33.5C167.272 33.5 156.154 35.7115 145.781 40.0083C135.407 44.3051 125.982 50.603 118.042 58.5424C110.103 66.4818 103.805 75.9072 99.5083 86.2806C95.2115 96.6539 93 107.772 93 119L178.5 119H264Z" fill="#D9D9D9" stroke="black" stroke-width="1.20423" mask="url(#path-17-inside-1_2707_33193)"/>
</mask>
<g mask="url(#mask0_2707_33193)">
<mask id="path-18-inside-2_2707_33193" fill="white">
<path d="M264 119C264 107.772 261.788 96.6539 257.492 86.2806C253.195 75.9072 246.897 66.4818 238.958 58.5424C231.018 50.603 221.593 44.3051 211.219 40.0083C200.846 35.7115 189.728 33.5 178.5 33.5C167.272 33.5 156.154 35.7115 145.781 40.0083C135.407 44.3051 125.982 50.603 118.042 58.5424C110.103 66.4818 103.805 75.9072 99.5083 86.2806C95.2115 96.6539 93 107.772 93 119L178.5 119H264Z"/>
</mask>
<path d="M264 119C264 107.772 261.788 96.6539 257.492 86.2806C253.195 75.9072 246.897 66.4818 238.958 58.5424C231.018 50.603 221.593 44.3051 211.219 40.0083C200.846 35.7115 189.728 33.5 178.5 33.5C167.272 33.5 156.154 35.7115 145.781 40.0083C135.407 44.3051 125.982 50.603 118.042 58.5424C110.103 66.4818 103.805 75.9072 99.5083 86.2806C95.2115 96.6539 93 107.772 93 119L178.5 119H264Z" fill="white" stroke="black" stroke-width="1.20423" mask="url(#path-18-inside-2_2707_33193)"/>
<path d="M175.5 -45.3768L175.5 -45.3768L175.5 118.699L175.5 -45.3768Z" fill="#FF3232"/>
<path d="M174.296 -45.3768L174.296 -45.3768L174.296 118.699L174.296 -45.3768Z" fill="white"/>
<path d="M177.29 -40.5599L177.29 -40.5599L177.29 123.516L177.29 -40.5599Z" fill="#FF3232"/>
<path d="M178.494 -40.5599L178.494 -40.5599L178.494 123.516L178.494 -40.5599Z" fill="white"/>
<mask id="path-23-inside-3_2707_33193" fill="white">
<path d="M264 119C264 107.772 261.788 96.6539 257.492 86.2806C253.195 75.9072 246.897 66.4818 238.958 58.5424C231.018 50.603 221.593 44.3051 211.219 40.0083C200.846 35.7115 189.728 33.5 178.5 33.5C167.272 33.5 156.154 35.7115 145.781 40.0083C135.407 44.3051 125.982 50.603 118.042 58.5424C110.103 66.4818 103.805 75.9072 99.5083 86.2806C95.2115 96.6539 93 107.772 93 119L178.5 119H264Z"/>
</mask>
<path d="M264 119C264 107.772 261.788 96.6539 257.492 86.2806C253.195 75.9072 246.897 66.4818 238.958 58.5424C231.018 50.603 221.593 44.3051 211.219 40.0083C200.846 35.7115 189.728 33.5 178.5 33.5C167.272 33.5 156.154 35.7115 145.781 40.0083C135.407 44.3051 125.982 50.603 118.042 58.5424C110.103 66.4818 103.805 75.9072 99.5083 86.2806C95.2115 96.6539 93 107.772 93 119L178.5 119H264Z" stroke="black" stroke-width="1.20423" mask="url(#path-23-inside-3_2707_33193)"/>
</g>
<line x1="176.5" y1="30" x2="176.5" y2="23" stroke="black" stroke-linecap="round"/>
<line x1="266.5" y1="118" x2="273.5" y2="118" stroke="black" stroke-linecap="round"/>
<line x1="265.406" y1="103.31" x2="272.299" y2="102.094" stroke="black" stroke-linecap="round"/>
<line x1="261.299" y1="88.5953" x2="267.877" y2="86.2012" stroke="black" stroke-linecap="round"/>
<line x1="255.183" y1="74.817" x2="261.245" y2="71.317" stroke="black" stroke-linecap="round"/>
<line x1="247.062" y1="62.9379" x2="252.424" y2="58.4384" stroke="black" stroke-linecap="round"/>
<line x1="235.938" y1="50.9239" x2="240.438" y2="45.5616" stroke="black" stroke-linecap="round"/>
<line x1="222.817" y1="42.7452" x2="226.317" y2="36.683" stroke="black" stroke-linecap="round"/>
<line x1="208.701" y1="35.3767" x2="211.095" y2="28.7989" stroke="black" stroke-linecap="round"/>
<line x1="193.594" y1="31.7992" x2="194.81" y2="24.9055" stroke="black" stroke-linecap="round"/>
<line x1="0.5" y1="-0.5" x2="7.5" y2="-0.5" transform="matrix(-1 0 0 1 88 118.5)" stroke="black" stroke-linecap="round"/>
<line x1="0.5" y1="-0.5" x2="7.5" y2="-0.5" transform="matrix(-0.984808 -0.173648 -0.173648 0.984808 89 103.889)" stroke="black" stroke-linecap="round"/>
<line x1="0.5" y1="-0.5" x2="7.5" y2="-0.5" transform="matrix(-0.939693 -0.34202 -0.34202 0.939693 93 89.2362)" stroke="black" stroke-linecap="round"/>
<line x1="0.5" y1="-0.5" x2="7.5" y2="-0.5" transform="matrix(-0.866025 -0.5 -0.5 0.866025 99 75.5)" stroke="black" stroke-linecap="round"/>
<line x1="0.5" y1="-0.5" x2="7.5" y2="-0.5" transform="matrix(-0.766044 -0.642788 -0.642788 0.766044 107 63.6423)" stroke="black" stroke-linecap="round"/>
<line x1="0.5" y1="-0.5" x2="7.5" y2="-0.5" transform="matrix(-0.642788 -0.766044 -0.766044 0.642788 118 51.6283)" stroke="black" stroke-linecap="round"/>
<line x1="0.5" y1="-0.5" x2="7.5" y2="-0.5" transform="matrix(-0.5 -0.866025 -0.866025 0.5 131 43.4282)" stroke="black" stroke-linecap="round"/>
<line x1="0.5" y1="-0.5" x2="7.5" y2="-0.5" transform="matrix(-0.34202 -0.939693 -0.939693 0.34202 145 36.0176)" stroke="black" stroke-linecap="round"/>
<line x1="0.5" y1="-0.5" x2="7.5" y2="-0.5" transform="matrix(-0.173648 -0.984808 -0.984808 0.173648 160 32.3784)" stroke="black" stroke-linecap="round"/>
<path d="M108 139.931C108 139.931 99.2949 131.647 92.2019 130.5C79.8558 128.503 70.0684 135.592 64.6827 146.88C58.8983 159.003 77.6071 168.768 71.3077 180.631C64.4197 193.604 49.8826 188.978 35.6346 192.544C22.6942 195.782 2 198.5 2 198.5" stroke="#030303" stroke-width="3" stroke-linecap="round" stroke-linejoin="round"/>
<path d="M249 139.5C249 139.5 253.158 130.419 258.5 128.5C266.729 125.544 273.621 131.932 278 139.5C283.563 149.114 267.503 157.848 273 167.5C278.869 177.804 290.92 172.274 302 176.5C316.362 181.977 322.391 190.672 337.5 193.5C348.248 195.512 365.5 193.5 365.5 193.5" stroke="#E05B5B" stroke-width="3" stroke-linecap="round" stroke-linejoin="round"/>
</svg>
