<svg width="60" height="66" viewBox="0 0 60 66" fill="none" xmlns="http://www.w3.org/2000/svg">
<path d="M22.3573 25.8809L33.6761 2.75828C33.8791 2.34362 34.3396 2.12181 34.7903 2.22157L55.7845 6.86784C56.5327 7.03342 56.8243 7.94437 56.3113 8.51362L43.856 22.3364C43.4378 22.8005 43.5428 23.5301 44.0748 23.8575L54.101 30.0277C54.6909 30.3908 54.742 31.229 54.2006 31.661L22.9074 56.6316C22.079 57.2926 20.9265 56.3802 21.3797 55.4223L31.5076 34.0177C31.7202 33.5684 31.5705 33.0311 31.1561 32.7565L22.703 27.1541C22.2844 26.8767 22.1365 26.3319 22.3573 25.8809Z" fill="#FDB441"/>
<path d="M22.3491 25.7465L32.9447 2.63971C33.1415 2.21064 33.6114 1.97758 34.0721 2.08066L52.5984 6.22662C53.3254 6.38932 53.6256 7.26135 53.1528 7.83711L41.6645 21.827C41.2891 22.2841 41.3904 22.9655 41.8826 23.2936L50.7245 29.1888C51.2699 29.5525 51.3238 30.3338 50.8335 30.7688L22.6377 55.7887C21.8335 56.5023 20.6237 55.6176 21.06 54.6349L30.4265 33.5403C30.6186 33.1077 30.4811 32.5998 30.0971 32.3231L22.6735 26.9747C22.2858 26.6954 22.1499 26.1809 22.3491 25.7465Z" fill="#FFD15B"/>
<path d="M7.44662 42.3611L8.48748 25.4423C8.5513 24.405 9.95884 24.1413 10.3938 25.0852L14.0825 33.0898C14.2813 33.521 14.756 33.7531 15.2184 33.645L18.9308 32.7771C19.6026 32.62 20.2279 33.1743 20.1525 33.8601L17.7948 55.3098C17.6728 56.4201 16.0988 56.5252 15.8302 55.441L12.8893 43.5714C12.762 43.0576 12.2565 42.7321 11.7362 42.8286L8.62724 43.4057C7.98759 43.5245 7.40667 43.0105 7.44662 42.3611Z" fill="#FDB441"/>
<path d="M7.0818 42.9872L7.78175 25.4651C7.82612 24.3543 9.3781 24.1341 9.72964 25.1888L12.7298 34.1894C12.8854 34.6562 13.3575 34.9404 13.8429 34.8595L17.7203 34.2133C18.3671 34.1055 18.9409 34.6389 18.8804 35.2919L17.0324 55.2507C16.9289 56.3682 15.3463 56.4937 15.0679 55.4066L12.1989 44.2013C12.0674 43.6879 11.5584 43.3663 11.0383 43.4679L8.27286 44.0085C7.63923 44.1324 7.05603 43.6323 7.0818 42.9872Z" fill="#FFD15B"/>
</svg>
