<svg width="134" height="116" viewBox="0 0 134 116" fill="none" xmlns="http://www.w3.org/2000/svg">
<path d="M18.9467 0.29303L14.8279 3.58811V80.5497H122.742L124.939 79.6496V3.8627V0.56762L18.9467 0.29303Z" fill="#D9D9D9" stroke="black" stroke-width="0.54918"/>
<rect x="14.0041" y="3.58807" width="108.738" height="77.9836" rx="1.92213" fill="#F8F8F8" stroke="black" stroke-width="0.54918"/>
<path d="M124.938 0.29303V79.6496L121.918 81.2971" stroke="black" stroke-width="0.54918"/>
<path d="M124.939 0.567627L122.193 4.1373" stroke="black" stroke-width="0.54918"/>
<path d="M1.60216 114.847L1.15283 109.904C1.1236 109.583 1.37682 109.305 1.69975 109.305H132.763C133.115 109.305 133.376 109.633 133.298 109.976L132.175 114.919C132.118 115.169 131.896 115.346 131.64 115.346H2.14909C1.86505 115.346 1.62788 115.13 1.60216 114.847Z" fill="#D9D9D9" stroke="black" stroke-width="0.54918"/>
<path d="M1.30773 107.975L14.9105 82.7127C15.1979 82.179 15.755 81.8463 16.3611 81.8463H120.826C121.488 81.8463 122.086 82.2423 122.343 82.8518L133.031 108.114C133.491 109.2 132.694 110.404 131.514 110.404H2.75834C1.51169 110.404 0.716693 109.073 1.30773 107.975Z" fill="#F8F8F8" stroke="black" stroke-width="0.54918"/>
<circle cx="4.63989" cy="4.63989" r="4.63989" transform="matrix(0.976474 0.215633 -0.976474 0.215633 28.832 74.707)" fill="#363A48"/>
<path d="M22.4246 76.7079C22.4246 77.0987 23.1417 77.4524 24.3013 77.7085V97.7188C23.1417 97.4627 22.4246 97.109 22.4246 96.7183V76.7079Z" fill="#4E515E"/>
<path d="M24.3013 77.7085C26.8035 78.2611 30.8605 78.2611 33.3627 77.7085V97.7188C30.8605 98.2714 26.8035 98.2714 24.3013 97.7188V77.7085Z" fill="#0A112D"/>
<path d="M35.2395 76.7079C35.2395 77.0987 34.5223 77.4524 33.3628 77.7085V97.7188C34.5223 97.4627 35.2395 97.109 35.2395 96.7183V76.7079Z" fill="#0A112D"/>
<circle cx="4.63989" cy="4.63989" r="4.63989" transform="matrix(0.976474 0.215633 -0.976474 0.215633 106.816 74.707)" fill="#F06969"/>
<path d="M100.408 76.7079C100.408 77.0987 101.125 77.4524 102.285 77.7085V97.7188C101.125 97.4627 100.408 97.109 100.408 96.7183V76.7079Z" fill="#FC9393"/>
<path d="M102.285 77.7085C104.787 78.2611 108.844 78.2611 111.346 77.7085V97.7188C108.844 98.2714 104.787 98.2714 102.285 97.7188V77.7085Z" fill="#E05B5B"/>
<path d="M113.223 76.7079C113.223 77.0987 112.506 77.4524 111.346 77.7085V97.7188C112.506 97.4627 113.223 97.109 113.223 96.7183V76.7079Z" fill="#E05B5B"/>
<path d="M70.6942 71.1619V73.4488C70.6169 73.5632 70.494 73.6919 70.3252 73.8349C70.1564 73.975 69.9233 74.098 69.6258 74.2039C69.3312 74.3068 68.9508 74.3583 68.4846 74.3583C68.1042 74.3583 67.7538 74.2925 67.4334 74.161C67.1159 74.0265 66.8399 73.832 66.6054 73.5775C66.3737 73.32 66.1935 73.0083 66.0648 72.6421C65.9389 72.2732 65.876 71.8556 65.876 71.3893V70.9045C65.876 70.4383 65.9303 70.0221 66.039 69.656C66.1506 69.2899 66.3136 68.9795 66.5281 68.7249C66.7427 68.4675 67.0058 68.273 67.3176 68.1414C67.6293 68.007 67.9869 67.9398 68.3902 67.9398C68.8679 67.9398 69.2669 68.0227 69.5872 68.1886C69.9105 68.3517 70.1622 68.5776 70.3424 68.8665C70.5254 69.1554 70.6427 69.4844 70.6942 69.8533H69.8661C69.8289 69.6274 69.7546 69.4214 69.643 69.2355C69.5343 69.0496 69.3784 68.9009 69.1753 68.7893C68.9723 68.6749 68.7105 68.6177 68.3902 68.6177C68.1013 68.6177 67.851 68.6706 67.6394 68.7764C67.4277 68.8823 67.2532 69.0339 67.1159 69.2312C66.9786 69.4286 66.8757 69.6674 66.807 69.9477C66.7412 70.228 66.7083 70.5441 66.7083 70.8959V71.3893C66.7083 71.7497 66.7498 72.0715 66.8328 72.3547C66.9186 72.6379 67.0401 72.8795 67.1974 73.0798C67.3548 73.2771 67.5421 73.4273 67.7595 73.5303C67.9797 73.6332 68.2229 73.6847 68.4889 73.6847C68.7835 73.6847 69.0223 73.6604 69.2054 73.6118C69.3884 73.5603 69.5315 73.5002 69.6344 73.4316C69.7374 73.3601 69.8161 73.2929 69.8704 73.2299V71.8312H68.4245V71.1619H70.6942Z" fill="black"/>
<path d="M68.862 7.4485V8.08349C68.862 8.42483 68.8315 8.71276 68.7705 8.94731C68.7095 9.18186 68.6218 9.37064 68.5074 9.51365C68.3929 9.65667 68.2547 9.76059 68.0926 9.82543C67.9324 9.88835 67.7513 9.91982 67.5492 9.91982C67.389 9.91982 67.2412 9.89979 67.1058 9.85975C66.9704 9.81971 66.8484 9.75582 66.7397 9.66811C66.6329 9.57849 66.5414 9.46217 66.4651 9.31915C66.3888 9.17613 66.3307 9.00261 66.2906 8.79857C66.2506 8.59454 66.2305 8.35618 66.2305 8.08349V7.4485C66.2305 7.10717 66.2611 6.82114 66.3221 6.59041C66.385 6.35968 66.4737 6.17471 66.5881 6.03551C66.7025 5.8944 66.8398 5.79334 67 5.73232C67.1621 5.6713 67.3432 5.64079 67.5434 5.64079C67.7055 5.64079 67.8543 5.66081 67.9896 5.70085C68.1269 5.73899 68.249 5.80096 68.3558 5.88677C68.4625 5.97068 68.5531 6.08318 68.6275 6.22429C68.7038 6.36349 68.7619 6.53416 68.802 6.73629C68.842 6.93842 68.862 7.17582 68.862 7.4485ZM68.33 8.1693V7.35983C68.33 7.17296 68.3186 7.00897 68.2957 6.86786C68.2747 6.72484 68.2433 6.6028 68.2013 6.50174C68.1594 6.40068 68.106 6.31868 68.0411 6.25575C67.9782 6.19283 67.9048 6.14706 67.8209 6.11846C67.7389 6.08795 67.6464 6.07269 67.5434 6.07269C67.4176 6.07269 67.306 6.09653 67.2088 6.1442C67.1115 6.18997 67.0295 6.26338 66.9628 6.36445C66.898 6.46551 66.8484 6.59804 66.8141 6.76203C66.7797 6.92602 66.7626 7.12529 66.7626 7.35983V8.1693C66.7626 8.35618 66.7731 8.52112 66.794 8.66414C66.8169 8.80715 66.8503 8.9311 66.8941 9.03598C66.938 9.13895 66.9914 9.22381 67.0543 9.29055C67.1172 9.35729 67.1897 9.40687 67.2717 9.43928C67.3556 9.46979 67.4481 9.48505 67.5492 9.48505C67.6788 9.48505 67.7923 9.46026 67.8895 9.41068C67.9868 9.3611 68.0678 9.28387 68.1327 9.17899C68.1994 9.07221 68.249 8.93587 68.2814 8.76997C68.3138 8.60216 68.33 8.40194 68.33 8.1693Z" fill="black"/>
<mask id="mask0_2791_4670" style="mask-type:alpha" maskUnits="userSpaceOnUse" x="21" y="18" width="95" height="48">
<mask id="path-17-inside-1_2791_4670" fill="white">
<path d="M115.877 65.0963C115.877 58.9301 114.663 52.8242 112.303 47.1274C109.943 41.4306 106.485 36.2543 102.124 31.8941C97.7642 27.534 92.5879 24.0753 86.8911 21.7156C81.1942 19.3559 75.0884 18.1414 68.9222 18.1414C62.756 18.1414 56.6502 19.3559 50.9533 21.7156C45.2565 24.0753 40.0802 27.534 35.7201 31.8941C31.3599 36.2543 27.9012 41.4306 25.5415 47.1274C23.1818 52.8242 21.9673 58.9301 21.9673 65.0963L68.9222 65.0963H115.877Z"/>
</mask>
<path d="M115.877 65.0963C115.877 58.9301 114.663 52.8242 112.303 47.1274C109.943 41.4306 106.485 36.2543 102.124 31.8941C97.7642 27.534 92.5879 24.0753 86.8911 21.7156C81.1942 19.3559 75.0884 18.1414 68.9222 18.1414C62.756 18.1414 56.6502 19.3559 50.9533 21.7156C45.2565 24.0753 40.0802 27.534 35.7201 31.8941C31.3599 36.2543 27.9012 41.4306 25.5415 47.1274C23.1818 52.8242 21.9673 58.9301 21.9673 65.0963L68.9222 65.0963H115.877Z" fill="#D9D9D9" stroke="black" stroke-width="0.661337" mask="url(#path-17-inside-1_2791_4670)"/>
</mask>
<g mask="url(#mask0_2791_4670)">
<mask id="path-18-inside-2_2791_4670" fill="white">
<path d="M115.877 65.0963C115.877 58.9301 114.663 52.8242 112.303 47.1274C109.943 41.4306 106.485 36.2543 102.124 31.8941C97.7642 27.534 92.5879 24.0753 86.8911 21.7156C81.1942 19.3559 75.0884 18.1414 68.9222 18.1414C62.756 18.1414 56.6502 19.3559 50.9533 21.7156C45.2565 24.0753 40.0802 27.534 35.7201 31.8941C31.3599 36.2543 27.9012 41.4306 25.5415 47.1274C23.1818 52.8242 21.9673 58.9301 21.9673 65.0963L68.9222 65.0963H115.877Z"/>
</mask>
<path d="M115.877 65.0963C115.877 58.9301 114.663 52.8242 112.303 47.1274C109.943 41.4306 106.485 36.2543 102.124 31.8941C97.7642 27.534 92.5879 24.0753 86.8911 21.7156C81.1942 19.3559 75.0884 18.1414 68.9222 18.1414C62.756 18.1414 56.6502 19.3559 50.9533 21.7156C45.2565 24.0753 40.0802 27.534 35.7201 31.8941C31.3599 36.2543 27.9012 41.4306 25.5415 47.1274C23.1818 52.8242 21.9673 58.9301 21.9673 65.0963L68.9222 65.0963H115.877Z" fill="white" stroke="black" stroke-width="0.661337" mask="url(#path-18-inside-2_2791_4670)"/>
<mask id="path-19-inside-3_2791_4670" fill="white">
<path d="M115.877 65.0963C115.877 58.9301 114.663 52.8242 112.303 47.1274C109.943 41.4306 106.485 36.2543 102.124 31.8941C97.7642 27.534 92.5879 24.0753 86.8911 21.7156C81.1942 19.3559 75.0884 18.1414 68.9222 18.1414C62.756 18.1414 56.6502 19.3559 50.9533 21.7156C45.2565 24.0753 40.0802 27.534 35.7201 31.8941C31.3599 36.2543 27.9012 41.4306 25.5415 47.1274C23.1818 52.8242 21.9673 58.9301 21.9673 65.0963L68.9222 65.0963H115.877Z"/>
</mask>
<path d="M115.877 65.0963C115.877 58.9301 114.663 52.8242 112.303 47.1274C109.943 41.4306 106.485 36.2543 102.124 31.8941C97.7642 27.534 92.5879 24.0753 86.8911 21.7156C81.1942 19.3559 75.0884 18.1414 68.9222 18.1414C62.756 18.1414 56.6502 19.3559 50.9533 21.7156C45.2565 24.0753 40.0802 27.534 35.7201 31.8941C31.3599 36.2543 27.9012 41.4306 25.5415 47.1274C23.1818 52.8242 21.9673 58.9301 21.9673 65.0963L68.9222 65.0963H115.877Z" stroke="black" stroke-width="0.661337" mask="url(#path-19-inside-3_2791_4670)"/>
</g>
<line x1="67.8238" y1="16.2192" x2="67.8238" y2="12.3749" stroke="black" stroke-width="0.54918" stroke-linecap="round"/>
<line x1="117.25" y1="64.5471" x2="121.094" y2="64.5471" stroke="black" stroke-width="0.54918" stroke-linecap="round"/>
<line x1="116.649" y1="56.4796" x2="120.435" y2="55.812" stroke="black" stroke-width="0.54918" stroke-linecap="round"/>
<line x1="114.394" y1="48.3986" x2="118.006" y2="47.0838" stroke="black" stroke-width="0.54918" stroke-linecap="round"/>
<line x1="111.035" y1="40.8319" x2="114.364" y2="38.9097" stroke="black" stroke-width="0.54918" stroke-linecap="round"/>
<line x1="106.575" y1="34.3081" x2="109.52" y2="31.837" stroke="black" stroke-width="0.54918" stroke-linecap="round"/>
<line x1="100.466" y1="27.7103" x2="102.937" y2="24.7654" stroke="black" stroke-width="0.54918" stroke-linecap="round"/>
<line x1="93.2601" y1="23.2187" x2="95.1822" y2="19.8894" stroke="black" stroke-width="0.54918" stroke-linecap="round"/>
<line x1="85.508" y1="19.172" x2="86.8228" y2="15.5596" stroke="black" stroke-width="0.54918" stroke-linecap="round"/>
<line x1="77.2116" y1="17.2074" x2="77.8791" y2="13.4215" stroke="black" stroke-width="0.54918" stroke-linecap="round"/>
<line x1="0.27459" y1="-0.27459" x2="4.11885" y2="-0.27459" transform="matrix(-1 0 0 1 19.2214 64.8217)" stroke="black" stroke-width="0.54918" stroke-linecap="round"/>
<line x1="0.27459" y1="-0.27459" x2="4.11885" y2="-0.27459" transform="matrix(-0.984808 -0.173648 -0.173648 0.984808 19.7705 56.7977)" stroke="black" stroke-width="0.54918" stroke-linecap="round"/>
<line x1="0.27459" y1="-0.27459" x2="4.11885" y2="-0.27459" transform="matrix(-0.939693 -0.34202 -0.34202 0.939693 21.9673 48.7505)" stroke="black" stroke-width="0.54918" stroke-linecap="round"/>
<line x1="0.27459" y1="-0.27459" x2="4.11885" y2="-0.27459" transform="matrix(-0.866025 -0.5 -0.5 0.866025 25.2622 41.207)" stroke="black" stroke-width="0.54918" stroke-linecap="round"/>
<line x1="0.27459" y1="-0.27459" x2="4.11885" y2="-0.27459" transform="matrix(-0.766044 -0.642788 -0.642788 0.766044 29.6558 34.6949)" stroke="black" stroke-width="0.54918" stroke-linecap="round"/>
<line x1="0.27459" y1="-0.27459" x2="4.11885" y2="-0.27459" transform="matrix(-0.642788 -0.766044 -0.766044 0.642788 35.6968 28.0971)" stroke="black" stroke-width="0.54918" stroke-linecap="round"/>
<line x1="0.27459" y1="-0.27459" x2="4.11885" y2="-0.27459" transform="matrix(-0.5 -0.866025 -0.866025 0.5 42.8362 23.5938)" stroke="black" stroke-width="0.54918" stroke-linecap="round"/>
<line x1="0.27459" y1="-0.27459" x2="4.11885" y2="-0.27459" transform="matrix(-0.34202 -0.939693 -0.939693 0.34202 50.5247 19.5239)" stroke="black" stroke-width="0.54918" stroke-linecap="round"/>
<line x1="0.27459" y1="-0.27459" x2="4.11885" y2="-0.27459" transform="matrix(-0.173648 -0.984808 -0.984808 0.173648 58.7622 17.5255)" stroke="black" stroke-width="0.54918" stroke-linecap="round"/>
<path d="M68.7071 64.1631L96.2843 38.0001L70.1213 65.5773C70.1213 65.5773 69.0976 65.9678 68.7071 65.5773C68.3166 65.1868 68.7071 64.1631 68.7071 64.1631Z" fill="#FF3232" stroke="#FF3232"/>
<path d="M55.4805 26.6446C55.8203 26.6446 56.1328 26.6915 56.418 26.7852C56.707 26.879 56.9668 27.0235 57.1973 27.2188C57.4277 27.4141 57.623 27.6602 57.7832 27.9571C57.9473 28.2501 58.0703 28.5997 58.1523 29.0059C58.2383 29.4083 58.2812 29.8672 58.2812 30.3829V31.6426C58.2812 32.1544 58.2383 32.6133 58.1523 33.0196C58.0703 33.4219 57.9492 33.7735 57.7891 34.0743C57.6289 34.3751 57.4336 34.6251 57.2031 34.8243C56.9766 35.0196 56.7188 35.1661 56.4297 35.2637C56.1445 35.3614 55.832 35.4102 55.4922 35.4102C55.1562 35.4102 54.8438 35.3614 54.5547 35.2637C54.2695 35.1661 54.0117 35.0196 53.7812 34.8243C53.5547 34.6251 53.3594 34.3751 53.1953 34.0743C53.0312 33.7735 52.9062 33.4219 52.8203 33.0196C52.7344 32.6133 52.6914 32.1544 52.6914 31.6426V30.3829C52.6914 29.8672 52.7344 29.4083 52.8203 29.0059C52.9062 28.5997 53.0293 28.2501 53.1895 27.9571C53.3535 27.6602 53.5488 27.4141 53.7754 27.2188C54.002 27.0235 54.2578 26.879 54.543 26.7852C54.832 26.6915 55.1445 26.6446 55.4805 26.6446ZM55.4805 27.7637C55.2617 27.7637 55.0664 27.8145 54.8945 27.9161C54.7227 28.0137 54.5781 28.1641 54.4609 28.3672C54.3438 28.5665 54.2539 28.8165 54.1914 29.1172C54.1328 29.418 54.1035 29.7696 54.1035 30.1719V30.4766H56.8691V30.1719C56.8691 29.8516 56.8496 29.5626 56.8105 29.3047C56.7715 29.0469 56.7148 28.8223 56.6406 28.6309C56.5664 28.4356 56.4727 28.2755 56.3594 28.1505C56.2461 28.0215 56.1152 27.9258 55.9668 27.8633C55.8223 27.7969 55.6602 27.7637 55.4805 27.7637ZM55.4922 34.2852C55.6719 34.2852 55.834 34.252 55.9785 34.1856C56.127 34.1192 56.2559 34.0215 56.3652 33.8926C56.4746 33.7598 56.5664 33.5958 56.6406 33.4005C56.7188 33.2012 56.7754 32.9727 56.8105 32.7149C56.8496 32.4532 56.8691 32.1602 56.8691 31.836V31.5665H54.1035V31.836C54.1035 32.1602 54.123 32.4532 54.1621 32.7149C54.2012 32.9727 54.2598 33.2012 54.3379 33.4005C54.416 33.5958 54.5098 33.7598 54.6191 33.8926C54.7324 34.0215 54.8613 34.1192 55.0059 34.1856C55.1543 34.252 55.3164 34.2852 55.4922 34.2852ZM68.8965 29.5626V30.7227H63.8105V29.5626H68.8965ZM68.8965 32.0469V33.2071H63.8105V32.0469H68.8965ZM78.2109 26.7325V35.293H76.7988V28.4083L74.707 29.1172V27.9512L78.041 26.7325H78.2109ZM83.1582 31.3262L82.0332 31.0508L82.4961 26.7618H87.0957V27.9571H83.668L83.4336 30.0489C83.5664 29.9708 83.75 29.8946 83.9844 29.8204C84.2188 29.7422 84.4863 29.7032 84.7871 29.7032C85.1895 29.7032 85.5488 29.7696 85.8652 29.9024C86.1855 30.0313 86.457 30.2208 86.6797 30.4708C86.9023 30.7169 87.0723 31.0176 87.1895 31.3731C87.3066 31.7247 87.3652 32.1212 87.3652 32.5626C87.3652 32.9571 87.3066 33.3262 87.1895 33.67C87.0762 34.0137 86.9043 34.3165 86.6738 34.5782C86.4434 34.8399 86.1523 35.045 85.8008 35.1934C85.4531 35.338 85.041 35.4102 84.5645 35.4102C84.209 35.4102 83.8672 35.3594 83.5391 35.2579C83.2148 35.1524 82.9238 34.9981 82.666 34.795C82.4082 34.588 82.2012 34.334 82.0449 34.0333C81.8887 33.7286 81.7988 33.379 81.7754 32.9844H83.1582C83.1934 33.2618 83.2695 33.4981 83.3867 33.6934C83.5078 33.8848 83.668 34.0313 83.8672 34.1329C84.0664 34.2344 84.2969 34.2852 84.5586 34.2852C84.7969 34.2852 85.002 34.2442 85.1738 34.1622C85.3457 34.0762 85.4883 33.9551 85.6016 33.7989C85.7188 33.6387 85.8047 33.4512 85.8594 33.2364C85.918 33.0215 85.9473 32.7833 85.9473 32.5215C85.9473 32.2715 85.9141 32.043 85.8477 31.836C85.7852 31.629 85.6895 31.4493 85.5605 31.2969C85.4355 31.1446 85.2773 31.0274 85.0859 30.9454C84.8945 30.8594 84.6738 30.8165 84.4238 30.8165C84.0879 30.8165 83.8301 30.8653 83.6504 30.963C83.4746 31.0606 83.3105 31.1817 83.1582 31.3262Z" fill="black"/>
</svg>
