<svg width="134" height="117" viewBox="0 0 134 117" fill="none" xmlns="http://www.w3.org/2000/svg">
<path d="M18.9467 1L14.8279 4.29508V81.2567H122.742L124.939 80.3566V4.56967V1.27459L18.9467 1Z" fill="#D9D9D9" stroke="black" stroke-width="0.54918"/>
<rect x="14.0041" y="4.29504" width="108.738" height="77.9836" rx="1.92213" fill="#F8F8F8" stroke="black" stroke-width="0.54918"/>
<path d="M124.938 1V80.3566L121.918 82.0041" stroke="black" stroke-width="0.54918"/>
<path d="M124.939 1.2746L122.193 4.84427" stroke="black" stroke-width="0.54918"/>
<path d="M1.60216 115.554L1.15283 110.611C1.1236 110.29 1.37682 110.012 1.69975 110.012H132.763C133.115 110.012 133.376 110.34 133.298 110.683L132.175 115.626C132.118 115.876 131.896 116.053 131.64 116.053H2.14909C1.86505 116.053 1.62788 115.837 1.60216 115.554Z" fill="#D9D9D9" stroke="black" stroke-width="0.54918"/>
<path d="M1.30773 108.682L14.9105 83.4197C15.1979 82.886 15.755 82.5532 16.3611 82.5532H120.826C121.488 82.5532 122.086 82.9493 122.343 83.5588L133.031 108.821C133.491 109.907 132.694 111.111 131.514 111.111H2.75834C1.51169 111.111 0.716693 109.78 1.30773 108.682Z" fill="#F8F8F8" stroke="black" stroke-width="0.54918"/>
<circle cx="4.63989" cy="4.63989" r="4.63989" transform="matrix(0.976474 0.215633 -0.976474 0.215633 28.832 75.4139)" fill="#363A48"/>
<path d="M22.4246 77.4149C22.4246 77.8056 23.1417 78.1594 24.3013 78.4154V98.4258C23.1417 98.1697 22.4246 97.816 22.4246 97.4252V77.4149Z" fill="#4E515E"/>
<path d="M24.3013 78.4155C26.8035 78.968 30.8605 78.968 33.3627 78.4155V98.4258C30.8605 98.9784 26.8035 98.9784 24.3013 98.4258V78.4155Z" fill="#0A112D"/>
<path d="M35.2395 77.4149C35.2395 77.8056 34.5223 78.1594 33.3628 78.4154V98.4258C34.5223 98.1697 35.2395 97.816 35.2395 97.4252V77.4149Z" fill="#0A112D"/>
<circle cx="4.63989" cy="4.63989" r="4.63989" transform="matrix(0.976474 0.215633 -0.976474 0.215633 106.816 75.4139)" fill="#F06969"/>
<path d="M100.408 77.4149C100.408 77.8056 101.125 78.1594 102.285 78.4154V98.4258C101.125 98.1697 100.408 97.816 100.408 97.4252V77.4149Z" fill="#FC9393"/>
<path d="M102.285 78.4155C104.787 78.968 108.844 78.968 111.346 78.4155V98.4258C108.844 98.9784 104.787 98.9784 102.285 98.4258V78.4155Z" fill="#E05B5B"/>
<path d="M113.223 77.4149C113.223 77.8056 112.506 78.1594 111.346 78.4154V98.4258C112.506 98.1697 113.223 97.816 113.223 97.4252V77.4149Z" fill="#E05B5B"/>
<path d="M70.6942 71.8689V74.1557C70.6169 74.2701 70.494 74.3988 70.3252 74.5419C70.1564 74.682 69.9233 74.805 69.6258 74.9108C69.3312 75.0138 68.9508 75.0653 68.4846 75.0653C68.1042 75.0653 67.7538 74.9995 67.4334 74.8679C67.1159 74.7335 66.8399 74.539 66.6054 74.2844C66.3737 74.027 66.1935 73.7152 66.0648 73.3491C65.9389 72.9801 65.876 72.5625 65.876 72.0963V71.6115C65.876 71.1452 65.9303 70.7291 66.039 70.3629C66.1506 69.9968 66.3136 69.6865 66.5281 69.4319C66.7427 69.1745 67.0058 68.98 67.3176 68.8484C67.6293 68.714 67.9869 68.6468 68.3902 68.6468C68.8679 68.6468 69.2669 68.7297 69.5872 68.8956C69.9105 69.0586 70.1622 69.2846 70.3424 69.5735C70.5254 69.8624 70.6427 70.1913 70.6942 70.5603H69.8661C69.8289 70.3343 69.7546 70.1284 69.643 69.9425C69.5343 69.7566 69.3784 69.6078 69.1753 69.4963C68.9723 69.3819 68.7105 69.3247 68.3902 69.3247C68.1013 69.3247 67.851 69.3776 67.6394 69.4834C67.4277 69.5892 67.2532 69.7408 67.1159 69.9382C66.9786 70.1355 66.8757 70.3744 66.807 70.6547C66.7412 70.935 66.7083 71.2511 66.7083 71.6029V72.0963C66.7083 72.4567 66.7498 72.7785 66.8328 73.0617C66.9186 73.3448 67.0401 73.5865 67.1974 73.7867C67.3548 73.9841 67.5421 74.1343 67.7595 74.2372C67.9797 74.3402 68.2229 74.3917 68.4889 74.3917C68.7835 74.3917 69.0223 74.3674 69.2054 74.3188C69.3884 74.2673 69.5315 74.2072 69.6344 74.1386C69.7374 74.0671 69.8161 73.9998 69.8704 73.9369V72.5382H68.4245V71.8689H70.6942Z" fill="black"/>
<path d="M68.862 8.15547V8.79046C68.862 9.1318 68.8315 9.41973 68.7705 9.65428C68.7095 9.88883 68.6218 10.0776 68.5074 10.2206C68.3929 10.3636 68.2547 10.4676 68.0926 10.5324C67.9324 10.5953 67.7513 10.6268 67.5492 10.6268C67.389 10.6268 67.2412 10.6068 67.1058 10.5667C66.9704 10.5267 66.8484 10.4628 66.7397 10.3751C66.6329 10.2855 66.5414 10.1691 66.4651 10.0261C66.3888 9.8831 66.3307 9.70958 66.2906 9.50554C66.2506 9.30151 66.2305 9.06315 66.2305 8.79046V8.15547C66.2305 7.81414 66.2611 7.52811 66.3221 7.29738C66.385 7.06665 66.4737 6.88168 66.5881 6.74248C66.7025 6.60137 66.8398 6.50031 67 6.43929C67.1621 6.37827 67.3432 6.34776 67.5434 6.34776C67.7055 6.34776 67.8543 6.36778 67.9896 6.40782C68.1269 6.44596 68.249 6.50793 68.3558 6.59374C68.4625 6.67765 68.5531 6.79015 68.6275 6.93126C68.7038 7.07046 68.7619 7.24113 68.802 7.44326C68.842 7.64539 68.862 7.88279 68.862 8.15547ZM68.33 8.87627V8.0668C68.33 7.87993 68.3186 7.71594 68.2957 7.57483C68.2747 7.43182 68.2433 7.30978 68.2013 7.20871C68.1594 7.10765 68.106 7.02565 68.0411 6.96272C67.9782 6.8998 67.9048 6.85403 67.8209 6.82543C67.7389 6.79492 67.6464 6.77966 67.5434 6.77966C67.4176 6.77966 67.306 6.8035 67.2088 6.85117C67.1115 6.89694 67.0295 6.97035 66.9628 7.07142C66.898 7.17248 66.8484 7.30501 66.8141 7.469C66.7797 7.63299 66.7626 7.83226 66.7626 8.0668V8.87627C66.7626 9.06315 66.7731 9.22809 66.794 9.37111C66.8169 9.51412 66.8503 9.63807 66.8941 9.74295C66.938 9.84592 66.9914 9.93078 67.0543 9.99752C67.1172 10.0643 67.1897 10.1138 67.2717 10.1463C67.3556 10.1768 67.4481 10.192 67.5492 10.192C67.6788 10.192 67.7923 10.1672 67.8895 10.1177C67.9868 10.0681 68.0678 9.99084 68.1327 9.88596C68.1994 9.77918 68.249 9.64284 68.2814 9.47694C68.3138 9.30913 68.33 9.10891 68.33 8.87627Z" fill="black"/>
<mask id="mask0_2791_4615" style="mask-type:alpha" maskUnits="userSpaceOnUse" x="21" y="18" width="95" height="48">
<mask id="path-17-inside-1_2791_4615" fill="white">
<path d="M115.877 65.8032C115.877 59.637 114.663 53.5312 112.303 47.8344C109.943 42.1375 106.485 36.9613 102.124 32.6011C97.7642 28.2409 92.5879 24.7823 86.8911 22.4226C81.1942 20.0629 75.0884 18.8483 68.9222 18.8483C62.756 18.8483 56.6502 20.0629 50.9533 22.4226C45.2565 24.7823 40.0802 28.2409 35.7201 32.6011C31.3599 36.9613 27.9012 42.1375 25.5415 47.8344C23.1818 53.5312 21.9673 59.637 21.9673 65.8032L68.9222 65.8032H115.877Z"/>
</mask>
<path d="M115.877 65.8032C115.877 59.637 114.663 53.5312 112.303 47.8344C109.943 42.1375 106.485 36.9613 102.124 32.6011C97.7642 28.2409 92.5879 24.7823 86.8911 22.4226C81.1942 20.0629 75.0884 18.8483 68.9222 18.8483C62.756 18.8483 56.6502 20.0629 50.9533 22.4226C45.2565 24.7823 40.0802 28.2409 35.7201 32.6011C31.3599 36.9613 27.9012 42.1375 25.5415 47.8344C23.1818 53.5312 21.9673 59.637 21.9673 65.8032L68.9222 65.8032H115.877Z" fill="#D9D9D9" stroke="black" stroke-width="0.661337" mask="url(#path-17-inside-1_2791_4615)"/>
</mask>
<g mask="url(#mask0_2791_4615)">
<mask id="path-18-inside-2_2791_4615" fill="white">
<path d="M115.877 65.8032C115.877 59.637 114.663 53.5312 112.303 47.8344C109.943 42.1375 106.485 36.9613 102.124 32.6011C97.7642 28.2409 92.5879 24.7823 86.8911 22.4226C81.1942 20.0629 75.0884 18.8483 68.9222 18.8483C62.756 18.8483 56.6502 20.0629 50.9533 22.4226C45.2565 24.7823 40.0802 28.2409 35.7201 32.6011C31.3599 36.9613 27.9012 42.1375 25.5415 47.8344C23.1818 53.5312 21.9673 59.637 21.9673 65.8032L68.9222 65.8032H115.877Z"/>
</mask>
<path d="M115.877 65.8032C115.877 59.637 114.663 53.5312 112.303 47.8344C109.943 42.1375 106.485 36.9613 102.124 32.6011C97.7642 28.2409 92.5879 24.7823 86.8911 22.4226C81.1942 20.0629 75.0884 18.8483 68.9222 18.8483C62.756 18.8483 56.6502 20.0629 50.9533 22.4226C45.2565 24.7823 40.0802 28.2409 35.7201 32.6011C31.3599 36.9613 27.9012 42.1375 25.5415 47.8344C23.1818 53.5312 21.9673 59.637 21.9673 65.8032L68.9222 65.8032H115.877Z" fill="white" stroke="black" stroke-width="0.661337" mask="url(#path-18-inside-2_2791_4615)"/>
<mask id="path-19-inside-3_2791_4615" fill="white">
<path d="M115.877 65.8032C115.877 59.637 114.663 53.5312 112.303 47.8344C109.943 42.1375 106.485 36.9613 102.124 32.6011C97.7642 28.2409 92.5879 24.7823 86.8911 22.4226C81.1942 20.0629 75.0884 18.8483 68.9222 18.8483C62.756 18.8483 56.6502 20.0629 50.9533 22.4226C45.2565 24.7823 40.0802 28.2409 35.7201 32.6011C31.3599 36.9613 27.9012 42.1375 25.5415 47.8344C23.1818 53.5312 21.9673 59.637 21.9673 65.8032L68.9222 65.8032H115.877Z"/>
</mask>
<path d="M115.877 65.8032C115.877 59.637 114.663 53.5312 112.303 47.8344C109.943 42.1375 106.485 36.9613 102.124 32.6011C97.7642 28.2409 92.5879 24.7823 86.8911 22.4226C81.1942 20.0629 75.0884 18.8483 68.9222 18.8483C62.756 18.8483 56.6502 20.0629 50.9533 22.4226C45.2565 24.7823 40.0802 28.2409 35.7201 32.6011C31.3599 36.9613 27.9012 42.1375 25.5415 47.8344C23.1818 53.5312 21.9673 59.637 21.9673 65.8032L68.9222 65.8032H115.877Z" stroke="black" stroke-width="0.661337" mask="url(#path-19-inside-3_2791_4615)"/>
</g>
<line x1="67.8238" y1="16.9262" x2="67.8238" y2="13.0819" stroke="black" stroke-width="0.54918" stroke-linecap="round"/>
<line x1="117.25" y1="65.2541" x2="121.094" y2="65.2541" stroke="black" stroke-width="0.54918" stroke-linecap="round"/>
<line x1="116.649" y1="57.1865" x2="120.435" y2="56.519" stroke="black" stroke-width="0.54918" stroke-linecap="round"/>
<line x1="114.394" y1="49.1056" x2="118.006" y2="47.7908" stroke="black" stroke-width="0.54918" stroke-linecap="round"/>
<line x1="111.035" y1="41.5388" x2="114.364" y2="39.6167" stroke="black" stroke-width="0.54918" stroke-linecap="round"/>
<line x1="106.575" y1="35.0151" x2="109.52" y2="32.544" stroke="black" stroke-width="0.54918" stroke-linecap="round"/>
<line x1="100.466" y1="28.4172" x2="102.937" y2="25.4723" stroke="black" stroke-width="0.54918" stroke-linecap="round"/>
<line x1="93.2601" y1="23.9256" x2="95.1822" y2="20.5964" stroke="black" stroke-width="0.54918" stroke-linecap="round"/>
<line x1="85.508" y1="19.879" x2="86.8228" y2="16.2665" stroke="black" stroke-width="0.54918" stroke-linecap="round"/>
<line x1="77.2116" y1="17.9143" x2="77.8791" y2="14.1285" stroke="black" stroke-width="0.54918" stroke-linecap="round"/>
<line x1="0.27459" y1="-0.27459" x2="4.11885" y2="-0.27459" transform="matrix(-1 0 0 1 19.2214 65.5287)" stroke="black" stroke-width="0.54918" stroke-linecap="round"/>
<line x1="0.27459" y1="-0.27459" x2="4.11885" y2="-0.27459" transform="matrix(-0.984808 -0.173648 -0.173648 0.984808 19.7705 57.5046)" stroke="black" stroke-width="0.54918" stroke-linecap="round"/>
<line x1="0.27459" y1="-0.27459" x2="4.11885" y2="-0.27459" transform="matrix(-0.939693 -0.34202 -0.34202 0.939693 21.9673 49.4575)" stroke="black" stroke-width="0.54918" stroke-linecap="round"/>
<line x1="0.27459" y1="-0.27459" x2="4.11885" y2="-0.27459" transform="matrix(-0.866025 -0.5 -0.5 0.866025 25.2622 41.9139)" stroke="black" stroke-width="0.54918" stroke-linecap="round"/>
<line x1="0.27459" y1="-0.27459" x2="4.11885" y2="-0.27459" transform="matrix(-0.766044 -0.642788 -0.642788 0.766044 29.6558 35.4019)" stroke="black" stroke-width="0.54918" stroke-linecap="round"/>
<line x1="0.27459" y1="-0.27459" x2="4.11885" y2="-0.27459" transform="matrix(-0.642788 -0.766044 -0.766044 0.642788 35.6968 28.8041)" stroke="black" stroke-width="0.54918" stroke-linecap="round"/>
<line x1="0.27459" y1="-0.27459" x2="4.11885" y2="-0.27459" transform="matrix(-0.5 -0.866025 -0.866025 0.5 42.8362 24.3007)" stroke="black" stroke-width="0.54918" stroke-linecap="round"/>
<line x1="0.27459" y1="-0.27459" x2="4.11885" y2="-0.27459" transform="matrix(-0.34202 -0.939693 -0.939693 0.34202 50.5247 20.2309)" stroke="black" stroke-width="0.54918" stroke-linecap="round"/>
<line x1="0.27459" y1="-0.27459" x2="4.11885" y2="-0.27459" transform="matrix(-0.173648 -0.984808 -0.984808 0.173648 58.7622 18.2324)" stroke="black" stroke-width="0.54918" stroke-linecap="round"/>
<path d="M70.0087 64.2974L108.004 65.4623L70 66.2973C70 66.2973 69.0019 65.8453 69.0043 65.293C69.0067 64.7407 70.0087 64.2974 70.0087 64.2974Z" fill="#FF3232" stroke="#FF3232"/>
<path d="M55.4805 27.6446C55.8203 27.6446 56.1328 27.6915 56.418 27.7852C56.707 27.879 56.9668 28.0235 57.1973 28.2188C57.4277 28.4141 57.623 28.6602 57.7832 28.9571C57.9473 29.2501 58.0703 29.5997 58.1523 30.0059C58.2383 30.4083 58.2812 30.8672 58.2812 31.3829V32.6426C58.2812 33.1544 58.2383 33.6133 58.1523 34.0196C58.0703 34.4219 57.9492 34.7735 57.7891 35.0743C57.6289 35.3751 57.4336 35.6251 57.2031 35.8243C56.9766 36.0196 56.7188 36.1661 56.4297 36.2637C56.1445 36.3614 55.832 36.4102 55.4922 36.4102C55.1562 36.4102 54.8438 36.3614 54.5547 36.2637C54.2695 36.1661 54.0117 36.0196 53.7812 35.8243C53.5547 35.6251 53.3594 35.3751 53.1953 35.0743C53.0312 34.7735 52.9062 34.4219 52.8203 34.0196C52.7344 33.6133 52.6914 33.1544 52.6914 32.6426V31.3829C52.6914 30.8672 52.7344 30.4083 52.8203 30.0059C52.9062 29.5997 53.0293 29.2501 53.1895 28.9571C53.3535 28.6602 53.5488 28.4141 53.7754 28.2188C54.002 28.0235 54.2578 27.879 54.543 27.7852C54.832 27.6915 55.1445 27.6446 55.4805 27.6446ZM55.4805 28.7637C55.2617 28.7637 55.0664 28.8145 54.8945 28.9161C54.7227 29.0137 54.5781 29.1641 54.4609 29.3672C54.3438 29.5665 54.2539 29.8165 54.1914 30.1172C54.1328 30.418 54.1035 30.7696 54.1035 31.1719V31.4766H56.8691V31.1719C56.8691 30.8516 56.8496 30.5626 56.8105 30.3047C56.7715 30.0469 56.7148 29.8223 56.6406 29.6309C56.5664 29.4356 56.4727 29.2755 56.3594 29.1505C56.2461 29.0215 56.1152 28.9258 55.9668 28.8633C55.8223 28.7969 55.6602 28.7637 55.4805 28.7637ZM55.4922 35.2852C55.6719 35.2852 55.834 35.252 55.9785 35.1856C56.127 35.1192 56.2559 35.0215 56.3652 34.8926C56.4746 34.7598 56.5664 34.5958 56.6406 34.4005C56.7188 34.2012 56.7754 33.9727 56.8105 33.7149C56.8496 33.4532 56.8691 33.1602 56.8691 32.836V32.5665H54.1035V32.836C54.1035 33.1602 54.123 33.4532 54.1621 33.7149C54.2012 33.9727 54.2598 34.2012 54.3379 34.4005C54.416 34.5958 54.5098 34.7598 54.6191 34.8926C54.7324 35.0215 54.8613 35.1192 55.0059 35.1856C55.1543 35.252 55.3164 35.2852 55.4922 35.2852ZM68.8965 30.5626V31.7227H63.8105V30.5626H68.8965ZM68.8965 33.0469V34.2071H63.8105V33.0469H68.8965ZM76.0137 31.3887H76.8574C77.1855 31.3887 77.457 31.3321 77.6719 31.2188C77.8906 31.1055 78.0527 30.9493 78.1582 30.7501C78.2637 30.5508 78.3164 30.3223 78.3164 30.0645C78.3164 29.795 78.2676 29.5645 78.1699 29.3731C78.0762 29.1778 77.9316 29.0274 77.7363 28.9219C77.5449 28.8165 77.3008 28.7637 77.0039 28.7637C76.7539 28.7637 76.5273 28.8145 76.3242 28.9161C76.125 29.0137 75.9668 29.1544 75.8496 29.338C75.7324 29.5176 75.6738 29.7325 75.6738 29.9825H74.2559C74.2559 29.5294 74.375 29.127 74.6133 28.7755C74.8516 28.4239 75.1758 28.1485 75.5859 27.9493C76 27.7462 76.4648 27.6446 76.9805 27.6446C77.5312 27.6446 78.0117 27.7364 78.4219 27.92C78.8359 28.0997 79.1582 28.3692 79.3887 28.7286C79.6191 29.088 79.7344 29.5333 79.7344 30.0645C79.7344 30.3067 79.6777 30.5528 79.5645 30.8028C79.4512 31.0528 79.2832 31.2813 79.0605 31.4883C78.8379 31.6915 78.5605 31.8575 78.2285 31.9864C77.8965 32.1114 77.5117 32.1739 77.0742 32.1739H76.0137V31.3887ZM76.0137 32.4903V31.7169H77.0742C77.5742 31.7169 78 31.7755 78.3516 31.8926C78.707 32.0098 78.9961 32.1719 79.2188 32.379C79.4414 32.5821 79.6035 32.8145 79.7051 33.0762C79.8105 33.338 79.8633 33.6153 79.8633 33.9083C79.8633 34.3067 79.791 34.6622 79.6465 34.9747C79.5059 35.2833 79.3047 35.545 79.043 35.7598C78.7812 35.9747 78.4746 36.1368 78.123 36.2462C77.7754 36.3555 77.3965 36.4102 76.9863 36.4102C76.6191 36.4102 76.2676 36.3594 75.9316 36.2579C75.5957 36.1563 75.2949 36.0059 75.0293 35.8067C74.7637 35.6036 74.5527 35.3516 74.3965 35.0508C74.2441 34.7462 74.168 34.3946 74.168 33.9962H75.5801C75.5801 34.2501 75.6387 34.4747 75.7559 34.67C75.877 34.8614 76.0449 35.0118 76.2598 35.1212C76.4785 35.2305 76.7285 35.2852 77.0098 35.2852C77.3066 35.2852 77.5625 35.2325 77.7773 35.127C77.9922 35.0215 78.1562 34.8653 78.2695 34.6583C78.3867 34.4512 78.4453 34.2012 78.4453 33.9083C78.4453 33.5762 78.3809 33.3067 78.252 33.0997C78.123 32.8926 77.9395 32.7403 77.7012 32.6426C77.4629 32.5411 77.1816 32.4903 76.8574 32.4903H76.0137ZM87.2363 31.3126V32.7071C87.2363 33.3751 87.1699 33.9454 87.0371 34.418C86.9082 34.8868 86.7207 35.2676 86.4746 35.5606C86.2285 35.8536 85.9336 36.0684 85.5898 36.2051C85.25 36.3419 84.8691 36.4102 84.4473 36.4102C84.1113 36.4102 83.7988 36.3672 83.5098 36.2813C83.2246 36.1954 82.9668 36.0606 82.7363 35.877C82.5059 35.6934 82.3086 35.4571 82.1445 35.168C81.9844 34.8751 81.8594 34.5255 81.7695 34.1192C81.6836 33.713 81.6406 33.2422 81.6406 32.7071V31.3126C81.6406 30.6407 81.707 30.0743 81.8398 29.6133C81.9727 29.1485 82.1621 28.7715 82.4082 28.4825C82.6543 28.1895 82.9473 27.9766 83.2871 27.8438C83.6309 27.711 84.0137 27.6446 84.4355 27.6446C84.7754 27.6446 85.0879 27.6876 85.373 27.7735C85.6621 27.8555 85.9199 27.9864 86.1465 28.1661C86.377 28.3458 86.5723 28.5801 86.7324 28.8692C86.8965 29.1544 87.0215 29.5001 87.1074 29.9063C87.1934 30.3087 87.2363 30.7774 87.2363 31.3126ZM85.8242 32.9063V31.1016C85.8242 30.7618 85.8047 30.463 85.7656 30.2051C85.7266 29.9434 85.668 29.7227 85.5898 29.543C85.5156 29.3594 85.4219 29.211 85.3086 29.0977C85.1953 28.9805 85.0664 28.8965 84.9219 28.8458C84.7773 28.7911 84.6152 28.7637 84.4355 28.7637C84.2168 28.7637 84.0215 28.8067 83.8496 28.8926C83.6777 28.9747 83.5332 29.1075 83.416 29.2911C83.2988 29.4747 83.209 29.7169 83.1465 30.0176C83.0879 30.3145 83.0586 30.6758 83.0586 31.1016V32.9063C83.0586 33.2501 83.0781 33.5528 83.1172 33.8145C83.1562 34.0762 83.2148 34.3008 83.293 34.4883C83.3711 34.6719 83.4648 34.8243 83.5742 34.9454C83.6875 35.0626 83.8164 35.1485 83.9609 35.2032C84.1094 35.2579 84.2715 35.2852 84.4473 35.2852C84.6699 35.2852 84.8672 35.2422 85.0391 35.1563C85.2109 35.0704 85.3555 34.9337 85.4727 34.7462C85.5898 34.5547 85.6777 34.3067 85.7363 34.002C85.7949 33.6973 85.8242 33.3321 85.8242 32.9063Z" fill="black"/>
</svg>
