<svg width="98" height="102" viewBox="0 0 98 102" fill="none" xmlns="http://www.w3.org/2000/svg">
<path d="M29 66C29 64.8954 29.8954 64 31 64H69C70.1046 64 71 64.8954 71 66V99.2873C71 100.634 69.6954 101.596 68.4086 101.198L50.5914 95.683C50.2061 95.5638 49.7939 95.5638 49.4086 95.683L31.5914 101.198C30.3046 101.596 29 100.634 29 99.2873V66Z" fill="#FF3D00"/>
<path fill-rule="evenodd" clip-rule="evenodd" d="M71 79.407C70.6757 79.4295 70.3448 79.4282 70.009 79.4014C67.2009 79.1773 64.5631 80.7704 63.4543 83.36C61.8229 87.17 57.1119 88.5323 53.6988 86.181C51.379 84.5829 48.298 84.6436 46.043 86.3318C42.7252 88.8157 37.9641 87.64 36.184 83.8972C34.9741 81.3532 32.2755 79.8653 29.4785 80.1999C29.318 80.2191 29.1584 80.2324 29 80.2399V64H71V79.407Z" fill="#DD2C00"/>
<path d="M52.3631 14.3801C55.681 11.8962 60.442 13.0719 62.2222 16.8148V16.8148C63.4321 19.3587 66.1306 20.8466 68.9277 20.512V20.512C73.043 20.0198 76.5783 23.4186 76.2486 27.55V27.55C76.0244 30.3581 77.6175 32.9959 80.2071 34.1047V34.1047C84.0171 35.7361 85.3794 40.4472 83.0281 43.8602V43.8602C81.43 46.18 81.4907 49.261 83.1789 51.516V51.516C85.6628 54.8338 84.4871 59.5949 80.7443 61.3751V61.3751C78.2004 62.585 76.7125 65.2835 77.047 68.0806V68.0806C77.5392 72.1958 74.1405 75.7312 70.009 75.4014V75.4014C67.201 75.1773 64.5631 76.7704 63.4543 79.3599V79.3599C61.823 83.17 57.1119 84.5323 53.6988 82.181V82.181C51.379 80.5829 48.2981 80.6436 46.043 82.3318V82.3318C42.7252 84.8157 37.9641 83.64 36.184 79.8972V79.8972C34.974 77.3533 32.2755 75.8653 29.4785 76.1999V76.1999C25.3632 76.6921 21.8278 73.2933 22.1576 69.1619V69.1619C22.3817 66.3538 20.7887 63.716 18.1991 62.6072V62.6072C14.3891 60.9758 13.0267 56.2647 15.378 52.8517V52.8517C16.9762 50.5319 16.9155 47.4509 15.2272 45.1959V45.1959C12.7433 41.8781 13.9191 37.117 17.6619 35.3369V35.3369C20.2058 34.1269 21.6937 31.4284 21.3592 28.6313V28.6313C20.8669 24.5161 24.2657 20.9807 28.3971 21.3105V21.3105C31.2052 21.5346 33.843 19.9416 34.9518 17.352V17.352C36.5832 13.542 41.2943 12.1796 44.7074 14.5309V14.5309C47.0271 16.1291 50.1081 16.0684 52.3631 14.3801V14.3801Z" fill="#FFA000"/>
<circle cx="49.5" cy="48.5" r="25.5" fill="#FFCA28"/>
<circle cx="49.5" cy="48.5" r="21.5" fill="#FFB300"/>
</svg>
