<svg width="88" height="80" viewBox="0 0 88 80" fill="none" xmlns="http://www.w3.org/2000/svg">
<path fill-rule="evenodd" clip-rule="evenodd" d="M0 4C0 1.79086 1.79086 0 4 0H12H32H40C42.2091 0 44 1.79086 44 4V76C44 78.2091 42.2091 80 40 80H4C1.79086 80 0 78.2091 0 76V4ZM32 4H12V7H32V4ZM8 4L4 4V76H40V4H36V7C36 9.20914 34.2091 11 32 11H12C9.79086 11 8 9.20914 8 7V4ZM14 72C14 70.8954 14.8954 70 16 70H28C29.1046 70 30 70.8954 30 72C30 73.1046 29.1046 74 28 74H16C14.8954 74 14 73.1046 14 72Z" fill="#004A76"/>
<path fill-rule="evenodd" clip-rule="evenodd" d="M88 40C88 37.7909 86.2091 36 84 36H42V40H84L84 44H81C78.7909 44 77 45.7909 77 48V68C77 70.2091 78.7909 72 81 72H84V76H50C48.8954 76 48 76.8954 48 78C48 79.1046 48.8954 80 50 80H84C86.2091 80 88 78.2091 88 76V68V48V40ZM84 68V48H81V68H84Z" fill="#004A76"/>
<path d="M50 8.04938C50 8.04938 58 7.04944 67 14.0494C71.5749 17.6076 75.5 28.0494 75.5 28.0494M75.5 28.0494L79.5 17.0494M75.5 28.0494L64.5 25.5494" stroke="#004A76" stroke-width="4" stroke-linecap="round" stroke-linejoin="round"/>
</svg>
