<svg width="48" height="43" viewBox="0 0 48 43" fill="none" xmlns="http://www.w3.org/2000/svg">
<mask id="path-1-inside-1_2700_32925" fill="white">
<rect y="10" width="48" height="33" rx="3"/>
</mask>
<rect y="10" width="48" height="33" rx="3" stroke="white" stroke-width="8" mask="url(#path-1-inside-1_2700_32925)"/>
<mask id="path-2-inside-2_2700_32925" fill="white">
<rect x="13" width="22" height="14" rx="2"/>
</mask>
<rect x="13" width="22" height="14" rx="2" stroke="white" stroke-width="8" mask="url(#path-2-inside-2_2700_32925)"/>
<mask id="mask0_2700_32925" style="mask-type:alpha" maskUnits="userSpaceOnUse" x="11" y="14" width="24" height="24">
<rect x="11" y="14" width="24" height="24" fill="#D9D9D9"/>
</mask>
<g mask="url(#mask0_2700_32925)">
<path d="M21 32V30H22.55L25.175 27L22.55 24H20.9L19.3 32.6C19.1667 33.35 18.8583 33.9375 18.375 34.3625C17.8917 34.7875 17.275 35 16.525 35C15.775 35 15.1667 34.8 14.7 34.4C14.2333 34 14 33.4667 14 32.8C14 32.2667 14.1417 31.8375 14.425 31.5125C14.7083 31.1875 15.0667 31.025 15.5 31.025C15.9167 31.025 16.2708 31.1667 16.5625 31.45C16.8542 31.7333 17 32.075 17 32.475C17 32.5583 16.9958 32.6333 16.9875 32.7C16.9792 32.7667 16.9667 32.8417 16.95 32.925C17.0333 32.9083 17.1042 32.8625 17.1625 32.7875C17.2208 32.7125 17.2667 32.6083 17.3 32.475L18.85 24H16V22H19.225L19.75 19.15C19.8667 18.5167 20.1792 18 20.6875 17.6C21.1958 17.2 21.8 17 22.5 17C23.2333 17 23.8333 17.2167 24.3 17.65C24.7667 18.0833 25 18.625 25 19.275C25 19.775 24.8583 20.1875 24.575 20.5125C24.2917 20.8375 23.9333 21 23.5 21C23.0833 21 22.7292 20.8583 22.4375 20.575C22.1458 20.2917 22 19.9417 22 19.525C22 19.4417 22.0042 19.3667 22.0125 19.3C22.0208 19.2333 22.0333 19.1583 22.05 19.075C21.95 19.1083 21.875 19.1583 21.825 19.225C21.775 19.2917 21.7333 19.3917 21.7 19.525L21.275 22H26V24H25.2L26.5 25.475L27.8 24H27V22H32V24H30.45L27.825 27L30.45 30H32V32H27V30H27.8L26.5 28.5L25.2 30H26V32H21Z" fill="white"/>
</g>
</svg>
