<svg width="207" height="131" viewBox="0 0 207 131" fill="none" xmlns="http://www.w3.org/2000/svg">
<line x1="43.3008" y1="51.6064" x2="20.3619" y2="51.6064" stroke="black" stroke-width="2" stroke-linecap="round"/>
<line x1="37.4282" y1="60.8726" x2="26.9588" y2="60.8726" stroke="black" stroke-width="2" stroke-linecap="round"/>
<line x1="43.3008" y1="69.6064" x2="20.3619" y2="69.6064" stroke="black" stroke-width="2" stroke-linecap="round"/>
<line x1="37.3008" y1="79.6064" x2="26.8314" y2="79.6064" stroke="black" stroke-width="2" stroke-linecap="round"/>
<line x1="31.2495" y1="61.5552" x2="31.2495" y2="68.6577" stroke="black" stroke-width="1.89752" stroke-linecap="round"/>
<path d="M17.5966 43.4773H23.2216V44.4318H17.5966V43.4773ZM19.9318 41.142H20.8864V46.767H19.9318V41.142Z" fill="black"/>
<path d="M22.7496 86.694V87.7878H18.2951V86.694H22.7496Z" fill="black"/>
<line x1="32.3618" y1="19" x2="32.3618" y2="50" stroke="black" stroke-width="2" stroke-linecap="round"/>
<line x1="32.3618" y1="81" x2="32.3618" y2="112" stroke="black" stroke-width="2" stroke-linecap="round"/>
<path d="M32.3618 112L174.862 112" stroke="black" stroke-width="2" stroke-linecap="round"/>
<path d="M32 18L174.5 18" stroke="black" stroke-width="2" stroke-linecap="round"/>
<path d="M174.836 112V81.4684C174.836 81.1716 174.704 80.8901 174.476 80.7002L169.585 76.6248C169.019 76.1529 169.141 75.2513 169.812 74.9462L178.551 70.974C179.273 70.6455 179.343 69.6462 178.674 69.22L169.792 63.5678C169.149 63.1591 169.181 62.2109 169.85 61.8463L178.621 57.0621C179.316 56.6831 179.316 55.6853 178.621 55.3063L169.971 50.5884C169.276 50.2094 169.276 49.2116 169.971 48.8326L178.697 44.0734C179.375 43.7032 179.395 42.7358 178.732 42.338L175.322 40.2917C175.02 40.1108 174.836 39.7847 174.836 39.433L174.862 18.5" stroke="black" stroke-width="2.15789" stroke-linecap="round"/>
<path d="M102.474 111.5V80.9684C102.474 80.6716 102.342 80.3901 102.114 80.2002L97.2235 76.1248C96.6572 75.6529 96.7787 74.7513 97.4499 74.4462L106.189 70.474C106.912 70.1455 106.982 69.1462 106.312 68.72L97.4299 63.0678C96.7875 62.6591 96.8195 61.7109 97.4879 61.3463L106.259 56.5621C106.954 56.1831 106.954 55.1853 106.259 54.8063L97.6095 50.0884C96.9146 49.7094 96.9146 48.7116 97.6095 48.3326L106.335 43.5734C107.013 43.2032 107.033 42.2358 106.37 41.838L102.96 39.7917C102.658 39.6108 102.474 39.2847 102.474 38.933L102.5 18" stroke="black" stroke-width="2.15789" stroke-linecap="round"/>
<path d="M117.203 54.0469H120.724C121.48 54.0469 122.125 54.1608 122.658 54.3887C123.191 54.6165 123.599 54.9538 123.882 55.4004C124.169 55.8424 124.312 56.3893 124.312 57.041C124.312 57.5378 124.221 57.9753 124.039 58.3535C123.857 58.7318 123.599 59.0508 123.267 59.3105C122.934 59.5658 122.537 59.764 122.077 59.9053L121.558 60.1582H118.393L118.379 58.7979H120.751C121.161 58.7979 121.503 58.7249 121.776 58.5791C122.05 58.4333 122.255 58.235 122.392 57.9844C122.533 57.7292 122.604 57.4421 122.604 57.123C122.604 56.7767 122.535 56.4759 122.398 56.2207C122.266 55.9609 122.061 55.7627 121.783 55.626C121.505 55.4847 121.152 55.4141 120.724 55.4141H118.919V64H117.203V54.0469ZM122.884 64L120.546 59.5293L122.344 59.5225L124.716 63.9111V64H122.884ZM128.229 61.0117V67H127.143V62.2791L125.703 62.7549V61.8771L128.106 61.0117H128.229Z" fill="black"/>
<path d="M188.203 54.0469H191.724C192.48 54.0469 193.125 54.1608 193.658 54.3887C194.191 54.6165 194.599 54.9538 194.882 55.4004C195.169 55.8424 195.312 56.3893 195.312 57.041C195.312 57.5378 195.221 57.9753 195.039 58.3535C194.857 58.7318 194.599 59.0508 194.267 59.3105C193.934 59.5658 193.537 59.764 193.077 59.9053L192.558 60.1582H189.393L189.379 58.7979H191.751C192.161 58.7979 192.503 58.7249 192.776 58.5791C193.05 58.4333 193.255 58.235 193.392 57.9844C193.533 57.7292 193.604 57.4421 193.604 57.123C193.604 56.7767 193.535 56.4759 193.398 56.2207C193.266 55.9609 193.061 55.7627 192.783 55.626C192.505 55.4847 192.152 55.4141 191.724 55.4141H189.919V64H188.203V54.0469ZM193.884 64L191.546 59.5293L193.344 59.5225L195.716 63.9111V64H193.884ZM200.485 66.1469V67H196.44V66.2699L198.38 64.174C198.583 63.9443 198.743 63.7447 198.86 63.5752C198.978 63.4057 199.061 63.2525 199.111 63.1158C199.163 62.9764 199.188 62.8437 199.188 62.718C199.188 62.5348 199.156 62.3748 199.09 62.2381C199.024 62.0986 198.929 61.9906 198.803 61.9141C198.68 61.8375 198.528 61.7992 198.348 61.7992C198.148 61.7992 197.977 61.8457 197.835 61.9387C197.696 62.0289 197.589 62.1547 197.515 62.316C197.444 62.4773 197.408 62.6619 197.408 62.8697H196.321C196.321 62.517 196.404 62.1957 196.568 61.9059C196.732 61.6133 196.967 61.3795 197.273 61.2045C197.579 61.0295 197.943 60.942 198.364 60.942C198.774 60.942 199.121 61.0104 199.406 61.1471C199.69 61.2811 199.906 61.4725 200.054 61.7213C200.202 61.9701 200.275 62.2668 200.275 62.6113C200.275 62.8027 200.244 62.9914 200.181 63.1773C200.118 63.3633 200.029 63.5479 199.914 63.7311C199.802 63.9115 199.668 64.0947 199.513 64.2807C199.357 64.4666 199.183 64.6566 198.992 64.8508L197.827 66.1469H200.485Z" fill="black"/>
</svg>
