<svg width="221" height="158" viewBox="0 0 221 158" fill="none" xmlns="http://www.w3.org/2000/svg">
<line x1="45.3008" y1="74.6064" x2="22.3619" y2="74.6064" stroke="black" stroke-width="2" stroke-linecap="round"/>
<line x1="39.4282" y1="83.8726" x2="28.9588" y2="83.8726" stroke="black" stroke-width="2" stroke-linecap="round"/>
<line x1="45.3008" y1="92.6064" x2="22.3619" y2="92.6064" stroke="black" stroke-width="2" stroke-linecap="round"/>
<line x1="39.3008" y1="102.606" x2="28.8314" y2="102.606" stroke="black" stroke-width="2" stroke-linecap="round"/>
<line x1="33.2495" y1="84.5552" x2="33.2495" y2="91.6577" stroke="black" stroke-width="1.89752" stroke-linecap="round"/>
<path d="M19.5966 66.4773H25.2216V67.4318H19.5966V66.4773ZM21.9318 64.142H22.8864V69.767H21.9318V64.142Z" fill="black"/>
<path d="M24.7496 109.694V110.788H20.2951V109.694H24.7496Z" fill="black"/>
<line x1="34.3618" y1="42" x2="34.3618" y2="73" stroke="black" stroke-width="2" stroke-linecap="round"/>
<line x1="34.3618" y1="104" x2="34.3618" y2="135" stroke="black" stroke-width="2" stroke-linecap="round"/>
<path d="M34.3618 135H176.862" stroke="black" stroke-width="2" stroke-linecap="round"/>
<path d="M34.5 41.4737H84.8934C85.1902 41.4737 85.4716 41.3419 85.6616 41.1139L89.737 36.2235C90.2089 35.6572 91.1105 35.7787 91.4155 36.4499L95.3878 45.1888C95.7163 45.9115 96.7156 45.9816 97.1418 45.3118L102.794 36.4299C103.203 35.7875 104.151 35.8195 104.515 36.4879L109.3 45.2589C109.679 45.9538 110.676 45.9538 111.055 45.2589L115.773 36.6095C116.152 35.9146 117.15 35.9146 117.529 36.6095L122.288 45.3347C122.659 46.0134 123.626 46.0333 124.024 45.3704L126.07 41.9592C126.251 41.658 126.577 41.4737 126.928 41.4737H176.362" stroke="black" stroke-width="2.15789" stroke-linecap="round"/>
<path d="M176.836 135V104.468C176.836 104.172 176.704 103.89 176.476 103.7L171.585 99.6248C171.019 99.1529 171.141 98.2513 171.812 97.9462L180.551 93.974C181.273 93.6455 181.343 92.6462 180.674 92.22L171.792 86.5678C171.149 86.1591 171.181 85.2109 171.85 84.8463L180.621 80.0621C181.316 79.6831 181.316 78.6853 180.621 78.3063L171.971 73.5884C171.276 73.2094 171.276 72.2116 171.971 71.8326L180.697 67.0734C181.375 66.7032 181.395 65.7358 180.732 65.338L177.322 63.2917C177.02 63.1108 176.836 62.7847 176.836 62.433L176.862 41.5" stroke="black" stroke-width="2.15789" stroke-linecap="round"/>
<path d="M100.203 12.0469H103.724C104.48 12.0469 105.125 12.1608 105.658 12.3887C106.191 12.6165 106.599 12.9538 106.882 13.4004C107.169 13.8424 107.312 14.3893 107.312 15.041C107.312 15.5378 107.221 15.9753 107.039 16.3535C106.857 16.7318 106.599 17.0508 106.267 17.3105C105.934 17.5658 105.537 17.764 105.077 17.9053L104.558 18.1582H101.393L101.379 16.7979H103.751C104.161 16.7979 104.503 16.7249 104.776 16.5791C105.05 16.4333 105.255 16.235 105.392 15.9844C105.533 15.7292 105.604 15.4421 105.604 15.123C105.604 14.7767 105.535 14.4759 105.398 14.2207C105.266 13.9609 105.061 13.7627 104.783 13.626C104.505 13.4847 104.152 13.4141 103.724 13.4141H101.919V22H100.203V12.0469ZM105.884 22L103.546 17.5293L105.344 17.5225L107.716 21.9111V22H105.884ZM111.229 19.0117V25H110.143V20.2791L108.703 20.7549V19.8771L111.106 19.0117H111.229Z" fill="black"/>
<path d="M196.203 77.0469H199.724C200.48 77.0469 201.125 77.1608 201.658 77.3887C202.191 77.6165 202.599 77.9538 202.882 78.4004C203.169 78.8424 203.312 79.3893 203.312 80.041C203.312 80.5378 203.221 80.9753 203.039 81.3535C202.857 81.7318 202.599 82.0508 202.267 82.3105C201.934 82.5658 201.537 82.764 201.077 82.9053L200.558 83.1582H197.393L197.379 81.7979H199.751C200.161 81.7979 200.503 81.7249 200.776 81.5791C201.05 81.4333 201.255 81.235 201.392 80.9844C201.533 80.7292 201.604 80.4421 201.604 80.123C201.604 79.7767 201.535 79.4759 201.398 79.2207C201.266 78.9609 201.061 78.7627 200.783 78.626C200.505 78.4847 200.152 78.4141 199.724 78.4141H197.919V87H196.203V77.0469ZM201.884 87L199.546 82.5293L201.344 82.5225L203.716 86.9111V87H201.884ZM208.485 89.1469V90H204.44V89.2699L206.38 87.174C206.583 86.9443 206.743 86.7447 206.86 86.5752C206.978 86.4057 207.061 86.2525 207.111 86.1158C207.163 85.9764 207.188 85.8437 207.188 85.718C207.188 85.5348 207.156 85.3748 207.09 85.2381C207.024 85.0986 206.929 84.9906 206.803 84.9141C206.68 84.8375 206.528 84.7992 206.348 84.7992C206.148 84.7992 205.977 84.8457 205.835 84.9387C205.696 85.0289 205.589 85.1547 205.515 85.316C205.444 85.4773 205.408 85.6619 205.408 85.8697H204.321C204.321 85.517 204.404 85.1957 204.568 84.9059C204.732 84.6133 204.967 84.3795 205.273 84.2045C205.579 84.0295 205.943 83.942 206.364 83.942C206.774 83.942 207.121 84.0104 207.406 84.1471C207.69 84.2811 207.906 84.4725 208.054 84.7213C208.202 84.9701 208.275 85.2668 208.275 85.6113C208.275 85.8027 208.244 85.9914 208.181 86.1773C208.118 86.3633 208.029 86.5479 207.914 86.7311C207.802 86.9115 207.668 87.0947 207.513 87.2807C207.357 87.4666 207.183 87.6566 206.992 87.8508L205.827 89.1469H208.485Z" fill="black"/>
</svg>
