<svg width="224" height="212" viewBox="0 0 224 212" fill="none" xmlns="http://www.w3.org/2000/svg">
<rect width="224" height="212" rx="10" fill="white"/>
<path d="M0 10C0 4.47715 4.47715 0 10 0H214C219.523 0 224 4.47715 224 10V36H0V10Z" fill="#A3ABFF"/>
<path d="M22.5039 17.6575V18.8235H17.9746V17.6575H22.5039ZM18.3379 14.095V22.6262H16.8672V14.095H18.3379ZM23.6348 14.095V22.6262H22.1699V14.095H23.6348ZM27.5859 21.9348L29.3086 16.2864H30.8203L28.2773 23.593C28.2188 23.7493 28.1426 23.9192 28.0488 24.1028C27.9551 24.2864 27.832 24.4602 27.6797 24.6243C27.5312 24.7922 27.3457 24.927 27.123 25.0286C26.9004 25.134 26.6309 25.1868 26.3145 25.1868C26.1895 25.1868 26.0684 25.175 25.9512 25.1516C25.8379 25.1321 25.7305 25.1106 25.6289 25.0872L25.623 24.009C25.6621 24.0129 25.709 24.0168 25.7637 24.0208C25.8223 24.0247 25.8691 24.0266 25.9043 24.0266C26.1387 24.0266 26.334 23.9973 26.4902 23.9387C26.6465 23.884 26.7734 23.7942 26.8711 23.6692C26.9727 23.5442 27.0586 23.3762 27.1289 23.1653L27.5859 21.9348ZM26.6133 16.2864L28.1191 21.0325L28.3711 22.5208L27.3926 22.7727L25.0898 16.2864H26.6133ZM33.5469 17.5051V25.0637H32.1348V16.2864H33.4355L33.5469 17.5051ZM37.6777 19.3977V19.5208C37.6777 19.9817 37.623 20.4094 37.5137 20.804C37.4082 21.1946 37.25 21.5364 37.0391 21.8293C36.832 22.1184 36.5762 22.343 36.2715 22.5032C35.9668 22.6633 35.6152 22.7434 35.2168 22.7434C34.8223 22.7434 34.4766 22.6711 34.1797 22.5266C33.8867 22.3782 33.6387 22.1692 33.4355 21.8997C33.2324 21.6301 33.0684 21.3137 32.9434 20.9504C32.8223 20.5833 32.7363 20.1809 32.6855 19.7434V19.2688C32.7363 18.804 32.8223 18.3821 32.9434 18.0032C33.0684 17.6243 33.2324 17.2981 33.4355 17.0247C33.6387 16.7512 33.8867 16.5403 34.1797 16.3918C34.4727 16.2434 34.8145 16.1692 35.2051 16.1692C35.6035 16.1692 35.957 16.2473 36.2656 16.4036C36.5742 16.5559 36.834 16.7747 37.0449 17.0598C37.2559 17.3411 37.4141 17.6809 37.5195 18.0793C37.625 18.4739 37.6777 18.9133 37.6777 19.3977ZM36.2656 19.5208V19.3977C36.2656 19.1047 36.2383 18.8333 36.1836 18.5833C36.1289 18.3293 36.043 18.1067 35.9258 17.9153C35.8086 17.7239 35.6582 17.5754 35.4746 17.47C35.2949 17.3606 35.0781 17.3059 34.8242 17.3059C34.5742 17.3059 34.3594 17.3489 34.1797 17.4348C34 17.5168 33.8496 17.6321 33.7285 17.7805C33.6074 17.929 33.5137 18.1028 33.4473 18.302C33.3809 18.4973 33.334 18.7102 33.3066 18.9407V20.0774C33.3535 20.3586 33.4336 20.6165 33.5469 20.8508C33.6602 21.0852 33.8203 21.2727 34.0273 21.4133C34.2383 21.55 34.5078 21.6184 34.8359 21.6184C35.0898 21.6184 35.3066 21.5637 35.4863 21.4543C35.666 21.345 35.8125 21.1946 35.9258 21.0032C36.043 20.8079 36.1289 20.5833 36.1836 20.3293C36.2383 20.0754 36.2656 19.8059 36.2656 19.5208ZM39.1094 19.5266V19.3918C39.1094 18.9348 39.1758 18.511 39.3086 18.1204C39.4414 17.7258 39.6328 17.384 39.8828 17.095C40.1367 16.802 40.4453 16.5754 40.8086 16.4153C41.1758 16.2512 41.5898 16.1692 42.0508 16.1692C42.5156 16.1692 42.9297 16.2512 43.293 16.4153C43.6602 16.5754 43.9707 16.802 44.2246 17.095C44.4785 17.384 44.6719 17.7258 44.8047 18.1204C44.9375 18.511 45.0039 18.9348 45.0039 19.3918V19.5266C45.0039 19.9836 44.9375 20.4075 44.8047 20.7981C44.6719 21.1887 44.4785 21.5305 44.2246 21.8235C43.9707 22.1125 43.6621 22.3391 43.2988 22.5032C42.9355 22.6633 42.5234 22.7434 42.0625 22.7434C41.5977 22.7434 41.1816 22.6633 40.8145 22.5032C40.4512 22.3391 40.1426 22.1125 39.8887 21.8235C39.6348 21.5305 39.4414 21.1887 39.3086 20.7981C39.1758 20.4075 39.1094 19.9836 39.1094 19.5266ZM40.5215 19.3918V19.5266C40.5215 19.8118 40.5508 20.0813 40.6094 20.3352C40.668 20.5891 40.7598 20.8118 40.8848 21.0032C41.0098 21.1946 41.1699 21.345 41.3652 21.4543C41.5605 21.5637 41.793 21.6184 42.0625 21.6184C42.3242 21.6184 42.5508 21.5637 42.7422 21.4543C42.9375 21.345 43.0977 21.1946 43.2227 21.0032C43.3477 20.8118 43.4395 20.5891 43.498 20.3352C43.5605 20.0813 43.5918 19.8118 43.5918 19.5266V19.3918C43.5918 19.1106 43.5605 18.845 43.498 18.595C43.4395 18.3411 43.3457 18.1165 43.2168 17.9211C43.0918 17.7258 42.9316 17.5735 42.7363 17.4641C42.5449 17.3508 42.3164 17.2942 42.0508 17.2942C41.7852 17.2942 41.5547 17.3508 41.3594 17.4641C41.168 17.5735 41.0098 17.7258 40.8848 17.9211C40.7598 18.1165 40.668 18.3411 40.6094 18.595C40.5508 18.845 40.5215 19.1106 40.5215 19.3918ZM49.5938 16.2864V17.3176H46.0195V16.2864H49.5938ZM47.0508 14.7336H48.4629V20.8743C48.4629 21.0696 48.4902 21.22 48.5449 21.3254C48.6035 21.427 48.6836 21.4954 48.7852 21.5305C48.8867 21.5657 49.0059 21.5833 49.1426 21.5833C49.2402 21.5833 49.334 21.5774 49.4238 21.5657C49.5137 21.554 49.5859 21.5422 49.6406 21.5305L49.6465 22.6086C49.5293 22.6438 49.3926 22.675 49.2363 22.7024C49.084 22.7297 48.9082 22.7434 48.709 22.7434C48.3848 22.7434 48.0977 22.6868 47.8477 22.5735C47.5977 22.4563 47.4023 22.2668 47.2617 22.0051C47.1211 21.7434 47.0508 21.3958 47.0508 20.9622V14.7336ZM52.5781 13.6262V22.6262H51.1719V13.6262H52.5781ZM52.332 19.2219L51.875 19.2161C51.8789 18.7786 51.9395 18.3743 52.0566 18.0032C52.1777 17.6321 52.3457 17.3098 52.5605 17.0364C52.7793 16.759 53.041 16.5461 53.3457 16.3977C53.6504 16.2454 53.9883 16.1692 54.3594 16.1692C54.6719 16.1692 54.9531 16.2122 55.2031 16.2981C55.457 16.384 55.6758 16.5227 55.8594 16.7141C56.043 16.9016 56.1816 17.1477 56.2754 17.4524C56.373 17.7532 56.4219 18.1204 56.4219 18.554V22.6262H55.0039V18.5422C55.0039 18.2375 54.959 17.9954 54.8691 17.8157C54.7832 17.636 54.6562 17.5071 54.4883 17.429C54.3203 17.3469 54.1152 17.3059 53.873 17.3059C53.6191 17.3059 53.3945 17.3567 53.1992 17.4583C53.0078 17.5598 52.8477 17.6985 52.7188 17.8743C52.5898 18.05 52.4922 18.2532 52.4258 18.4836C52.3633 18.7141 52.332 18.9602 52.332 19.2219ZM61.1465 22.7434C60.6777 22.7434 60.2539 22.6672 59.875 22.5149C59.5 22.3586 59.1797 22.1418 58.9141 21.8645C58.6523 21.5872 58.4512 21.261 58.3105 20.886C58.1699 20.511 58.0996 20.1067 58.0996 19.6731V19.4387C58.0996 18.9426 58.1719 18.4934 58.3164 18.0911C58.4609 17.6887 58.6621 17.345 58.9199 17.0598C59.1777 16.7708 59.4824 16.55 59.834 16.3977C60.1855 16.2454 60.5664 16.1692 60.9766 16.1692C61.4297 16.1692 61.8262 16.2454 62.166 16.3977C62.5059 16.55 62.7871 16.7649 63.0098 17.0422C63.2363 17.3157 63.4043 17.6418 63.5137 18.0208C63.627 18.3997 63.6836 18.8176 63.6836 19.2747V19.8782H58.7852V18.8645H62.2891V18.7532C62.2812 18.4993 62.2305 18.261 62.1367 18.0383C62.0469 17.8157 61.9082 17.636 61.7207 17.4993C61.5332 17.3625 61.2832 17.2942 60.9707 17.2942C60.7363 17.2942 60.5273 17.345 60.3438 17.4465C60.1641 17.5442 60.0137 17.6868 59.8926 17.8743C59.7715 18.0618 59.6777 18.2883 59.6113 18.554C59.5488 18.8157 59.5176 19.1106 59.5176 19.4387V19.6731C59.5176 19.9504 59.5547 20.2083 59.6289 20.4465C59.707 20.6809 59.8203 20.886 59.9688 21.0618C60.1172 21.2375 60.2969 21.3762 60.5078 21.4778C60.7188 21.5754 60.959 21.6243 61.2285 21.6243C61.5684 21.6243 61.8711 21.5559 62.1367 21.4192C62.4023 21.2825 62.6328 21.0891 62.8281 20.8391L63.5723 21.5598C63.4355 21.759 63.2578 21.9504 63.0391 22.134C62.8203 22.3137 62.5527 22.4602 62.2363 22.5735C61.9238 22.6868 61.5605 22.7434 61.1465 22.7434ZM68.8418 20.9094C68.8418 20.7688 68.8066 20.6418 68.7363 20.5286C68.666 20.4114 68.5312 20.3059 68.332 20.2122C68.1367 20.1184 67.8477 20.0325 67.4648 19.9543C67.1289 19.8801 66.8203 19.7922 66.5391 19.6907C66.2617 19.5852 66.0234 19.4583 65.8242 19.3098C65.625 19.1614 65.4707 18.9856 65.3613 18.7825C65.252 18.5793 65.1973 18.345 65.1973 18.0793C65.1973 17.8215 65.2539 17.5774 65.3672 17.3469C65.4805 17.1165 65.6426 16.9133 65.8535 16.7375C66.0645 16.5618 66.3203 16.4231 66.6211 16.3215C66.9258 16.22 67.2656 16.1692 67.6406 16.1692C68.1719 16.1692 68.627 16.259 69.0059 16.4387C69.3887 16.6145 69.6816 16.8547 69.8848 17.1594C70.0879 17.4602 70.1895 17.8 70.1895 18.179H68.7773C68.7773 18.011 68.7344 17.8547 68.6484 17.7102C68.5664 17.5618 68.4414 17.4426 68.2734 17.3528C68.1055 17.259 67.8945 17.2122 67.6406 17.2122C67.3984 17.2122 67.1973 17.2512 67.0371 17.3293C66.8809 17.4036 66.7637 17.5012 66.6855 17.6223C66.6113 17.7434 66.5742 17.8762 66.5742 18.0208C66.5742 18.1262 66.5938 18.2219 66.6328 18.3079C66.6758 18.3899 66.7461 18.4661 66.8438 18.5364C66.9414 18.6028 67.0742 18.6653 67.2422 18.7239C67.4141 18.7825 67.6289 18.8391 67.8867 18.8938C68.3711 18.9954 68.7871 19.1262 69.1348 19.2864C69.4863 19.4426 69.7559 19.6458 69.9434 19.8958C70.1309 20.1418 70.2246 20.4543 70.2246 20.8333C70.2246 21.1145 70.1641 21.3723 70.043 21.6067C69.9258 21.8372 69.7539 22.0383 69.5273 22.2102C69.3008 22.3782 69.0293 22.509 68.7129 22.6028C68.4004 22.6965 68.0488 22.7434 67.6582 22.7434C67.084 22.7434 66.5977 22.6418 66.1992 22.4387C65.8008 22.2317 65.498 21.968 65.291 21.6477C65.0879 21.3235 64.9863 20.9875 64.9863 20.6399H66.3516C66.3672 20.9016 66.4395 21.1106 66.5684 21.2668C66.7012 21.4192 66.8652 21.5305 67.0605 21.6008C67.2598 21.6672 67.4648 21.7004 67.6758 21.7004C67.9297 21.7004 68.1426 21.6672 68.3145 21.6008C68.4863 21.5305 68.6172 21.4368 68.707 21.3196C68.7969 21.1985 68.8418 21.0618 68.8418 20.9094ZM73.4727 16.2864V22.6262H72.0547V16.2864H73.4727ZM71.9609 14.6223C71.9609 14.4075 72.0312 14.2297 72.1719 14.0891C72.3164 13.9446 72.5156 13.8723 72.7695 13.8723C73.0195 13.8723 73.2168 13.9446 73.3613 14.0891C73.5059 14.2297 73.5781 14.4075 73.5781 14.6223C73.5781 14.8333 73.5059 15.009 73.3613 15.1497C73.2168 15.2903 73.0195 15.3606 72.7695 15.3606C72.5156 15.3606 72.3164 15.2903 72.1719 15.1497C72.0312 15.009 71.9609 14.8333 71.9609 14.6223ZM79.0762 20.9094C79.0762 20.7688 79.041 20.6418 78.9707 20.5286C78.9004 20.4114 78.7656 20.3059 78.5664 20.2122C78.3711 20.1184 78.082 20.0325 77.6992 19.9543C77.3633 19.8801 77.0547 19.7922 76.7734 19.6907C76.4961 19.5852 76.2578 19.4583 76.0586 19.3098C75.8594 19.1614 75.7051 18.9856 75.5957 18.7825C75.4863 18.5793 75.4316 18.345 75.4316 18.0793C75.4316 17.8215 75.4883 17.5774 75.6016 17.3469C75.7148 17.1165 75.877 16.9133 76.0879 16.7375C76.2988 16.5618 76.5547 16.4231 76.8555 16.3215C77.1602 16.22 77.5 16.1692 77.875 16.1692C78.4062 16.1692 78.8613 16.259 79.2402 16.4387C79.623 16.6145 79.916 16.8547 80.1191 17.1594C80.3223 17.4602 80.4238 17.8 80.4238 18.179H79.0117C79.0117 18.011 78.9688 17.8547 78.8828 17.7102C78.8008 17.5618 78.6758 17.4426 78.5078 17.3528C78.3398 17.259 78.1289 17.2122 77.875 17.2122C77.6328 17.2122 77.4316 17.2512 77.2715 17.3293C77.1152 17.4036 76.998 17.5012 76.9199 17.6223C76.8457 17.7434 76.8086 17.8762 76.8086 18.0208C76.8086 18.1262 76.8281 18.2219 76.8672 18.3079C76.9102 18.3899 76.9805 18.4661 77.0781 18.5364C77.1758 18.6028 77.3086 18.6653 77.4766 18.7239C77.6484 18.7825 77.8633 18.8391 78.1211 18.8938C78.6055 18.9954 79.0215 19.1262 79.3691 19.2864C79.7207 19.4426 79.9902 19.6458 80.1777 19.8958C80.3652 20.1418 80.459 20.4543 80.459 20.8333C80.459 21.1145 80.3984 21.3723 80.2773 21.6067C80.1602 21.8372 79.9883 22.0383 79.7617 22.2102C79.5352 22.3782 79.2637 22.509 78.9473 22.6028C78.6348 22.6965 78.2832 22.7434 77.8926 22.7434C77.3184 22.7434 76.832 22.6418 76.4336 22.4387C76.0352 22.2317 75.7324 21.968 75.5254 21.6477C75.3223 21.3235 75.2207 20.9875 75.2207 20.6399H76.5859C76.6016 20.9016 76.6738 21.1106 76.8027 21.2668C76.9355 21.4192 77.0996 21.5305 77.2949 21.6008C77.4941 21.6672 77.6992 21.7004 77.9102 21.7004C78.1641 21.7004 78.377 21.6672 78.5488 21.6008C78.7207 21.5305 78.8516 21.4368 78.9414 21.3196C79.0312 21.1985 79.0762 21.0618 79.0762 20.9094Z" fill="white"/>
<path d="M18.4375 53.4688V62H16.9668V53.4688H18.4375ZM24.5312 56.8789V64.4375H23.1191V55.6602H24.4199L24.5312 56.8789ZM28.6621 58.7715V58.8945C28.6621 59.3555 28.6074 59.7832 28.498 60.1777C28.3926 60.5684 28.2344 60.9102 28.0234 61.2031C27.8164 61.4922 27.5605 61.7168 27.2559 61.877C26.9512 62.0371 26.5996 62.1172 26.2012 62.1172C25.8066 62.1172 25.4609 62.0449 25.1641 61.9004C24.8711 61.752 24.623 61.543 24.4199 61.2734C24.2168 61.0039 24.0527 60.6875 23.9277 60.3242C23.8066 59.957 23.7207 59.5547 23.6699 59.1172V58.6426C23.7207 58.1777 23.8066 57.7559 23.9277 57.377C24.0527 56.998 24.2168 56.6719 24.4199 56.3984C24.623 56.125 24.8711 55.9141 25.1641 55.7656C25.457 55.6172 25.7988 55.543 26.1895 55.543C26.5879 55.543 26.9414 55.6211 27.25 55.7773C27.5586 55.9297 27.8184 56.1484 28.0293 56.4336C28.2402 56.7148 28.3984 57.0547 28.5039 57.4531C28.6094 57.8477 28.6621 58.2871 28.6621 58.7715ZM27.25 58.8945V58.7715C27.25 58.4785 27.2227 58.207 27.168 57.957C27.1133 57.7031 27.0273 57.4805 26.9102 57.2891C26.793 57.0977 26.6426 56.9492 26.459 56.8438C26.2793 56.7344 26.0625 56.6797 25.8086 56.6797C25.5586 56.6797 25.3438 56.7227 25.1641 56.8086C24.9844 56.8906 24.834 57.0059 24.7129 57.1543C24.5918 57.3027 24.498 57.4766 24.4316 57.6758C24.3652 57.8711 24.3184 58.084 24.291 58.3145V59.4512C24.3379 59.7324 24.418 59.9902 24.5312 60.2246C24.6445 60.459 24.8047 60.6465 25.0117 60.7871C25.2227 60.9238 25.4922 60.9922 25.8203 60.9922C26.0742 60.9922 26.291 60.9375 26.4707 60.8281C26.6504 60.7188 26.7969 60.5684 26.9102 60.377C27.0273 60.1816 27.1133 59.957 27.168 59.7031C27.2227 59.4492 27.25 59.1797 27.25 58.8945ZM31.2812 56.8672V62H29.8691V55.6602H31.2168L31.2812 56.8672ZM33.2207 55.6191L33.209 56.9316C33.123 56.916 33.0293 56.9043 32.9277 56.8965C32.8301 56.8887 32.7324 56.8848 32.6348 56.8848C32.3926 56.8848 32.1797 56.9199 31.9961 56.9902C31.8125 57.0566 31.6582 57.1543 31.5332 57.2832C31.4121 57.4082 31.3184 57.5605 31.252 57.7402C31.1855 57.9199 31.1465 58.1211 31.1348 58.3438L30.8125 58.3672C30.8125 57.9688 30.8516 57.5996 30.9297 57.2598C31.0078 56.9199 31.125 56.6211 31.2812 56.3633C31.4414 56.1055 31.6406 55.9043 31.8789 55.7598C32.1211 55.6152 32.4004 55.543 32.7168 55.543C32.8027 55.543 32.8945 55.5508 32.9922 55.5664C33.0938 55.582 33.1699 55.5996 33.2207 55.6191ZM36.7832 62.1172C36.3145 62.1172 35.8906 62.041 35.5117 61.8887C35.1367 61.7324 34.8164 61.5156 34.5508 61.2383C34.2891 60.9609 34.0879 60.6348 33.9473 60.2598C33.8066 59.8848 33.7363 59.4805 33.7363 59.0469V58.8125C33.7363 58.3164 33.8086 57.8672 33.9531 57.4648C34.0977 57.0625 34.2988 56.7188 34.5566 56.4336C34.8145 56.1445 35.1191 55.9238 35.4707 55.7715C35.8223 55.6191 36.2031 55.543 36.6133 55.543C37.0664 55.543 37.4629 55.6191 37.8027 55.7715C38.1426 55.9238 38.4238 56.1387 38.6465 56.416C38.873 56.6895 39.041 57.0156 39.1504 57.3945C39.2637 57.7734 39.3203 58.1914 39.3203 58.6484V59.252H34.4219V58.2383H37.9258V58.127C37.918 57.873 37.8672 57.6348 37.7734 57.4121C37.6836 57.1895 37.5449 57.0098 37.3574 56.873C37.1699 56.7363 36.9199 56.668 36.6074 56.668C36.373 56.668 36.1641 56.7188 35.9805 56.8203C35.8008 56.918 35.6504 57.0605 35.5293 57.248C35.4082 57.4355 35.3145 57.6621 35.248 57.9277C35.1855 58.1895 35.1543 58.4844 35.1543 58.8125V59.0469C35.1543 59.3242 35.1914 59.582 35.2656 59.8203C35.3438 60.0547 35.457 60.2598 35.6055 60.4355C35.7539 60.6113 35.9336 60.75 36.1445 60.8516C36.3555 60.9492 36.5957 60.998 36.8652 60.998C37.2051 60.998 37.5078 60.9297 37.7734 60.793C38.0391 60.6562 38.2695 60.4629 38.4648 60.2129L39.209 60.9336C39.0723 61.1328 38.8945 61.3242 38.6758 61.5078C38.457 61.6875 38.1895 61.834 37.873 61.9473C37.5605 62.0605 37.1973 62.1172 36.7832 62.1172ZM44.2891 60.6875V53H45.707V62H44.4238L44.2891 60.6875ZM40.1641 58.9004V58.7773C40.1641 58.2969 40.2207 57.8594 40.334 57.4648C40.4473 57.0664 40.6113 56.7246 40.8262 56.4395C41.041 56.1504 41.3027 55.9297 41.6113 55.7773C41.9199 55.6211 42.2676 55.543 42.6543 55.543C43.0371 55.543 43.373 55.6172 43.6621 55.7656C43.9512 55.9141 44.1973 56.127 44.4004 56.4043C44.6035 56.6777 44.7656 57.0059 44.8867 57.3887C45.0078 57.7676 45.0938 58.1895 45.1445 58.6543V59.0469C45.0938 59.5 45.0078 59.9141 44.8867 60.2891C44.7656 60.6641 44.6035 60.9883 44.4004 61.2617C44.1973 61.5352 43.9492 61.7461 43.6562 61.8945C43.3672 62.043 43.0293 62.1172 42.6426 62.1172C42.2598 62.1172 41.9141 62.0371 41.6055 61.877C41.3008 61.7168 41.041 61.4922 40.8262 61.2031C40.6113 60.9141 40.4473 60.5742 40.334 60.1836C40.2207 59.7891 40.1641 59.3613 40.1641 58.9004ZM41.5762 58.7773V58.9004C41.5762 59.1895 41.6016 59.459 41.6523 59.709C41.707 59.959 41.791 60.1797 41.9043 60.3711C42.0176 60.5586 42.1641 60.707 42.3438 60.8164C42.5273 60.9219 42.7461 60.9746 43 60.9746C43.3203 60.9746 43.584 60.9043 43.791 60.7637C43.998 60.623 44.1602 60.4336 44.2773 60.1953C44.3984 59.9531 44.4805 59.6836 44.5234 59.3867V58.3262C44.5 58.0957 44.4512 57.8809 44.377 57.6816C44.3066 57.4824 44.2109 57.3086 44.0898 57.1602C43.9688 57.0078 43.8184 56.8906 43.6387 56.8086C43.4629 56.7227 43.2539 56.6797 43.0117 56.6797C42.7539 56.6797 42.5352 56.7344 42.3555 56.8438C42.1758 56.9531 42.0273 57.1035 41.9102 57.2949C41.7969 57.4863 41.7129 57.709 41.6582 57.9629C41.6035 58.2168 41.5762 58.4883 41.5762 58.7773ZM48.6953 55.6602V62H47.2773V55.6602H48.6953ZM47.1836 53.9961C47.1836 53.7812 47.2539 53.6035 47.3945 53.4629C47.5391 53.3184 47.7383 53.2461 47.9922 53.2461C48.2422 53.2461 48.4395 53.3184 48.584 53.4629C48.7285 53.6035 48.8008 53.7812 48.8008 53.9961C48.8008 54.207 48.7285 54.3828 48.584 54.5234C48.4395 54.6641 48.2422 54.7344 47.9922 54.7344C47.7383 54.7344 47.5391 54.6641 47.3945 54.5234C47.2539 54.3828 47.1836 54.207 47.1836 53.9961ZM52.832 60.9922C53.0625 60.9922 53.2695 60.9473 53.4531 60.8574C53.6406 60.7637 53.791 60.6348 53.9043 60.4707C54.0215 60.3066 54.0859 60.1172 54.0977 59.9023H55.4277C55.4199 60.3125 55.2988 60.6855 55.0645 61.0215C54.8301 61.3574 54.5195 61.625 54.1328 61.8242C53.7461 62.0195 53.3184 62.1172 52.8496 62.1172C52.3652 62.1172 51.9434 62.0352 51.584 61.8711C51.2246 61.7031 50.9258 61.4727 50.6875 61.1797C50.4492 60.8867 50.2695 60.5488 50.1484 60.166C50.0312 59.7832 49.9727 59.373 49.9727 58.9355V58.7305C49.9727 58.293 50.0312 57.8828 50.1484 57.5C50.2695 57.1133 50.4492 56.7734 50.6875 56.4805C50.9258 56.1875 51.2246 55.959 51.584 55.7949C51.9434 55.627 52.3633 55.543 52.8438 55.543C53.3516 55.543 53.7969 55.6445 54.1797 55.8477C54.5625 56.0469 54.8633 56.3262 55.082 56.6855C55.3047 57.041 55.4199 57.4551 55.4277 57.9277H54.0977C54.0859 57.6934 54.0273 57.4824 53.9219 57.2949C53.8203 57.1035 53.6758 56.9512 53.4883 56.8379C53.3047 56.7246 53.084 56.668 52.8262 56.668C52.541 56.668 52.3047 56.7266 52.1172 56.8438C51.9297 56.957 51.7832 57.1133 51.6777 57.3125C51.5723 57.5078 51.4961 57.7285 51.4492 57.9746C51.4062 58.2168 51.3848 58.4688 51.3848 58.7305V58.9355C51.3848 59.1973 51.4062 59.4512 51.4492 59.6973C51.4922 59.9434 51.5664 60.1641 51.6719 60.3594C51.7812 60.5508 51.9297 60.7051 52.1172 60.8223C52.3047 60.9355 52.543 60.9922 52.832 60.9922ZM59.418 55.6602V56.6914H55.8438V55.6602H59.418ZM56.875 54.1074H58.2871V60.248C58.2871 60.4434 58.3145 60.5938 58.3691 60.6992C58.4277 60.8008 58.5078 60.8691 58.6094 60.9043C58.7109 60.9395 58.8301 60.957 58.9668 60.957C59.0645 60.957 59.1582 60.9512 59.248 60.9395C59.3379 60.9277 59.4102 60.916 59.4648 60.9043L59.4707 61.9824C59.3535 62.0176 59.2168 62.0488 59.0605 62.0762C58.9082 62.1035 58.7324 62.1172 58.5332 62.1172C58.209 62.1172 57.9219 62.0605 57.6719 61.9473C57.4219 61.8301 57.2266 61.6406 57.0859 61.3789C56.9453 61.1172 56.875 60.7695 56.875 60.3359V54.1074ZM66.4023 55.6602V56.6914H62.8281V55.6602H66.4023ZM63.8594 54.1074H65.2715V60.248C65.2715 60.4434 65.2988 60.5938 65.3535 60.6992C65.4121 60.8008 65.4922 60.8691 65.5938 60.9043C65.6953 60.9395 65.8145 60.957 65.9512 60.957C66.0488 60.957 66.1426 60.9512 66.2324 60.9395C66.3223 60.9277 66.3945 60.916 66.4492 60.9043L66.4551 61.9824C66.3379 62.0176 66.2012 62.0488 66.0449 62.0762C65.8926 62.1035 65.7168 62.1172 65.5176 62.1172C65.1934 62.1172 64.9062 62.0605 64.6562 61.9473C64.4062 61.8301 64.2109 61.6406 64.0703 61.3789C63.9297 61.1172 63.8594 60.7695 63.8594 60.3359V54.1074ZM68.8867 53V62H67.4805V53H68.8867ZM68.6406 58.5957L68.1836 58.5898C68.1875 58.1523 68.248 57.748 68.3652 57.377C68.4863 57.0059 68.6543 56.6836 68.8691 56.4102C69.0879 56.1328 69.3496 55.9199 69.6543 55.7715C69.959 55.6191 70.2969 55.543 70.668 55.543C70.9805 55.543 71.2617 55.5859 71.5117 55.6719C71.7656 55.7578 71.9844 55.8965 72.168 56.0879C72.3516 56.2754 72.4902 56.5215 72.584 56.8262C72.6816 57.127 72.7305 57.4941 72.7305 57.9277V62H71.3125V57.916C71.3125 57.6113 71.2676 57.3691 71.1777 57.1895C71.0918 57.0098 70.9648 56.8809 70.7969 56.8027C70.6289 56.7207 70.4238 56.6797 70.1816 56.6797C69.9277 56.6797 69.7031 56.7305 69.5078 56.832C69.3164 56.9336 69.1562 57.0723 69.0273 57.248C68.8984 57.4238 68.8008 57.627 68.7344 57.8574C68.6719 58.0879 68.6406 58.334 68.6406 58.5957ZM77.7344 60.7285V57.7051C77.7344 57.4785 77.6934 57.2832 77.6113 57.1191C77.5293 56.9551 77.4043 56.8281 77.2363 56.7383C77.0723 56.6484 76.8652 56.6035 76.6152 56.6035C76.3848 56.6035 76.1855 56.6426 76.0176 56.7207C75.8496 56.7988 75.7188 56.9043 75.625 57.0371C75.5312 57.1699 75.4844 57.3203 75.4844 57.4883H74.0781C74.0781 57.2383 74.1387 56.9961 74.2598 56.7617C74.3809 56.5273 74.5566 56.3184 74.7871 56.1348C75.0176 55.9512 75.293 55.8066 75.6133 55.7012C75.9336 55.5957 76.293 55.543 76.6914 55.543C77.168 55.543 77.5898 55.623 77.957 55.7832C78.3281 55.9434 78.6191 56.1855 78.8301 56.5098C79.0449 56.8301 79.1523 57.2324 79.1523 57.7168V60.5352C79.1523 60.8242 79.1719 61.084 79.2109 61.3145C79.2539 61.541 79.3145 61.7383 79.3926 61.9062V62H77.9453C77.8789 61.8477 77.8262 61.6543 77.7871 61.4199C77.752 61.1816 77.7344 60.9512 77.7344 60.7285ZM77.9395 58.1445L77.9512 59.0176H76.9375C76.6758 59.0176 76.4453 59.043 76.2461 59.0938C76.0469 59.1406 75.8809 59.2109 75.748 59.3047C75.6152 59.3984 75.5156 59.5117 75.4492 59.6445C75.3828 59.7773 75.3496 59.9277 75.3496 60.0957C75.3496 60.2637 75.3887 60.418 75.4668 60.5586C75.5449 60.6953 75.6582 60.8027 75.8066 60.8809C75.959 60.959 76.1426 60.998 76.3574 60.998C76.6465 60.998 76.8984 60.9395 77.1133 60.8223C77.332 60.7012 77.5039 60.5547 77.6289 60.3828C77.7539 60.207 77.8203 60.041 77.8281 59.8848L78.2852 60.5117C78.2383 60.6719 78.1582 60.8438 78.0449 61.0273C77.9316 61.2109 77.7832 61.3867 77.5996 61.5547C77.4199 61.7188 77.2031 61.8535 76.9492 61.959C76.6992 62.0645 76.4102 62.1172 76.082 62.1172C75.668 62.1172 75.2988 62.0352 74.9746 61.8711C74.6504 61.7031 74.3965 61.4785 74.2129 61.1973C74.0293 60.9121 73.9375 60.5898 73.9375 60.2305C73.9375 59.8945 74 59.5977 74.125 59.3398C74.2539 59.0781 74.4414 58.8594 74.6875 58.6836C74.9375 58.5078 75.2422 58.375 75.6016 58.2852C75.9609 58.1914 76.3711 58.1445 76.832 58.1445H77.9395ZM83.5352 55.6602V56.6914H79.9609V55.6602H83.5352ZM80.9922 54.1074H82.4043V60.248C82.4043 60.4434 82.4316 60.5938 82.4863 60.6992C82.5449 60.8008 82.625 60.8691 82.7266 60.9043C82.8281 60.9395 82.9473 60.957 83.084 60.957C83.1816 60.957 83.2754 60.9512 83.3652 60.9395C83.4551 60.9277 83.5273 60.916 83.582 60.9043L83.5879 61.9824C83.4707 62.0176 83.334 62.0488 83.1777 62.0762C83.0254 62.1035 82.8496 62.1172 82.6504 62.1172C82.3262 62.1172 82.0391 62.0605 81.7891 61.9473C81.5391 61.8301 81.3438 61.6406 81.2031 61.3789C81.0625 61.1172 80.9922 60.7695 80.9922 60.3359V54.1074ZM84.6426 61.2969C84.6426 61.0781 84.7168 60.8945 84.8652 60.7461C85.0137 60.5938 85.2148 60.5176 85.4688 60.5176C85.7266 60.5176 85.9277 60.5938 86.0723 60.7461C86.2207 60.8945 86.2949 61.0781 86.2949 61.2969C86.2949 61.5156 86.2207 61.6992 86.0723 61.8477C85.9277 61.9961 85.7266 62.0703 85.4688 62.0703C85.2148 62.0703 85.0137 61.9961 84.8652 61.8477C84.7168 61.6992 84.6426 61.5156 84.6426 61.2969ZM84.6484 56.3047C84.6484 56.0859 84.7227 55.9023 84.8711 55.7539C85.0195 55.6016 85.2207 55.5254 85.4746 55.5254C85.7324 55.5254 85.9336 55.6016 86.0781 55.7539C86.2266 55.9023 86.3008 56.0859 86.3008 56.3047C86.3008 56.5234 86.2266 56.707 86.0781 56.8555C85.9336 57.0039 85.7324 57.0781 85.4746 57.0781C85.2207 57.0781 85.0195 57.0039 84.8711 56.8555C84.7227 56.707 84.6484 56.5234 84.6484 56.3047ZM92.2891 55.6602V62H90.8711V55.6602H92.2891ZM90.7773 53.9961C90.7773 53.7812 90.8477 53.6035 90.9883 53.4629C91.1328 53.3184 91.332 53.2461 91.5859 53.2461C91.8359 53.2461 92.0332 53.3184 92.1777 53.4629C92.3223 53.6035 92.3945 53.7812 92.3945 53.9961C92.3945 54.207 92.3223 54.3828 92.1777 54.5234C92.0332 54.6641 91.8359 54.7344 91.5859 54.7344C91.332 54.7344 91.1328 54.6641 90.9883 54.5234C90.8477 54.3828 90.7773 54.207 90.7773 53.9961ZM95.7461 62H94.334V55.0508C94.334 54.5781 94.4219 54.1816 94.5977 53.8613C94.7773 53.5371 95.0332 53.293 95.3652 53.1289C95.6973 52.9609 96.0898 52.877 96.543 52.877C96.6836 52.877 96.8223 52.8867 96.959 52.9062C97.0957 52.9219 97.2285 52.9473 97.3574 52.9824L97.3223 54.0723C97.2441 54.0527 97.1582 54.0391 97.0645 54.0312C96.9746 54.0234 96.877 54.0195 96.7715 54.0195C96.5566 54.0195 96.3711 54.0605 96.2148 54.1426C96.0625 54.2207 95.9453 54.3359 95.8633 54.4883C95.7852 54.6406 95.7461 54.8281 95.7461 55.0508V62ZM97.0527 55.6602V56.6914H93.3613V55.6602H97.0527ZM103.973 55.6602V56.6914H100.398V55.6602H103.973ZM101.43 54.1074H102.842V60.248C102.842 60.4434 102.869 60.5938 102.924 60.6992C102.982 60.8008 103.062 60.8691 103.164 60.9043C103.266 60.9395 103.385 60.957 103.521 60.957C103.619 60.957 103.713 60.9512 103.803 60.9395C103.893 60.9277 103.965 60.916 104.02 60.9043L104.025 61.9824C103.908 62.0176 103.771 62.0488 103.615 62.0762C103.463 62.1035 103.287 62.1172 103.088 62.1172C102.764 62.1172 102.477 62.0605 102.227 61.9473C101.977 61.8301 101.781 61.6406 101.641 61.3789C101.5 61.1172 101.43 60.7695 101.43 60.3359V54.1074ZM106.457 53V62H105.051V53H106.457ZM106.211 58.5957L105.754 58.5898C105.758 58.1523 105.818 57.748 105.936 57.377C106.057 57.0059 106.225 56.6836 106.439 56.4102C106.658 56.1328 106.92 55.9199 107.225 55.7715C107.529 55.6191 107.867 55.543 108.238 55.543C108.551 55.543 108.832 55.5859 109.082 55.6719C109.336 55.7578 109.555 55.8965 109.738 56.0879C109.922 56.2754 110.061 56.5215 110.154 56.8262C110.252 57.127 110.301 57.4941 110.301 57.9277V62H108.883V57.916C108.883 57.6113 108.838 57.3691 108.748 57.1895C108.662 57.0098 108.535 56.8809 108.367 56.8027C108.199 56.7207 107.994 56.6797 107.752 56.6797C107.498 56.6797 107.273 56.7305 107.078 56.832C106.887 56.9336 106.727 57.0723 106.598 57.248C106.469 57.4238 106.371 57.627 106.305 57.8574C106.242 58.0879 106.211 58.334 106.211 58.5957ZM114.525 62.1172C114.057 62.1172 113.633 62.041 113.254 61.8887C112.879 61.7324 112.559 61.5156 112.293 61.2383C112.031 60.9609 111.83 60.6348 111.689 60.2598C111.549 59.8848 111.479 59.4805 111.479 59.0469V58.8125C111.479 58.3164 111.551 57.8672 111.695 57.4648C111.84 57.0625 112.041 56.7188 112.299 56.4336C112.557 56.1445 112.861 55.9238 113.213 55.7715C113.564 55.6191 113.945 55.543 114.355 55.543C114.809 55.543 115.205 55.6191 115.545 55.7715C115.885 55.9238 116.166 56.1387 116.389 56.416C116.615 56.6895 116.783 57.0156 116.893 57.3945C117.006 57.7734 117.062 58.1914 117.062 58.6484V59.252H112.164V58.2383H115.668V58.127C115.66 57.873 115.609 57.6348 115.516 57.4121C115.426 57.1895 115.287 57.0098 115.1 56.873C114.912 56.7363 114.662 56.668 114.35 56.668C114.115 56.668 113.906 56.7188 113.723 56.8203C113.543 56.918 113.393 57.0605 113.271 57.248C113.15 57.4355 113.057 57.6621 112.99 57.9277C112.928 58.1895 112.896 58.4844 112.896 58.8125V59.0469C112.896 59.3242 112.934 59.582 113.008 59.8203C113.086 60.0547 113.199 60.2598 113.348 60.4355C113.496 60.6113 113.676 60.75 113.887 60.8516C114.098 60.9492 114.338 60.998 114.607 60.998C114.947 60.998 115.25 60.9297 115.516 60.793C115.781 60.6562 116.012 60.4629 116.207 60.2129L116.951 60.9336C116.814 61.1328 116.637 61.3242 116.418 61.5078C116.199 61.6875 115.932 61.834 115.615 61.9473C115.303 62.0605 114.939 62.1172 114.525 62.1172ZM123.906 53.3516C124.246 53.3516 124.559 53.3984 124.844 53.4922C125.133 53.5859 125.393 53.7305 125.623 53.9258C125.854 54.1211 126.049 54.3672 126.209 54.6641C126.373 54.957 126.496 55.3066 126.578 55.7129C126.664 56.1152 126.707 56.5742 126.707 57.0898V58.3496C126.707 58.8613 126.664 59.3203 126.578 59.7266C126.496 60.1289 126.375 60.4805 126.215 60.7812C126.055 61.082 125.859 61.332 125.629 61.5312C125.402 61.7266 125.145 61.873 124.855 61.9707C124.57 62.0684 124.258 62.1172 123.918 62.1172C123.582 62.1172 123.27 62.0684 122.98 61.9707C122.695 61.873 122.438 61.7266 122.207 61.5312C121.98 61.332 121.785 61.082 121.621 60.7812C121.457 60.4805 121.332 60.1289 121.246 59.7266C121.16 59.3203 121.117 58.8613 121.117 58.3496V57.0898C121.117 56.5742 121.16 56.1152 121.246 55.7129C121.332 55.3066 121.455 54.957 121.615 54.6641C121.779 54.3672 121.975 54.1211 122.201 53.9258C122.428 53.7305 122.684 53.5859 122.969 53.4922C123.258 53.3984 123.57 53.3516 123.906 53.3516ZM123.906 54.4707C123.688 54.4707 123.492 54.5215 123.32 54.623C123.148 54.7207 123.004 54.8711 122.887 55.0742C122.77 55.2734 122.68 55.5234 122.617 55.8242C122.559 56.125 122.529 56.4766 122.529 56.8789V57.1836H125.295V56.8789C125.295 56.5586 125.275 56.2695 125.236 56.0117C125.197 55.7539 125.141 55.5293 125.066 55.3379C124.992 55.1426 124.898 54.9824 124.785 54.8574C124.672 54.7285 124.541 54.6328 124.393 54.5703C124.248 54.5039 124.086 54.4707 123.906 54.4707ZM123.918 60.9922C124.098 60.9922 124.26 60.959 124.404 60.8926C124.553 60.8262 124.682 60.7285 124.791 60.5996C124.9 60.4668 124.992 60.3027 125.066 60.1074C125.145 59.9082 125.201 59.6797 125.236 59.4219C125.275 59.1602 125.295 58.8672 125.295 58.543V58.2734H122.529V58.543C122.529 58.8672 122.549 59.1602 122.588 59.4219C122.627 59.6797 122.686 59.9082 122.764 60.1074C122.842 60.3027 122.936 60.4668 123.045 60.5996C123.158 60.7285 123.287 60.8262 123.432 60.8926C123.58 60.959 123.742 60.9922 123.918 60.9922ZM132.637 55.6602V62H131.219V55.6602H132.637ZM131.125 53.9961C131.125 53.7812 131.195 53.6035 131.336 53.4629C131.48 53.3184 131.68 53.2461 131.934 53.2461C132.184 53.2461 132.381 53.3184 132.525 53.4629C132.67 53.6035 132.742 53.7812 132.742 53.9961C132.742 54.207 132.67 54.3828 132.525 54.5234C132.381 54.6641 132.184 54.7344 131.934 54.7344C131.68 54.7344 131.48 54.6641 131.336 54.5234C131.195 54.3828 131.125 54.207 131.125 53.9961ZM135.584 57.0137V62H134.172V55.6602H135.502L135.584 57.0137ZM135.332 58.5957L134.875 58.5898C134.879 58.1406 134.941 57.7285 135.062 57.3535C135.188 56.9785 135.359 56.6562 135.578 56.3867C135.801 56.1172 136.066 55.9102 136.375 55.7656C136.684 55.6172 137.027 55.543 137.406 55.543C137.711 55.543 137.986 55.5859 138.232 55.6719C138.482 55.7539 138.695 55.8887 138.871 56.0762C139.051 56.2637 139.188 56.5078 139.281 56.8086C139.375 57.1055 139.422 57.4707 139.422 57.9043V62H138.004V57.8984C138.004 57.5938 137.959 57.3535 137.869 57.1777C137.783 56.998 137.656 56.8711 137.488 56.7969C137.324 56.7188 137.119 56.6797 136.873 56.6797C136.631 56.6797 136.414 56.7305 136.223 56.832C136.031 56.9336 135.869 57.0723 135.736 57.248C135.607 57.4238 135.508 57.627 135.438 57.8574C135.367 58.0879 135.332 58.334 135.332 58.5957ZM143.453 60.9922C143.684 60.9922 143.891 60.9473 144.074 60.8574C144.262 60.7637 144.412 60.6348 144.525 60.4707C144.643 60.3066 144.707 60.1172 144.719 59.9023H146.049C146.041 60.3125 145.92 60.6855 145.686 61.0215C145.451 61.3574 145.141 61.625 144.754 61.8242C144.367 62.0195 143.939 62.1172 143.471 62.1172C142.986 62.1172 142.564 62.0352 142.205 61.8711C141.846 61.7031 141.547 61.4727 141.309 61.1797C141.07 60.8867 140.891 60.5488 140.77 60.166C140.652 59.7832 140.594 59.373 140.594 58.9355V58.7305C140.594 58.293 140.652 57.8828 140.77 57.5C140.891 57.1133 141.07 56.7734 141.309 56.4805C141.547 56.1875 141.846 55.959 142.205 55.7949C142.564 55.627 142.984 55.543 143.465 55.543C143.973 55.543 144.418 55.6445 144.801 55.8477C145.184 56.0469 145.484 56.3262 145.703 56.6855C145.926 57.041 146.041 57.4551 146.049 57.9277H144.719C144.707 57.6934 144.648 57.4824 144.543 57.2949C144.441 57.1035 144.297 56.9512 144.109 56.8379C143.926 56.7246 143.705 56.668 143.447 56.668C143.162 56.668 142.926 56.7266 142.738 56.8438C142.551 56.957 142.404 57.1133 142.299 57.3125C142.193 57.5078 142.117 57.7285 142.07 57.9746C142.027 58.2168 142.006 58.4688 142.006 58.7305V58.9355C142.006 59.1973 142.027 59.4512 142.07 59.6973C142.113 59.9434 142.188 60.1641 142.293 60.3594C142.402 60.5508 142.551 60.7051 142.738 60.8223C142.926 60.9355 143.164 60.9922 143.453 60.9922ZM148.551 56.8672V62H147.139V55.6602H148.486L148.551 56.8672ZM150.49 55.6191L150.479 56.9316C150.393 56.916 150.299 56.9043 150.197 56.8965C150.1 56.8887 150.002 56.8848 149.904 56.8848C149.662 56.8848 149.449 56.9199 149.266 56.9902C149.082 57.0566 148.928 57.1543 148.803 57.2832C148.682 57.4082 148.588 57.5605 148.521 57.7402C148.455 57.9199 148.416 58.1211 148.404 58.3438L148.082 58.3672C148.082 57.9688 148.121 57.5996 148.199 57.2598C148.277 56.9199 148.395 56.6211 148.551 56.3633C148.711 56.1055 148.91 55.9043 149.148 55.7598C149.391 55.6152 149.67 55.543 149.986 55.543C150.072 55.543 150.164 55.5508 150.262 55.5664C150.363 55.582 150.439 55.5996 150.49 55.6191ZM154.053 62.1172C153.584 62.1172 153.16 62.041 152.781 61.8887C152.406 61.7324 152.086 61.5156 151.82 61.2383C151.559 60.9609 151.357 60.6348 151.217 60.2598C151.076 59.8848 151.006 59.4805 151.006 59.0469V58.8125C151.006 58.3164 151.078 57.8672 151.223 57.4648C151.367 57.0625 151.568 56.7188 151.826 56.4336C152.084 56.1445 152.389 55.9238 152.74 55.7715C153.092 55.6191 153.473 55.543 153.883 55.543C154.336 55.543 154.732 55.6191 155.072 55.7715C155.412 55.9238 155.693 56.1387 155.916 56.416C156.143 56.6895 156.311 57.0156 156.42 57.3945C156.533 57.7734 156.59 58.1914 156.59 58.6484V59.252H151.691V58.2383H155.195V58.127C155.188 57.873 155.137 57.6348 155.043 57.4121C154.953 57.1895 154.814 57.0098 154.627 56.873C154.439 56.7363 154.189 56.668 153.877 56.668C153.643 56.668 153.434 56.7188 153.25 56.8203C153.07 56.918 152.92 57.0605 152.799 57.248C152.678 57.4355 152.584 57.6621 152.518 57.9277C152.455 58.1895 152.424 58.4844 152.424 58.8125V59.0469C152.424 59.3242 152.461 59.582 152.535 59.8203C152.613 60.0547 152.727 60.2598 152.875 60.4355C153.023 60.6113 153.203 60.75 153.414 60.8516C153.625 60.9492 153.865 60.998 154.135 60.998C154.475 60.998 154.777 60.9297 155.043 60.793C155.309 60.6562 155.539 60.4629 155.734 60.2129L156.479 60.9336C156.342 61.1328 156.164 61.3242 155.945 61.5078C155.727 61.6875 155.459 61.834 155.143 61.9473C154.83 62.0605 154.467 62.1172 154.053 62.1172ZM161.266 60.7285V57.7051C161.266 57.4785 161.225 57.2832 161.143 57.1191C161.061 56.9551 160.936 56.8281 160.768 56.7383C160.604 56.6484 160.396 56.6035 160.146 56.6035C159.916 56.6035 159.717 56.6426 159.549 56.7207C159.381 56.7988 159.25 56.9043 159.156 57.0371C159.062 57.1699 159.016 57.3203 159.016 57.4883H157.609C157.609 57.2383 157.67 56.9961 157.791 56.7617C157.912 56.5273 158.088 56.3184 158.318 56.1348C158.549 55.9512 158.824 55.8066 159.145 55.7012C159.465 55.5957 159.824 55.543 160.223 55.543C160.699 55.543 161.121 55.623 161.488 55.7832C161.859 55.9434 162.15 56.1855 162.361 56.5098C162.576 56.8301 162.684 57.2324 162.684 57.7168V60.5352C162.684 60.8242 162.703 61.084 162.742 61.3145C162.785 61.541 162.846 61.7383 162.924 61.9062V62H161.477C161.41 61.8477 161.357 61.6543 161.318 61.4199C161.283 61.1816 161.266 60.9512 161.266 60.7285ZM161.471 58.1445L161.482 59.0176H160.469C160.207 59.0176 159.977 59.043 159.777 59.0938C159.578 59.1406 159.412 59.2109 159.279 59.3047C159.146 59.3984 159.047 59.5117 158.98 59.6445C158.914 59.7773 158.881 59.9277 158.881 60.0957C158.881 60.2637 158.92 60.418 158.998 60.5586C159.076 60.6953 159.189 60.8027 159.338 60.8809C159.49 60.959 159.674 60.998 159.889 60.998C160.178 60.998 160.43 60.9395 160.645 60.8223C160.863 60.7012 161.035 60.5547 161.16 60.3828C161.285 60.207 161.352 60.041 161.359 59.8848L161.816 60.5117C161.77 60.6719 161.689 60.8438 161.576 61.0273C161.463 61.2109 161.314 61.3867 161.131 61.5547C160.951 61.7188 160.734 61.8535 160.48 61.959C160.23 62.0645 159.941 62.1172 159.613 62.1172C159.199 62.1172 158.83 62.0352 158.506 61.8711C158.182 61.7031 157.928 61.4785 157.744 61.1973C157.561 60.9121 157.469 60.5898 157.469 60.2305C157.469 59.8945 157.531 59.5977 157.656 59.3398C157.785 59.0781 157.973 58.8594 158.219 58.6836C158.469 58.5078 158.773 58.375 159.133 58.2852C159.492 58.1914 159.902 58.1445 160.363 58.1445H161.471ZM167.717 60.2832C167.717 60.1426 167.682 60.0156 167.611 59.9023C167.541 59.7852 167.406 59.6797 167.207 59.5859C167.012 59.4922 166.723 59.4062 166.34 59.3281C166.004 59.2539 165.695 59.166 165.414 59.0645C165.137 58.959 164.898 58.832 164.699 58.6836C164.5 58.5352 164.346 58.3594 164.236 58.1562C164.127 57.9531 164.072 57.7188 164.072 57.4531C164.072 57.1953 164.129 56.9512 164.242 56.7207C164.355 56.4902 164.518 56.2871 164.729 56.1113C164.939 55.9355 165.195 55.7969 165.496 55.6953C165.801 55.5938 166.141 55.543 166.516 55.543C167.047 55.543 167.502 55.6328 167.881 55.8125C168.264 55.9883 168.557 56.2285 168.76 56.5332C168.963 56.834 169.064 57.1738 169.064 57.5527H167.652C167.652 57.3848 167.609 57.2285 167.523 57.084C167.441 56.9355 167.316 56.8164 167.148 56.7266C166.98 56.6328 166.77 56.5859 166.516 56.5859C166.273 56.5859 166.072 56.625 165.912 56.7031C165.756 56.7773 165.639 56.875 165.561 56.9961C165.486 57.1172 165.449 57.25 165.449 57.3945C165.449 57.5 165.469 57.5957 165.508 57.6816C165.551 57.7637 165.621 57.8398 165.719 57.9102C165.816 57.9766 165.949 58.0391 166.117 58.0977C166.289 58.1562 166.504 58.2129 166.762 58.2676C167.246 58.3691 167.662 58.5 168.01 58.6602C168.361 58.8164 168.631 59.0195 168.818 59.2695C169.006 59.5156 169.1 59.8281 169.1 60.207C169.1 60.4883 169.039 60.7461 168.918 60.9805C168.801 61.2109 168.629 61.4121 168.402 61.584C168.176 61.752 167.904 61.8828 167.588 61.9766C167.275 62.0703 166.924 62.1172 166.533 62.1172C165.959 62.1172 165.473 62.0156 165.074 61.8125C164.676 61.6055 164.373 61.3418 164.166 61.0215C163.963 60.6973 163.861 60.3613 163.861 60.0137H165.227C165.242 60.2754 165.314 60.4844 165.443 60.6406C165.576 60.793 165.74 60.9043 165.936 60.9746C166.135 61.041 166.34 61.0742 166.551 61.0742C166.805 61.0742 167.018 61.041 167.189 60.9746C167.361 60.9043 167.492 60.8105 167.582 60.6934C167.672 60.5723 167.717 60.4355 167.717 60.2832ZM173.131 62.1172C172.662 62.1172 172.238 62.041 171.859 61.8887C171.484 61.7324 171.164 61.5156 170.898 61.2383C170.637 60.9609 170.436 60.6348 170.295 60.2598C170.154 59.8848 170.084 59.4805 170.084 59.0469V58.8125C170.084 58.3164 170.156 57.8672 170.301 57.4648C170.445 57.0625 170.646 56.7188 170.904 56.4336C171.162 56.1445 171.467 55.9238 171.818 55.7715C172.17 55.6191 172.551 55.543 172.961 55.543C173.414 55.543 173.811 55.6191 174.15 55.7715C174.49 55.9238 174.771 56.1387 174.994 56.416C175.221 56.6895 175.389 57.0156 175.498 57.3945C175.611 57.7734 175.668 58.1914 175.668 58.6484V59.252H170.77V58.2383H174.273V58.127C174.266 57.873 174.215 57.6348 174.121 57.4121C174.031 57.1895 173.893 57.0098 173.705 56.873C173.518 56.7363 173.268 56.668 172.955 56.668C172.721 56.668 172.512 56.7188 172.328 56.8203C172.148 56.918 171.998 57.0605 171.877 57.248C171.756 57.4355 171.662 57.6621 171.596 57.9277C171.533 58.1895 171.502 58.4844 171.502 58.8125V59.0469C171.502 59.3242 171.539 59.582 171.613 59.8203C171.691 60.0547 171.805 60.2598 171.953 60.4355C172.102 60.6113 172.281 60.75 172.492 60.8516C172.703 60.9492 172.943 60.998 173.213 60.998C173.553 60.998 173.855 60.9297 174.121 60.793C174.387 60.6562 174.617 60.4629 174.812 60.2129L175.557 60.9336C175.42 61.1328 175.242 61.3242 175.023 61.5078C174.805 61.6875 174.537 61.834 174.221 61.9473C173.908 62.0605 173.545 62.1172 173.131 62.1172ZM180.326 60.2832C180.326 60.1426 180.291 60.0156 180.221 59.9023C180.15 59.7852 180.016 59.6797 179.816 59.5859C179.621 59.4922 179.332 59.4062 178.949 59.3281C178.613 59.2539 178.305 59.166 178.023 59.0645C177.746 58.959 177.508 58.832 177.309 58.6836C177.109 58.5352 176.955 58.3594 176.846 58.1562C176.736 57.9531 176.682 57.7188 176.682 57.4531C176.682 57.1953 176.738 56.9512 176.852 56.7207C176.965 56.4902 177.127 56.2871 177.338 56.1113C177.549 55.9355 177.805 55.7969 178.105 55.6953C178.41 55.5938 178.75 55.543 179.125 55.543C179.656 55.543 180.111 55.6328 180.49 55.8125C180.873 55.9883 181.166 56.2285 181.369 56.5332C181.572 56.834 181.674 57.1738 181.674 57.5527H180.262C180.262 57.3848 180.219 57.2285 180.133 57.084C180.051 56.9355 179.926 56.8164 179.758 56.7266C179.59 56.6328 179.379 56.5859 179.125 56.5859C178.883 56.5859 178.682 56.625 178.521 56.7031C178.365 56.7773 178.248 56.875 178.17 56.9961C178.096 57.1172 178.059 57.25 178.059 57.3945C178.059 57.5 178.078 57.5957 178.117 57.6816C178.16 57.7637 178.23 57.8398 178.328 57.9102C178.426 57.9766 178.559 58.0391 178.727 58.0977C178.898 58.1562 179.113 58.2129 179.371 58.2676C179.855 58.3691 180.271 58.5 180.619 58.6602C180.971 58.8164 181.24 59.0195 181.428 59.2695C181.615 59.5156 181.709 59.8281 181.709 60.207C181.709 60.4883 181.648 60.7461 181.527 60.9805C181.41 61.2109 181.238 61.4121 181.012 61.584C180.785 61.752 180.514 61.8828 180.197 61.9766C179.885 62.0703 179.533 62.1172 179.143 62.1172C178.568 62.1172 178.082 62.0156 177.684 61.8125C177.285 61.6055 176.982 61.3418 176.775 61.0215C176.572 60.6973 176.471 60.3613 176.471 60.0137H177.836C177.852 60.2754 177.924 60.4844 178.053 60.6406C178.186 60.793 178.35 60.9043 178.545 60.9746C178.744 61.041 178.949 61.0742 179.16 61.0742C179.414 61.0742 179.627 61.041 179.799 60.9746C179.971 60.9043 180.102 60.8105 180.191 60.6934C180.281 60.5723 180.326 60.4355 180.326 60.2832ZM184.27 60.6406L184.264 61.6484C184.264 62.0469 184.164 62.457 183.965 62.8789C183.766 63.3008 183.502 63.6484 183.174 63.9219L182.418 63.4824C182.527 63.3066 182.627 63.1289 182.717 62.9492C182.807 62.7695 182.879 62.5781 182.934 62.375C182.988 62.1719 183.016 61.9473 183.016 61.7012V60.6406H184.27ZM19.6328 85.6602V86.6914H16.0586V85.6602H19.6328ZM17.0898 84.1074H18.502V90.248C18.502 90.4434 18.5293 90.5938 18.584 90.6992C18.6426 90.8008 18.7227 90.8691 18.8242 90.9043C18.9258 90.9395 19.0449 90.957 19.1816 90.957C19.2793 90.957 19.373 90.9512 19.4629 90.9395C19.5527 90.9277 19.625 90.916 19.6797 90.9043L19.6855 91.9824C19.5684 92.0176 19.4316 92.0488 19.2754 92.0762C19.123 92.1035 18.9473 92.1172 18.748 92.1172C18.4238 92.1172 18.1367 92.0605 17.8867 91.9473C17.6367 91.8301 17.4414 91.6406 17.3008 91.3789C17.1602 91.1172 17.0898 90.7695 17.0898 90.3359V84.1074ZM22.1172 83V92H20.7109V83H22.1172ZM21.8711 88.5957L21.4141 88.5898C21.418 88.1523 21.4785 87.748 21.5957 87.377C21.7168 87.0059 21.8848 86.6836 22.0996 86.4102C22.3184 86.1328 22.5801 85.9199 22.8848 85.7715C23.1895 85.6191 23.5273 85.543 23.8984 85.543C24.2109 85.543 24.4922 85.5859 24.7422 85.6719C24.9961 85.7578 25.2148 85.8965 25.3984 86.0879C25.582 86.2754 25.7207 86.5215 25.8145 86.8262C25.9121 87.127 25.9609 87.4941 25.9609 87.9277V92H24.543V87.916C24.543 87.6113 24.498 87.3691 24.4082 87.1895C24.3223 87.0098 24.1953 86.8809 24.0273 86.8027C23.8594 86.7207 23.6543 86.6797 23.4121 86.6797C23.1582 86.6797 22.9336 86.7305 22.7383 86.832C22.5469 86.9336 22.3867 87.0723 22.2578 87.248C22.1289 87.4238 22.0312 87.627 21.9648 87.8574C21.9023 88.0879 21.8711 88.334 21.8711 88.5957ZM30.1855 92.1172C29.7168 92.1172 29.293 92.041 28.9141 91.8887C28.5391 91.7324 28.2188 91.5156 27.9531 91.2383C27.6914 90.9609 27.4902 90.6348 27.3496 90.2598C27.209 89.8848 27.1387 89.4805 27.1387 89.0469V88.8125C27.1387 88.3164 27.2109 87.8672 27.3555 87.4648C27.5 87.0625 27.7012 86.7188 27.959 86.4336C28.2168 86.1445 28.5215 85.9238 28.873 85.7715C29.2246 85.6191 29.6055 85.543 30.0156 85.543C30.4688 85.543 30.8652 85.6191 31.2051 85.7715C31.5449 85.9238 31.8262 86.1387 32.0488 86.416C32.2754 86.6895 32.4434 87.0156 32.5527 87.3945C32.666 87.7734 32.7227 88.1914 32.7227 88.6484V89.252H27.8242V88.2383H31.3281V88.127C31.3203 87.873 31.2695 87.6348 31.1758 87.4121C31.0859 87.1895 30.9473 87.0098 30.7598 86.873C30.5723 86.7363 30.3223 86.668 30.0098 86.668C29.7754 86.668 29.5664 86.7188 29.3828 86.8203C29.2031 86.918 29.0527 87.0605 28.9316 87.248C28.8105 87.4355 28.7168 87.6621 28.6504 87.9277C28.5879 88.1895 28.5566 88.4844 28.5566 88.8125V89.0469C28.5566 89.3242 28.5938 89.582 28.668 89.8203C28.7461 90.0547 28.8594 90.2598 29.0078 90.4355C29.1562 90.6113 29.3359 90.75 29.5469 90.8516C29.7578 90.9492 29.998 90.998 30.2676 90.998C30.6074 90.998 30.9102 90.9297 31.1758 90.793C31.4414 90.6562 31.6719 90.4629 31.8672 90.2129L32.6113 90.9336C32.4746 91.1328 32.2969 91.3242 32.0781 91.5078C31.8594 91.6875 31.5918 91.834 31.2754 91.9473C30.9629 92.0605 30.5996 92.1172 30.1855 92.1172ZM35.2246 87.0137V92H33.8125V85.6602H35.1426L35.2246 87.0137ZM34.9727 88.5957L34.5156 88.5898C34.5195 88.1406 34.582 87.7285 34.7031 87.3535C34.8281 86.9785 35 86.6562 35.2188 86.3867C35.4414 86.1172 35.707 85.9102 36.0156 85.7656C36.3242 85.6172 36.668 85.543 37.0469 85.543C37.3516 85.543 37.627 85.5859 37.873 85.6719C38.123 85.7539 38.3359 85.8887 38.5117 86.0762C38.6914 86.2637 38.8281 86.5078 38.9219 86.8086C39.0156 87.1055 39.0625 87.4707 39.0625 87.9043V92H37.6445V87.8984C37.6445 87.5938 37.5996 87.3535 37.5098 87.1777C37.4238 86.998 37.2969 86.8711 37.1289 86.7969C36.9648 86.7188 36.7598 86.6797 36.5137 86.6797C36.2715 86.6797 36.0547 86.7305 35.8633 86.832C35.6719 86.9336 35.5098 87.0723 35.377 87.248C35.248 87.4238 35.1484 87.627 35.0781 87.8574C35.0078 88.0879 34.9727 88.334 34.9727 88.5957ZM45.2031 83.4688V92H43.7324V83.4688H45.2031ZM53.4531 90.7285V87.7051C53.4531 87.4785 53.4121 87.2832 53.3301 87.1191C53.248 86.9551 53.123 86.8281 52.9551 86.7383C52.791 86.6484 52.584 86.6035 52.334 86.6035C52.1035 86.6035 51.9043 86.6426 51.7363 86.7207C51.5684 86.7988 51.4375 86.9043 51.3438 87.0371C51.25 87.1699 51.2031 87.3203 51.2031 87.4883H49.7969C49.7969 87.2383 49.8574 86.9961 49.9785 86.7617C50.0996 86.5273 50.2754 86.3184 50.5059 86.1348C50.7363 85.9512 51.0117 85.8066 51.332 85.7012C51.6523 85.5957 52.0117 85.543 52.4102 85.543C52.8867 85.543 53.3086 85.623 53.6758 85.7832C54.0469 85.9434 54.3379 86.1855 54.5488 86.5098C54.7637 86.8301 54.8711 87.2324 54.8711 87.7168V90.5352C54.8711 90.8242 54.8906 91.084 54.9297 91.3145C54.9727 91.541 55.0332 91.7383 55.1113 91.9062V92H53.6641C53.5977 91.8477 53.5449 91.6543 53.5059 91.4199C53.4707 91.1816 53.4531 90.9512 53.4531 90.7285ZM53.6582 88.1445L53.6699 89.0176H52.6562C52.3945 89.0176 52.1641 89.043 51.9648 89.0938C51.7656 89.1406 51.5996 89.2109 51.4668 89.3047C51.334 89.3984 51.2344 89.5117 51.168 89.6445C51.1016 89.7773 51.0684 89.9277 51.0684 90.0957C51.0684 90.2637 51.1074 90.418 51.1855 90.5586C51.2637 90.6953 51.377 90.8027 51.5254 90.8809C51.6777 90.959 51.8613 90.998 52.0762 90.998C52.3652 90.998 52.6172 90.9395 52.832 90.8223C53.0508 90.7012 53.2227 90.5547 53.3477 90.3828C53.4727 90.207 53.5391 90.041 53.5469 89.8848L54.0039 90.5117C53.957 90.6719 53.877 90.8438 53.7637 91.0273C53.6504 91.2109 53.502 91.3867 53.3184 91.5547C53.1387 91.7188 52.9219 91.8535 52.668 91.959C52.418 92.0645 52.1289 92.1172 51.8008 92.1172C51.3867 92.1172 51.0176 92.0352 50.6934 91.8711C50.3691 91.7031 50.1152 91.4785 49.9316 91.1973C49.748 90.9121 49.6562 90.5898 49.6562 90.2305C49.6562 89.8945 49.7188 89.5977 49.8438 89.3398C49.9727 89.0781 50.1602 88.8594 50.4062 88.6836C50.6562 88.5078 50.9609 88.375 51.3203 88.2852C51.6797 88.1914 52.0898 88.1445 52.5508 88.1445H53.6582ZM57.8594 83V92H56.4414V83H57.8594ZM62.9629 90.2832C62.9629 90.1426 62.9277 90.0156 62.8574 89.9023C62.7871 89.7852 62.6523 89.6797 62.4531 89.5859C62.2578 89.4922 61.9688 89.4062 61.5859 89.3281C61.25 89.2539 60.9414 89.166 60.6602 89.0645C60.3828 88.959 60.1445 88.832 59.9453 88.6836C59.7461 88.5352 59.5918 88.3594 59.4824 88.1562C59.373 87.9531 59.3184 87.7188 59.3184 87.4531C59.3184 87.1953 59.375 86.9512 59.4883 86.7207C59.6016 86.4902 59.7637 86.2871 59.9746 86.1113C60.1855 85.9355 60.4414 85.7969 60.7422 85.6953C61.0469 85.5938 61.3867 85.543 61.7617 85.543C62.293 85.543 62.748 85.6328 63.127 85.8125C63.5098 85.9883 63.8027 86.2285 64.0059 86.5332C64.209 86.834 64.3105 87.1738 64.3105 87.5527H62.8984C62.8984 87.3848 62.8555 87.2285 62.7695 87.084C62.6875 86.9355 62.5625 86.8164 62.3945 86.7266C62.2266 86.6328 62.0156 86.5859 61.7617 86.5859C61.5195 86.5859 61.3184 86.625 61.1582 86.7031C61.002 86.7773 60.8848 86.875 60.8066 86.9961C60.7324 87.1172 60.6953 87.25 60.6953 87.3945C60.6953 87.5 60.7148 87.5957 60.7539 87.6816C60.7969 87.7637 60.8672 87.8398 60.9648 87.9102C61.0625 87.9766 61.1953 88.0391 61.3633 88.0977C61.5352 88.1562 61.75 88.2129 62.0078 88.2676C62.4922 88.3691 62.9082 88.5 63.2559 88.6602C63.6074 88.8164 63.877 89.0195 64.0645 89.2695C64.252 89.5156 64.3457 89.8281 64.3457 90.207C64.3457 90.4883 64.2852 90.7461 64.1641 90.9805C64.0469 91.2109 63.875 91.4121 63.6484 91.584C63.4219 91.752 63.1504 91.8828 62.834 91.9766C62.5215 92.0703 62.1699 92.1172 61.7793 92.1172C61.2051 92.1172 60.7188 92.0156 60.3203 91.8125C59.9219 91.6055 59.6191 91.3418 59.4121 91.0215C59.209 90.6973 59.1074 90.3613 59.1074 90.0137H60.4727C60.4883 90.2754 60.5605 90.4844 60.6895 90.6406C60.8223 90.793 60.9863 90.9043 61.1816 90.9746C61.3809 91.041 61.5859 91.0742 61.7969 91.0742C62.0508 91.0742 62.2637 91.041 62.4355 90.9746C62.6074 90.9043 62.7383 90.8105 62.8281 90.6934C62.918 90.5723 62.9629 90.4355 62.9629 90.2832ZM65.3125 88.9004V88.7656C65.3125 88.3086 65.3789 87.8848 65.5117 87.4941C65.6445 87.0996 65.8359 86.7578 66.0859 86.4688C66.3398 86.1758 66.6484 85.9492 67.0117 85.7891C67.3789 85.625 67.793 85.543 68.2539 85.543C68.7188 85.543 69.1328 85.625 69.4961 85.7891C69.8633 85.9492 70.1738 86.1758 70.4277 86.4688C70.6816 86.7578 70.875 87.0996 71.0078 87.4941C71.1406 87.8848 71.207 88.3086 71.207 88.7656V88.9004C71.207 89.3574 71.1406 89.7812 71.0078 90.1719C70.875 90.5625 70.6816 90.9043 70.4277 91.1973C70.1738 91.4863 69.8652 91.7129 69.502 91.877C69.1387 92.0371 68.7266 92.1172 68.2656 92.1172C67.8008 92.1172 67.3848 92.0371 67.0176 91.877C66.6543 91.7129 66.3457 91.4863 66.0918 91.1973C65.8379 90.9043 65.6445 90.5625 65.5117 90.1719C65.3789 89.7812 65.3125 89.3574 65.3125 88.9004ZM66.7246 88.7656V88.9004C66.7246 89.1855 66.7539 89.4551 66.8125 89.709C66.8711 89.9629 66.9629 90.1855 67.0879 90.377C67.2129 90.5684 67.373 90.7188 67.5684 90.8281C67.7637 90.9375 67.9961 90.9922 68.2656 90.9922C68.5273 90.9922 68.7539 90.9375 68.9453 90.8281C69.1406 90.7188 69.3008 90.5684 69.4258 90.377C69.5508 90.1855 69.6426 89.9629 69.7012 89.709C69.7637 89.4551 69.7949 89.1855 69.7949 88.9004V88.7656C69.7949 88.4844 69.7637 88.2188 69.7012 87.9688C69.6426 87.7148 69.5488 87.4902 69.4199 87.2949C69.2949 87.0996 69.1348 86.9473 68.9395 86.8379C68.748 86.7246 68.5195 86.668 68.2539 86.668C67.9883 86.668 67.7578 86.7246 67.5625 86.8379C67.3711 86.9473 67.2129 87.0996 67.0879 87.2949C66.9629 87.4902 66.8711 87.7148 66.8125 87.9688C66.7539 88.2188 66.7246 88.4844 66.7246 88.7656Z" fill="#363A48"/>
<path d="M96.2383 85.6602V92H94.8203V85.6602H96.2383ZM94.7266 83.9961C94.7266 83.7812 94.7969 83.6035 94.9375 83.4629C95.082 83.3184 95.2812 83.2461 95.5352 83.2461C95.7852 83.2461 95.9824 83.3184 96.127 83.4629C96.2715 83.6035 96.3438 83.7812 96.3438 83.9961C96.3438 84.207 96.2715 84.3828 96.127 84.5234C95.9824 84.6641 95.7852 84.7344 95.5352 84.7344C95.2812 84.7344 95.082 84.6641 94.9375 84.5234C94.7969 84.3828 94.7266 84.207 94.7266 83.9961ZM99.1855 87.0137V92H97.7734V85.6602H99.1035L99.1855 87.0137ZM98.9336 88.5957L98.4766 88.5898C98.4805 88.1406 98.543 87.7285 98.6641 87.3535C98.7891 86.9785 98.9609 86.6562 99.1797 86.3867C99.4023 86.1172 99.668 85.9102 99.9766 85.7656C100.285 85.6172 100.629 85.543 101.008 85.543C101.312 85.543 101.588 85.5859 101.834 85.6719C102.084 85.7539 102.297 85.8887 102.473 86.0762C102.652 86.2637 102.789 86.5078 102.883 86.8086C102.977 87.1055 103.023 87.4707 103.023 87.9043V92H101.605V87.8984C101.605 87.5938 101.561 87.3535 101.471 87.1777C101.385 86.998 101.258 86.8711 101.09 86.7969C100.926 86.7188 100.721 86.6797 100.475 86.6797C100.232 86.6797 100.016 86.7305 99.8242 86.832C99.6328 86.9336 99.4707 87.0723 99.3379 87.248C99.209 87.4238 99.1094 87.627 99.0391 87.8574C98.9688 88.0879 98.9336 88.334 98.9336 88.5957ZM107.055 90.9922C107.285 90.9922 107.492 90.9473 107.676 90.8574C107.863 90.7637 108.014 90.6348 108.127 90.4707C108.244 90.3066 108.309 90.1172 108.32 89.9023H109.65C109.643 90.3125 109.521 90.6855 109.287 91.0215C109.053 91.3574 108.742 91.625 108.355 91.8242C107.969 92.0195 107.541 92.1172 107.072 92.1172C106.588 92.1172 106.166 92.0352 105.807 91.8711C105.447 91.7031 105.148 91.4727 104.91 91.1797C104.672 90.8867 104.492 90.5488 104.371 90.166C104.254 89.7832 104.195 89.373 104.195 88.9355V88.7305C104.195 88.293 104.254 87.8828 104.371 87.5C104.492 87.1133 104.672 86.7734 104.91 86.4805C105.148 86.1875 105.447 85.959 105.807 85.7949C106.166 85.627 106.586 85.543 107.066 85.543C107.574 85.543 108.02 85.6445 108.402 85.8477C108.785 86.0469 109.086 86.3262 109.305 86.6855C109.527 87.041 109.643 87.4551 109.65 87.9277H108.32C108.309 87.6934 108.25 87.4824 108.145 87.2949C108.043 87.1035 107.898 86.9512 107.711 86.8379C107.527 86.7246 107.307 86.668 107.049 86.668C106.764 86.668 106.527 86.7266 106.34 86.8438C106.152 86.957 106.006 87.1133 105.9 87.3125C105.795 87.5078 105.719 87.7285 105.672 87.9746C105.629 88.2168 105.607 88.4688 105.607 88.7305V88.9355C105.607 89.1973 105.629 89.4512 105.672 89.6973C105.715 89.9434 105.789 90.1641 105.895 90.3594C106.004 90.5508 106.152 90.7051 106.34 90.8223C106.527 90.9355 106.766 90.9922 107.055 90.9922ZM112.152 86.8672V92H110.74V85.6602H112.088L112.152 86.8672ZM114.092 85.6191L114.08 86.9316C113.994 86.916 113.9 86.9043 113.799 86.8965C113.701 86.8887 113.604 86.8848 113.506 86.8848C113.264 86.8848 113.051 86.9199 112.867 86.9902C112.684 87.0566 112.529 87.1543 112.404 87.2832C112.283 87.4082 112.189 87.5605 112.123 87.7402C112.057 87.9199 112.018 88.1211 112.006 88.3438L111.684 88.3672C111.684 87.9688 111.723 87.5996 111.801 87.2598C111.879 86.9199 111.996 86.6211 112.152 86.3633C112.312 86.1055 112.512 85.9043 112.75 85.7598C112.992 85.6152 113.271 85.543 113.588 85.543C113.674 85.543 113.766 85.5508 113.863 85.5664C113.965 85.582 114.041 85.5996 114.092 85.6191ZM117.654 92.1172C117.186 92.1172 116.762 92.041 116.383 91.8887C116.008 91.7324 115.688 91.5156 115.422 91.2383C115.16 90.9609 114.959 90.6348 114.818 90.2598C114.678 89.8848 114.607 89.4805 114.607 89.0469V88.8125C114.607 88.3164 114.68 87.8672 114.824 87.4648C114.969 87.0625 115.17 86.7188 115.428 86.4336C115.686 86.1445 115.99 85.9238 116.342 85.7715C116.693 85.6191 117.074 85.543 117.484 85.543C117.938 85.543 118.334 85.6191 118.674 85.7715C119.014 85.9238 119.295 86.1387 119.518 86.416C119.744 86.6895 119.912 87.0156 120.021 87.3945C120.135 87.7734 120.191 88.1914 120.191 88.6484V89.252H115.293V88.2383H118.797V88.127C118.789 87.873 118.738 87.6348 118.645 87.4121C118.555 87.1895 118.416 87.0098 118.229 86.873C118.041 86.7363 117.791 86.668 117.479 86.668C117.244 86.668 117.035 86.7188 116.852 86.8203C116.672 86.918 116.521 87.0605 116.4 87.248C116.279 87.4355 116.186 87.6621 116.119 87.9277C116.057 88.1895 116.025 88.4844 116.025 88.8125V89.0469C116.025 89.3242 116.062 89.582 116.137 89.8203C116.215 90.0547 116.328 90.2598 116.477 90.4355C116.625 90.6113 116.805 90.75 117.016 90.8516C117.227 90.9492 117.467 90.998 117.736 90.998C118.076 90.998 118.379 90.9297 118.645 90.793C118.91 90.6562 119.141 90.4629 119.336 90.2129L120.08 90.9336C119.943 91.1328 119.766 91.3242 119.547 91.5078C119.328 91.6875 119.061 91.834 118.744 91.9473C118.432 92.0605 118.068 92.1172 117.654 92.1172ZM124.867 90.7285V87.7051C124.867 87.4785 124.826 87.2832 124.744 87.1191C124.662 86.9551 124.537 86.8281 124.369 86.7383C124.205 86.6484 123.998 86.6035 123.748 86.6035C123.518 86.6035 123.318 86.6426 123.15 86.7207C122.982 86.7988 122.852 86.9043 122.758 87.0371C122.664 87.1699 122.617 87.3203 122.617 87.4883H121.211C121.211 87.2383 121.271 86.9961 121.393 86.7617C121.514 86.5273 121.689 86.3184 121.92 86.1348C122.15 85.9512 122.426 85.8066 122.746 85.7012C123.066 85.5957 123.426 85.543 123.824 85.543C124.301 85.543 124.723 85.623 125.09 85.7832C125.461 85.9434 125.752 86.1855 125.963 86.5098C126.178 86.8301 126.285 87.2324 126.285 87.7168V90.5352C126.285 90.8242 126.305 91.084 126.344 91.3145C126.387 91.541 126.447 91.7383 126.525 91.9062V92H125.078C125.012 91.8477 124.959 91.6543 124.92 91.4199C124.885 91.1816 124.867 90.9512 124.867 90.7285ZM125.072 88.1445L125.084 89.0176H124.07C123.809 89.0176 123.578 89.043 123.379 89.0938C123.18 89.1406 123.014 89.2109 122.881 89.3047C122.748 89.3984 122.648 89.5117 122.582 89.6445C122.516 89.7773 122.482 89.9277 122.482 90.0957C122.482 90.2637 122.521 90.418 122.6 90.5586C122.678 90.6953 122.791 90.8027 122.939 90.8809C123.092 90.959 123.275 90.998 123.49 90.998C123.779 90.998 124.031 90.9395 124.246 90.8223C124.465 90.7012 124.637 90.5547 124.762 90.3828C124.887 90.207 124.953 90.041 124.961 89.8848L125.418 90.5117C125.371 90.6719 125.291 90.8438 125.178 91.0273C125.064 91.2109 124.916 91.3867 124.732 91.5547C124.553 91.7188 124.336 91.8535 124.082 91.959C123.832 92.0645 123.543 92.1172 123.215 92.1172C122.801 92.1172 122.432 92.0352 122.107 91.8711C121.783 91.7031 121.529 91.4785 121.346 91.1973C121.162 90.9121 121.07 90.5898 121.07 90.2305C121.07 89.8945 121.133 89.5977 121.258 89.3398C121.387 89.0781 121.574 88.8594 121.82 88.6836C122.07 88.5078 122.375 88.375 122.734 88.2852C123.094 88.1914 123.504 88.1445 123.965 88.1445H125.072ZM131.318 90.2832C131.318 90.1426 131.283 90.0156 131.213 89.9023C131.143 89.7852 131.008 89.6797 130.809 89.5859C130.613 89.4922 130.324 89.4062 129.941 89.3281C129.605 89.2539 129.297 89.166 129.016 89.0645C128.738 88.959 128.5 88.832 128.301 88.6836C128.102 88.5352 127.947 88.3594 127.838 88.1562C127.729 87.9531 127.674 87.7188 127.674 87.4531C127.674 87.1953 127.73 86.9512 127.844 86.7207C127.957 86.4902 128.119 86.2871 128.33 86.1113C128.541 85.9355 128.797 85.7969 129.098 85.6953C129.402 85.5938 129.742 85.543 130.117 85.543C130.648 85.543 131.104 85.6328 131.482 85.8125C131.865 85.9883 132.158 86.2285 132.361 86.5332C132.564 86.834 132.666 87.1738 132.666 87.5527H131.254C131.254 87.3848 131.211 87.2285 131.125 87.084C131.043 86.9355 130.918 86.8164 130.75 86.7266C130.582 86.6328 130.371 86.5859 130.117 86.5859C129.875 86.5859 129.674 86.625 129.514 86.7031C129.357 86.7773 129.24 86.875 129.162 86.9961C129.088 87.1172 129.051 87.25 129.051 87.3945C129.051 87.5 129.07 87.5957 129.109 87.6816C129.152 87.7637 129.223 87.8398 129.32 87.9102C129.418 87.9766 129.551 88.0391 129.719 88.0977C129.891 88.1562 130.105 88.2129 130.363 88.2676C130.848 88.3691 131.264 88.5 131.611 88.6602C131.963 88.8164 132.232 89.0195 132.42 89.2695C132.607 89.5156 132.701 89.8281 132.701 90.207C132.701 90.4883 132.641 90.7461 132.52 90.9805C132.402 91.2109 132.23 91.4121 132.004 91.584C131.777 91.752 131.506 91.8828 131.189 91.9766C130.877 92.0703 130.525 92.1172 130.135 92.1172C129.561 92.1172 129.074 92.0156 128.676 91.8125C128.277 91.6055 127.975 91.3418 127.768 91.0215C127.564 90.6973 127.463 90.3613 127.463 90.0137H128.828C128.844 90.2754 128.916 90.4844 129.045 90.6406C129.178 90.793 129.342 90.9043 129.537 90.9746C129.736 91.041 129.941 91.0742 130.152 91.0742C130.406 91.0742 130.619 91.041 130.791 90.9746C130.963 90.9043 131.094 90.8105 131.184 90.6934C131.273 90.5723 131.318 90.4355 131.318 90.2832ZM136.732 92.1172C136.264 92.1172 135.84 92.041 135.461 91.8887C135.086 91.7324 134.766 91.5156 134.5 91.2383C134.238 90.9609 134.037 90.6348 133.896 90.2598C133.756 89.8848 133.686 89.4805 133.686 89.0469V88.8125C133.686 88.3164 133.758 87.8672 133.902 87.4648C134.047 87.0625 134.248 86.7188 134.506 86.4336C134.764 86.1445 135.068 85.9238 135.42 85.7715C135.771 85.6191 136.152 85.543 136.562 85.543C137.016 85.543 137.412 85.6191 137.752 85.7715C138.092 85.9238 138.373 86.1387 138.596 86.416C138.822 86.6895 138.99 87.0156 139.1 87.3945C139.213 87.7734 139.27 88.1914 139.27 88.6484V89.252H134.371V88.2383H137.875V88.127C137.867 87.873 137.816 87.6348 137.723 87.4121C137.633 87.1895 137.494 87.0098 137.307 86.873C137.119 86.7363 136.869 86.668 136.557 86.668C136.322 86.668 136.113 86.7188 135.93 86.8203C135.75 86.918 135.6 87.0605 135.479 87.248C135.357 87.4355 135.264 87.6621 135.197 87.9277C135.135 88.1895 135.104 88.4844 135.104 88.8125V89.0469C135.104 89.3242 135.141 89.582 135.215 89.8203C135.293 90.0547 135.406 90.2598 135.555 90.4355C135.703 90.6113 135.883 90.75 136.094 90.8516C136.305 90.9492 136.545 90.998 136.814 90.998C137.154 90.998 137.457 90.9297 137.723 90.793C137.988 90.6562 138.219 90.4629 138.414 90.2129L139.158 90.9336C139.021 91.1328 138.844 91.3242 138.625 91.5078C138.406 91.6875 138.139 91.834 137.822 91.9473C137.51 92.0605 137.146 92.1172 136.732 92.1172Z" fill="#ADADAD"/>
<path d="M98.5938 151.688V144H100.012V153H98.7285L98.5938 151.688ZM94.4688 149.9V149.777C94.4688 149.297 94.5254 148.859 94.6387 148.465C94.752 148.066 94.916 147.725 95.1309 147.439C95.3457 147.15 95.6074 146.93 95.916 146.777C96.2246 146.621 96.5723 146.543 96.959 146.543C97.3418 146.543 97.6777 146.617 97.9668 146.766C98.2559 146.914 98.502 147.127 98.7051 147.404C98.9082 147.678 99.0703 148.006 99.1914 148.389C99.3125 148.768 99.3984 149.189 99.4492 149.654V150.047C99.3984 150.5 99.3125 150.914 99.1914 151.289C99.0703 151.664 98.9082 151.988 98.7051 152.262C98.502 152.535 98.2539 152.746 97.9609 152.895C97.6719 153.043 97.334 153.117 96.9473 153.117C96.5645 153.117 96.2188 153.037 95.9102 152.877C95.6055 152.717 95.3457 152.492 95.1309 152.203C94.916 151.914 94.752 151.574 94.6387 151.184C94.5254 150.789 94.4688 150.361 94.4688 149.9ZM95.8809 149.777V149.9C95.8809 150.189 95.9062 150.459 95.957 150.709C96.0117 150.959 96.0957 151.18 96.209 151.371C96.3223 151.559 96.4688 151.707 96.6484 151.816C96.832 151.922 97.0508 151.975 97.3047 151.975C97.625 151.975 97.8887 151.904 98.0957 151.764C98.3027 151.623 98.4648 151.434 98.582 151.195C98.7031 150.953 98.7852 150.684 98.8281 150.387V149.326C98.8047 149.096 98.7559 148.881 98.6816 148.682C98.6113 148.482 98.5156 148.309 98.3945 148.16C98.2734 148.008 98.123 147.891 97.9434 147.809C97.7676 147.723 97.5586 147.68 97.3164 147.68C97.0586 147.68 96.8398 147.734 96.6602 147.844C96.4805 147.953 96.332 148.104 96.2148 148.295C96.1016 148.486 96.0176 148.709 95.9629 148.963C95.9082 149.217 95.8809 149.488 95.8809 149.777ZM104.283 153.117C103.814 153.117 103.391 153.041 103.012 152.889C102.637 152.732 102.316 152.516 102.051 152.238C101.789 151.961 101.588 151.635 101.447 151.26C101.307 150.885 101.236 150.48 101.236 150.047V149.812C101.236 149.316 101.309 148.867 101.453 148.465C101.598 148.062 101.799 147.719 102.057 147.434C102.314 147.145 102.619 146.924 102.971 146.771C103.322 146.619 103.703 146.543 104.113 146.543C104.566 146.543 104.963 146.619 105.303 146.771C105.643 146.924 105.924 147.139 106.146 147.416C106.373 147.689 106.541 148.016 106.65 148.395C106.764 148.773 106.82 149.191 106.82 149.648V150.252H101.922V149.238H105.426V149.127C105.418 148.873 105.367 148.635 105.273 148.412C105.184 148.189 105.045 148.01 104.857 147.873C104.67 147.736 104.42 147.668 104.107 147.668C103.873 147.668 103.664 147.719 103.48 147.82C103.301 147.918 103.15 148.061 103.029 148.248C102.908 148.436 102.814 148.662 102.748 148.928C102.686 149.189 102.654 149.484 102.654 149.812V150.047C102.654 150.324 102.691 150.582 102.766 150.82C102.844 151.055 102.957 151.26 103.105 151.436C103.254 151.611 103.434 151.75 103.645 151.852C103.855 151.949 104.096 151.998 104.365 151.998C104.705 151.998 105.008 151.93 105.273 151.793C105.539 151.656 105.77 151.463 105.965 151.213L106.709 151.934C106.572 152.133 106.395 152.324 106.176 152.508C105.957 152.688 105.689 152.834 105.373 152.947C105.061 153.061 104.697 153.117 104.283 153.117ZM110.512 151.992C110.742 151.992 110.949 151.947 111.133 151.857C111.32 151.764 111.471 151.635 111.584 151.471C111.701 151.307 111.766 151.117 111.777 150.902H113.107C113.1 151.312 112.979 151.686 112.744 152.021C112.51 152.357 112.199 152.625 111.812 152.824C111.426 153.02 110.998 153.117 110.529 153.117C110.045 153.117 109.623 153.035 109.264 152.871C108.904 152.703 108.605 152.473 108.367 152.18C108.129 151.887 107.949 151.549 107.828 151.166C107.711 150.783 107.652 150.373 107.652 149.936V149.73C107.652 149.293 107.711 148.883 107.828 148.5C107.949 148.113 108.129 147.773 108.367 147.48C108.605 147.188 108.904 146.959 109.264 146.795C109.623 146.627 110.043 146.543 110.523 146.543C111.031 146.543 111.477 146.645 111.859 146.848C112.242 147.047 112.543 147.326 112.762 147.686C112.984 148.041 113.1 148.455 113.107 148.928H111.777C111.766 148.693 111.707 148.482 111.602 148.295C111.5 148.104 111.355 147.951 111.168 147.838C110.984 147.725 110.764 147.668 110.506 147.668C110.221 147.668 109.984 147.727 109.797 147.844C109.609 147.957 109.463 148.113 109.357 148.312C109.252 148.508 109.176 148.729 109.129 148.975C109.086 149.217 109.064 149.469 109.064 149.73V149.936C109.064 150.197 109.086 150.451 109.129 150.697C109.172 150.943 109.246 151.164 109.352 151.359C109.461 151.551 109.609 151.705 109.797 151.822C109.984 151.936 110.223 151.992 110.512 151.992ZM115.609 147.867V153H114.197V146.66H115.545L115.609 147.867ZM117.549 146.619L117.537 147.932C117.451 147.916 117.357 147.904 117.256 147.896C117.158 147.889 117.061 147.885 116.963 147.885C116.721 147.885 116.508 147.92 116.324 147.99C116.141 148.057 115.986 148.154 115.861 148.283C115.74 148.408 115.646 148.561 115.58 148.74C115.514 148.92 115.475 149.121 115.463 149.344L115.141 149.367C115.141 148.969 115.18 148.6 115.258 148.26C115.336 147.92 115.453 147.621 115.609 147.363C115.77 147.105 115.969 146.904 116.207 146.76C116.449 146.615 116.729 146.543 117.045 146.543C117.131 146.543 117.223 146.551 117.32 146.566C117.422 146.582 117.498 146.6 117.549 146.619ZM121.111 153.117C120.643 153.117 120.219 153.041 119.84 152.889C119.465 152.732 119.145 152.516 118.879 152.238C118.617 151.961 118.416 151.635 118.275 151.26C118.135 150.885 118.064 150.48 118.064 150.047V149.812C118.064 149.316 118.137 148.867 118.281 148.465C118.426 148.062 118.627 147.719 118.885 147.434C119.143 147.145 119.447 146.924 119.799 146.771C120.15 146.619 120.531 146.543 120.941 146.543C121.395 146.543 121.791 146.619 122.131 146.771C122.471 146.924 122.752 147.139 122.975 147.416C123.201 147.689 123.369 148.016 123.479 148.395C123.592 148.773 123.648 149.191 123.648 149.648V150.252H118.75V149.238H122.254V149.127C122.246 148.873 122.195 148.635 122.102 148.412C122.012 148.189 121.873 148.01 121.686 147.873C121.498 147.736 121.248 147.668 120.936 147.668C120.701 147.668 120.492 147.719 120.309 147.82C120.129 147.918 119.979 148.061 119.857 148.248C119.736 148.436 119.643 148.662 119.576 148.928C119.514 149.189 119.482 149.484 119.482 149.812V150.047C119.482 150.324 119.52 150.582 119.594 150.82C119.672 151.055 119.785 151.26 119.934 151.436C120.082 151.611 120.262 151.75 120.473 151.852C120.684 151.949 120.924 151.998 121.193 151.998C121.533 151.998 121.836 151.93 122.102 151.793C122.367 151.656 122.598 151.463 122.793 151.213L123.537 151.934C123.4 152.133 123.223 152.324 123.004 152.508C122.785 152.688 122.518 152.834 122.201 152.947C121.889 153.061 121.525 153.117 121.111 153.117ZM128.324 151.729V148.705C128.324 148.479 128.283 148.283 128.201 148.119C128.119 147.955 127.994 147.828 127.826 147.738C127.662 147.648 127.455 147.604 127.205 147.604C126.975 147.604 126.775 147.643 126.607 147.721C126.439 147.799 126.309 147.904 126.215 148.037C126.121 148.17 126.074 148.32 126.074 148.488H124.668C124.668 148.238 124.729 147.996 124.85 147.762C124.971 147.527 125.146 147.318 125.377 147.135C125.607 146.951 125.883 146.807 126.203 146.701C126.523 146.596 126.883 146.543 127.281 146.543C127.758 146.543 128.18 146.623 128.547 146.783C128.918 146.943 129.209 147.186 129.42 147.51C129.635 147.83 129.742 148.232 129.742 148.717V151.535C129.742 151.824 129.762 152.084 129.801 152.314C129.844 152.541 129.904 152.738 129.982 152.906V153H128.535C128.469 152.848 128.416 152.654 128.377 152.42C128.342 152.182 128.324 151.951 128.324 151.729ZM128.529 149.145L128.541 150.018H127.527C127.266 150.018 127.035 150.043 126.836 150.094C126.637 150.141 126.471 150.211 126.338 150.305C126.205 150.398 126.105 150.512 126.039 150.645C125.973 150.777 125.939 150.928 125.939 151.096C125.939 151.264 125.979 151.418 126.057 151.559C126.135 151.695 126.248 151.803 126.396 151.881C126.549 151.959 126.732 151.998 126.947 151.998C127.236 151.998 127.488 151.939 127.703 151.822C127.922 151.701 128.094 151.555 128.219 151.383C128.344 151.207 128.41 151.041 128.418 150.885L128.875 151.512C128.828 151.672 128.748 151.844 128.635 152.027C128.521 152.211 128.373 152.387 128.189 152.555C128.01 152.719 127.793 152.854 127.539 152.959C127.289 153.064 127 153.117 126.672 153.117C126.258 153.117 125.889 153.035 125.564 152.871C125.24 152.703 124.986 152.479 124.803 152.197C124.619 151.912 124.527 151.59 124.527 151.23C124.527 150.895 124.59 150.598 124.715 150.34C124.844 150.078 125.031 149.859 125.277 149.684C125.527 149.508 125.832 149.375 126.191 149.285C126.551 149.191 126.961 149.145 127.422 149.145H128.529ZM134.775 151.283C134.775 151.143 134.74 151.016 134.67 150.902C134.6 150.785 134.465 150.68 134.266 150.586C134.07 150.492 133.781 150.406 133.398 150.328C133.062 150.254 132.754 150.166 132.473 150.064C132.195 149.959 131.957 149.832 131.758 149.684C131.559 149.535 131.404 149.359 131.295 149.156C131.186 148.953 131.131 148.719 131.131 148.453C131.131 148.195 131.188 147.951 131.301 147.721C131.414 147.49 131.576 147.287 131.787 147.111C131.998 146.936 132.254 146.797 132.555 146.695C132.859 146.594 133.199 146.543 133.574 146.543C134.105 146.543 134.561 146.633 134.939 146.812C135.322 146.988 135.615 147.229 135.818 147.533C136.021 147.834 136.123 148.174 136.123 148.553H134.711C134.711 148.385 134.668 148.229 134.582 148.084C134.5 147.936 134.375 147.816 134.207 147.727C134.039 147.633 133.828 147.586 133.574 147.586C133.332 147.586 133.131 147.625 132.971 147.703C132.814 147.777 132.697 147.875 132.619 147.996C132.545 148.117 132.508 148.25 132.508 148.395C132.508 148.5 132.527 148.596 132.566 148.682C132.609 148.764 132.68 148.84 132.777 148.91C132.875 148.977 133.008 149.039 133.176 149.098C133.348 149.156 133.562 149.213 133.82 149.268C134.305 149.369 134.721 149.5 135.068 149.66C135.42 149.816 135.689 150.02 135.877 150.27C136.064 150.516 136.158 150.828 136.158 151.207C136.158 151.488 136.098 151.746 135.977 151.98C135.859 152.211 135.688 152.412 135.461 152.584C135.234 152.752 134.963 152.883 134.646 152.977C134.334 153.07 133.982 153.117 133.592 153.117C133.018 153.117 132.531 153.016 132.133 152.812C131.734 152.605 131.432 152.342 131.225 152.021C131.021 151.697 130.92 151.361 130.92 151.014H132.285C132.301 151.275 132.373 151.484 132.502 151.641C132.635 151.793 132.799 151.904 132.994 151.975C133.193 152.041 133.398 152.074 133.609 152.074C133.863 152.074 134.076 152.041 134.248 151.975C134.42 151.904 134.551 151.811 134.641 151.693C134.73 151.572 134.775 151.436 134.775 151.283ZM140.189 153.117C139.721 153.117 139.297 153.041 138.918 152.889C138.543 152.732 138.223 152.516 137.957 152.238C137.695 151.961 137.494 151.635 137.354 151.26C137.213 150.885 137.143 150.48 137.143 150.047V149.812C137.143 149.316 137.215 148.867 137.359 148.465C137.504 148.062 137.705 147.719 137.963 147.434C138.221 147.145 138.525 146.924 138.877 146.771C139.229 146.619 139.609 146.543 140.02 146.543C140.473 146.543 140.869 146.619 141.209 146.771C141.549 146.924 141.83 147.139 142.053 147.416C142.279 147.689 142.447 148.016 142.557 148.395C142.67 148.773 142.727 149.191 142.727 149.648V150.252H137.828V149.238H141.332V149.127C141.324 148.873 141.273 148.635 141.18 148.412C141.09 148.189 140.951 148.01 140.764 147.873C140.576 147.736 140.326 147.668 140.014 147.668C139.779 147.668 139.57 147.719 139.387 147.82C139.207 147.918 139.057 148.061 138.936 148.248C138.814 148.436 138.721 148.662 138.654 148.928C138.592 149.189 138.561 149.484 138.561 149.812V150.047C138.561 150.324 138.598 150.582 138.672 150.82C138.75 151.055 138.863 151.26 139.012 151.436C139.16 151.611 139.34 151.75 139.551 151.852C139.762 151.949 140.002 151.998 140.271 151.998C140.611 151.998 140.914 151.93 141.18 151.793C141.445 151.656 141.676 151.463 141.871 151.213L142.615 151.934C142.479 152.133 142.301 152.324 142.082 152.508C141.863 152.688 141.596 152.834 141.279 152.947C140.967 153.061 140.604 153.117 140.189 153.117Z" fill="#ADADAD"/>
<path d="M98.2832 179.283C98.2832 179.143 98.248 179.016 98.1777 178.902C98.1074 178.785 97.9727 178.68 97.7734 178.586C97.5781 178.492 97.2891 178.406 96.9062 178.328C96.5703 178.254 96.2617 178.166 95.9805 178.064C95.7031 177.959 95.4648 177.832 95.2656 177.684C95.0664 177.535 94.9121 177.359 94.8027 177.156C94.6934 176.953 94.6387 176.719 94.6387 176.453C94.6387 176.195 94.6953 175.951 94.8086 175.721C94.9219 175.49 95.084 175.287 95.2949 175.111C95.5059 174.936 95.7617 174.797 96.0625 174.695C96.3672 174.594 96.707 174.543 97.082 174.543C97.6133 174.543 98.0684 174.633 98.4473 174.812C98.8301 174.988 99.123 175.229 99.3262 175.533C99.5293 175.834 99.6309 176.174 99.6309 176.553H98.2188C98.2188 176.385 98.1758 176.229 98.0898 176.084C98.0078 175.936 97.8828 175.816 97.7148 175.727C97.5469 175.633 97.3359 175.586 97.082 175.586C96.8398 175.586 96.6387 175.625 96.4785 175.703C96.3223 175.777 96.2051 175.875 96.127 175.996C96.0527 176.117 96.0156 176.25 96.0156 176.395C96.0156 176.5 96.0352 176.596 96.0742 176.682C96.1172 176.764 96.1875 176.84 96.2852 176.91C96.3828 176.977 96.5156 177.039 96.6836 177.098C96.8555 177.156 97.0703 177.213 97.3281 177.268C97.8125 177.369 98.2285 177.5 98.5762 177.66C98.9277 177.816 99.1973 178.02 99.3848 178.27C99.5723 178.516 99.666 178.828 99.666 179.207C99.666 179.488 99.6055 179.746 99.4844 179.98C99.3672 180.211 99.1953 180.412 98.9688 180.584C98.7422 180.752 98.4707 180.883 98.1543 180.977C97.8418 181.07 97.4902 181.117 97.0996 181.117C96.5254 181.117 96.0391 181.016 95.6406 180.812C95.2422 180.605 94.9395 180.342 94.7324 180.021C94.5293 179.697 94.4277 179.361 94.4277 179.014H95.793C95.8086 179.275 95.8809 179.484 96.0098 179.641C96.1426 179.793 96.3066 179.904 96.502 179.975C96.7012 180.041 96.9062 180.074 97.1172 180.074C97.3711 180.074 97.584 180.041 97.7559 179.975C97.9277 179.904 98.0586 179.811 98.1484 179.693C98.2383 179.572 98.2832 179.436 98.2832 179.283ZM103.809 174.66V175.691H100.234V174.66H103.809ZM101.266 173.107H102.678V179.248C102.678 179.443 102.705 179.594 102.76 179.699C102.818 179.801 102.898 179.869 103 179.904C103.102 179.939 103.221 179.957 103.357 179.957C103.455 179.957 103.549 179.951 103.639 179.939C103.729 179.928 103.801 179.916 103.855 179.904L103.861 180.982C103.744 181.018 103.607 181.049 103.451 181.076C103.299 181.104 103.123 181.117 102.924 181.117C102.6 181.117 102.312 181.061 102.062 180.947C101.812 180.83 101.617 180.641 101.477 180.379C101.336 180.117 101.266 179.77 101.266 179.336V173.107ZM108.473 179.729V176.705C108.473 176.479 108.432 176.283 108.35 176.119C108.268 175.955 108.143 175.828 107.975 175.738C107.811 175.648 107.604 175.604 107.354 175.604C107.123 175.604 106.924 175.643 106.756 175.721C106.588 175.799 106.457 175.904 106.363 176.037C106.27 176.17 106.223 176.32 106.223 176.488H104.816C104.816 176.238 104.877 175.996 104.998 175.762C105.119 175.527 105.295 175.318 105.525 175.135C105.756 174.951 106.031 174.807 106.352 174.701C106.672 174.596 107.031 174.543 107.43 174.543C107.906 174.543 108.328 174.623 108.695 174.783C109.066 174.943 109.357 175.186 109.568 175.51C109.783 175.83 109.891 176.232 109.891 176.717V179.535C109.891 179.824 109.91 180.084 109.949 180.314C109.992 180.541 110.053 180.738 110.131 180.906V181H108.684C108.617 180.848 108.564 180.654 108.525 180.42C108.49 180.182 108.473 179.951 108.473 179.729ZM108.678 177.145L108.689 178.018H107.676C107.414 178.018 107.184 178.043 106.984 178.094C106.785 178.141 106.619 178.211 106.486 178.305C106.354 178.398 106.254 178.512 106.188 178.645C106.121 178.777 106.088 178.928 106.088 179.096C106.088 179.264 106.127 179.418 106.205 179.559C106.283 179.695 106.396 179.803 106.545 179.881C106.697 179.959 106.881 179.998 107.096 179.998C107.385 179.998 107.637 179.939 107.852 179.822C108.07 179.701 108.242 179.555 108.367 179.383C108.492 179.207 108.559 179.041 108.566 178.885L109.023 179.512C108.977 179.672 108.896 179.844 108.783 180.027C108.67 180.211 108.521 180.387 108.338 180.555C108.158 180.719 107.941 180.854 107.688 180.959C107.438 181.064 107.148 181.117 106.82 181.117C106.406 181.117 106.037 181.035 105.713 180.871C105.389 180.703 105.135 180.479 104.951 180.197C104.768 179.912 104.676 179.59 104.676 179.23C104.676 178.895 104.738 178.598 104.863 178.34C104.992 178.078 105.18 177.859 105.426 177.684C105.676 177.508 105.98 177.375 106.34 177.285C106.699 177.191 107.109 177.145 107.57 177.145H108.678ZM113.113 180.309L114.836 174.66H116.348L113.805 181.967C113.746 182.123 113.67 182.293 113.576 182.477C113.482 182.66 113.359 182.834 113.207 182.998C113.059 183.166 112.873 183.301 112.65 183.402C112.428 183.508 112.158 183.561 111.842 183.561C111.717 183.561 111.596 183.549 111.479 183.525C111.365 183.506 111.258 183.484 111.156 183.461L111.15 182.383C111.189 182.387 111.236 182.391 111.291 182.395C111.35 182.398 111.396 182.4 111.432 182.4C111.666 182.4 111.861 182.371 112.018 182.312C112.174 182.258 112.301 182.168 112.398 182.043C112.5 181.918 112.586 181.75 112.656 181.539L113.113 180.309ZM112.141 174.66L113.646 179.406L113.898 180.895L112.92 181.146L110.617 174.66H112.141ZM123.051 174.66V175.691H119.477V174.66H123.051ZM120.508 173.107H121.92V179.248C121.92 179.443 121.947 179.594 122.002 179.699C122.061 179.801 122.141 179.869 122.242 179.904C122.344 179.939 122.463 179.957 122.6 179.957C122.697 179.957 122.791 179.951 122.881 179.939C122.971 179.928 123.043 179.916 123.098 179.904L123.104 180.982C122.986 181.018 122.85 181.049 122.693 181.076C122.541 181.104 122.365 181.117 122.166 181.117C121.842 181.117 121.555 181.061 121.305 180.947C121.055 180.83 120.859 180.641 120.719 180.379C120.578 180.117 120.508 179.77 120.508 179.336V173.107ZM125.535 172V181H124.129V172H125.535ZM125.289 177.596L124.832 177.59C124.836 177.152 124.896 176.748 125.014 176.377C125.135 176.006 125.303 175.684 125.518 175.41C125.736 175.133 125.998 174.92 126.303 174.771C126.607 174.619 126.945 174.543 127.316 174.543C127.629 174.543 127.91 174.586 128.16 174.672C128.414 174.758 128.633 174.896 128.816 175.088C129 175.275 129.139 175.521 129.232 175.826C129.33 176.127 129.379 176.494 129.379 176.928V181H127.961V176.916C127.961 176.611 127.916 176.369 127.826 176.189C127.74 176.01 127.613 175.881 127.445 175.803C127.277 175.721 127.072 175.68 126.83 175.68C126.576 175.68 126.352 175.73 126.156 175.832C125.965 175.934 125.805 176.072 125.676 176.248C125.547 176.424 125.449 176.627 125.383 176.857C125.32 177.088 125.289 177.334 125.289 177.596ZM133.604 181.117C133.135 181.117 132.711 181.041 132.332 180.889C131.957 180.732 131.637 180.516 131.371 180.238C131.109 179.961 130.908 179.635 130.768 179.26C130.627 178.885 130.557 178.48 130.557 178.047V177.812C130.557 177.316 130.629 176.867 130.773 176.465C130.918 176.062 131.119 175.719 131.377 175.434C131.635 175.145 131.939 174.924 132.291 174.771C132.643 174.619 133.023 174.543 133.434 174.543C133.887 174.543 134.283 174.619 134.623 174.771C134.963 174.924 135.244 175.139 135.467 175.416C135.693 175.689 135.861 176.016 135.971 176.395C136.084 176.773 136.141 177.191 136.141 177.648V178.252H131.242V177.238H134.746V177.127C134.738 176.873 134.688 176.635 134.594 176.412C134.504 176.189 134.365 176.01 134.178 175.873C133.99 175.736 133.74 175.668 133.428 175.668C133.193 175.668 132.984 175.719 132.801 175.82C132.621 175.918 132.471 176.061 132.35 176.248C132.229 176.436 132.135 176.662 132.068 176.928C132.006 177.189 131.975 177.484 131.975 177.812V178.047C131.975 178.324 132.012 178.582 132.086 178.82C132.164 179.055 132.277 179.26 132.426 179.436C132.574 179.611 132.754 179.75 132.965 179.852C133.176 179.949 133.416 179.998 133.686 179.998C134.025 179.998 134.328 179.93 134.594 179.793C134.859 179.656 135.09 179.463 135.285 179.213L136.029 179.934C135.893 180.133 135.715 180.324 135.496 180.508C135.277 180.688 135.01 180.834 134.693 180.947C134.381 181.061 134.018 181.117 133.604 181.117ZM143.787 179.283C143.787 179.143 143.752 179.016 143.682 178.902C143.611 178.785 143.477 178.68 143.277 178.586C143.082 178.492 142.793 178.406 142.41 178.328C142.074 178.254 141.766 178.166 141.484 178.064C141.207 177.959 140.969 177.832 140.77 177.684C140.57 177.535 140.416 177.359 140.307 177.156C140.197 176.953 140.143 176.719 140.143 176.453C140.143 176.195 140.199 175.951 140.312 175.721C140.426 175.49 140.588 175.287 140.799 175.111C141.01 174.936 141.266 174.797 141.566 174.695C141.871 174.594 142.211 174.543 142.586 174.543C143.117 174.543 143.572 174.633 143.951 174.812C144.334 174.988 144.627 175.229 144.83 175.533C145.033 175.834 145.135 176.174 145.135 176.553H143.723C143.723 176.385 143.68 176.229 143.594 176.084C143.512 175.936 143.387 175.816 143.219 175.727C143.051 175.633 142.84 175.586 142.586 175.586C142.344 175.586 142.143 175.625 141.982 175.703C141.826 175.777 141.709 175.875 141.631 175.996C141.557 176.117 141.52 176.25 141.52 176.395C141.52 176.5 141.539 176.596 141.578 176.682C141.621 176.764 141.691 176.84 141.789 176.91C141.887 176.977 142.02 177.039 142.188 177.098C142.359 177.156 142.574 177.213 142.832 177.268C143.316 177.369 143.732 177.5 144.08 177.66C144.432 177.816 144.701 178.02 144.889 178.27C145.076 178.516 145.17 178.828 145.17 179.207C145.17 179.488 145.109 179.746 144.988 179.98C144.871 180.211 144.699 180.412 144.473 180.584C144.246 180.752 143.975 180.883 143.658 180.977C143.346 181.07 142.994 181.117 142.604 181.117C142.029 181.117 141.543 181.016 141.145 180.812C140.746 180.605 140.443 180.342 140.236 180.021C140.033 179.697 139.932 179.361 139.932 179.014H141.297C141.312 179.275 141.385 179.484 141.514 179.641C141.646 179.793 141.811 179.904 142.006 179.975C142.205 180.041 142.41 180.074 142.621 180.074C142.875 180.074 143.088 180.041 143.26 179.975C143.432 179.904 143.562 179.811 143.652 179.693C143.742 179.572 143.787 179.436 143.787 179.283ZM149.98 179.729V176.705C149.98 176.479 149.939 176.283 149.857 176.119C149.775 175.955 149.65 175.828 149.482 175.738C149.318 175.648 149.111 175.604 148.861 175.604C148.631 175.604 148.432 175.643 148.264 175.721C148.096 175.799 147.965 175.904 147.871 176.037C147.777 176.17 147.73 176.32 147.73 176.488H146.324C146.324 176.238 146.385 175.996 146.506 175.762C146.627 175.527 146.803 175.318 147.033 175.135C147.264 174.951 147.539 174.807 147.859 174.701C148.18 174.596 148.539 174.543 148.938 174.543C149.414 174.543 149.836 174.623 150.203 174.783C150.574 174.943 150.865 175.186 151.076 175.51C151.291 175.83 151.398 176.232 151.398 176.717V179.535C151.398 179.824 151.418 180.084 151.457 180.314C151.5 180.541 151.561 180.738 151.639 180.906V181H150.191C150.125 180.848 150.072 180.654 150.033 180.42C149.998 180.182 149.98 179.951 149.98 179.729ZM150.186 177.145L150.197 178.018H149.184C148.922 178.018 148.691 178.043 148.492 178.094C148.293 178.141 148.127 178.211 147.994 178.305C147.861 178.398 147.762 178.512 147.695 178.645C147.629 178.777 147.596 178.928 147.596 179.096C147.596 179.264 147.635 179.418 147.713 179.559C147.791 179.695 147.904 179.803 148.053 179.881C148.205 179.959 148.389 179.998 148.604 179.998C148.893 179.998 149.145 179.939 149.359 179.822C149.578 179.701 149.75 179.555 149.875 179.383C150 179.207 150.066 179.041 150.074 178.885L150.531 179.512C150.484 179.672 150.404 179.844 150.291 180.027C150.178 180.211 150.029 180.387 149.846 180.555C149.666 180.719 149.449 180.854 149.195 180.959C148.945 181.064 148.656 181.117 148.328 181.117C147.914 181.117 147.545 181.035 147.221 180.871C146.896 180.703 146.643 180.479 146.459 180.197C146.275 179.912 146.184 179.59 146.184 179.23C146.184 178.895 146.246 178.598 146.371 178.34C146.5 178.078 146.688 177.859 146.934 177.684C147.184 177.508 147.488 177.375 147.848 177.285C148.207 177.191 148.617 177.145 149.078 177.145H150.186ZM154.287 175.949V181H152.875V174.66H154.205L154.287 175.949ZM154.059 177.596L153.578 177.59C153.578 177.152 153.633 176.748 153.742 176.377C153.852 176.006 154.012 175.684 154.223 175.41C154.434 175.133 154.695 174.92 155.008 174.771C155.324 174.619 155.689 174.543 156.104 174.543C156.393 174.543 156.656 174.586 156.895 174.672C157.137 174.754 157.346 174.885 157.521 175.064C157.701 175.244 157.838 175.475 157.932 175.756C158.029 176.037 158.078 176.377 158.078 176.775V181H156.666V176.898C156.666 176.59 156.619 176.348 156.525 176.172C156.436 175.996 156.305 175.871 156.133 175.797C155.965 175.719 155.764 175.68 155.529 175.68C155.264 175.68 155.037 175.73 154.85 175.832C154.666 175.934 154.516 176.072 154.398 176.248C154.281 176.424 154.195 176.627 154.141 176.857C154.086 177.088 154.059 177.334 154.059 177.596ZM157.99 177.221L157.328 177.367C157.328 176.984 157.381 176.623 157.486 176.283C157.596 175.939 157.754 175.639 157.961 175.381C158.172 175.119 158.432 174.914 158.74 174.766C159.049 174.617 159.402 174.543 159.801 174.543C160.125 174.543 160.414 174.588 160.668 174.678C160.926 174.764 161.145 174.9 161.324 175.088C161.504 175.275 161.641 175.52 161.734 175.82C161.828 176.117 161.875 176.477 161.875 176.898V181H160.457V176.893C160.457 176.572 160.41 176.324 160.316 176.148C160.227 175.973 160.098 175.852 159.93 175.785C159.762 175.715 159.561 175.68 159.326 175.68C159.107 175.68 158.914 175.721 158.746 175.803C158.582 175.881 158.443 175.992 158.33 176.137C158.217 176.277 158.131 176.439 158.072 176.623C158.018 176.807 157.99 177.006 157.99 177.221ZM166.123 181.117C165.654 181.117 165.23 181.041 164.852 180.889C164.477 180.732 164.156 180.516 163.891 180.238C163.629 179.961 163.428 179.635 163.287 179.26C163.146 178.885 163.076 178.48 163.076 178.047V177.812C163.076 177.316 163.148 176.867 163.293 176.465C163.438 176.062 163.639 175.719 163.896 175.434C164.154 175.145 164.459 174.924 164.811 174.771C165.162 174.619 165.543 174.543 165.953 174.543C166.406 174.543 166.803 174.619 167.143 174.771C167.482 174.924 167.764 175.139 167.986 175.416C168.213 175.689 168.381 176.016 168.49 176.395C168.604 176.773 168.66 177.191 168.66 177.648V178.252H163.762V177.238H167.266V177.127C167.258 176.873 167.207 176.635 167.113 176.412C167.023 176.189 166.885 176.01 166.697 175.873C166.51 175.736 166.26 175.668 165.947 175.668C165.713 175.668 165.504 175.719 165.32 175.82C165.141 175.918 164.99 176.061 164.869 176.248C164.748 176.436 164.654 176.662 164.588 176.928C164.525 177.189 164.494 177.484 164.494 177.812V178.047C164.494 178.324 164.531 178.582 164.605 178.82C164.684 179.055 164.797 179.26 164.945 179.436C165.094 179.611 165.273 179.75 165.484 179.852C165.695 179.949 165.936 179.998 166.205 179.998C166.545 179.998 166.848 179.93 167.113 179.793C167.379 179.656 167.609 179.463 167.805 179.213L168.549 179.934C168.412 180.133 168.234 180.324 168.016 180.508C167.797 180.688 167.529 180.834 167.213 180.947C166.9 181.061 166.537 181.117 166.123 181.117Z" fill="#ADADAD"/>
<rect x="83.5" y="74.5" width="93" height="25" rx="5.5" stroke="#C0B8C9"/>
<rect x="83.5" y="103.5" width="93" height="87" rx="5.5" stroke="#C0B8C9"/>
<path d="M22.3959 134.609L20.1177 132.735C19.8617 132.524 19.4481 132.524 19.192 132.735C18.936 132.946 18.936 133.286 19.192 133.496L21.9363 135.753C22.1923 135.964 22.6059 135.964 22.862 135.753L29.808 130.041C30.064 129.83 30.064 129.49 29.808 129.279C29.5519 129.069 29.1383 129.069 28.8823 129.279L22.3959 134.609Z" fill="white"/>
<path d="M158.082 89.2224L163.448 83.864C163.5 83.8117 163.562 83.7703 163.63 83.7423C163.699 83.7144 163.772 83.7005 163.846 83.7014C163.92 83.7023 163.993 83.718 164.06 83.7475C164.128 83.7771 164.189 83.82 164.24 83.8736C164.344 83.9833 164.401 84.1292 164.399 84.2804C164.398 84.4315 164.337 84.5761 164.23 84.6832L158.468 90.4376C158.416 90.4897 158.355 90.5309 158.287 90.5589C158.219 90.5869 158.146 90.6011 158.073 90.6006C157.999 90.6002 157.927 90.5851 157.859 90.5563C157.792 90.5275 157.731 90.4855 157.68 90.4328L151.764 84.376C151.659 84.2676 151.601 84.1227 151.601 83.972C151.601 83.8213 151.659 83.6764 151.764 83.568C151.815 83.515 151.877 83.4729 151.945 83.4442C152.013 83.4154 152.086 83.4006 152.16 83.4006C152.234 83.4006 152.307 83.4154 152.375 83.4442C152.443 83.4729 152.504 83.515 152.556 83.568L158.082 89.2224Z" fill="#999999"/>
<rect x="87" y="107" width="86" height="26" rx="4" fill="#DFE2FF"/>
<path d="M96.4375 118.66V125H94.7441V118.66H96.4375ZM94.6387 117.008C94.6387 116.762 94.7246 116.559 94.8965 116.398C95.0684 116.238 95.2988 116.158 95.5879 116.158C95.873 116.158 96.1016 116.238 96.2734 116.398C96.4492 116.559 96.5371 116.762 96.5371 117.008C96.5371 117.254 96.4492 117.457 96.2734 117.617C96.1016 117.777 95.873 117.857 95.5879 117.857C95.2988 117.857 95.0684 117.777 94.8965 117.617C94.7246 117.457 94.6387 117.254 94.6387 117.008ZM99.4844 120.014V125H97.7969V118.66H99.3789L99.4844 120.014ZM99.2383 121.607H98.7812C98.7812 121.139 98.8418 120.717 98.9629 120.342C99.084 119.963 99.2539 119.641 99.4727 119.375C99.6914 119.105 99.9512 118.9 100.252 118.76C100.557 118.615 100.896 118.543 101.271 118.543C101.568 118.543 101.84 118.586 102.086 118.672C102.332 118.758 102.543 118.895 102.719 119.082C102.898 119.27 103.035 119.518 103.129 119.826C103.227 120.135 103.275 120.512 103.275 120.957V125H101.576V120.951C101.576 120.67 101.537 120.451 101.459 120.295C101.381 120.139 101.266 120.029 101.113 119.967C100.965 119.9 100.781 119.867 100.562 119.867C100.336 119.867 100.139 119.912 99.9707 120.002C99.8066 120.092 99.6699 120.217 99.5605 120.377C99.4551 120.533 99.375 120.717 99.3203 120.928C99.2656 121.139 99.2383 121.365 99.2383 121.607ZM107.178 123.799C107.385 123.799 107.568 123.76 107.729 123.682C107.889 123.6 108.014 123.486 108.104 123.342C108.197 123.193 108.246 123.02 108.25 122.82H109.838C109.834 123.266 109.715 123.662 109.48 124.01C109.246 124.354 108.932 124.625 108.537 124.824C108.143 125.02 107.701 125.117 107.213 125.117C106.721 125.117 106.291 125.035 105.924 124.871C105.561 124.707 105.258 124.48 105.016 124.191C104.773 123.898 104.592 123.559 104.471 123.172C104.35 122.781 104.289 122.363 104.289 121.918V121.748C104.289 121.299 104.35 120.881 104.471 120.494C104.592 120.104 104.773 119.764 105.016 119.475C105.258 119.182 105.561 118.953 105.924 118.789C106.287 118.625 106.713 118.543 107.201 118.543C107.721 118.543 108.176 118.643 108.566 118.842C108.961 119.041 109.27 119.326 109.492 119.697C109.719 120.064 109.834 120.5 109.838 121.004H108.25C108.246 120.793 108.201 120.602 108.115 120.43C108.033 120.258 107.912 120.121 107.752 120.02C107.596 119.914 107.402 119.861 107.172 119.861C106.926 119.861 106.725 119.914 106.568 120.02C106.412 120.121 106.291 120.262 106.205 120.441C106.119 120.617 106.059 120.818 106.023 121.045C105.992 121.268 105.977 121.502 105.977 121.748V121.918C105.977 122.164 105.992 122.4 106.023 122.627C106.055 122.854 106.113 123.055 106.199 123.23C106.289 123.406 106.412 123.545 106.568 123.646C106.725 123.748 106.928 123.799 107.178 123.799ZM112.504 120.043V125H110.816V118.66H112.404L112.504 120.043ZM114.414 118.619L114.385 120.184C114.303 120.172 114.203 120.162 114.086 120.154C113.973 120.143 113.869 120.137 113.775 120.137C113.537 120.137 113.33 120.168 113.154 120.23C112.982 120.289 112.838 120.377 112.721 120.494C112.607 120.611 112.521 120.754 112.463 120.922C112.408 121.09 112.377 121.281 112.369 121.496L112.029 121.391C112.029 120.98 112.07 120.604 112.152 120.26C112.234 119.912 112.354 119.609 112.51 119.352C112.67 119.094 112.865 118.895 113.096 118.754C113.326 118.613 113.59 118.543 113.887 118.543C113.98 118.543 114.076 118.551 114.174 118.566C114.271 118.578 114.352 118.596 114.414 118.619ZM118.012 125.117C117.52 125.117 117.078 125.039 116.688 124.883C116.297 124.723 115.965 124.502 115.691 124.221C115.422 123.939 115.215 123.613 115.07 123.242C114.926 122.867 114.854 122.469 114.854 122.047V121.812C114.854 121.332 114.922 120.893 115.059 120.494C115.195 120.096 115.391 119.75 115.645 119.457C115.902 119.164 116.215 118.939 116.582 118.783C116.949 118.623 117.363 118.543 117.824 118.543C118.273 118.543 118.672 118.617 119.02 118.766C119.367 118.914 119.658 119.125 119.893 119.398C120.131 119.672 120.311 120 120.432 120.383C120.553 120.762 120.613 121.184 120.613 121.648V122.352H115.574V121.227H118.955V121.098C118.955 120.863 118.912 120.654 118.826 120.471C118.744 120.283 118.619 120.135 118.451 120.025C118.283 119.916 118.068 119.861 117.807 119.861C117.584 119.861 117.393 119.91 117.232 120.008C117.072 120.105 116.941 120.242 116.84 120.418C116.742 120.594 116.668 120.801 116.617 121.039C116.57 121.273 116.547 121.531 116.547 121.812V122.047C116.547 122.301 116.582 122.535 116.652 122.75C116.727 122.965 116.83 123.15 116.963 123.307C117.1 123.463 117.264 123.584 117.455 123.67C117.65 123.756 117.871 123.799 118.117 123.799C118.422 123.799 118.705 123.74 118.967 123.623C119.232 123.502 119.461 123.32 119.652 123.078L120.473 123.969C120.34 124.16 120.158 124.344 119.928 124.52C119.701 124.695 119.428 124.84 119.107 124.953C118.787 125.062 118.422 125.117 118.012 125.117ZM124.996 123.57V120.746C124.996 120.543 124.963 120.369 124.896 120.225C124.83 120.076 124.727 119.961 124.586 119.879C124.449 119.797 124.271 119.756 124.053 119.756C123.865 119.756 123.703 119.789 123.566 119.855C123.43 119.918 123.324 120.01 123.25 120.131C123.176 120.248 123.139 120.387 123.139 120.547H121.451C121.451 120.277 121.514 120.021 121.639 119.779C121.764 119.537 121.945 119.324 122.184 119.141C122.422 118.953 122.705 118.807 123.033 118.701C123.365 118.596 123.736 118.543 124.146 118.543C124.639 118.543 125.076 118.625 125.459 118.789C125.842 118.953 126.143 119.199 126.361 119.527C126.584 119.855 126.695 120.266 126.695 120.758V123.471C126.695 123.818 126.717 124.104 126.76 124.326C126.803 124.545 126.865 124.736 126.947 124.9V125H125.242C125.16 124.828 125.098 124.613 125.055 124.355C125.016 124.094 124.996 123.832 124.996 123.57ZM125.219 121.139L125.23 122.094H124.287C124.064 122.094 123.871 122.119 123.707 122.17C123.543 122.221 123.408 122.293 123.303 122.387C123.197 122.477 123.119 122.582 123.068 122.703C123.021 122.824 122.998 122.957 122.998 123.102C122.998 123.246 123.031 123.377 123.098 123.494C123.164 123.607 123.26 123.697 123.385 123.764C123.51 123.826 123.656 123.857 123.824 123.857C124.078 123.857 124.299 123.807 124.486 123.705C124.674 123.604 124.818 123.479 124.92 123.33C125.025 123.182 125.08 123.041 125.084 122.908L125.529 123.623C125.467 123.783 125.381 123.949 125.271 124.121C125.166 124.293 125.031 124.455 124.867 124.607C124.703 124.756 124.506 124.879 124.275 124.977C124.045 125.07 123.771 125.117 123.455 125.117C123.053 125.117 122.688 125.037 122.359 124.877C122.035 124.713 121.777 124.488 121.586 124.203C121.398 123.914 121.305 123.586 121.305 123.219C121.305 122.887 121.367 122.592 121.492 122.334C121.617 122.076 121.801 121.859 122.043 121.684C122.289 121.504 122.596 121.369 122.963 121.279C123.33 121.186 123.756 121.139 124.24 121.139H125.219ZM131.424 123.248C131.424 123.127 131.389 123.018 131.318 122.92C131.248 122.822 131.117 122.732 130.926 122.65C130.738 122.564 130.467 122.486 130.111 122.416C129.791 122.346 129.492 122.258 129.215 122.152C128.941 122.043 128.703 121.912 128.5 121.76C128.301 121.607 128.145 121.428 128.031 121.221C127.918 121.01 127.861 120.77 127.861 120.5C127.861 120.234 127.918 119.984 128.031 119.75C128.148 119.516 128.314 119.309 128.529 119.129C128.748 118.945 129.014 118.803 129.326 118.701C129.643 118.596 129.998 118.543 130.393 118.543C130.943 118.543 131.416 118.631 131.811 118.807C132.209 118.982 132.514 119.225 132.725 119.533C132.939 119.838 133.047 120.186 133.047 120.576H131.359C131.359 120.412 131.324 120.266 131.254 120.137C131.188 120.004 131.082 119.9 130.938 119.826C130.797 119.748 130.613 119.709 130.387 119.709C130.199 119.709 130.037 119.742 129.9 119.809C129.764 119.871 129.658 119.957 129.584 120.066C129.514 120.172 129.479 120.289 129.479 120.418C129.479 120.516 129.498 120.604 129.537 120.682C129.58 120.756 129.648 120.824 129.742 120.887C129.836 120.949 129.957 121.008 130.105 121.062C130.258 121.113 130.445 121.16 130.668 121.203C131.125 121.297 131.533 121.42 131.893 121.572C132.252 121.721 132.537 121.924 132.748 122.182C132.959 122.436 133.064 122.77 133.064 123.184C133.064 123.465 133.002 123.723 132.877 123.957C132.752 124.191 132.572 124.396 132.338 124.572C132.104 124.744 131.822 124.879 131.494 124.977C131.17 125.07 130.805 125.117 130.398 125.117C129.809 125.117 129.309 125.012 128.898 124.801C128.492 124.59 128.184 124.322 127.973 123.998C127.766 123.67 127.662 123.334 127.662 122.99H129.262C129.27 123.221 129.328 123.406 129.438 123.547C129.551 123.688 129.693 123.789 129.865 123.852C130.041 123.914 130.23 123.945 130.434 123.945C130.652 123.945 130.834 123.916 130.979 123.857C131.123 123.795 131.232 123.713 131.307 123.611C131.385 123.506 131.424 123.385 131.424 123.248ZM137.078 125.117C136.586 125.117 136.145 125.039 135.754 124.883C135.363 124.723 135.031 124.502 134.758 124.221C134.488 123.939 134.281 123.613 134.137 123.242C133.992 122.867 133.92 122.469 133.92 122.047V121.812C133.92 121.332 133.988 120.893 134.125 120.494C134.262 120.096 134.457 119.75 134.711 119.457C134.969 119.164 135.281 118.939 135.648 118.783C136.016 118.623 136.43 118.543 136.891 118.543C137.34 118.543 137.738 118.617 138.086 118.766C138.434 118.914 138.725 119.125 138.959 119.398C139.197 119.672 139.377 120 139.498 120.383C139.619 120.762 139.68 121.184 139.68 121.648V122.352H134.641V121.227H138.021V121.098C138.021 120.863 137.979 120.654 137.893 120.471C137.811 120.283 137.686 120.135 137.518 120.025C137.35 119.916 137.135 119.861 136.873 119.861C136.65 119.861 136.459 119.91 136.299 120.008C136.139 120.105 136.008 120.242 135.906 120.418C135.809 120.594 135.734 120.801 135.684 121.039C135.637 121.273 135.613 121.531 135.613 121.812V122.047C135.613 122.301 135.648 122.535 135.719 122.75C135.793 122.965 135.896 123.15 136.029 123.307C136.166 123.463 136.33 123.584 136.521 123.67C136.717 123.756 136.938 123.799 137.184 123.799C137.488 123.799 137.771 123.74 138.033 123.623C138.299 123.502 138.527 123.32 138.719 123.078L139.539 123.969C139.406 124.16 139.225 124.344 138.994 124.52C138.768 124.695 138.494 124.84 138.174 124.953C137.854 125.062 137.488 125.117 137.078 125.117Z" fill="#4153AF"/>
</svg>
