<svg width="227" height="321" viewBox="0 0 227 321" fill="none" xmlns="http://www.w3.org/2000/svg">
<rect width="224" height="321" rx="10" fill="white"/>
<path d="M0 10C0 4.47715 4.47715 0 10 0H214C219.523 0 224 4.47715 224 10V37H0V10Z" fill="#A3ABFF"/>
<path d="M19.4375 14.4688V23H17.9668V14.4688H19.4375ZM23.0254 18.0137V23H21.6133V16.6602H22.9434L23.0254 18.0137ZM22.7734 19.5957L22.3164 19.5898C22.3203 19.1406 22.3828 18.7285 22.5039 18.3535C22.6289 17.9785 22.8008 17.6562 23.0195 17.3867C23.2422 17.1172 23.5078 16.9102 23.8164 16.7656C24.125 16.6172 24.4688 16.543 24.8477 16.543C25.1523 16.543 25.4277 16.5859 25.6738 16.6719C25.9238 16.7539 26.1367 16.8887 26.3125 17.0762C26.4922 17.2637 26.6289 17.5078 26.7227 17.8086C26.8164 18.1055 26.8633 18.4707 26.8633 18.9043V23H25.4453V18.8984C25.4453 18.5938 25.4004 18.3535 25.3105 18.1777C25.2246 17.998 25.0977 17.8711 24.9297 17.7969C24.7656 17.7188 24.5605 17.6797 24.3145 17.6797C24.0723 17.6797 23.8555 17.7305 23.6641 17.832C23.4727 17.9336 23.3105 18.0723 23.1777 18.248C23.0488 18.4238 22.9492 18.627 22.8789 18.8574C22.8086 19.0879 22.7734 19.334 22.7734 19.5957ZM31.7109 16.6602V17.6914H28.1367V16.6602H31.7109ZM29.168 15.1074H30.5801V21.248C30.5801 21.4434 30.6074 21.5938 30.6621 21.6992C30.7207 21.8008 30.8008 21.8691 30.9023 21.9043C31.0039 21.9395 31.123 21.957 31.2598 21.957C31.3574 21.957 31.4512 21.9512 31.541 21.9395C31.6309 21.9277 31.7031 21.916 31.7578 21.9043L31.7637 22.9824C31.6465 23.0176 31.5098 23.0488 31.3535 23.0762C31.2012 23.1035 31.0254 23.1172 30.8262 23.1172C30.502 23.1172 30.2148 23.0605 29.9648 22.9473C29.7148 22.8301 29.5195 22.6406 29.3789 22.3789C29.2383 22.1172 29.168 21.7695 29.168 21.3359V15.1074ZM36.0957 23.1172C35.627 23.1172 35.2031 23.041 34.8242 22.8887C34.4492 22.7324 34.1289 22.5156 33.8633 22.2383C33.6016 21.9609 33.4004 21.6348 33.2598 21.2598C33.1191 20.8848 33.0488 20.4805 33.0488 20.0469V19.8125C33.0488 19.3164 33.1211 18.8672 33.2656 18.4648C33.4102 18.0625 33.6113 17.7188 33.8691 17.4336C34.127 17.1445 34.4316 16.9238 34.7832 16.7715C35.1348 16.6191 35.5156 16.543 35.9258 16.543C36.3789 16.543 36.7754 16.6191 37.1152 16.7715C37.4551 16.9238 37.7363 17.1387 37.959 17.416C38.1855 17.6895 38.3535 18.0156 38.4629 18.3945C38.5762 18.7734 38.6328 19.1914 38.6328 19.6484V20.252H33.7344V19.2383H37.2383V19.127C37.2305 18.873 37.1797 18.6348 37.0859 18.4121C36.9961 18.1895 36.8574 18.0098 36.6699 17.873C36.4824 17.7363 36.2324 17.668 35.9199 17.668C35.6855 17.668 35.4766 17.7188 35.293 17.8203C35.1133 17.918 34.9629 18.0605 34.8418 18.248C34.7207 18.4355 34.627 18.6621 34.5605 18.9277C34.498 19.1895 34.4668 19.4844 34.4668 19.8125V20.0469C34.4668 20.3242 34.5039 20.582 34.5781 20.8203C34.6562 21.0547 34.7695 21.2598 34.918 21.4355C35.0664 21.6113 35.2461 21.75 35.457 21.8516C35.668 21.9492 35.9082 21.998 36.1777 21.998C36.5176 21.998 36.8203 21.9297 37.0859 21.793C37.3516 21.6562 37.582 21.4629 37.7773 21.2129L38.5215 21.9336C38.3848 22.1328 38.207 22.3242 37.9883 22.5078C37.7695 22.6875 37.502 22.834 37.1855 22.9473C36.873 23.0605 36.5098 23.1172 36.0957 23.1172ZM41.6523 17.8672V23H40.2402V16.6602H41.5879L41.6523 17.8672ZM43.5918 16.6191L43.5801 17.9316C43.4941 17.916 43.4004 17.9043 43.2988 17.8965C43.2012 17.8887 43.1035 17.8848 43.0059 17.8848C42.7637 17.8848 42.5508 17.9199 42.3672 17.9902C42.1836 18.0566 42.0293 18.1543 41.9043 18.2832C41.7832 18.4082 41.6895 18.5605 41.623 18.7402C41.5566 18.9199 41.5176 19.1211 41.5059 19.3438L41.1836 19.3672C41.1836 18.9688 41.2227 18.5996 41.3008 18.2598C41.3789 17.9199 41.4961 17.6211 41.6523 17.3633C41.8125 17.1055 42.0117 16.9043 42.25 16.7598C42.4922 16.6152 42.7715 16.543 43.0879 16.543C43.1738 16.543 43.2656 16.5508 43.3633 16.5664C43.4648 16.582 43.541 16.5996 43.5918 16.6191ZM48.3398 21.7285V18.7051C48.3398 18.4785 48.2988 18.2832 48.2168 18.1191C48.1348 17.9551 48.0098 17.8281 47.8418 17.7383C47.6777 17.6484 47.4707 17.6035 47.2207 17.6035C46.9902 17.6035 46.791 17.6426 46.623 17.7207C46.4551 17.7988 46.3242 17.9043 46.2305 18.0371C46.1367 18.1699 46.0898 18.3203 46.0898 18.4883H44.6836C44.6836 18.2383 44.7441 17.9961 44.8652 17.7617C44.9863 17.5273 45.1621 17.3184 45.3926 17.1348C45.623 16.9512 45.8984 16.8066 46.2188 16.7012C46.5391 16.5957 46.8984 16.543 47.2969 16.543C47.7734 16.543 48.1953 16.623 48.5625 16.7832C48.9336 16.9434 49.2246 17.1855 49.4355 17.5098C49.6504 17.8301 49.7578 18.2324 49.7578 18.7168V21.5352C49.7578 21.8242 49.7773 22.084 49.8164 22.3145C49.8594 22.541 49.9199 22.7383 49.998 22.9062V23H48.5508C48.4844 22.8477 48.4316 22.6543 48.3926 22.4199C48.3574 22.1816 48.3398 21.9512 48.3398 21.7285ZM48.5449 19.1445L48.5566 20.0176H47.543C47.2812 20.0176 47.0508 20.043 46.8516 20.0938C46.6523 20.1406 46.4863 20.2109 46.3535 20.3047C46.2207 20.3984 46.1211 20.5117 46.0547 20.6445C45.9883 20.7773 45.9551 20.9277 45.9551 21.0957C45.9551 21.2637 45.9941 21.418 46.0723 21.5586C46.1504 21.6953 46.2637 21.8027 46.4121 21.8809C46.5645 21.959 46.748 21.998 46.9629 21.998C47.252 21.998 47.5039 21.9395 47.7188 21.8223C47.9375 21.7012 48.1094 21.5547 48.2344 21.3828C48.3594 21.207 48.4258 21.041 48.4336 20.8848L48.8906 21.5117C48.8438 21.6719 48.7637 21.8438 48.6504 22.0273C48.5371 22.2109 48.3887 22.3867 48.2051 22.5547C48.0254 22.7188 47.8086 22.8535 47.5547 22.959C47.3047 23.0645 47.0156 23.1172 46.6875 23.1172C46.2734 23.1172 45.9043 23.0352 45.5801 22.8711C45.2559 22.7031 45.002 22.4785 44.8184 22.1973C44.6348 21.9121 44.543 21.5898 44.543 21.2305C44.543 20.8945 44.6055 20.5977 44.7305 20.3398C44.8594 20.0781 45.0469 19.8594 45.293 19.6836C45.543 19.5078 45.8477 19.375 46.207 19.2852C46.5664 19.1914 46.9766 19.1445 47.4375 19.1445H48.5449ZM54.3242 21.9922C54.5547 21.9922 54.7617 21.9473 54.9453 21.8574C55.1328 21.7637 55.2832 21.6348 55.3965 21.4707C55.5137 21.3066 55.5781 21.1172 55.5898 20.9023H56.9199C56.9121 21.3125 56.791 21.6855 56.5566 22.0215C56.3223 22.3574 56.0117 22.625 55.625 22.8242C55.2383 23.0195 54.8105 23.1172 54.3418 23.1172C53.8574 23.1172 53.4355 23.0352 53.0762 22.8711C52.7168 22.7031 52.418 22.4727 52.1797 22.1797C51.9414 21.8867 51.7617 21.5488 51.6406 21.166C51.5234 20.7832 51.4648 20.373 51.4648 19.9355V19.7305C51.4648 19.293 51.5234 18.8828 51.6406 18.5C51.7617 18.1133 51.9414 17.7734 52.1797 17.4805C52.418 17.1875 52.7168 16.959 53.0762 16.7949C53.4355 16.627 53.8555 16.543 54.3359 16.543C54.8438 16.543 55.2891 16.6445 55.6719 16.8477C56.0547 17.0469 56.3555 17.3262 56.5742 17.6855C56.7969 18.041 56.9121 18.4551 56.9199 18.9277H55.5898C55.5781 18.6934 55.5195 18.4824 55.4141 18.2949C55.3125 18.1035 55.168 17.9512 54.9805 17.8379C54.7969 17.7246 54.5762 17.668 54.3184 17.668C54.0332 17.668 53.7969 17.7266 53.6094 17.8438C53.4219 17.957 53.2754 18.1133 53.1699 18.3125C53.0645 18.5078 52.9883 18.7285 52.9414 18.9746C52.8984 19.2168 52.877 19.4688 52.877 19.7305V19.9355C52.877 20.1973 52.8984 20.4512 52.9414 20.6973C52.9844 20.9434 53.0586 21.1641 53.1641 21.3594C53.2734 21.5508 53.4219 21.7051 53.6094 21.8223C53.7969 21.9355 54.0352 21.9922 54.3242 21.9922ZM61.4102 16.6602V17.6914H57.8359V16.6602H61.4102ZM58.8672 15.1074H60.2793V21.248C60.2793 21.4434 60.3066 21.5938 60.3613 21.6992C60.4199 21.8008 60.5 21.8691 60.6016 21.9043C60.7031 21.9395 60.8223 21.957 60.959 21.957C61.0566 21.957 61.1504 21.9512 61.2402 21.9395C61.3301 21.9277 61.4023 21.916 61.457 21.9043L61.4629 22.9824C61.3457 23.0176 61.209 23.0488 61.0527 23.0762C60.9004 23.1035 60.7246 23.1172 60.5254 23.1172C60.2012 23.1172 59.9141 23.0605 59.6641 22.9473C59.4141 22.8301 59.2188 22.6406 59.0781 22.3789C58.9375 22.1172 58.8672 21.7695 58.8672 21.3359V15.1074ZM64.5117 16.6602V23H63.0938V16.6602H64.5117ZM63 14.9961C63 14.7812 63.0703 14.6035 63.2109 14.4629C63.3555 14.3184 63.5547 14.2461 63.8086 14.2461C64.0586 14.2461 64.2559 14.3184 64.4004 14.4629C64.5449 14.6035 64.6172 14.7812 64.6172 14.9961C64.6172 15.207 64.5449 15.3828 64.4004 15.5234C64.2559 15.6641 64.0586 15.7344 63.8086 15.7344C63.5547 15.7344 63.3555 15.6641 63.2109 15.5234C63.0703 15.3828 63 15.207 63 14.9961ZM68.6211 21.8809L70.1738 16.6602H71.6387L69.4355 23H68.5215L68.6211 21.8809ZM67.4316 16.6602L69.0137 21.9043L69.0898 23H68.1758L65.9609 16.6602H67.4316ZM75.7246 23.1172C75.2559 23.1172 74.832 23.041 74.4531 22.8887C74.0781 22.7324 73.7578 22.5156 73.4922 22.2383C73.2305 21.9609 73.0293 21.6348 72.8887 21.2598C72.748 20.8848 72.6777 20.4805 72.6777 20.0469V19.8125C72.6777 19.3164 72.75 18.8672 72.8945 18.4648C73.0391 18.0625 73.2402 17.7188 73.498 17.4336C73.7559 17.1445 74.0605 16.9238 74.4121 16.7715C74.7637 16.6191 75.1445 16.543 75.5547 16.543C76.0078 16.543 76.4043 16.6191 76.7441 16.7715C77.084 16.9238 77.3652 17.1387 77.5879 17.416C77.8145 17.6895 77.9824 18.0156 78.0918 18.3945C78.2051 18.7734 78.2617 19.1914 78.2617 19.6484V20.252H73.3633V19.2383H76.8672V19.127C76.8594 18.873 76.8086 18.6348 76.7148 18.4121C76.625 18.1895 76.4863 18.0098 76.2988 17.873C76.1113 17.7363 75.8613 17.668 75.5488 17.668C75.3145 17.668 75.1055 17.7188 74.9219 17.8203C74.7422 17.918 74.5918 18.0605 74.4707 18.248C74.3496 18.4355 74.2559 18.6621 74.1895 18.9277C74.127 19.1895 74.0957 19.4844 74.0957 19.8125V20.0469C74.0957 20.3242 74.1328 20.582 74.207 20.8203C74.2852 21.0547 74.3984 21.2598 74.5469 21.4355C74.6953 21.6113 74.875 21.75 75.0859 21.8516C75.2969 21.9492 75.5371 21.998 75.8066 21.998C76.1465 21.998 76.4492 21.9297 76.7148 21.793C76.9805 21.6562 77.2109 21.4629 77.4062 21.2129L78.1504 21.9336C78.0137 22.1328 77.8359 22.3242 77.6172 22.5078C77.3984 22.6875 77.1309 22.834 76.8145 22.9473C76.502 23.0605 76.1387 23.1172 75.7246 23.1172ZM87.2129 25.4375V17.9199L87.377 16.6602H88.6367V25.4375H87.2129ZM83.0938 19.8945V19.7715C83.0938 19.291 83.1484 18.8535 83.2578 18.459C83.3672 18.0605 83.5293 17.7188 83.7441 17.4336C83.959 17.1484 84.2207 16.9297 84.5293 16.7773C84.8379 16.6211 85.1934 16.543 85.5957 16.543C85.9863 16.543 86.3262 16.6172 86.6152 16.7656C86.9082 16.9141 87.1543 17.127 87.3535 17.4043C87.5566 17.6777 87.7188 18.0039 87.8398 18.3828C87.9609 18.7617 88.0488 19.1836 88.1035 19.6484V20.041C88.0527 20.4941 87.9668 20.9082 87.8457 21.2832C87.7246 21.6582 87.5625 21.9824 87.3594 22.2559C87.1562 22.5293 86.9082 22.7422 86.6152 22.8945C86.3223 23.043 85.9785 23.1172 85.584 23.1172C85.1895 23.1172 84.8379 23.0371 84.5293 22.877C84.2207 22.7168 83.959 22.4922 83.7441 22.2031C83.5332 21.9102 83.3711 21.5684 83.2578 21.1777C83.1484 20.7832 83.0938 20.3555 83.0938 19.8945ZM84.5059 19.7715V19.8945C84.5059 20.1836 84.5312 20.4551 84.582 20.709C84.6367 20.959 84.7227 21.1816 84.8398 21.377C84.957 21.5684 85.1055 21.7188 85.2852 21.8281C85.4648 21.9375 85.6816 21.9922 85.9355 21.9922C86.2676 21.9922 86.5391 21.9199 86.75 21.7754C86.9648 21.6309 87.1289 21.4375 87.2422 21.1953C87.3594 20.9492 87.4414 20.6777 87.4883 20.3809V19.3203C87.4609 19.0898 87.4121 18.875 87.3418 18.6758C87.2715 18.4727 87.1738 18.2969 87.0488 18.1484C86.9277 17.9961 86.7754 17.8789 86.5918 17.7969C86.4121 17.7109 86.1973 17.668 85.9473 17.668C85.6934 17.668 85.4746 17.7227 85.291 17.832C85.1074 17.9414 84.957 18.0938 84.8398 18.2891C84.7266 18.4805 84.6426 18.7031 84.5879 18.957C84.5332 19.2109 84.5059 19.4824 84.5059 19.7715ZM94.4629 21.5059V16.6602H95.8809V23H94.5449L94.4629 21.5059ZM94.6621 20.1875L95.1367 20.1758C95.1367 20.6016 95.0898 20.9941 94.9961 21.3535C94.9023 21.709 94.7578 22.0195 94.5625 22.2852C94.3672 22.5469 94.1172 22.752 93.8125 22.9004C93.5078 23.0449 93.1426 23.1172 92.7168 23.1172C92.4082 23.1172 92.125 23.0723 91.8672 22.9824C91.6094 22.8926 91.3867 22.7539 91.1992 22.5664C91.0156 22.3789 90.873 22.1348 90.7715 21.834C90.6699 21.5332 90.6191 21.1738 90.6191 20.7559V16.6602H92.0312V20.7676C92.0312 20.998 92.0586 21.1914 92.1133 21.3477C92.168 21.5 92.2422 21.623 92.3359 21.7168C92.4297 21.8105 92.5391 21.877 92.6641 21.916C92.7891 21.9551 92.9219 21.9746 93.0625 21.9746C93.4648 21.9746 93.7812 21.8965 94.0117 21.7402C94.2461 21.5801 94.4121 21.3652 94.5098 21.0957C94.6113 20.8262 94.6621 20.5234 94.6621 20.1875ZM99.3398 16.6602V23H97.9219V16.6602H99.3398ZM97.8281 14.9961C97.8281 14.7812 97.8984 14.6035 98.0391 14.4629C98.1836 14.3184 98.3828 14.2461 98.6367 14.2461C98.8867 14.2461 99.084 14.3184 99.2285 14.4629C99.373 14.6035 99.4453 14.7812 99.4453 14.9961C99.4453 15.207 99.373 15.3828 99.2285 15.5234C99.084 15.6641 98.8867 15.7344 98.6367 15.7344C98.3828 15.7344 98.1836 15.6641 98.0391 15.5234C97.8984 15.3828 97.8281 15.207 97.8281 14.9961ZM106.291 21.875V23H101.568V21.875H106.291ZM106.162 17.5391L102.049 23H101.135V22.0918L105.225 16.6602H106.162V17.5391ZM105.617 16.6602V17.7852H101.205V16.6602H105.617ZM112.826 21.875V23H108.104V21.875H112.826ZM112.697 17.5391L108.584 23H107.67V22.0918L111.76 16.6602H112.697V17.5391ZM112.152 16.6602V17.7852H107.74V16.6602H112.152ZM117.158 23.1172C116.689 23.1172 116.266 23.041 115.887 22.8887C115.512 22.7324 115.191 22.5156 114.926 22.2383C114.664 21.9609 114.463 21.6348 114.322 21.2598C114.182 20.8848 114.111 20.4805 114.111 20.0469V19.8125C114.111 19.3164 114.184 18.8672 114.328 18.4648C114.473 18.0625 114.674 17.7188 114.932 17.4336C115.189 17.1445 115.494 16.9238 115.846 16.7715C116.197 16.6191 116.578 16.543 116.988 16.543C117.441 16.543 117.838 16.6191 118.178 16.7715C118.518 16.9238 118.799 17.1387 119.021 17.416C119.248 17.6895 119.416 18.0156 119.525 18.3945C119.639 18.7734 119.695 19.1914 119.695 19.6484V20.252H114.797V19.2383H118.301V19.127C118.293 18.873 118.242 18.6348 118.148 18.4121C118.059 18.1895 117.92 18.0098 117.732 17.873C117.545 17.7363 117.295 17.668 116.982 17.668C116.748 17.668 116.539 17.7188 116.355 17.8203C116.176 17.918 116.025 18.0605 115.904 18.248C115.783 18.4355 115.689 18.6621 115.623 18.9277C115.561 19.1895 115.529 19.4844 115.529 19.8125V20.0469C115.529 20.3242 115.566 20.582 115.641 20.8203C115.719 21.0547 115.832 21.2598 115.98 21.4355C116.129 21.6113 116.309 21.75 116.52 21.8516C116.73 21.9492 116.971 21.998 117.24 21.998C117.58 21.998 117.883 21.9297 118.148 21.793C118.414 21.6562 118.645 21.4629 118.84 21.2129L119.584 21.9336C119.447 22.1328 119.27 22.3242 119.051 22.5078C118.832 22.6875 118.564 22.834 118.248 22.9473C117.936 23.0605 117.572 23.1172 117.158 23.1172ZM124.854 21.2832C124.854 21.1426 124.818 21.0156 124.748 20.9023C124.678 20.7852 124.543 20.6797 124.344 20.5859C124.148 20.4922 123.859 20.4062 123.477 20.3281C123.141 20.2539 122.832 20.166 122.551 20.0645C122.273 19.959 122.035 19.832 121.836 19.6836C121.637 19.5352 121.482 19.3594 121.373 19.1562C121.264 18.9531 121.209 18.7188 121.209 18.4531C121.209 18.1953 121.266 17.9512 121.379 17.7207C121.492 17.4902 121.654 17.2871 121.865 17.1113C122.076 16.9355 122.332 16.7969 122.633 16.6953C122.938 16.5938 123.277 16.543 123.652 16.543C124.184 16.543 124.639 16.6328 125.018 16.8125C125.4 16.9883 125.693 17.2285 125.896 17.5332C126.1 17.834 126.201 18.1738 126.201 18.5527H124.789C124.789 18.3848 124.746 18.2285 124.66 18.084C124.578 17.9355 124.453 17.8164 124.285 17.7266C124.117 17.6328 123.906 17.5859 123.652 17.5859C123.41 17.5859 123.209 17.625 123.049 17.7031C122.893 17.7773 122.775 17.875 122.697 17.9961C122.623 18.1172 122.586 18.25 122.586 18.3945C122.586 18.5 122.605 18.5957 122.645 18.6816C122.688 18.7637 122.758 18.8398 122.855 18.9102C122.953 18.9766 123.086 19.0391 123.254 19.0977C123.426 19.1562 123.641 19.2129 123.898 19.2676C124.383 19.3691 124.799 19.5 125.146 19.6602C125.498 19.8164 125.768 20.0195 125.955 20.2695C126.143 20.5156 126.236 20.8281 126.236 21.207C126.236 21.4883 126.176 21.7461 126.055 21.9805C125.938 22.2109 125.766 22.4121 125.539 22.584C125.312 22.752 125.041 22.8828 124.725 22.9766C124.412 23.0703 124.061 23.1172 123.67 23.1172C123.096 23.1172 122.609 23.0156 122.211 22.8125C121.812 22.6055 121.51 22.3418 121.303 22.0215C121.1 21.6973 120.998 21.3613 120.998 21.0137H122.363C122.379 21.2754 122.451 21.4844 122.58 21.6406C122.713 21.793 122.877 21.9043 123.072 21.9746C123.271 22.041 123.477 22.0742 123.688 22.0742C123.941 22.0742 124.154 22.041 124.326 21.9746C124.498 21.9043 124.629 21.8105 124.719 21.6934C124.809 21.5723 124.854 21.4355 124.854 21.2832Z" fill="white"/>
<path d="M20.0059 69.084L21.7051 62.4688H22.5957L22.4961 64.1738L20.6797 71H19.7539L20.0059 69.084ZM18.7344 62.4688L20.1113 69.0312L20.2344 71H19.25L17.2754 62.4688H18.7344ZM24.5234 69.0137L25.8828 62.4688H27.3477L25.373 71H24.3887L24.5234 69.0137ZM22.9414 62.4688L24.623 69.1016L24.8691 71H23.9434L22.1562 64.1738L22.0625 62.4688H22.9414ZM29.6914 62V71H28.2852V62H29.6914ZM29.4453 67.5957L28.9883 67.5898C28.9922 67.1523 29.0527 66.748 29.1699 66.377C29.291 66.0059 29.459 65.6836 29.6738 65.4102C29.8926 65.1328 30.1543 64.9199 30.459 64.7715C30.7637 64.6191 31.1016 64.543 31.4727 64.543C31.7852 64.543 32.0664 64.5859 32.3164 64.6719C32.5703 64.7578 32.7891 64.8965 32.9727 65.0879C33.1562 65.2754 33.2949 65.5215 33.3887 65.8262C33.4863 66.127 33.5352 66.4941 33.5352 66.9277V71H32.1172V66.916C32.1172 66.6113 32.0723 66.3691 31.9824 66.1895C31.8965 66.0098 31.7695 65.8809 31.6016 65.8027C31.4336 65.7207 31.2285 65.6797 30.9863 65.6797C30.7324 65.6797 30.5078 65.7305 30.3125 65.832C30.1211 65.9336 29.9609 66.0723 29.832 66.248C29.7031 66.4238 29.6055 66.627 29.5391 66.8574C29.4766 67.0879 29.4453 67.334 29.4453 67.5957ZM36.4766 64.6602V71H35.0586V64.6602H36.4766ZM34.9648 62.9961C34.9648 62.7812 35.0352 62.6035 35.1758 62.4629C35.3203 62.3184 35.5195 62.2461 35.7734 62.2461C36.0234 62.2461 36.2207 62.3184 36.3652 62.4629C36.5098 62.6035 36.582 62.7812 36.582 62.9961C36.582 63.207 36.5098 63.3828 36.3652 63.5234C36.2207 63.6641 36.0234 63.7344 35.7734 63.7344C35.5195 63.7344 35.3203 63.6641 35.1758 63.5234C35.0352 63.3828 34.9648 63.207 34.9648 62.9961ZM40.6133 69.9922C40.8438 69.9922 41.0508 69.9473 41.2344 69.8574C41.4219 69.7637 41.5723 69.6348 41.6855 69.4707C41.8027 69.3066 41.8672 69.1172 41.8789 68.9023H43.209C43.2012 69.3125 43.0801 69.6855 42.8457 70.0215C42.6113 70.3574 42.3008 70.625 41.9141 70.8242C41.5273 71.0195 41.0996 71.1172 40.6309 71.1172C40.1465 71.1172 39.7246 71.0352 39.3652 70.8711C39.0059 70.7031 38.707 70.4727 38.4688 70.1797C38.2305 69.8867 38.0508 69.5488 37.9297 69.166C37.8125 68.7832 37.7539 68.373 37.7539 67.9355V67.7305C37.7539 67.293 37.8125 66.8828 37.9297 66.5C38.0508 66.1133 38.2305 65.7734 38.4688 65.4805C38.707 65.1875 39.0059 64.959 39.3652 64.7949C39.7246 64.627 40.1445 64.543 40.625 64.543C41.1328 64.543 41.5781 64.6445 41.9609 64.8477C42.3438 65.0469 42.6445 65.3262 42.8633 65.6855C43.0859 66.041 43.2012 66.4551 43.209 66.9277H41.8789C41.8672 66.6934 41.8086 66.4824 41.7031 66.2949C41.6016 66.1035 41.457 65.9512 41.2695 65.8379C41.0859 65.7246 40.8652 65.668 40.6074 65.668C40.3223 65.668 40.0859 65.7266 39.8984 65.8438C39.7109 65.957 39.5645 66.1133 39.459 66.3125C39.3535 66.5078 39.2773 66.7285 39.2305 66.9746C39.1875 67.2168 39.166 67.4688 39.166 67.7305V67.9355C39.166 68.1973 39.1875 68.4512 39.2305 68.6973C39.2734 68.9434 39.3477 69.1641 39.4531 69.3594C39.5625 69.5508 39.7109 69.7051 39.8984 69.8223C40.0859 69.9355 40.3242 69.9922 40.6133 69.9922ZM45.6875 62V71H44.2812V62H45.6875ZM45.4414 67.5957L44.9844 67.5898C44.9883 67.1523 45.0488 66.748 45.166 66.377C45.2871 66.0059 45.4551 65.6836 45.6699 65.4102C45.8887 65.1328 46.1504 64.9199 46.4551 64.7715C46.7598 64.6191 47.0977 64.543 47.4688 64.543C47.7812 64.543 48.0625 64.5859 48.3125 64.6719C48.5664 64.7578 48.7852 64.8965 48.9688 65.0879C49.1523 65.2754 49.291 65.5215 49.3848 65.8262C49.4824 66.127 49.5312 66.4941 49.5312 66.9277V71H48.1133V66.916C48.1133 66.6113 48.0684 66.3691 47.9785 66.1895C47.8926 66.0098 47.7656 65.8809 47.5977 65.8027C47.4297 65.7207 47.2246 65.6797 46.9824 65.6797C46.7285 65.6797 46.5039 65.7305 46.3086 65.832C46.1172 65.9336 45.957 66.0723 45.8281 66.248C45.6992 66.4238 45.6016 66.627 45.5352 66.8574C45.4727 67.0879 45.4414 67.334 45.4414 67.5957ZM55.3672 65.8789V73.4375H53.9551V64.6602H55.2559L55.3672 65.8789ZM59.498 67.7715V67.8945C59.498 68.3555 59.4434 68.7832 59.334 69.1777C59.2285 69.5684 59.0703 69.9102 58.8594 70.2031C58.6523 70.4922 58.3965 70.7168 58.0918 70.877C57.7871 71.0371 57.4355 71.1172 57.0371 71.1172C56.6426 71.1172 56.2969 71.0449 56 70.9004C55.707 70.752 55.459 70.543 55.2559 70.2734C55.0527 70.0039 54.8887 69.6875 54.7637 69.3242C54.6426 68.957 54.5566 68.5547 54.5059 68.1172V67.6426C54.5566 67.1777 54.6426 66.7559 54.7637 66.377C54.8887 65.998 55.0527 65.6719 55.2559 65.3984C55.459 65.125 55.707 64.9141 56 64.7656C56.293 64.6172 56.6348 64.543 57.0254 64.543C57.4238 64.543 57.7773 64.6211 58.0859 64.7773C58.3945 64.9297 58.6543 65.1484 58.8652 65.4336C59.0762 65.7148 59.2344 66.0547 59.3398 66.4531C59.4453 66.8477 59.498 67.2871 59.498 67.7715ZM58.0859 67.8945V67.7715C58.0859 67.4785 58.0586 67.207 58.0039 66.957C57.9492 66.7031 57.8633 66.4805 57.7461 66.2891C57.6289 66.0977 57.4785 65.9492 57.2949 65.8438C57.1152 65.7344 56.8984 65.6797 56.6445 65.6797C56.3945 65.6797 56.1797 65.7227 56 65.8086C55.8203 65.8906 55.6699 66.0059 55.5488 66.1543C55.4277 66.3027 55.334 66.4766 55.2676 66.6758C55.2012 66.8711 55.1543 67.084 55.127 67.3145V68.4512C55.1738 68.7324 55.2539 68.9902 55.3672 69.2246C55.4805 69.459 55.6406 69.6465 55.8477 69.7871C56.0586 69.9238 56.3281 69.9922 56.6562 69.9922C56.9102 69.9922 57.127 69.9375 57.3066 69.8281C57.4863 69.7188 57.6328 69.5684 57.7461 69.377C57.8633 69.1816 57.9492 68.957 58.0039 68.7031C58.0586 68.4492 58.0859 68.1797 58.0859 67.8945ZM62.1172 65.8672V71H60.7051V64.6602H62.0527L62.1172 65.8672ZM64.0566 64.6191L64.0449 65.9316C63.959 65.916 63.8652 65.9043 63.7637 65.8965C63.666 65.8887 63.5684 65.8848 63.4707 65.8848C63.2285 65.8848 63.0156 65.9199 62.832 65.9902C62.6484 66.0566 62.4941 66.1543 62.3691 66.2832C62.248 66.4082 62.1543 66.5605 62.0879 66.7402C62.0215 66.9199 61.9824 67.1211 61.9707 67.3438L61.6484 67.3672C61.6484 66.9688 61.6875 66.5996 61.7656 66.2598C61.8438 65.9199 61.9609 65.6211 62.1172 65.3633C62.2773 65.1055 62.4766 64.9043 62.7148 64.7598C62.957 64.6152 63.2363 64.543 63.5527 64.543C63.6387 64.543 63.7305 64.5508 63.8281 64.5664C63.9297 64.582 64.0059 64.5996 64.0566 64.6191ZM66.4531 64.6602V71H65.0352V64.6602H66.4531ZM64.9414 62.9961C64.9414 62.7812 65.0117 62.6035 65.1523 62.4629C65.2969 62.3184 65.4961 62.2461 65.75 62.2461C66 62.2461 66.1973 62.3184 66.3418 62.4629C66.4863 62.6035 66.5586 62.7812 66.5586 62.9961C66.5586 63.207 66.4863 63.3828 66.3418 63.5234C66.1973 63.6641 66 63.7344 65.75 63.7344C65.4961 63.7344 65.2969 63.6641 65.1523 63.5234C65.0117 63.3828 64.9414 63.207 64.9414 62.9961ZM69.4004 66.0137V71H67.9883V64.6602H69.3184L69.4004 66.0137ZM69.1484 67.5957L68.6914 67.5898C68.6953 67.1406 68.7578 66.7285 68.8789 66.3535C69.0039 65.9785 69.1758 65.6562 69.3945 65.3867C69.6172 65.1172 69.8828 64.9102 70.1914 64.7656C70.5 64.6172 70.8438 64.543 71.2227 64.543C71.5273 64.543 71.8027 64.5859 72.0488 64.6719C72.2988 64.7539 72.5117 64.8887 72.6875 65.0762C72.8672 65.2637 73.0039 65.5078 73.0977 65.8086C73.1914 66.1055 73.2383 66.4707 73.2383 66.9043V71H71.8203V66.8984C71.8203 66.5938 71.7754 66.3535 71.6855 66.1777C71.5996 65.998 71.4727 65.8711 71.3047 65.7969C71.1406 65.7188 70.9355 65.6797 70.6895 65.6797C70.4473 65.6797 70.2305 65.7305 70.0391 65.832C69.8477 65.9336 69.6855 66.0723 69.5527 66.248C69.4238 66.4238 69.3242 66.627 69.2539 66.8574C69.1836 67.0879 69.1484 67.334 69.1484 67.5957ZM77.2695 69.9922C77.5 69.9922 77.707 69.9473 77.8906 69.8574C78.0781 69.7637 78.2285 69.6348 78.3418 69.4707C78.459 69.3066 78.5234 69.1172 78.5352 68.9023H79.8652C79.8574 69.3125 79.7363 69.6855 79.502 70.0215C79.2676 70.3574 78.957 70.625 78.5703 70.8242C78.1836 71.0195 77.7559 71.1172 77.2871 71.1172C76.8027 71.1172 76.3809 71.0352 76.0215 70.8711C75.6621 70.7031 75.3633 70.4727 75.125 70.1797C74.8867 69.8867 74.707 69.5488 74.5859 69.166C74.4688 68.7832 74.4102 68.373 74.4102 67.9355V67.7305C74.4102 67.293 74.4688 66.8828 74.5859 66.5C74.707 66.1133 74.8867 65.7734 75.125 65.4805C75.3633 65.1875 75.6621 64.959 76.0215 64.7949C76.3809 64.627 76.8008 64.543 77.2812 64.543C77.7891 64.543 78.2344 64.6445 78.6172 64.8477C79 65.0469 79.3008 65.3262 79.5195 65.6855C79.7422 66.041 79.8574 66.4551 79.8652 66.9277H78.5352C78.5234 66.6934 78.4648 66.4824 78.3594 66.2949C78.2578 66.1035 78.1133 65.9512 77.9258 65.8379C77.7422 65.7246 77.5215 65.668 77.2637 65.668C76.9785 65.668 76.7422 65.7266 76.5547 65.8438C76.3672 65.957 76.2207 66.1133 76.1152 66.3125C76.0098 66.5078 75.9336 66.7285 75.8867 66.9746C75.8438 67.2168 75.8223 67.4688 75.8223 67.7305V67.9355C75.8223 68.1973 75.8438 68.4512 75.8867 68.6973C75.9297 68.9434 76.0039 69.1641 76.1094 69.3594C76.2188 69.5508 76.3672 69.7051 76.5547 69.8223C76.7422 69.9355 76.9805 69.9922 77.2695 69.9922ZM82.4609 64.6602V71H81.043V64.6602H82.4609ZM80.9492 62.9961C80.9492 62.7812 81.0195 62.6035 81.1602 62.4629C81.3047 62.3184 81.5039 62.2461 81.7578 62.2461C82.0078 62.2461 82.2051 62.3184 82.3496 62.4629C82.4941 62.6035 82.5664 62.7812 82.5664 62.9961C82.5664 63.207 82.4941 63.3828 82.3496 63.5234C82.2051 63.6641 82.0078 63.7344 81.7578 63.7344C81.5039 63.7344 81.3047 63.6641 81.1602 63.5234C81.0195 63.3828 80.9492 63.207 80.9492 62.9961ZM85.4258 65.8789V73.4375H84.0137V64.6602H85.3145L85.4258 65.8789ZM89.5566 67.7715V67.8945C89.5566 68.3555 89.502 68.7832 89.3926 69.1777C89.2871 69.5684 89.1289 69.9102 88.918 70.2031C88.7109 70.4922 88.4551 70.7168 88.1504 70.877C87.8457 71.0371 87.4941 71.1172 87.0957 71.1172C86.7012 71.1172 86.3555 71.0449 86.0586 70.9004C85.7656 70.752 85.5176 70.543 85.3145 70.2734C85.1113 70.0039 84.9473 69.6875 84.8223 69.3242C84.7012 68.957 84.6152 68.5547 84.5645 68.1172V67.6426C84.6152 67.1777 84.7012 66.7559 84.8223 66.377C84.9473 65.998 85.1113 65.6719 85.3145 65.3984C85.5176 65.125 85.7656 64.9141 86.0586 64.7656C86.3516 64.6172 86.6934 64.543 87.084 64.543C87.4824 64.543 87.8359 64.6211 88.1445 64.7773C88.4531 64.9297 88.7129 65.1484 88.9238 65.4336C89.1348 65.7148 89.293 66.0547 89.3984 66.4531C89.5039 66.8477 89.5566 67.2871 89.5566 67.7715ZM88.1445 67.8945V67.7715C88.1445 67.4785 88.1172 67.207 88.0625 66.957C88.0078 66.7031 87.9219 66.4805 87.8047 66.2891C87.6875 66.0977 87.5371 65.9492 87.3535 65.8438C87.1738 65.7344 86.957 65.6797 86.7031 65.6797C86.4531 65.6797 86.2383 65.7227 86.0586 65.8086C85.8789 65.8906 85.7285 66.0059 85.6074 66.1543C85.4863 66.3027 85.3926 66.4766 85.3262 66.6758C85.2598 66.8711 85.2129 67.084 85.1855 67.3145V68.4512C85.2324 68.7324 85.3125 68.9902 85.4258 69.2246C85.5391 69.459 85.6992 69.6465 85.9062 69.7871C86.1172 69.9238 86.3867 69.9922 86.7148 69.9922C86.9688 69.9922 87.1855 69.9375 87.3652 69.8281C87.5449 69.7188 87.6914 69.5684 87.8047 69.377C87.9219 69.1816 88.0078 68.957 88.0625 68.7031C88.1172 68.4492 88.1445 68.1797 88.1445 67.8945ZM92.2695 62V71H90.8516V62H92.2695ZM96.6113 71.1172C96.1426 71.1172 95.7188 71.041 95.3398 70.8887C94.9648 70.7324 94.6445 70.5156 94.3789 70.2383C94.1172 69.9609 93.916 69.6348 93.7754 69.2598C93.6348 68.8848 93.5645 68.4805 93.5645 68.0469V67.8125C93.5645 67.3164 93.6367 66.8672 93.7812 66.4648C93.9258 66.0625 94.127 65.7188 94.3848 65.4336C94.6426 65.1445 94.9473 64.9238 95.2988 64.7715C95.6504 64.6191 96.0312 64.543 96.4414 64.543C96.8945 64.543 97.291 64.6191 97.6309 64.7715C97.9707 64.9238 98.252 65.1387 98.4746 65.416C98.7012 65.6895 98.8691 66.0156 98.9785 66.3945C99.0918 66.7734 99.1484 67.1914 99.1484 67.6484V68.252H94.25V67.2383H97.7539V67.127C97.7461 66.873 97.6953 66.6348 97.6016 66.4121C97.5117 66.1895 97.373 66.0098 97.1855 65.873C96.998 65.7363 96.748 65.668 96.4355 65.668C96.2012 65.668 95.9922 65.7188 95.8086 65.8203C95.6289 65.918 95.4785 66.0605 95.3574 66.248C95.2363 66.4355 95.1426 66.6621 95.0762 66.9277C95.0137 67.1895 94.9824 67.4844 94.9824 67.8125V68.0469C94.9824 68.3242 95.0195 68.582 95.0938 68.8203C95.1719 69.0547 95.2852 69.2598 95.4336 69.4355C95.582 69.6113 95.7617 69.75 95.9727 69.8516C96.1836 69.9492 96.4238 69.998 96.6934 69.998C97.0332 69.998 97.3359 69.9297 97.6016 69.793C97.8672 69.6562 98.0977 69.4629 98.293 69.2129L99.0371 69.9336C98.9004 70.1328 98.7227 70.3242 98.5039 70.5078C98.2852 70.6875 98.0176 70.834 97.7012 70.9473C97.3887 71.0605 97.0254 71.1172 96.6113 71.1172ZM107.105 69.6875V62H108.523V71H107.24L107.105 69.6875ZM102.98 67.9004V67.7773C102.98 67.2969 103.037 66.8594 103.15 66.4648C103.264 66.0664 103.428 65.7246 103.643 65.4395C103.857 65.1504 104.119 64.9297 104.428 64.7773C104.736 64.6211 105.084 64.543 105.471 64.543C105.854 64.543 106.189 64.6172 106.479 64.7656C106.768 64.9141 107.014 65.127 107.217 65.4043C107.42 65.6777 107.582 66.0059 107.703 66.3887C107.824 66.7676 107.91 67.1895 107.961 67.6543V68.0469C107.91 68.5 107.824 68.9141 107.703 69.2891C107.582 69.6641 107.42 69.9883 107.217 70.2617C107.014 70.5352 106.766 70.7461 106.473 70.8945C106.184 71.043 105.846 71.1172 105.459 71.1172C105.076 71.1172 104.73 71.0371 104.422 70.877C104.117 70.7168 103.857 70.4922 103.643 70.2031C103.428 69.9141 103.264 69.5742 103.15 69.1836C103.037 68.7891 102.98 68.3613 102.98 67.9004ZM104.393 67.7773V67.9004C104.393 68.1895 104.418 68.459 104.469 68.709C104.523 68.959 104.607 69.1797 104.721 69.3711C104.834 69.5586 104.98 69.707 105.16 69.8164C105.344 69.9219 105.562 69.9746 105.816 69.9746C106.137 69.9746 106.4 69.9043 106.607 69.7637C106.814 69.623 106.977 69.4336 107.094 69.1953C107.215 68.9531 107.297 68.6836 107.34 68.3867V67.3262C107.316 67.0957 107.268 66.8809 107.193 66.6816C107.123 66.4824 107.027 66.3086 106.906 66.1602C106.785 66.0078 106.635 65.8906 106.455 65.8086C106.279 65.7227 106.07 65.6797 105.828 65.6797C105.57 65.6797 105.352 65.7344 105.172 65.8438C104.992 65.9531 104.844 66.1035 104.727 66.2949C104.613 66.4863 104.529 66.709 104.475 66.9629C104.42 67.2168 104.393 67.4883 104.393 67.7773ZM109.73 67.9004V67.7656C109.73 67.3086 109.797 66.8848 109.93 66.4941C110.062 66.0996 110.254 65.7578 110.504 65.4688C110.758 65.1758 111.066 64.9492 111.43 64.7891C111.797 64.625 112.211 64.543 112.672 64.543C113.137 64.543 113.551 64.625 113.914 64.7891C114.281 64.9492 114.592 65.1758 114.846 65.4688C115.1 65.7578 115.293 66.0996 115.426 66.4941C115.559 66.8848 115.625 67.3086 115.625 67.7656V67.9004C115.625 68.3574 115.559 68.7812 115.426 69.1719C115.293 69.5625 115.1 69.9043 114.846 70.1973C114.592 70.4863 114.283 70.7129 113.92 70.877C113.557 71.0371 113.145 71.1172 112.684 71.1172C112.219 71.1172 111.803 71.0371 111.436 70.877C111.072 70.7129 110.764 70.4863 110.51 70.1973C110.256 69.9043 110.062 69.5625 109.93 69.1719C109.797 68.7812 109.73 68.3574 109.73 67.9004ZM111.143 67.7656V67.9004C111.143 68.1855 111.172 68.4551 111.23 68.709C111.289 68.9629 111.381 69.1855 111.506 69.377C111.631 69.5684 111.791 69.7188 111.986 69.8281C112.182 69.9375 112.414 69.9922 112.684 69.9922C112.945 69.9922 113.172 69.9375 113.363 69.8281C113.559 69.7188 113.719 69.5684 113.844 69.377C113.969 69.1855 114.061 68.9629 114.119 68.709C114.182 68.4551 114.213 68.1855 114.213 67.9004V67.7656C114.213 67.4844 114.182 67.2188 114.119 66.9688C114.061 66.7148 113.967 66.4902 113.838 66.2949C113.713 66.0996 113.553 65.9473 113.357 65.8379C113.166 65.7246 112.938 65.668 112.672 65.668C112.406 65.668 112.176 65.7246 111.98 65.8379C111.789 65.9473 111.631 66.0996 111.506 66.2949C111.381 66.4902 111.289 66.7148 111.23 66.9688C111.172 67.2188 111.143 67.4844 111.143 67.7656ZM119.604 71.1172C119.135 71.1172 118.711 71.041 118.332 70.8887C117.957 70.7324 117.637 70.5156 117.371 70.2383C117.109 69.9609 116.908 69.6348 116.768 69.2598C116.627 68.8848 116.557 68.4805 116.557 68.0469V67.8125C116.557 67.3164 116.629 66.8672 116.773 66.4648C116.918 66.0625 117.119 65.7188 117.377 65.4336C117.635 65.1445 117.939 64.9238 118.291 64.7715C118.643 64.6191 119.023 64.543 119.434 64.543C119.887 64.543 120.283 64.6191 120.623 64.7715C120.963 64.9238 121.244 65.1387 121.467 65.416C121.693 65.6895 121.861 66.0156 121.971 66.3945C122.084 66.7734 122.141 67.1914 122.141 67.6484V68.252H117.242V67.2383H120.746V67.127C120.738 66.873 120.688 66.6348 120.594 66.4121C120.504 66.1895 120.365 66.0098 120.178 65.873C119.99 65.7363 119.74 65.668 119.428 65.668C119.193 65.668 118.984 65.7188 118.801 65.8203C118.621 65.918 118.471 66.0605 118.35 66.248C118.229 66.4355 118.135 66.6621 118.068 66.9277C118.006 67.1895 117.975 67.4844 117.975 67.8125V68.0469C117.975 68.3242 118.012 68.582 118.086 68.8203C118.164 69.0547 118.277 69.2598 118.426 69.4355C118.574 69.6113 118.754 69.75 118.965 69.8516C119.176 69.9492 119.416 69.998 119.686 69.998C120.025 69.998 120.328 69.9297 120.594 69.793C120.859 69.6562 121.09 69.4629 121.285 69.2129L122.029 69.9336C121.893 70.1328 121.715 70.3242 121.496 70.5078C121.277 70.6875 121.01 70.834 120.693 70.9473C120.381 71.0605 120.018 71.1172 119.604 71.1172ZM126.799 69.2832C126.799 69.1426 126.764 69.0156 126.693 68.9023C126.623 68.7852 126.488 68.6797 126.289 68.5859C126.094 68.4922 125.805 68.4062 125.422 68.3281C125.086 68.2539 124.777 68.166 124.496 68.0645C124.219 67.959 123.98 67.832 123.781 67.6836C123.582 67.5352 123.428 67.3594 123.318 67.1562C123.209 66.9531 123.154 66.7188 123.154 66.4531C123.154 66.1953 123.211 65.9512 123.324 65.7207C123.438 65.4902 123.6 65.2871 123.811 65.1113C124.021 64.9355 124.277 64.7969 124.578 64.6953C124.883 64.5938 125.223 64.543 125.598 64.543C126.129 64.543 126.584 64.6328 126.963 64.8125C127.346 64.9883 127.639 65.2285 127.842 65.5332C128.045 65.834 128.146 66.1738 128.146 66.5527H126.734C126.734 66.3848 126.691 66.2285 126.605 66.084C126.523 65.9355 126.398 65.8164 126.23 65.7266C126.062 65.6328 125.852 65.5859 125.598 65.5859C125.355 65.5859 125.154 65.625 124.994 65.7031C124.838 65.7773 124.721 65.875 124.643 65.9961C124.568 66.1172 124.531 66.25 124.531 66.3945C124.531 66.5 124.551 66.5957 124.59 66.6816C124.633 66.7637 124.703 66.8398 124.801 66.9102C124.898 66.9766 125.031 67.0391 125.199 67.0977C125.371 67.1562 125.586 67.2129 125.844 67.2676C126.328 67.3691 126.744 67.5 127.092 67.6602C127.443 67.8164 127.713 68.0195 127.9 68.2695C128.088 68.5156 128.182 68.8281 128.182 69.207C128.182 69.4883 128.121 69.7461 128 69.9805C127.883 70.2109 127.711 70.4121 127.484 70.584C127.258 70.752 126.986 70.8828 126.67 70.9766C126.357 71.0703 126.006 71.1172 125.615 71.1172C125.041 71.1172 124.555 71.0156 124.156 70.8125C123.758 70.6055 123.455 70.3418 123.248 70.0215C123.045 69.6973 122.943 69.3613 122.943 69.0137H124.309C124.324 69.2754 124.396 69.4844 124.525 69.6406C124.658 69.793 124.822 69.9043 125.018 69.9746C125.217 70.041 125.422 70.0742 125.633 70.0742C125.887 70.0742 126.1 70.041 126.271 69.9746C126.443 69.9043 126.574 69.8105 126.664 69.6934C126.754 69.5723 126.799 69.4355 126.799 69.2832ZM135.98 69.7285V66.7051C135.98 66.4785 135.939 66.2832 135.857 66.1191C135.775 65.9551 135.65 65.8281 135.482 65.7383C135.318 65.6484 135.111 65.6035 134.861 65.6035C134.631 65.6035 134.432 65.6426 134.264 65.7207C134.096 65.7988 133.965 65.9043 133.871 66.0371C133.777 66.1699 133.73 66.3203 133.73 66.4883H132.324C132.324 66.2383 132.385 65.9961 132.506 65.7617C132.627 65.5273 132.803 65.3184 133.033 65.1348C133.264 64.9512 133.539 64.8066 133.859 64.7012C134.18 64.5957 134.539 64.543 134.938 64.543C135.414 64.543 135.836 64.623 136.203 64.7832C136.574 64.9434 136.865 65.1855 137.076 65.5098C137.291 65.8301 137.398 66.2324 137.398 66.7168V69.5352C137.398 69.8242 137.418 70.084 137.457 70.3145C137.5 70.541 137.561 70.7383 137.639 70.9062V71H136.191C136.125 70.8477 136.072 70.6543 136.033 70.4199C135.998 70.1816 135.98 69.9512 135.98 69.7285ZM136.186 67.1445L136.197 68.0176H135.184C134.922 68.0176 134.691 68.043 134.492 68.0938C134.293 68.1406 134.127 68.2109 133.994 68.3047C133.861 68.3984 133.762 68.5117 133.695 68.6445C133.629 68.7773 133.596 68.9277 133.596 69.0957C133.596 69.2637 133.635 69.418 133.713 69.5586C133.791 69.6953 133.904 69.8027 134.053 69.8809C134.205 69.959 134.389 69.998 134.604 69.998C134.893 69.998 135.145 69.9395 135.359 69.8223C135.578 69.7012 135.75 69.5547 135.875 69.3828C136 69.207 136.066 69.041 136.074 68.8848L136.531 69.5117C136.484 69.6719 136.404 69.8438 136.291 70.0273C136.178 70.2109 136.029 70.3867 135.846 70.5547C135.666 70.7188 135.449 70.8535 135.195 70.959C134.945 71.0645 134.656 71.1172 134.328 71.1172C133.914 71.1172 133.545 71.0352 133.221 70.8711C132.896 70.7031 132.643 70.4785 132.459 70.1973C132.275 69.9121 132.184 69.5898 132.184 69.2305C132.184 68.8945 132.246 68.5977 132.371 68.3398C132.5 68.0781 132.688 67.8594 132.934 67.6836C133.184 67.5078 133.488 67.375 133.848 67.2852C134.207 67.1914 134.617 67.1445 135.078 67.1445H136.186ZM21.7871 80.6602H23.0703V86.8242C23.0703 87.3945 22.9492 87.8789 22.707 88.2773C22.4648 88.6758 22.127 88.9785 21.6934 89.1855C21.2598 89.3965 20.7578 89.502 20.1875 89.502C19.9453 89.502 19.6758 89.4668 19.3789 89.3965C19.0859 89.3262 18.8008 89.2129 18.5234 89.0566C18.25 88.9043 18.0215 88.7031 17.8379 88.4531L18.5 87.6211C18.7266 87.8906 18.9766 88.0879 19.25 88.2129C19.5234 88.3379 19.8105 88.4004 20.1113 88.4004C20.4355 88.4004 20.7109 88.3398 20.9375 88.2188C21.168 88.1016 21.3457 87.9277 21.4707 87.6973C21.5957 87.4668 21.6582 87.1855 21.6582 86.8535V82.0957L21.7871 80.6602ZM17.4805 83.9004V83.7773C17.4805 83.2969 17.5391 82.8594 17.6562 82.4648C17.7734 82.0664 17.9414 81.7246 18.1602 81.4395C18.3789 81.1504 18.6445 80.9297 18.957 80.7773C19.2695 80.6211 19.623 80.543 20.0176 80.543C20.4277 80.543 20.7773 80.6172 21.0664 80.7656C21.3594 80.9141 21.6035 81.127 21.7988 81.4043C21.9941 81.6777 22.1465 82.0059 22.2559 82.3887C22.3691 82.7676 22.4531 83.1895 22.5078 83.6543V84.0469C22.457 84.5 22.3711 84.9141 22.25 85.2891C22.1289 85.6641 21.9688 85.9883 21.7695 86.2617C21.5703 86.5352 21.3242 86.7461 21.0312 86.8945C20.7422 87.043 20.4004 87.1172 20.0059 87.1172C19.6191 87.1172 19.2695 87.0371 18.957 86.877C18.6484 86.7168 18.3828 86.4922 18.1602 86.2031C17.9414 85.9141 17.7734 85.5742 17.6562 85.1836C17.5391 84.7891 17.4805 84.3613 17.4805 83.9004ZM18.8926 83.7773V83.9004C18.8926 84.1895 18.9199 84.459 18.9746 84.709C19.0332 84.959 19.1211 85.1797 19.2383 85.3711C19.3594 85.5586 19.5117 85.707 19.6953 85.8164C19.8828 85.9219 20.1035 85.9746 20.3574 85.9746C20.6895 85.9746 20.9609 85.9043 21.1719 85.7637C21.3867 85.623 21.5508 85.4336 21.6641 85.1953C21.7812 84.9531 21.8633 84.6836 21.9102 84.3867V83.3262C21.8867 83.0957 21.8379 82.8809 21.7637 82.6816C21.6934 82.4824 21.5977 82.3086 21.4766 82.1602C21.3555 82.0078 21.2031 81.8906 21.0195 81.8086C20.8359 81.7227 20.6191 81.6797 20.3691 81.6797C20.1152 81.6797 19.8945 81.7344 19.707 81.8438C19.5195 81.9531 19.3652 82.1035 19.2441 82.2949C19.127 82.4863 19.0391 82.709 18.9805 82.9629C18.9219 83.2168 18.8926 83.4883 18.8926 83.7773ZM28.1094 85.7285V82.7051C28.1094 82.4785 28.0684 82.2832 27.9863 82.1191C27.9043 81.9551 27.7793 81.8281 27.6113 81.7383C27.4473 81.6484 27.2402 81.6035 26.9902 81.6035C26.7598 81.6035 26.5605 81.6426 26.3926 81.7207C26.2246 81.7988 26.0938 81.9043 26 82.0371C25.9062 82.1699 25.8594 82.3203 25.8594 82.4883H24.4531C24.4531 82.2383 24.5137 81.9961 24.6348 81.7617C24.7559 81.5273 24.9316 81.3184 25.1621 81.1348C25.3926 80.9512 25.668 80.8066 25.9883 80.7012C26.3086 80.5957 26.668 80.543 27.0664 80.543C27.543 80.543 27.9648 80.623 28.332 80.7832C28.7031 80.9434 28.9941 81.1855 29.2051 81.5098C29.4199 81.8301 29.5273 82.2324 29.5273 82.7168V85.5352C29.5273 85.8242 29.5469 86.084 29.5859 86.3145C29.6289 86.541 29.6895 86.7383 29.7676 86.9062V87H28.3203C28.2539 86.8477 28.2012 86.6543 28.1621 86.4199C28.127 86.1816 28.1094 85.9512 28.1094 85.7285ZM28.3145 83.1445L28.3262 84.0176H27.3125C27.0508 84.0176 26.8203 84.043 26.6211 84.0938C26.4219 84.1406 26.2559 84.2109 26.123 84.3047C25.9902 84.3984 25.8906 84.5117 25.8242 84.6445C25.7578 84.7773 25.7246 84.9277 25.7246 85.0957C25.7246 85.2637 25.7637 85.418 25.8418 85.5586C25.9199 85.6953 26.0332 85.8027 26.1816 85.8809C26.334 85.959 26.5176 85.998 26.7324 85.998C27.0215 85.998 27.2734 85.9395 27.4883 85.8223C27.707 85.7012 27.8789 85.5547 28.0039 85.3828C28.1289 85.207 28.1953 85.041 28.2031 84.8848L28.6602 85.5117C28.6133 85.6719 28.5332 85.8438 28.4199 86.0273C28.3066 86.2109 28.1582 86.3867 27.9746 86.5547C27.7949 86.7188 27.5781 86.8535 27.3242 86.959C27.0742 87.0645 26.7852 87.1172 26.457 87.1172C26.043 87.1172 25.6738 87.0352 25.3496 86.8711C25.0254 86.7031 24.7715 86.4785 24.5879 86.1973C24.4043 85.9121 24.3125 85.5898 24.3125 85.2305C24.3125 84.8945 24.375 84.5977 24.5 84.3398C24.6289 84.0781 24.8164 83.8594 25.0625 83.6836C25.3125 83.5078 25.6172 83.375 25.9766 83.2852C26.3359 83.1914 26.7461 83.1445 27.207 83.1445H28.3145ZM32.5156 78V87H31.0977V78H32.5156ZM36.125 85.8809L37.6777 80.6602H39.1426L36.9395 87H36.0254L36.125 85.8809ZM34.9355 80.6602L36.5176 85.9043L36.5938 87H35.6797L33.4648 80.6602H34.9355ZM43.4961 85.7285V82.7051C43.4961 82.4785 43.4551 82.2832 43.373 82.1191C43.291 81.9551 43.166 81.8281 42.998 81.7383C42.834 81.6484 42.627 81.6035 42.377 81.6035C42.1465 81.6035 41.9473 81.6426 41.7793 81.7207C41.6113 81.7988 41.4805 81.9043 41.3867 82.0371C41.293 82.1699 41.2461 82.3203 41.2461 82.4883H39.8398C39.8398 82.2383 39.9004 81.9961 40.0215 81.7617C40.1426 81.5273 40.3184 81.3184 40.5488 81.1348C40.7793 80.9512 41.0547 80.8066 41.375 80.7012C41.6953 80.5957 42.0547 80.543 42.4531 80.543C42.9297 80.543 43.3516 80.623 43.7188 80.7832C44.0898 80.9434 44.3809 81.1855 44.5918 81.5098C44.8066 81.8301 44.9141 82.2324 44.9141 82.7168V85.5352C44.9141 85.8242 44.9336 86.084 44.9727 86.3145C45.0156 86.541 45.0762 86.7383 45.1543 86.9062V87H43.707C43.6406 86.8477 43.5879 86.6543 43.5488 86.4199C43.5137 86.1816 43.4961 85.9512 43.4961 85.7285ZM43.7012 83.1445L43.7129 84.0176H42.6992C42.4375 84.0176 42.207 84.043 42.0078 84.0938C41.8086 84.1406 41.6426 84.2109 41.5098 84.3047C41.377 84.3984 41.2773 84.5117 41.2109 84.6445C41.1445 84.7773 41.1113 84.9277 41.1113 85.0957C41.1113 85.2637 41.1504 85.418 41.2285 85.5586C41.3066 85.6953 41.4199 85.8027 41.5684 85.8809C41.7207 85.959 41.9043 85.998 42.1191 85.998C42.4082 85.998 42.6602 85.9395 42.875 85.8223C43.0938 85.7012 43.2656 85.5547 43.3906 85.3828C43.5156 85.207 43.582 85.041 43.5898 84.8848L44.0469 85.5117C44 85.6719 43.9199 85.8438 43.8066 86.0273C43.6934 86.2109 43.5449 86.3867 43.3613 86.5547C43.1816 86.7188 42.9648 86.8535 42.7109 86.959C42.4609 87.0645 42.1719 87.1172 41.8438 87.1172C41.4297 87.1172 41.0605 87.0352 40.7363 86.8711C40.4121 86.7031 40.1582 86.4785 39.9746 86.1973C39.791 85.9121 39.6992 85.5898 39.6992 85.2305C39.6992 84.8945 39.7617 84.5977 39.8867 84.3398C40.0156 84.0781 40.2031 83.8594 40.4492 83.6836C40.6992 83.5078 41.0039 83.375 41.3633 83.2852C41.7227 83.1914 42.1328 83.1445 42.5938 83.1445H43.7012ZM47.791 82.0137V87H46.3789V80.6602H47.709L47.791 82.0137ZM47.5391 83.5957L47.082 83.5898C47.0859 83.1406 47.1484 82.7285 47.2695 82.3535C47.3945 81.9785 47.5664 81.6562 47.7852 81.3867C48.0078 81.1172 48.2734 80.9102 48.582 80.7656C48.8906 80.6172 49.2344 80.543 49.6133 80.543C49.918 80.543 50.1934 80.5859 50.4395 80.6719C50.6895 80.7539 50.9023 80.8887 51.0781 81.0762C51.2578 81.2637 51.3945 81.5078 51.4883 81.8086C51.582 82.1055 51.6289 82.4707 51.6289 82.9043V87H50.2109V82.8984C50.2109 82.5938 50.166 82.3535 50.0762 82.1777C49.9902 81.998 49.8633 81.8711 49.6953 81.7969C49.5312 81.7188 49.3262 81.6797 49.0801 81.6797C48.8379 81.6797 48.6211 81.7305 48.4297 81.832C48.2383 81.9336 48.0762 82.0723 47.9434 82.248C47.8145 82.4238 47.7148 82.627 47.6445 82.8574C47.5742 83.0879 47.5391 83.334 47.5391 83.5957ZM52.8008 83.9004V83.7656C52.8008 83.3086 52.8672 82.8848 53 82.4941C53.1328 82.0996 53.3242 81.7578 53.5742 81.4688C53.8281 81.1758 54.1367 80.9492 54.5 80.7891C54.8672 80.625 55.2812 80.543 55.7422 80.543C56.207 80.543 56.6211 80.625 56.9844 80.7891C57.3516 80.9492 57.6621 81.1758 57.916 81.4688C58.1699 81.7578 58.3633 82.0996 58.4961 82.4941C58.6289 82.8848 58.6953 83.3086 58.6953 83.7656V83.9004C58.6953 84.3574 58.6289 84.7812 58.4961 85.1719C58.3633 85.5625 58.1699 85.9043 57.916 86.1973C57.6621 86.4863 57.3535 86.7129 56.9902 86.877C56.627 87.0371 56.2148 87.1172 55.7539 87.1172C55.2891 87.1172 54.873 87.0371 54.5059 86.877C54.1426 86.7129 53.834 86.4863 53.5801 86.1973C53.3262 85.9043 53.1328 85.5625 53 85.1719C52.8672 84.7812 52.8008 84.3574 52.8008 83.9004ZM54.2129 83.7656V83.9004C54.2129 84.1855 54.2422 84.4551 54.3008 84.709C54.3594 84.9629 54.4512 85.1855 54.5762 85.377C54.7012 85.5684 54.8613 85.7188 55.0566 85.8281C55.252 85.9375 55.4844 85.9922 55.7539 85.9922C56.0156 85.9922 56.2422 85.9375 56.4336 85.8281C56.6289 85.7188 56.7891 85.5684 56.9141 85.377C57.0391 85.1855 57.1309 84.9629 57.1895 84.709C57.252 84.4551 57.2832 84.1855 57.2832 83.9004V83.7656C57.2832 83.4844 57.252 83.2188 57.1895 82.9688C57.1309 82.7148 57.0371 82.4902 56.9082 82.2949C56.7832 82.0996 56.623 81.9473 56.4277 81.8379C56.2363 81.7246 56.0078 81.668 55.7422 81.668C55.4766 81.668 55.2461 81.7246 55.0508 81.8379C54.8594 81.9473 54.7012 82.0996 54.5762 82.2949C54.4512 82.4902 54.3594 82.7148 54.3008 82.9688C54.2422 83.2188 54.2129 83.4844 54.2129 83.7656ZM61.291 81.9492V87H59.8789V80.6602H61.209L61.291 81.9492ZM61.0625 83.5957L60.582 83.5898C60.582 83.1523 60.6367 82.748 60.7461 82.377C60.8555 82.0059 61.0156 81.6836 61.2266 81.4102C61.4375 81.1328 61.6992 80.9199 62.0117 80.7715C62.3281 80.6191 62.6934 80.543 63.1074 80.543C63.3965 80.543 63.6602 80.5859 63.8984 80.6719C64.1406 80.7539 64.3496 80.8848 64.5254 81.0645C64.7051 81.2441 64.8418 81.4746 64.9355 81.7559C65.0332 82.0371 65.082 82.377 65.082 82.7754V87H63.6699V82.8984C63.6699 82.5898 63.623 82.3477 63.5293 82.1719C63.4395 81.9961 63.3086 81.8711 63.1367 81.7969C62.9688 81.7188 62.7676 81.6797 62.5332 81.6797C62.2676 81.6797 62.041 81.7305 61.8535 81.832C61.6699 81.9336 61.5195 82.0723 61.4023 82.248C61.2852 82.4238 61.1992 82.627 61.1445 82.8574C61.0898 83.0879 61.0625 83.334 61.0625 83.5957ZM64.9941 83.2207L64.332 83.3672C64.332 82.9844 64.3848 82.623 64.4902 82.2832C64.5996 81.9395 64.7578 81.6387 64.9648 81.3809C65.1758 81.1191 65.4355 80.9141 65.7441 80.7656C66.0527 80.6172 66.4062 80.543 66.8047 80.543C67.1289 80.543 67.418 80.5879 67.6719 80.6777C67.9297 80.7637 68.1484 80.9004 68.3281 81.0879C68.5078 81.2754 68.6445 81.5195 68.7383 81.8203C68.832 82.1172 68.8789 82.4766 68.8789 82.8984V87H67.4609V82.8926C67.4609 82.5723 67.4141 82.3242 67.3203 82.1484C67.2305 81.9727 67.1016 81.8516 66.9336 81.7852C66.7656 81.7148 66.5645 81.6797 66.3301 81.6797C66.1113 81.6797 65.918 81.7207 65.75 81.8027C65.5859 81.8809 65.4473 81.9922 65.334 82.1367C65.2207 82.2773 65.1348 82.4395 65.0762 82.623C65.0215 82.8066 64.9941 83.0059 64.9941 83.2207ZM73.127 87.1172C72.6582 87.1172 72.2344 87.041 71.8555 86.8887C71.4805 86.7324 71.1602 86.5156 70.8945 86.2383C70.6328 85.9609 70.4316 85.6348 70.291 85.2598C70.1504 84.8848 70.0801 84.4805 70.0801 84.0469V83.8125C70.0801 83.3164 70.1523 82.8672 70.2969 82.4648C70.4414 82.0625 70.6426 81.7188 70.9004 81.4336C71.1582 81.1445 71.4629 80.9238 71.8145 80.7715C72.166 80.6191 72.5469 80.543 72.957 80.543C73.4102 80.543 73.8066 80.6191 74.1465 80.7715C74.4863 80.9238 74.7676 81.1387 74.9902 81.416C75.2168 81.6895 75.3848 82.0156 75.4941 82.3945C75.6074 82.7734 75.6641 83.1914 75.6641 83.6484V84.252H70.7656V83.2383H74.2695V83.127C74.2617 82.873 74.2109 82.6348 74.1172 82.4121C74.0273 82.1895 73.8887 82.0098 73.7012 81.873C73.5137 81.7363 73.2637 81.668 72.9512 81.668C72.7168 81.668 72.5078 81.7188 72.3242 81.8203C72.1445 81.918 71.9941 82.0605 71.873 82.248C71.752 82.4355 71.6582 82.6621 71.5918 82.9277C71.5293 83.1895 71.498 83.4844 71.498 83.8125V84.0469C71.498 84.3242 71.5352 84.582 71.6094 84.8203C71.6875 85.0547 71.8008 85.2598 71.9492 85.4355C72.0977 85.6113 72.2773 85.75 72.4883 85.8516C72.6992 85.9492 72.9395 85.998 73.209 85.998C73.5488 85.998 73.8516 85.9297 74.1172 85.793C74.3828 85.6562 74.6133 85.4629 74.8086 85.2129L75.5527 85.9336C75.416 86.1328 75.2383 86.3242 75.0195 86.5078C74.8008 86.6875 74.5332 86.834 74.2168 86.9473C73.9043 87.0605 73.541 87.1172 73.127 87.1172ZM79.6719 80.6602V81.6914H76.0977V80.6602H79.6719ZM77.1289 79.1074H78.541V85.248C78.541 85.4434 78.5684 85.5938 78.623 85.6992C78.6816 85.8008 78.7617 85.8691 78.8633 85.9043C78.9648 85.9395 79.084 85.957 79.2207 85.957C79.3184 85.957 79.4121 85.9512 79.502 85.9395C79.5918 85.9277 79.6641 85.916 79.7188 85.9043L79.7246 86.9824C79.6074 87.0176 79.4707 87.0488 79.3145 87.0762C79.1621 87.1035 78.9863 87.1172 78.7871 87.1172C78.4629 87.1172 78.1758 87.0605 77.9258 86.9473C77.6758 86.8301 77.4805 86.6406 77.3398 86.3789C77.1992 86.1172 77.1289 85.7695 77.1289 85.3359V79.1074ZM83.5566 87.1172C83.0879 87.1172 82.6641 87.041 82.2852 86.8887C81.9102 86.7324 81.5898 86.5156 81.3242 86.2383C81.0625 85.9609 80.8613 85.6348 80.7207 85.2598C80.5801 84.8848 80.5098 84.4805 80.5098 84.0469V83.8125C80.5098 83.3164 80.582 82.8672 80.7266 82.4648C80.8711 82.0625 81.0723 81.7188 81.3301 81.4336C81.5879 81.1445 81.8926 80.9238 82.2441 80.7715C82.5957 80.6191 82.9766 80.543 83.3867 80.543C83.8398 80.543 84.2363 80.6191 84.5762 80.7715C84.916 80.9238 85.1973 81.1387 85.4199 81.416C85.6465 81.6895 85.8145 82.0156 85.9238 82.3945C86.0371 82.7734 86.0938 83.1914 86.0938 83.6484V84.252H81.1953V83.2383H84.6992V83.127C84.6914 82.873 84.6406 82.6348 84.5469 82.4121C84.457 82.1895 84.3184 82.0098 84.1309 81.873C83.9434 81.7363 83.6934 81.668 83.3809 81.668C83.1465 81.668 82.9375 81.7188 82.7539 81.8203C82.5742 81.918 82.4238 82.0605 82.3027 82.248C82.1816 82.4355 82.0879 82.6621 82.0215 82.9277C81.959 83.1895 81.9277 83.4844 81.9277 83.8125V84.0469C81.9277 84.3242 81.9648 84.582 82.0391 84.8203C82.1172 85.0547 82.2305 85.2598 82.3789 85.4355C82.5273 85.6113 82.707 85.75 82.918 85.8516C83.1289 85.9492 83.3691 85.998 83.6387 85.998C83.9785 85.998 84.2812 85.9297 84.5469 85.793C84.8125 85.6562 85.043 85.4629 85.2383 85.2129L85.9824 85.9336C85.8457 86.1328 85.668 86.3242 85.4492 86.5078C85.2305 86.6875 84.9629 86.834 84.6465 86.9473C84.334 87.0605 83.9707 87.1172 83.5566 87.1172ZM88.6133 81.8672V87H87.2012V80.6602H88.5488L88.6133 81.8672ZM90.5527 80.6191L90.541 81.9316C90.4551 81.916 90.3613 81.9043 90.2598 81.8965C90.1621 81.8887 90.0645 81.8848 89.9668 81.8848C89.7246 81.8848 89.5117 81.9199 89.3281 81.9902C89.1445 82.0566 88.9902 82.1543 88.8652 82.2832C88.7441 82.4082 88.6504 82.5605 88.584 82.7402C88.5176 82.9199 88.4785 83.1211 88.4668 83.3438L88.1445 83.3672C88.1445 82.9688 88.1836 82.5996 88.2617 82.2598C88.3398 81.9199 88.457 81.6211 88.6133 81.3633C88.7734 81.1055 88.9727 80.9043 89.2109 80.7598C89.4531 80.6152 89.7324 80.543 90.0488 80.543C90.1348 80.543 90.2266 80.5508 90.3242 80.5664C90.4258 80.582 90.502 80.5996 90.5527 80.6191ZM94.1562 83.9004V83.7656C94.1562 83.3086 94.2227 82.8848 94.3555 82.4941C94.4883 82.0996 94.6797 81.7578 94.9297 81.4688C95.1836 81.1758 95.4922 80.9492 95.8555 80.7891C96.2227 80.625 96.6367 80.543 97.0977 80.543C97.5625 80.543 97.9766 80.625 98.3398 80.7891C98.707 80.9492 99.0176 81.1758 99.2715 81.4688C99.5254 81.7578 99.7188 82.0996 99.8516 82.4941C99.9844 82.8848 100.051 83.3086 100.051 83.7656V83.9004C100.051 84.3574 99.9844 84.7812 99.8516 85.1719C99.7188 85.5625 99.5254 85.9043 99.2715 86.1973C99.0176 86.4863 98.709 86.7129 98.3457 86.877C97.9824 87.0371 97.5703 87.1172 97.1094 87.1172C96.6445 87.1172 96.2285 87.0371 95.8613 86.877C95.498 86.7129 95.1895 86.4863 94.9355 86.1973C94.6816 85.9043 94.4883 85.5625 94.3555 85.1719C94.2227 84.7812 94.1562 84.3574 94.1562 83.9004ZM95.5684 83.7656V83.9004C95.5684 84.1855 95.5977 84.4551 95.6562 84.709C95.7148 84.9629 95.8066 85.1855 95.9316 85.377C96.0566 85.5684 96.2168 85.7188 96.4121 85.8281C96.6074 85.9375 96.8398 85.9922 97.1094 85.9922C97.3711 85.9922 97.5977 85.9375 97.7891 85.8281C97.9844 85.7188 98.1445 85.5684 98.2695 85.377C98.3945 85.1855 98.4863 84.9629 98.5449 84.709C98.6074 84.4551 98.6387 84.1855 98.6387 83.9004V83.7656C98.6387 83.4844 98.6074 83.2188 98.5449 82.9688C98.4863 82.7148 98.3926 82.4902 98.2637 82.2949C98.1387 82.0996 97.9785 81.9473 97.7832 81.8379C97.5918 81.7246 97.3633 81.668 97.0977 81.668C96.832 81.668 96.6016 81.7246 96.4062 81.8379C96.2148 81.9473 96.0566 82.0996 95.9316 82.2949C95.8066 82.4902 95.7148 82.7148 95.6562 82.9688C95.5977 83.2188 95.5684 83.4844 95.5684 83.7656ZM102.652 81.8789V89.4375H101.24V80.6602H102.541L102.652 81.8789ZM106.783 83.7715V83.8945C106.783 84.3555 106.729 84.7832 106.619 85.1777C106.514 85.5684 106.355 85.9102 106.145 86.2031C105.938 86.4922 105.682 86.7168 105.377 86.877C105.072 87.0371 104.721 87.1172 104.322 87.1172C103.928 87.1172 103.582 87.0449 103.285 86.9004C102.992 86.752 102.744 86.543 102.541 86.2734C102.338 86.0039 102.174 85.6875 102.049 85.3242C101.928 84.957 101.842 84.5547 101.791 84.1172V83.6426C101.842 83.1777 101.928 82.7559 102.049 82.377C102.174 81.998 102.338 81.6719 102.541 81.3984C102.744 81.125 102.992 80.9141 103.285 80.7656C103.578 80.6172 103.92 80.543 104.311 80.543C104.709 80.543 105.062 80.6211 105.371 80.7773C105.68 80.9297 105.939 81.1484 106.15 81.4336C106.361 81.7148 106.52 82.0547 106.625 82.4531C106.73 82.8477 106.783 83.2871 106.783 83.7715ZM105.371 83.8945V83.7715C105.371 83.4785 105.344 83.207 105.289 82.957C105.234 82.7031 105.148 82.4805 105.031 82.2891C104.914 82.0977 104.764 81.9492 104.58 81.8438C104.4 81.7344 104.184 81.6797 103.93 81.6797C103.68 81.6797 103.465 81.7227 103.285 81.8086C103.105 81.8906 102.955 82.0059 102.834 82.1543C102.713 82.3027 102.619 82.4766 102.553 82.6758C102.486 82.8711 102.439 83.084 102.412 83.3145V84.4512C102.459 84.7324 102.539 84.9902 102.652 85.2246C102.766 85.459 102.926 85.6465 103.133 85.7871C103.344 85.9238 103.613 85.9922 103.941 85.9922C104.195 85.9922 104.412 85.9375 104.592 85.8281C104.771 85.7188 104.918 85.5684 105.031 85.377C105.148 85.1816 105.234 84.957 105.289 84.7031C105.344 84.4492 105.371 84.1797 105.371 83.8945ZM110.779 87.1172C110.311 87.1172 109.887 87.041 109.508 86.8887C109.133 86.7324 108.812 86.5156 108.547 86.2383C108.285 85.9609 108.084 85.6348 107.943 85.2598C107.803 84.8848 107.732 84.4805 107.732 84.0469V83.8125C107.732 83.3164 107.805 82.8672 107.949 82.4648C108.094 82.0625 108.295 81.7188 108.553 81.4336C108.811 81.1445 109.115 80.9238 109.467 80.7715C109.818 80.6191 110.199 80.543 110.609 80.543C111.062 80.543 111.459 80.6191 111.799 80.7715C112.139 80.9238 112.42 81.1387 112.643 81.416C112.869 81.6895 113.037 82.0156 113.146 82.3945C113.26 82.7734 113.316 83.1914 113.316 83.6484V84.252H108.418V83.2383H111.922V83.127C111.914 82.873 111.863 82.6348 111.77 82.4121C111.68 82.1895 111.541 82.0098 111.354 81.873C111.166 81.7363 110.916 81.668 110.604 81.668C110.369 81.668 110.16 81.7188 109.977 81.8203C109.797 81.918 109.646 82.0605 109.525 82.248C109.404 82.4355 109.311 82.6621 109.244 82.9277C109.182 83.1895 109.15 83.4844 109.15 83.8125V84.0469C109.15 84.3242 109.188 84.582 109.262 84.8203C109.34 85.0547 109.453 85.2598 109.602 85.4355C109.75 85.6113 109.93 85.75 110.141 85.8516C110.352 85.9492 110.592 85.998 110.861 85.998C111.201 85.998 111.504 85.9297 111.77 85.793C112.035 85.6562 112.266 85.4629 112.461 85.2129L113.205 85.9336C113.068 86.1328 112.891 86.3242 112.672 86.5078C112.453 86.6875 112.186 86.834 111.869 86.9473C111.557 87.0605 111.193 87.1172 110.779 87.1172ZM115.836 81.8672V87H114.424V80.6602H115.771L115.836 81.8672ZM117.775 80.6191L117.764 81.9316C117.678 81.916 117.584 81.9043 117.482 81.8965C117.385 81.8887 117.287 81.8848 117.189 81.8848C116.947 81.8848 116.734 81.9199 116.551 81.9902C116.367 82.0566 116.213 82.1543 116.088 82.2832C115.967 82.4082 115.873 82.5605 115.807 82.7402C115.74 82.9199 115.701 83.1211 115.689 83.3438L115.367 83.3672C115.367 82.9688 115.406 82.5996 115.484 82.2598C115.562 81.9199 115.68 81.6211 115.836 81.3633C115.996 81.1055 116.195 80.9043 116.434 80.7598C116.676 80.6152 116.955 80.543 117.271 80.543C117.357 80.543 117.449 80.5508 117.547 80.5664C117.648 80.582 117.725 80.5996 117.775 80.6191ZM122.023 85.7285V82.7051C122.023 82.4785 121.982 82.2832 121.9 82.1191C121.818 81.9551 121.693 81.8281 121.525 81.7383C121.361 81.6484 121.154 81.6035 120.904 81.6035C120.674 81.6035 120.475 81.6426 120.307 81.7207C120.139 81.7988 120.008 81.9043 119.914 82.0371C119.82 82.1699 119.773 82.3203 119.773 82.4883H118.367C118.367 82.2383 118.428 81.9961 118.549 81.7617C118.67 81.5273 118.846 81.3184 119.076 81.1348C119.307 80.9512 119.582 80.8066 119.902 80.7012C120.223 80.5957 120.582 80.543 120.98 80.543C121.457 80.543 121.879 80.623 122.246 80.7832C122.617 80.9434 122.908 81.1855 123.119 81.5098C123.334 81.8301 123.441 82.2324 123.441 82.7168V85.5352C123.441 85.8242 123.461 86.084 123.5 86.3145C123.543 86.541 123.604 86.7383 123.682 86.9062V87H122.234C122.168 86.8477 122.115 86.6543 122.076 86.4199C122.041 86.1816 122.023 85.9512 122.023 85.7285ZM122.229 83.1445L122.24 84.0176H121.227C120.965 84.0176 120.734 84.043 120.535 84.0938C120.336 84.1406 120.17 84.2109 120.037 84.3047C119.904 84.3984 119.805 84.5117 119.738 84.6445C119.672 84.7773 119.639 84.9277 119.639 85.0957C119.639 85.2637 119.678 85.418 119.756 85.5586C119.834 85.6953 119.947 85.8027 120.096 85.8809C120.248 85.959 120.432 85.998 120.646 85.998C120.936 85.998 121.188 85.9395 121.402 85.8223C121.621 85.7012 121.793 85.5547 121.918 85.3828C122.043 85.207 122.109 85.041 122.117 84.8848L122.574 85.5117C122.527 85.6719 122.447 85.8438 122.334 86.0273C122.221 86.2109 122.072 86.3867 121.889 86.5547C121.709 86.7188 121.492 86.8535 121.238 86.959C120.988 87.0645 120.699 87.1172 120.371 87.1172C119.957 87.1172 119.588 87.0352 119.264 86.8711C118.939 86.7031 118.686 86.4785 118.502 86.1973C118.318 85.9121 118.227 85.5898 118.227 85.2305C118.227 84.8945 118.289 84.5977 118.414 84.3398C118.543 84.0781 118.73 83.8594 118.977 83.6836C119.227 83.5078 119.531 83.375 119.891 83.2852C120.25 83.1914 120.66 83.1445 121.121 83.1445H122.229ZM127.824 80.6602V81.6914H124.25V80.6602H127.824ZM125.281 79.1074H126.693V85.248C126.693 85.4434 126.721 85.5938 126.775 85.6992C126.834 85.8008 126.914 85.8691 127.016 85.9043C127.117 85.9395 127.236 85.957 127.373 85.957C127.471 85.957 127.564 85.9512 127.654 85.9395C127.744 85.9277 127.816 85.916 127.871 85.9043L127.877 86.9824C127.76 87.0176 127.623 87.0488 127.467 87.0762C127.314 87.1035 127.139 87.1172 126.939 87.1172C126.615 87.1172 126.328 87.0605 126.078 86.9473C125.828 86.8301 125.633 86.6406 125.492 86.3789C125.352 86.1172 125.281 85.7695 125.281 85.3359V79.1074ZM131.709 87.1172C131.24 87.1172 130.816 87.041 130.438 86.8887C130.062 86.7324 129.742 86.5156 129.477 86.2383C129.215 85.9609 129.014 85.6348 128.873 85.2598C128.732 84.8848 128.662 84.4805 128.662 84.0469V83.8125C128.662 83.3164 128.734 82.8672 128.879 82.4648C129.023 82.0625 129.225 81.7188 129.482 81.4336C129.74 81.1445 130.045 80.9238 130.396 80.7715C130.748 80.6191 131.129 80.543 131.539 80.543C131.992 80.543 132.389 80.6191 132.729 80.7715C133.068 80.9238 133.35 81.1387 133.572 81.416C133.799 81.6895 133.967 82.0156 134.076 82.3945C134.189 82.7734 134.246 83.1914 134.246 83.6484V84.252H129.348V83.2383H132.852V83.127C132.844 82.873 132.793 82.6348 132.699 82.4121C132.609 82.1895 132.471 82.0098 132.283 81.873C132.096 81.7363 131.846 81.668 131.533 81.668C131.299 81.668 131.09 81.7188 130.906 81.8203C130.727 81.918 130.576 82.0605 130.455 82.248C130.334 82.4355 130.24 82.6621 130.174 82.9277C130.111 83.1895 130.08 83.4844 130.08 83.8125V84.0469C130.08 84.3242 130.117 84.582 130.191 84.8203C130.27 85.0547 130.383 85.2598 130.531 85.4355C130.68 85.6113 130.859 85.75 131.07 85.8516C131.281 85.9492 131.521 85.998 131.791 85.998C132.131 85.998 132.434 85.9297 132.699 85.793C132.965 85.6562 133.195 85.4629 133.391 85.2129L134.135 85.9336C133.998 86.1328 133.82 86.3242 133.602 86.5078C133.383 86.6875 133.115 86.834 132.799 86.9473C132.486 87.0605 132.123 87.1172 131.709 87.1172ZM138.066 83.9004V83.7656C138.066 83.3086 138.133 82.8848 138.266 82.4941C138.398 82.0996 138.59 81.7578 138.84 81.4688C139.094 81.1758 139.402 80.9492 139.766 80.7891C140.133 80.625 140.547 80.543 141.008 80.543C141.473 80.543 141.887 80.625 142.25 80.7891C142.617 80.9492 142.928 81.1758 143.182 81.4688C143.436 81.7578 143.629 82.0996 143.762 82.4941C143.895 82.8848 143.961 83.3086 143.961 83.7656V83.9004C143.961 84.3574 143.895 84.7812 143.762 85.1719C143.629 85.5625 143.436 85.9043 143.182 86.1973C142.928 86.4863 142.619 86.7129 142.256 86.877C141.893 87.0371 141.48 87.1172 141.02 87.1172C140.555 87.1172 140.139 87.0371 139.771 86.877C139.408 86.7129 139.1 86.4863 138.846 86.1973C138.592 85.9043 138.398 85.5625 138.266 85.1719C138.133 84.7812 138.066 84.3574 138.066 83.9004ZM139.479 83.7656V83.9004C139.479 84.1855 139.508 84.4551 139.566 84.709C139.625 84.9629 139.717 85.1855 139.842 85.377C139.967 85.5684 140.127 85.7188 140.322 85.8281C140.518 85.9375 140.75 85.9922 141.02 85.9922C141.281 85.9922 141.508 85.9375 141.699 85.8281C141.895 85.7188 142.055 85.5684 142.18 85.377C142.305 85.1855 142.396 84.9629 142.455 84.709C142.518 84.4551 142.549 84.1855 142.549 83.9004V83.7656C142.549 83.4844 142.518 83.2188 142.455 82.9688C142.396 82.7148 142.303 82.4902 142.174 82.2949C142.049 82.0996 141.889 81.9473 141.693 81.8379C141.502 81.7246 141.273 81.668 141.008 81.668C140.742 81.668 140.512 81.7246 140.316 81.8379C140.125 81.9473 139.967 82.0996 139.842 82.2949C139.717 82.4902 139.625 82.7148 139.566 82.9688C139.508 83.2188 139.479 83.4844 139.479 83.7656ZM146.545 82.0137V87H145.133V80.6602H146.463L146.545 82.0137ZM146.293 83.5957L145.836 83.5898C145.84 83.1406 145.902 82.7285 146.023 82.3535C146.148 81.9785 146.32 81.6562 146.539 81.3867C146.762 81.1172 147.027 80.9102 147.336 80.7656C147.645 80.6172 147.988 80.543 148.367 80.543C148.672 80.543 148.947 80.5859 149.193 80.6719C149.443 80.7539 149.656 80.8887 149.832 81.0762C150.012 81.2637 150.148 81.5078 150.242 81.8086C150.336 82.1055 150.383 82.4707 150.383 82.9043V87H148.965V82.8984C148.965 82.5938 148.92 82.3535 148.83 82.1777C148.744 81.998 148.617 81.8711 148.449 81.7969C148.285 81.7188 148.08 81.6797 147.834 81.6797C147.592 81.6797 147.375 81.7305 147.184 81.832C146.992 81.9336 146.83 82.0723 146.697 82.248C146.568 82.4238 146.469 82.627 146.398 82.8574C146.328 83.0879 146.293 83.334 146.293 83.5957ZM154.467 84.4863H153.16C153.164 84.123 153.195 83.8184 153.254 83.5723C153.312 83.3223 153.41 83.0957 153.547 82.8926C153.688 82.6895 153.873 82.4746 154.104 82.248C154.283 82.0762 154.445 81.9141 154.59 81.7617C154.734 81.6055 154.85 81.4414 154.936 81.2695C155.021 81.0938 155.064 80.8926 155.064 80.666C155.064 80.4199 155.023 80.2109 154.941 80.0391C154.859 79.8672 154.738 79.7363 154.578 79.6465C154.422 79.5566 154.227 79.5117 153.992 79.5117C153.797 79.5117 153.613 79.5508 153.441 79.6289C153.27 79.7031 153.131 79.8203 153.025 79.9805C152.92 80.1367 152.863 80.3438 152.855 80.6016H151.443C151.451 80.1094 151.568 79.6953 151.795 79.3594C152.021 79.0234 152.326 78.7715 152.709 78.6035C153.092 78.4355 153.52 78.3516 153.992 78.3516C154.516 78.3516 154.963 78.4414 155.334 78.6211C155.705 78.7969 155.988 79.0547 156.184 79.3945C156.383 79.7305 156.482 80.1367 156.482 80.6133C156.482 80.957 156.414 81.2695 156.277 81.5508C156.141 81.8281 155.963 82.0879 155.744 82.3301C155.525 82.5684 155.289 82.8066 155.035 83.0449C154.816 83.2441 154.668 83.4609 154.59 83.6953C154.512 83.9258 154.471 84.1895 154.467 84.4863ZM153.043 86.3145C153.043 86.1035 153.115 85.9258 153.26 85.7812C153.404 85.6328 153.602 85.5586 153.852 85.5586C154.102 85.5586 154.299 85.6328 154.443 85.7812C154.588 85.9258 154.66 86.1035 154.66 86.3145C154.66 86.5254 154.588 86.7051 154.443 86.8535C154.299 86.998 154.102 87.0703 153.852 87.0703C153.602 87.0703 153.404 86.998 153.26 86.8535C153.115 86.7051 153.043 86.5254 153.043 86.3145Z" fill="#363A48"/>
<path d="M31.6699 127.5V127.969C31.6699 128.613 31.5859 129.191 31.418 129.703C31.25 130.215 31.0098 130.65 30.6973 131.01C30.3887 131.369 30.0176 131.645 29.584 131.836C29.1504 132.023 28.6699 132.117 28.1426 132.117C27.6191 132.117 27.1406 132.023 26.707 131.836C26.2773 131.645 25.9043 131.369 25.5879 131.01C25.2715 130.65 25.0254 130.215 24.8496 129.703C24.6777 129.191 24.5918 128.613 24.5918 127.969V127.5C24.5918 126.855 24.6777 126.279 24.8496 125.771C25.0215 125.26 25.2637 124.824 25.5762 124.465C25.8926 124.102 26.2656 123.826 26.6953 123.639C27.1289 123.447 27.6074 123.352 28.1309 123.352C28.6582 123.352 29.1387 123.447 29.5723 123.639C30.0059 123.826 30.3789 124.102 30.6914 124.465C31.0039 124.824 31.2441 125.26 31.4121 125.771C31.584 126.279 31.6699 126.855 31.6699 127.5ZM30.1992 127.969V127.488C30.1992 127.012 30.1523 126.592 30.0586 126.229C29.9688 125.861 29.834 125.555 29.6543 125.309C29.4785 125.059 29.2617 124.871 29.0039 124.746C28.7461 124.617 28.4551 124.553 28.1309 124.553C27.8066 124.553 27.5176 124.617 27.2637 124.746C27.0098 124.871 26.793 125.059 26.6133 125.309C26.4375 125.555 26.3027 125.861 26.209 126.229C26.1152 126.592 26.0684 127.012 26.0684 127.488V127.969C26.0684 128.445 26.1152 128.867 26.209 129.234C26.3027 129.602 26.4395 129.912 26.6191 130.166C26.8027 130.416 27.0215 130.605 27.2754 130.734C27.5293 130.859 27.8184 130.922 28.1426 130.922C28.4707 130.922 28.7617 130.859 29.0156 130.734C29.2695 130.605 29.4844 130.416 29.6602 130.166C29.8359 129.912 29.9688 129.602 30.0586 129.234C30.1523 128.867 30.1992 128.445 30.1992 127.969ZM34.418 126.879V134.438H33.0059V125.66H34.3066L34.418 126.879ZM38.5488 128.771V128.895C38.5488 129.355 38.4941 129.783 38.3848 130.178C38.2793 130.568 38.1211 130.91 37.9102 131.203C37.7031 131.492 37.4473 131.717 37.1426 131.877C36.8379 132.037 36.4863 132.117 36.0879 132.117C35.6934 132.117 35.3477 132.045 35.0508 131.9C34.7578 131.752 34.5098 131.543 34.3066 131.273C34.1035 131.004 33.9395 130.688 33.8145 130.324C33.6934 129.957 33.6074 129.555 33.5566 129.117V128.643C33.6074 128.178 33.6934 127.756 33.8145 127.377C33.9395 126.998 34.1035 126.672 34.3066 126.398C34.5098 126.125 34.7578 125.914 35.0508 125.766C35.3438 125.617 35.6855 125.543 36.0762 125.543C36.4746 125.543 36.8281 125.621 37.1367 125.777C37.4453 125.93 37.7051 126.148 37.916 126.434C38.127 126.715 38.2852 127.055 38.3906 127.453C38.4961 127.848 38.5488 128.287 38.5488 128.771ZM37.1367 128.895V128.771C37.1367 128.479 37.1094 128.207 37.0547 127.957C37 127.703 36.9141 127.48 36.7969 127.289C36.6797 127.098 36.5293 126.949 36.3457 126.844C36.166 126.734 35.9492 126.68 35.6953 126.68C35.4453 126.68 35.2305 126.723 35.0508 126.809C34.8711 126.891 34.7207 127.006 34.5996 127.154C34.4785 127.303 34.3848 127.477 34.3184 127.676C34.252 127.871 34.2051 128.084 34.1777 128.314V129.451C34.2246 129.732 34.3047 129.99 34.418 130.225C34.5312 130.459 34.6914 130.646 34.8984 130.787C35.1094 130.924 35.3789 130.992 35.707 130.992C35.9609 130.992 36.1777 130.938 36.3574 130.828C36.5371 130.719 36.6836 130.568 36.7969 130.377C36.9141 130.182 37 129.957 37.0547 129.703C37.1094 129.449 37.1367 129.18 37.1367 128.895ZM42.6562 125.66V126.691H39.082V125.66H42.6562ZM40.1133 124.107H41.5254V130.248C41.5254 130.443 41.5527 130.594 41.6074 130.699C41.666 130.801 41.7461 130.869 41.8477 130.904C41.9492 130.939 42.0684 130.957 42.2051 130.957C42.3027 130.957 42.3965 130.951 42.4863 130.939C42.5762 130.928 42.6484 130.916 42.7031 130.904L42.709 131.982C42.5918 132.018 42.4551 132.049 42.2988 132.076C42.1465 132.104 41.9707 132.117 41.7715 132.117C41.4473 132.117 41.1602 132.061 40.9102 131.947C40.6602 131.83 40.4648 131.641 40.3242 131.379C40.1836 131.117 40.1133 130.77 40.1133 130.336V124.107ZM45.2578 125.66V132H43.8398V125.66H45.2578ZM43.7461 123.996C43.7461 123.781 43.8164 123.604 43.957 123.463C44.1016 123.318 44.3008 123.246 44.5547 123.246C44.8047 123.246 45.002 123.318 45.1465 123.463C45.291 123.604 45.3633 123.781 45.3633 123.996C45.3633 124.207 45.291 124.383 45.1465 124.523C45.002 124.664 44.8047 124.734 44.5547 124.734C44.3008 124.734 44.1016 124.664 43.957 124.523C43.8164 124.383 43.7461 124.207 43.7461 123.996ZM46.5352 128.9V128.766C46.5352 128.309 46.6016 127.885 46.7344 127.494C46.8672 127.1 47.0586 126.758 47.3086 126.469C47.5625 126.176 47.8711 125.949 48.2344 125.789C48.6016 125.625 49.0156 125.543 49.4766 125.543C49.9414 125.543 50.3555 125.625 50.7188 125.789C51.0859 125.949 51.3965 126.176 51.6504 126.469C51.9043 126.758 52.0977 127.1 52.2305 127.494C52.3633 127.885 52.4297 128.309 52.4297 128.766V128.9C52.4297 129.357 52.3633 129.781 52.2305 130.172C52.0977 130.562 51.9043 130.904 51.6504 131.197C51.3965 131.486 51.0879 131.713 50.7246 131.877C50.3613 132.037 49.9492 132.117 49.4883 132.117C49.0234 132.117 48.6074 132.037 48.2402 131.877C47.877 131.713 47.5684 131.486 47.3145 131.197C47.0605 130.904 46.8672 130.562 46.7344 130.172C46.6016 129.781 46.5352 129.357 46.5352 128.9ZM47.9473 128.766V128.9C47.9473 129.186 47.9766 129.455 48.0352 129.709C48.0938 129.963 48.1855 130.186 48.3105 130.377C48.4355 130.568 48.5957 130.719 48.791 130.828C48.9863 130.938 49.2188 130.992 49.4883 130.992C49.75 130.992 49.9766 130.938 50.168 130.828C50.3633 130.719 50.5234 130.568 50.6484 130.377C50.7734 130.186 50.8652 129.963 50.9238 129.709C50.9863 129.455 51.0176 129.186 51.0176 128.9V128.766C51.0176 128.484 50.9863 128.219 50.9238 127.969C50.8652 127.715 50.7715 127.49 50.6426 127.295C50.5176 127.1 50.3574 126.947 50.1621 126.838C49.9707 126.725 49.7422 126.668 49.4766 126.668C49.2109 126.668 48.9805 126.725 48.7852 126.838C48.5938 126.947 48.4355 127.1 48.3105 127.295C48.1855 127.49 48.0938 127.715 48.0352 127.969C47.9766 128.219 47.9473 128.484 47.9473 128.766ZM55.0137 127.014V132H53.6016V125.66H54.9316L55.0137 127.014ZM54.7617 128.596L54.3047 128.59C54.3086 128.141 54.3711 127.729 54.4922 127.354C54.6172 126.979 54.7891 126.656 55.0078 126.387C55.2305 126.117 55.4961 125.91 55.8047 125.766C56.1133 125.617 56.457 125.543 56.8359 125.543C57.1406 125.543 57.416 125.586 57.6621 125.672C57.9121 125.754 58.125 125.889 58.3008 126.076C58.4805 126.264 58.6172 126.508 58.7109 126.809C58.8047 127.105 58.8516 127.471 58.8516 127.904V132H57.4336V127.898C57.4336 127.594 57.3887 127.354 57.2988 127.178C57.2129 126.998 57.0859 126.871 56.918 126.797C56.7539 126.719 56.5488 126.68 56.3027 126.68C56.0605 126.68 55.8438 126.73 55.6523 126.832C55.4609 126.934 55.2988 127.072 55.166 127.248C55.0371 127.424 54.9375 127.627 54.8672 127.857C54.7969 128.088 54.7617 128.334 54.7617 128.596ZM66.7441 124.605L64.1953 132H62.6543L65.8652 123.469H66.8496L66.7441 124.605ZM68.877 132L66.3223 124.605L66.2109 123.469H67.2012L70.4238 132H68.877ZM68.7539 128.836V130.002H64.1133V128.836H68.7539ZM73.9629 128.531V128.631C73.9629 129.455 73.8691 130.207 73.6816 130.887C73.498 131.566 73.2578 132.164 72.9609 132.68C72.668 133.195 72.3496 133.625 72.0059 133.969C71.666 134.312 71.3398 134.561 71.0273 134.713L70.7402 133.939C70.9668 133.768 71.1914 133.531 71.4141 133.23C71.6406 132.934 71.8457 132.564 72.0293 132.123C72.2168 131.686 72.3652 131.178 72.4746 130.6C72.5879 130.021 72.6445 129.369 72.6445 128.643V128.52C72.6445 127.793 72.5859 127.141 72.4688 126.562C72.3555 125.98 72.2031 125.473 72.0117 125.039C71.8203 124.602 71.6133 124.232 71.3906 123.932C71.168 123.631 70.9512 123.396 70.7402 123.229L71.0273 122.455C71.3398 122.604 71.666 122.85 72.0059 123.193C72.3496 123.537 72.668 123.969 72.9609 124.488C73.2578 125.004 73.498 125.602 73.6816 126.281C73.8691 126.961 73.9629 127.711 73.9629 128.531Z" fill="#ADADAD"/>
<path d="M32.6699 223.5V223.969C32.6699 224.613 32.5859 225.191 32.418 225.703C32.25 226.215 32.0098 226.65 31.6973 227.01C31.3887 227.369 31.0176 227.645 30.584 227.836C30.1504 228.023 29.6699 228.117 29.1426 228.117C28.6191 228.117 28.1406 228.023 27.707 227.836C27.2773 227.645 26.9043 227.369 26.5879 227.01C26.2715 226.65 26.0254 226.215 25.8496 225.703C25.6777 225.191 25.5918 224.613 25.5918 223.969V223.5C25.5918 222.855 25.6777 222.279 25.8496 221.771C26.0215 221.26 26.2637 220.824 26.5762 220.465C26.8926 220.102 27.2656 219.826 27.6953 219.639C28.1289 219.447 28.6074 219.352 29.1309 219.352C29.6582 219.352 30.1387 219.447 30.5723 219.639C31.0059 219.826 31.3789 220.102 31.6914 220.465C32.0039 220.824 32.2441 221.26 32.4121 221.771C32.584 222.279 32.6699 222.855 32.6699 223.5ZM31.1992 223.969V223.488C31.1992 223.012 31.1523 222.592 31.0586 222.229C30.9688 221.861 30.834 221.555 30.6543 221.309C30.4785 221.059 30.2617 220.871 30.0039 220.746C29.7461 220.617 29.4551 220.553 29.1309 220.553C28.8066 220.553 28.5176 220.617 28.2637 220.746C28.0098 220.871 27.793 221.059 27.6133 221.309C27.4375 221.555 27.3027 221.861 27.209 222.229C27.1152 222.592 27.0684 223.012 27.0684 223.488V223.969C27.0684 224.445 27.1152 224.867 27.209 225.234C27.3027 225.602 27.4395 225.912 27.6191 226.166C27.8027 226.416 28.0215 226.605 28.2754 226.734C28.5293 226.859 28.8184 226.922 29.1426 226.922C29.4707 226.922 29.7617 226.859 30.0156 226.734C30.2695 226.605 30.4844 226.416 30.6602 226.166C30.8359 225.912 30.9688 225.602 31.0586 225.234C31.1523 224.867 31.1992 224.445 31.1992 223.969ZM35.418 222.879V230.438H34.0059V221.66H35.3066L35.418 222.879ZM39.5488 224.771V224.895C39.5488 225.355 39.4941 225.783 39.3848 226.178C39.2793 226.568 39.1211 226.91 38.9102 227.203C38.7031 227.492 38.4473 227.717 38.1426 227.877C37.8379 228.037 37.4863 228.117 37.0879 228.117C36.6934 228.117 36.3477 228.045 36.0508 227.9C35.7578 227.752 35.5098 227.543 35.3066 227.273C35.1035 227.004 34.9395 226.688 34.8145 226.324C34.6934 225.957 34.6074 225.555 34.5566 225.117V224.643C34.6074 224.178 34.6934 223.756 34.8145 223.377C34.9395 222.998 35.1035 222.672 35.3066 222.398C35.5098 222.125 35.7578 221.914 36.0508 221.766C36.3438 221.617 36.6855 221.543 37.0762 221.543C37.4746 221.543 37.8281 221.621 38.1367 221.777C38.4453 221.93 38.7051 222.148 38.916 222.434C39.127 222.715 39.2852 223.055 39.3906 223.453C39.4961 223.848 39.5488 224.287 39.5488 224.771ZM38.1367 224.895V224.771C38.1367 224.479 38.1094 224.207 38.0547 223.957C38 223.703 37.9141 223.48 37.7969 223.289C37.6797 223.098 37.5293 222.949 37.3457 222.844C37.166 222.734 36.9492 222.68 36.6953 222.68C36.4453 222.68 36.2305 222.723 36.0508 222.809C35.8711 222.891 35.7207 223.006 35.5996 223.154C35.4785 223.303 35.3848 223.477 35.3184 223.676C35.252 223.871 35.2051 224.084 35.1777 224.314V225.451C35.2246 225.732 35.3047 225.99 35.418 226.225C35.5312 226.459 35.6914 226.646 35.8984 226.787C36.1094 226.924 36.3789 226.992 36.707 226.992C36.9609 226.992 37.1777 226.938 37.3574 226.828C37.5371 226.719 37.6836 226.568 37.7969 226.377C37.9141 226.182 38 225.957 38.0547 225.703C38.1094 225.449 38.1367 225.18 38.1367 224.895ZM43.6562 221.66V222.691H40.082V221.66H43.6562ZM41.1133 220.107H42.5254V226.248C42.5254 226.443 42.5527 226.594 42.6074 226.699C42.666 226.801 42.7461 226.869 42.8477 226.904C42.9492 226.939 43.0684 226.957 43.2051 226.957C43.3027 226.957 43.3965 226.951 43.4863 226.939C43.5762 226.928 43.6484 226.916 43.7031 226.904L43.709 227.982C43.5918 228.018 43.4551 228.049 43.2988 228.076C43.1465 228.104 42.9707 228.117 42.7715 228.117C42.4473 228.117 42.1602 228.061 41.9102 227.947C41.6602 227.83 41.4648 227.641 41.3242 227.379C41.1836 227.117 41.1133 226.77 41.1133 226.336V220.107ZM46.2578 221.66V228H44.8398V221.66H46.2578ZM44.7461 219.996C44.7461 219.781 44.8164 219.604 44.957 219.463C45.1016 219.318 45.3008 219.246 45.5547 219.246C45.8047 219.246 46.002 219.318 46.1465 219.463C46.291 219.604 46.3633 219.781 46.3633 219.996C46.3633 220.207 46.291 220.383 46.1465 220.523C46.002 220.664 45.8047 220.734 45.5547 220.734C45.3008 220.734 45.1016 220.664 44.957 220.523C44.8164 220.383 44.7461 220.207 44.7461 219.996ZM47.5352 224.9V224.766C47.5352 224.309 47.6016 223.885 47.7344 223.494C47.8672 223.1 48.0586 222.758 48.3086 222.469C48.5625 222.176 48.8711 221.949 49.2344 221.789C49.6016 221.625 50.0156 221.543 50.4766 221.543C50.9414 221.543 51.3555 221.625 51.7188 221.789C52.0859 221.949 52.3965 222.176 52.6504 222.469C52.9043 222.758 53.0977 223.1 53.2305 223.494C53.3633 223.885 53.4297 224.309 53.4297 224.766V224.9C53.4297 225.357 53.3633 225.781 53.2305 226.172C53.0977 226.562 52.9043 226.904 52.6504 227.197C52.3965 227.486 52.0879 227.713 51.7246 227.877C51.3613 228.037 50.9492 228.117 50.4883 228.117C50.0234 228.117 49.6074 228.037 49.2402 227.877C48.877 227.713 48.5684 227.486 48.3145 227.197C48.0605 226.904 47.8672 226.562 47.7344 226.172C47.6016 225.781 47.5352 225.357 47.5352 224.9ZM48.9473 224.766V224.9C48.9473 225.186 48.9766 225.455 49.0352 225.709C49.0938 225.963 49.1855 226.186 49.3105 226.377C49.4355 226.568 49.5957 226.719 49.791 226.828C49.9863 226.938 50.2188 226.992 50.4883 226.992C50.75 226.992 50.9766 226.938 51.168 226.828C51.3633 226.719 51.5234 226.568 51.6484 226.377C51.7734 226.186 51.8652 225.963 51.9238 225.709C51.9863 225.455 52.0176 225.186 52.0176 224.9V224.766C52.0176 224.484 51.9863 224.219 51.9238 223.969C51.8652 223.715 51.7715 223.49 51.6426 223.295C51.5176 223.1 51.3574 222.947 51.1621 222.838C50.9707 222.725 50.7422 222.668 50.4766 222.668C50.2109 222.668 49.9805 222.725 49.7852 222.838C49.5938 222.947 49.4355 223.1 49.3105 223.295C49.1855 223.49 49.0938 223.715 49.0352 223.969C48.9766 224.219 48.9473 224.484 48.9473 224.766ZM56.0137 223.014V228H54.6016V221.66H55.9316L56.0137 223.014ZM55.7617 224.596L55.3047 224.59C55.3086 224.141 55.3711 223.729 55.4922 223.354C55.6172 222.979 55.7891 222.656 56.0078 222.387C56.2305 222.117 56.4961 221.91 56.8047 221.766C57.1133 221.617 57.457 221.543 57.8359 221.543C58.1406 221.543 58.416 221.586 58.6621 221.672C58.9121 221.754 59.125 221.889 59.3008 222.076C59.4805 222.264 59.6172 222.508 59.7109 222.809C59.8047 223.105 59.8516 223.471 59.8516 223.904V228H58.4336V223.898C58.4336 223.594 58.3887 223.354 58.2988 223.178C58.2129 222.998 58.0859 222.871 57.918 222.797C57.7539 222.719 57.5488 222.68 57.3027 222.68C57.0605 222.68 56.8438 222.73 56.6523 222.832C56.4609 222.934 56.2988 223.072 56.166 223.248C56.0371 223.424 55.9375 223.627 55.8672 223.857C55.7969 224.088 55.7617 224.334 55.7617 224.596ZM69.4609 225.223H70.9258C70.8789 225.781 70.7227 226.279 70.457 226.717C70.1914 227.15 69.8184 227.492 69.3379 227.742C68.8574 227.992 68.2734 228.117 67.5859 228.117C67.0586 228.117 66.584 228.023 66.1621 227.836C65.7402 227.645 65.3789 227.375 65.0781 227.027C64.7773 226.676 64.5469 226.252 64.3867 225.756C64.2305 225.26 64.1523 224.705 64.1523 224.092V223.383C64.1523 222.77 64.2324 222.215 64.3926 221.719C64.5566 221.223 64.791 220.799 65.0957 220.447C65.4004 220.092 65.7656 219.82 66.1914 219.633C66.6211 219.445 67.1035 219.352 67.6387 219.352C68.3184 219.352 68.8926 219.477 69.3613 219.727C69.8301 219.977 70.1934 220.322 70.4512 220.764C70.7129 221.205 70.873 221.711 70.9316 222.281H69.4668C69.4277 221.914 69.3418 221.6 69.209 221.338C69.0801 221.076 68.8887 220.877 68.6348 220.74C68.3809 220.6 68.0488 220.529 67.6387 220.529C67.3027 220.529 67.0098 220.592 66.7598 220.717C66.5098 220.842 66.3008 221.025 66.1328 221.268C65.9648 221.51 65.8379 221.809 65.752 222.164C65.6699 222.516 65.6289 222.918 65.6289 223.371V224.092C65.6289 224.521 65.666 224.912 65.7402 225.264C65.8184 225.611 65.9355 225.91 66.0918 226.16C66.252 226.41 66.4551 226.604 66.7012 226.74C66.9473 226.877 67.2422 226.945 67.5859 226.945C68.0039 226.945 68.3418 226.879 68.5996 226.746C68.8613 226.613 69.0586 226.42 69.1914 226.166C69.3281 225.908 69.418 225.594 69.4609 225.223ZM74.6934 224.531V224.631C74.6934 225.455 74.5996 226.207 74.4121 226.887C74.2285 227.566 73.9883 228.164 73.6914 228.68C73.3984 229.195 73.0801 229.625 72.7363 229.969C72.3965 230.312 72.0703 230.561 71.7578 230.713L71.4707 229.939C71.6973 229.768 71.9219 229.531 72.1445 229.23C72.3711 228.934 72.5762 228.564 72.7598 228.123C72.9473 227.686 73.0957 227.178 73.2051 226.6C73.3184 226.021 73.375 225.369 73.375 224.643V224.52C73.375 223.793 73.3164 223.141 73.1992 222.562C73.0859 221.98 72.9336 221.473 72.7422 221.039C72.5508 220.602 72.3438 220.232 72.1211 219.932C71.8984 219.631 71.6816 219.396 71.4707 219.229L71.7578 218.455C72.0703 218.604 72.3965 218.85 72.7363 219.193C73.0801 219.537 73.3984 219.969 73.6914 220.488C73.9883 221.004 74.2285 221.602 74.4121 222.281C74.5996 222.961 74.6934 223.711 74.6934 224.531Z" fill="#ADADAD"/>
<path d="M32.6699 270.5V270.969C32.6699 271.613 32.5859 272.191 32.418 272.703C32.25 273.215 32.0098 273.65 31.6973 274.01C31.3887 274.369 31.0176 274.645 30.584 274.836C30.1504 275.023 29.6699 275.117 29.1426 275.117C28.6191 275.117 28.1406 275.023 27.707 274.836C27.2773 274.645 26.9043 274.369 26.5879 274.01C26.2715 273.65 26.0254 273.215 25.8496 272.703C25.6777 272.191 25.5918 271.613 25.5918 270.969V270.5C25.5918 269.855 25.6777 269.279 25.8496 268.771C26.0215 268.26 26.2637 267.824 26.5762 267.465C26.8926 267.102 27.2656 266.826 27.6953 266.639C28.1289 266.447 28.6074 266.352 29.1309 266.352C29.6582 266.352 30.1387 266.447 30.5723 266.639C31.0059 266.826 31.3789 267.102 31.6914 267.465C32.0039 267.824 32.2441 268.26 32.4121 268.771C32.584 269.279 32.6699 269.855 32.6699 270.5ZM31.1992 270.969V270.488C31.1992 270.012 31.1523 269.592 31.0586 269.229C30.9688 268.861 30.834 268.555 30.6543 268.309C30.4785 268.059 30.2617 267.871 30.0039 267.746C29.7461 267.617 29.4551 267.553 29.1309 267.553C28.8066 267.553 28.5176 267.617 28.2637 267.746C28.0098 267.871 27.793 268.059 27.6133 268.309C27.4375 268.555 27.3027 268.861 27.209 269.229C27.1152 269.592 27.0684 270.012 27.0684 270.488V270.969C27.0684 271.445 27.1152 271.867 27.209 272.234C27.3027 272.602 27.4395 272.912 27.6191 273.166C27.8027 273.416 28.0215 273.605 28.2754 273.734C28.5293 273.859 28.8184 273.922 29.1426 273.922C29.4707 273.922 29.7617 273.859 30.0156 273.734C30.2695 273.605 30.4844 273.416 30.6602 273.166C30.8359 272.912 30.9688 272.602 31.0586 272.234C31.1523 271.867 31.1992 271.445 31.1992 270.969ZM35.418 269.879V277.438H34.0059V268.66H35.3066L35.418 269.879ZM39.5488 271.771V271.895C39.5488 272.355 39.4941 272.783 39.3848 273.178C39.2793 273.568 39.1211 273.91 38.9102 274.203C38.7031 274.492 38.4473 274.717 38.1426 274.877C37.8379 275.037 37.4863 275.117 37.0879 275.117C36.6934 275.117 36.3477 275.045 36.0508 274.9C35.7578 274.752 35.5098 274.543 35.3066 274.273C35.1035 274.004 34.9395 273.688 34.8145 273.324C34.6934 272.957 34.6074 272.555 34.5566 272.117V271.643C34.6074 271.178 34.6934 270.756 34.8145 270.377C34.9395 269.998 35.1035 269.672 35.3066 269.398C35.5098 269.125 35.7578 268.914 36.0508 268.766C36.3438 268.617 36.6855 268.543 37.0762 268.543C37.4746 268.543 37.8281 268.621 38.1367 268.777C38.4453 268.93 38.7051 269.148 38.916 269.434C39.127 269.715 39.2852 270.055 39.3906 270.453C39.4961 270.848 39.5488 271.287 39.5488 271.771ZM38.1367 271.895V271.771C38.1367 271.479 38.1094 271.207 38.0547 270.957C38 270.703 37.9141 270.48 37.7969 270.289C37.6797 270.098 37.5293 269.949 37.3457 269.844C37.166 269.734 36.9492 269.68 36.6953 269.68C36.4453 269.68 36.2305 269.723 36.0508 269.809C35.8711 269.891 35.7207 270.006 35.5996 270.154C35.4785 270.303 35.3848 270.477 35.3184 270.676C35.252 270.871 35.2051 271.084 35.1777 271.314V272.451C35.2246 272.732 35.3047 272.99 35.418 273.225C35.5312 273.459 35.6914 273.646 35.8984 273.787C36.1094 273.924 36.3789 273.992 36.707 273.992C36.9609 273.992 37.1777 273.938 37.3574 273.828C37.5371 273.719 37.6836 273.568 37.7969 273.377C37.9141 273.182 38 272.957 38.0547 272.703C38.1094 272.449 38.1367 272.18 38.1367 271.895ZM43.6562 268.66V269.691H40.082V268.66H43.6562ZM41.1133 267.107H42.5254V273.248C42.5254 273.443 42.5527 273.594 42.6074 273.699C42.666 273.801 42.7461 273.869 42.8477 273.904C42.9492 273.939 43.0684 273.957 43.2051 273.957C43.3027 273.957 43.3965 273.951 43.4863 273.939C43.5762 273.928 43.6484 273.916 43.7031 273.904L43.709 274.982C43.5918 275.018 43.4551 275.049 43.2988 275.076C43.1465 275.104 42.9707 275.117 42.7715 275.117C42.4473 275.117 42.1602 275.061 41.9102 274.947C41.6602 274.83 41.4648 274.641 41.3242 274.379C41.1836 274.117 41.1133 273.77 41.1133 273.336V267.107ZM46.2578 268.66V275H44.8398V268.66H46.2578ZM44.7461 266.996C44.7461 266.781 44.8164 266.604 44.957 266.463C45.1016 266.318 45.3008 266.246 45.5547 266.246C45.8047 266.246 46.002 266.318 46.1465 266.463C46.291 266.604 46.3633 266.781 46.3633 266.996C46.3633 267.207 46.291 267.383 46.1465 267.523C46.002 267.664 45.8047 267.734 45.5547 267.734C45.3008 267.734 45.1016 267.664 44.957 267.523C44.8164 267.383 44.7461 267.207 44.7461 266.996ZM47.5352 271.9V271.766C47.5352 271.309 47.6016 270.885 47.7344 270.494C47.8672 270.1 48.0586 269.758 48.3086 269.469C48.5625 269.176 48.8711 268.949 49.2344 268.789C49.6016 268.625 50.0156 268.543 50.4766 268.543C50.9414 268.543 51.3555 268.625 51.7188 268.789C52.0859 268.949 52.3965 269.176 52.6504 269.469C52.9043 269.758 53.0977 270.1 53.2305 270.494C53.3633 270.885 53.4297 271.309 53.4297 271.766V271.9C53.4297 272.357 53.3633 272.781 53.2305 273.172C53.0977 273.562 52.9043 273.904 52.6504 274.197C52.3965 274.486 52.0879 274.713 51.7246 274.877C51.3613 275.037 50.9492 275.117 50.4883 275.117C50.0234 275.117 49.6074 275.037 49.2402 274.877C48.877 274.713 48.5684 274.486 48.3145 274.197C48.0605 273.904 47.8672 273.562 47.7344 273.172C47.6016 272.781 47.5352 272.357 47.5352 271.9ZM48.9473 271.766V271.9C48.9473 272.186 48.9766 272.455 49.0352 272.709C49.0938 272.963 49.1855 273.186 49.3105 273.377C49.4355 273.568 49.5957 273.719 49.791 273.828C49.9863 273.938 50.2188 273.992 50.4883 273.992C50.75 273.992 50.9766 273.938 51.168 273.828C51.3633 273.719 51.5234 273.568 51.6484 273.377C51.7734 273.186 51.8652 272.963 51.9238 272.709C51.9863 272.455 52.0176 272.186 52.0176 271.9V271.766C52.0176 271.484 51.9863 271.219 51.9238 270.969C51.8652 270.715 51.7715 270.49 51.6426 270.295C51.5176 270.1 51.3574 269.947 51.1621 269.838C50.9707 269.725 50.7422 269.668 50.4766 269.668C50.2109 269.668 49.9805 269.725 49.7852 269.838C49.5938 269.947 49.4355 270.1 49.3105 270.295C49.1855 270.49 49.0938 270.715 49.0352 270.969C48.9766 271.219 48.9473 271.484 48.9473 271.766ZM56.0137 270.014V275H54.6016V268.66H55.9316L56.0137 270.014ZM55.7617 271.596L55.3047 271.59C55.3086 271.141 55.3711 270.729 55.4922 270.354C55.6172 269.979 55.7891 269.656 56.0078 269.387C56.2305 269.117 56.4961 268.91 56.8047 268.766C57.1133 268.617 57.457 268.543 57.8359 268.543C58.1406 268.543 58.416 268.586 58.6621 268.672C58.9121 268.754 59.125 268.889 59.3008 269.076C59.4805 269.264 59.6172 269.508 59.7109 269.809C59.8047 270.105 59.8516 270.471 59.8516 270.904V275H58.4336V270.898C58.4336 270.594 58.3887 270.354 58.2988 270.178C58.2129 269.998 58.0859 269.871 57.918 269.797C57.7539 269.719 57.5488 269.68 57.3027 269.68C57.0605 269.68 56.8438 269.73 56.6523 269.832C56.4609 269.934 56.2988 270.072 56.166 270.248C56.0371 270.424 55.9375 270.627 55.8672 270.857C55.7969 271.088 55.7617 271.334 55.7617 271.596ZM66.9004 275H65.0781L65.0898 273.834H66.9004C67.4277 273.834 67.8691 273.719 68.2246 273.488C68.584 273.258 68.8535 272.928 69.0332 272.498C69.2168 272.068 69.3086 271.557 69.3086 270.963V270.5C69.3086 270.039 69.2559 269.631 69.1504 269.275C69.0488 268.92 68.8965 268.621 68.6934 268.379C68.4941 268.137 68.248 267.953 67.9551 267.828C67.666 267.703 67.332 267.641 66.9531 267.641H65.043V266.469H66.9531C67.5195 266.469 68.0371 266.564 68.5059 266.756C68.9746 266.943 69.3789 267.215 69.7188 267.57C70.0625 267.926 70.3262 268.352 70.5098 268.848C70.6934 269.344 70.7852 269.898 70.7852 270.512V270.963C70.7852 271.576 70.6934 272.131 70.5098 272.627C70.3262 273.123 70.0625 273.549 69.7188 273.904C69.375 274.256 68.9648 274.527 68.4883 274.719C68.0156 274.906 67.4863 275 66.9004 275ZM65.8926 266.469V275H64.4219V266.469H65.8926ZM74.8457 271.531V271.631C74.8457 272.455 74.752 273.207 74.5645 273.887C74.3809 274.566 74.1406 275.164 73.8438 275.68C73.5508 276.195 73.2324 276.625 72.8887 276.969C72.5488 277.312 72.2227 277.561 71.9102 277.713L71.623 276.939C71.8496 276.768 72.0742 276.531 72.2969 276.23C72.5234 275.934 72.7285 275.564 72.9121 275.123C73.0996 274.686 73.248 274.178 73.3574 273.6C73.4707 273.021 73.5273 272.369 73.5273 271.643V271.52C73.5273 270.793 73.4688 270.141 73.3516 269.562C73.2383 268.98 73.0859 268.473 72.8945 268.039C72.7031 267.602 72.4961 267.232 72.2734 266.932C72.0508 266.631 71.834 266.396 71.623 266.229L71.9102 265.455C72.2227 265.604 72.5488 265.85 72.8887 266.193C73.2324 266.537 73.5508 266.969 73.8438 267.488C74.1406 268.004 74.3809 268.602 74.5645 269.281C74.752 269.961 74.8457 270.711 74.8457 271.531Z" fill="#ADADAD"/>
<rect x="15.5" y="110.5" width="193" height="34" rx="5.5" stroke="#79747E"/>
<rect x="15.5" y="110.5" width="193" height="34" rx="5.5" stroke="#C0B8C9"/>
<g filter="url(#filter0_d_2063_2657)">
<rect x="22" y="156" width="192" height="39" rx="6" fill="#E9FAEA"/>
<rect x="22.5" y="156.5" width="191" height="38" rx="5.5" stroke="#319036"/>
</g>
<rect x="15.5" y="206.5" width="193" height="34" rx="5.5" stroke="#C0B8C9"/>
<rect x="15.5" y="253.5" width="193" height="34" rx="5.5" stroke="#C0B8C9"/>
<circle cx="25" cy="161" r="10" fill="#2B7331"/>
<path d="M22.3959 163.672L20.1177 161.394C19.8617 161.138 19.4481 161.138 19.192 161.394C18.936 161.65 18.936 162.063 19.192 162.319L21.9363 165.064C22.1923 165.32 22.6059 165.32 22.862 165.064L29.808 158.118C30.064 157.862 30.064 157.448 29.808 157.192C29.5519 156.936 29.1383 156.936 28.8823 157.192L22.3959 163.672Z" fill="white"/>
<path d="M42.6699 175.5V175.969C42.6699 176.613 42.5859 177.191 42.418 177.703C42.25 178.215 42.0098 178.65 41.6973 179.01C41.3887 179.369 41.0176 179.645 40.584 179.836C40.1504 180.023 39.6699 180.117 39.1426 180.117C38.6191 180.117 38.1406 180.023 37.707 179.836C37.2773 179.645 36.9043 179.369 36.5879 179.01C36.2715 178.65 36.0254 178.215 35.8496 177.703C35.6777 177.191 35.5918 176.613 35.5918 175.969V175.5C35.5918 174.855 35.6777 174.279 35.8496 173.771C36.0215 173.26 36.2637 172.824 36.5762 172.465C36.8926 172.102 37.2656 171.826 37.6953 171.639C38.1289 171.447 38.6074 171.352 39.1309 171.352C39.6582 171.352 40.1387 171.447 40.5723 171.639C41.0059 171.826 41.3789 172.102 41.6914 172.465C42.0039 172.824 42.2441 173.26 42.4121 173.771C42.584 174.279 42.6699 174.855 42.6699 175.5ZM41.1992 175.969V175.488C41.1992 175.012 41.1523 174.592 41.0586 174.229C40.9688 173.861 40.834 173.555 40.6543 173.309C40.4785 173.059 40.2617 172.871 40.0039 172.746C39.7461 172.617 39.4551 172.553 39.1309 172.553C38.8066 172.553 38.5176 172.617 38.2637 172.746C38.0098 172.871 37.793 173.059 37.6133 173.309C37.4375 173.555 37.3027 173.861 37.209 174.229C37.1152 174.592 37.0684 175.012 37.0684 175.488V175.969C37.0684 176.445 37.1152 176.867 37.209 177.234C37.3027 177.602 37.4395 177.912 37.6191 178.166C37.8027 178.416 38.0215 178.605 38.2754 178.734C38.5293 178.859 38.8184 178.922 39.1426 178.922C39.4707 178.922 39.7617 178.859 40.0156 178.734C40.2695 178.605 40.4844 178.416 40.6602 178.166C40.8359 177.912 40.9688 177.602 41.0586 177.234C41.1523 176.867 41.1992 176.445 41.1992 175.969ZM45.418 174.879V182.438H44.0059V173.66H45.3066L45.418 174.879ZM49.5488 176.771V176.895C49.5488 177.355 49.4941 177.783 49.3848 178.178C49.2793 178.568 49.1211 178.91 48.9102 179.203C48.7031 179.492 48.4473 179.717 48.1426 179.877C47.8379 180.037 47.4863 180.117 47.0879 180.117C46.6934 180.117 46.3477 180.045 46.0508 179.9C45.7578 179.752 45.5098 179.543 45.3066 179.273C45.1035 179.004 44.9395 178.688 44.8145 178.324C44.6934 177.957 44.6074 177.555 44.5566 177.117V176.643C44.6074 176.178 44.6934 175.756 44.8145 175.377C44.9395 174.998 45.1035 174.672 45.3066 174.398C45.5098 174.125 45.7578 173.914 46.0508 173.766C46.3438 173.617 46.6855 173.543 47.0762 173.543C47.4746 173.543 47.8281 173.621 48.1367 173.777C48.4453 173.93 48.7051 174.148 48.916 174.434C49.127 174.715 49.2852 175.055 49.3906 175.453C49.4961 175.848 49.5488 176.287 49.5488 176.771ZM48.1367 176.895V176.771C48.1367 176.479 48.1094 176.207 48.0547 175.957C48 175.703 47.9141 175.48 47.7969 175.289C47.6797 175.098 47.5293 174.949 47.3457 174.844C47.166 174.734 46.9492 174.68 46.6953 174.68C46.4453 174.68 46.2305 174.723 46.0508 174.809C45.8711 174.891 45.7207 175.006 45.5996 175.154C45.4785 175.303 45.3848 175.477 45.3184 175.676C45.252 175.871 45.2051 176.084 45.1777 176.314V177.451C45.2246 177.732 45.3047 177.99 45.418 178.225C45.5312 178.459 45.6914 178.646 45.8984 178.787C46.1094 178.924 46.3789 178.992 46.707 178.992C46.9609 178.992 47.1777 178.938 47.3574 178.828C47.5371 178.719 47.6836 178.568 47.7969 178.377C47.9141 178.182 48 177.957 48.0547 177.703C48.1094 177.449 48.1367 177.18 48.1367 176.895ZM53.6562 173.66V174.691H50.082V173.66H53.6562ZM51.1133 172.107H52.5254V178.248C52.5254 178.443 52.5527 178.594 52.6074 178.699C52.666 178.801 52.7461 178.869 52.8477 178.904C52.9492 178.939 53.0684 178.957 53.2051 178.957C53.3027 178.957 53.3965 178.951 53.4863 178.939C53.5762 178.928 53.6484 178.916 53.7031 178.904L53.709 179.982C53.5918 180.018 53.4551 180.049 53.2988 180.076C53.1465 180.104 52.9707 180.117 52.7715 180.117C52.4473 180.117 52.1602 180.061 51.9102 179.947C51.6602 179.83 51.4648 179.641 51.3242 179.379C51.1836 179.117 51.1133 178.77 51.1133 178.336V172.107ZM56.2578 173.66V180H54.8398V173.66H56.2578ZM54.7461 171.996C54.7461 171.781 54.8164 171.604 54.957 171.463C55.1016 171.318 55.3008 171.246 55.5547 171.246C55.8047 171.246 56.002 171.318 56.1465 171.463C56.291 171.604 56.3633 171.781 56.3633 171.996C56.3633 172.207 56.291 172.383 56.1465 172.523C56.002 172.664 55.8047 172.734 55.5547 172.734C55.3008 172.734 55.1016 172.664 54.957 172.523C54.8164 172.383 54.7461 172.207 54.7461 171.996ZM57.5352 176.9V176.766C57.5352 176.309 57.6016 175.885 57.7344 175.494C57.8672 175.1 58.0586 174.758 58.3086 174.469C58.5625 174.176 58.8711 173.949 59.2344 173.789C59.6016 173.625 60.0156 173.543 60.4766 173.543C60.9414 173.543 61.3555 173.625 61.7188 173.789C62.0859 173.949 62.3965 174.176 62.6504 174.469C62.9043 174.758 63.0977 175.1 63.2305 175.494C63.3633 175.885 63.4297 176.309 63.4297 176.766V176.9C63.4297 177.357 63.3633 177.781 63.2305 178.172C63.0977 178.562 62.9043 178.904 62.6504 179.197C62.3965 179.486 62.0879 179.713 61.7246 179.877C61.3613 180.037 60.9492 180.117 60.4883 180.117C60.0234 180.117 59.6074 180.037 59.2402 179.877C58.877 179.713 58.5684 179.486 58.3145 179.197C58.0605 178.904 57.8672 178.562 57.7344 178.172C57.6016 177.781 57.5352 177.357 57.5352 176.9ZM58.9473 176.766V176.9C58.9473 177.186 58.9766 177.455 59.0352 177.709C59.0938 177.963 59.1855 178.186 59.3105 178.377C59.4355 178.568 59.5957 178.719 59.791 178.828C59.9863 178.938 60.2188 178.992 60.4883 178.992C60.75 178.992 60.9766 178.938 61.168 178.828C61.3633 178.719 61.5234 178.568 61.6484 178.377C61.7734 178.186 61.8652 177.963 61.9238 177.709C61.9863 177.455 62.0176 177.186 62.0176 176.9V176.766C62.0176 176.484 61.9863 176.219 61.9238 175.969C61.8652 175.715 61.7715 175.49 61.6426 175.295C61.5176 175.1 61.3574 174.947 61.1621 174.838C60.9707 174.725 60.7422 174.668 60.4766 174.668C60.2109 174.668 59.9805 174.725 59.7852 174.838C59.5938 174.947 59.4355 175.1 59.3105 175.295C59.1855 175.49 59.0938 175.715 59.0352 175.969C58.9766 176.219 58.9473 176.484 58.9473 176.766ZM66.0137 175.014V180H64.6016V173.66H65.9316L66.0137 175.014ZM65.7617 176.596L65.3047 176.59C65.3086 176.141 65.3711 175.729 65.4922 175.354C65.6172 174.979 65.7891 174.656 66.0078 174.387C66.2305 174.117 66.4961 173.91 66.8047 173.766C67.1133 173.617 67.457 173.543 67.8359 173.543C68.1406 173.543 68.416 173.586 68.6621 173.672C68.9121 173.754 69.125 173.889 69.3008 174.076C69.4805 174.264 69.6172 174.508 69.7109 174.809C69.8047 175.105 69.8516 175.471 69.8516 175.904V180H68.4336V175.898C68.4336 175.594 68.3887 175.354 68.2988 175.178C68.2129 174.998 68.0859 174.871 67.918 174.797C67.7539 174.719 67.5488 174.68 67.3027 174.68C67.0605 174.68 66.8438 174.73 66.6523 174.832C66.4609 174.934 66.2988 175.072 66.166 175.248C66.0371 175.424 65.9375 175.627 65.8672 175.857C65.7969 176.088 65.7617 176.334 65.7617 176.596ZM77.6211 176.145H75.4473L75.4355 175.072H77.334C77.6543 175.072 77.9258 175.025 78.1484 174.932C78.375 174.834 78.5469 174.695 78.6641 174.516C78.7812 174.332 78.8398 174.111 78.8398 173.854C78.8398 173.568 78.7852 173.336 78.6758 173.156C78.5664 172.977 78.3984 172.846 78.1719 172.764C77.9492 172.682 77.6641 172.641 77.3164 172.641H75.8926V180H74.4219V171.469H77.3164C77.7852 171.469 78.2031 171.514 78.5703 171.604C78.9414 171.693 79.2559 171.834 79.5137 172.025C79.7754 172.213 79.9727 172.451 80.1055 172.74C80.2422 173.029 80.3105 173.373 80.3105 173.771C80.3105 174.123 80.2266 174.445 80.0586 174.738C79.8906 175.027 79.6426 175.264 79.3145 175.447C78.9863 175.631 78.5781 175.74 78.0898 175.775L77.6211 176.145ZM77.5566 180H74.9844L75.6465 178.834H77.5566C77.8887 178.834 78.166 178.779 78.3887 178.67C78.6113 178.557 78.7773 178.402 78.8867 178.207C79 178.008 79.0566 177.775 79.0566 177.51C79.0566 177.232 79.0078 176.992 78.9102 176.789C78.8125 176.582 78.6582 176.424 78.4473 176.314C78.2363 176.201 77.9609 176.145 77.6211 176.145H75.9688L75.9805 175.072H78.1309L78.4648 175.477C78.9336 175.492 79.3184 175.596 79.6191 175.787C79.9238 175.979 80.1504 176.227 80.2988 176.531C80.4473 176.836 80.5215 177.164 80.5215 177.516C80.5215 178.059 80.4023 178.514 80.1641 178.881C79.9297 179.248 79.5918 179.527 79.1504 179.719C78.709 179.906 78.1777 180 77.5566 180ZM84.5879 176.531V176.631C84.5879 177.455 84.4941 178.207 84.3066 178.887C84.123 179.566 83.8828 180.164 83.5859 180.68C83.293 181.195 82.9746 181.625 82.6309 181.969C82.291 182.312 81.9648 182.561 81.6523 182.713L81.3652 181.939C81.5918 181.768 81.8164 181.531 82.0391 181.23C82.2656 180.934 82.4707 180.564 82.6543 180.123C82.8418 179.686 82.9902 179.178 83.0996 178.6C83.2129 178.021 83.2695 177.369 83.2695 176.643V176.52C83.2695 175.793 83.2109 175.141 83.0938 174.562C82.9805 173.98 82.8281 173.473 82.6367 173.039C82.4453 172.602 82.2383 172.232 82.0156 171.932C81.793 171.631 81.5762 171.396 81.3652 171.229L81.6523 170.455C81.9648 170.604 82.291 170.85 82.6309 171.193C82.9746 171.537 83.293 171.969 83.5859 172.488C83.8828 173.004 84.123 173.602 84.3066 174.281C84.4941 174.961 84.5879 175.711 84.5879 176.531Z" fill="#319036"/>
<defs>
<filter id="filter0_d_2063_2657" x="18" y="156" width="200" height="47" filterUnits="userSpaceOnUse" color-interpolation-filters="sRGB">
<feFlood flood-opacity="0" result="BackgroundImageFix"/>
<feColorMatrix in="SourceAlpha" type="matrix" values="0 0 0 0 0 0 0 0 0 0 0 0 0 0 0 0 0 0 127 0" result="hardAlpha"/>
<feOffset dy="4"/>
<feGaussianBlur stdDeviation="2"/>
<feComposite in2="hardAlpha" operator="out"/>
<feColorMatrix type="matrix" values="0 0 0 0 0.913725 0 0 0 0 0.980392 0 0 0 0 0.917647 0 0 0 0.8 0"/>
<feBlend mode="normal" in2="BackgroundImageFix" result="effect1_dropShadow_2063_2657"/>
<feBlend mode="normal" in="SourceGraphic" in2="effect1_dropShadow_2063_2657" result="shape"/>
</filter>
</defs>
</svg>
