<svg width="173" height="173" viewBox="0 0 173 173" fill="none" xmlns="http://www.w3.org/2000/svg">
<rect x="136.685" y="82.1292" width="22.6966" height="9.07865" fill="#78909C"/>
<rect x="14.1236" y="82.1292" width="22.6966" height="9.07865" fill="#78909C"/>
<rect x="82.2135" y="159.298" width="22.6966" height="9.07865" transform="rotate(-90 82.2135 159.298)" fill="#78909C"/>
<path fill-rule="evenodd" clip-rule="evenodd" d="M86.7528 172.916C134.386 172.916 173 134.302 173 86.6685C173 39.0355 134.386 0.421356 86.7528 0.421356C39.1198 0.421356 0.505615 39.0355 0.505615 86.6685C0.505615 134.302 39.1198 172.916 86.7528 172.916ZM86.7528 154.758C124.358 154.758 154.843 124.274 154.843 86.6685C154.843 49.0635 124.358 18.5787 86.7528 18.5787C49.1478 18.5787 18.6629 49.0635 18.6629 86.6685C18.6629 124.274 49.1478 154.758 86.7528 154.758Z" fill="#00ACC1"/>
<rect x="82.2135" y="32.1966" width="9.07865" height="45.3933" fill="black"/>
<rect x="91.2921" y="97.4247" width="9.07865" height="24.7271" transform="rotate(-43.2179 91.2921 97.4247)" fill="black"/>
<circle cx="86.7528" cy="86.6685" r="13.618" fill="black"/>
<circle cx="86.7528" cy="86.6685" r="4.53933" fill="#00ACC1"/>
</svg>
